<svg version="1.1" id="Layer_1" xmlns="http://www.w3.org/2000/svg" xmlns:xlink="http://www.w3.org/1999/xlink" x="0px" y="0px"
	 viewBox="0 0 595.3 841.9" enable-background="new 0 0 595.3 841.9" xml:space="preserve">
<g>
	<defs>
		<polygon id="SVGID_5_" points="13.1,9.4 16.5,9.4 13.1,12.9 		"/>
	</defs>
	<defs>
		<polygon id="SVGID_6_" points="6.1,2.5 2.6,2.5 6.1,-1 		"/>
	</defs>
	<clipPath id="SVGID_1_">
		<use xlink:href="#SVGID_5_"  overflow="visible"/>
	</clipPath>
	<clipPath id="SVGID_2_" clip-path="url(#SVGID_1_)">
		<use xlink:href="#SVGID_6_"  overflow="visible"/>
	</clipPath>
</g>
<image id="background_image" xlink:href="" x="0" y="0" filter=""/>
<rect id="svg_x5F_background" x="-0.3" y="-0.7" fill="#FFFFFF" width="595.6" height="842.6"/>
<text transform="matrix(0.9151 0 0 1 41.4308 67.14)" fill="#010101">
	<tspan x="0" y="0" font-family="'Futura-Medium'" font-size="13.0825">Evangelische Kulturwerkstatt Berlin</tspan>
	<tspan x="0" y="18" font-family="'Futura-Medium'" font-size="13.0825">Auguststrasse 90</tspan>
	<tspan x="0" y="36" font-family="'Futura-Medium'" font-size="13.0825">10117 Berlin</tspan>
</text>
<text transform="matrix(0.9151 0 0 1 41.4308 188.3568)" fill="#818181">
	<tspan x="0" y="0" font-family="'Futura-Medium'" font-size="8.7215">Evangelische Kulturwerkstatt Berlin - Auguststrasse 90 - 10117 Berlin</tspan>
</text>
<text transform="matrix(0.9151 0 0 1 41.4308 212.2435)" fill="#010101"> 
	<tspan x="0" y="0" font-family="'Futura-Medium'" font-size="13.0825">Empfaenger Firma</tspan>
	<tspan x="0" y="18" font-family="'Futura-Medium'" font-size="13.0825">Vorname Nachname</tspan>
	<tspan x="0" y="36" font-family="'Futura-Medium'" font-size="13.0825">Strasse</tspan>
	<tspan x="0" y="54" font-family="'Futura-Medium'" font-size="13.0825">PLZ Ort</tspan>
</text>
<text transform="matrix(0.9151 0 0 1 494.7942 343.8822)" fill="#010101">
	<tspan x="0" y="0" font-family="'Futura-Medium'" font-size="13.0825">Ort, Datum</tspan>
</text>

<text transform="matrix(0.9151 0 0 1 41.4308 375.7318)" fill="#010101">
	<tspan x="0" y="0" font-family="'Futura-Medium'" font-size="13.0825">Betreff</tspan>
</text>

<text transform="matrix(0.9151 0 0 1 41.4308 413.9135)" fill="#010101">
	<tspan x="0" y="0" font-family="'Futura-Medium'" font-size="13.0825">Sehr geehrte Damen und Herren,</tspan>
	<tspan x="0" y="18" font-family="'Futura-Medium'" font-size="13.0825">Lorem ipsum dolor sit amet, consetetur sadipscing elitr, sed diam nonumy eirmod tempor</tspan>
	<tspan x="0" y="36" font-family="'Futura-Medium'" font-size="13.0825">invidunt ut labore et dolore magna aliquyam erat, sed diam voluptua. At vero eos et accusam et</tspan>
	<tspan x="0" y="54" font-family="'Futura-Medium'" font-size="13.0825">justo duo dolores et ea rebum. Stet clita kasd gubergren, no sea takimata sanctus est Lorem</tspan>
	<tspan x="0" y="70" font-family="'Futura-Medium'" font-size="13.0825">ipsum dolor sit amet. Lorem ipsum dolor sit amet, consetetur sadipscing elitr, sed diam nonumy</tspan>
	<tspan x="0" y="88" font-family="'Futura-Medium'" font-size="13.0825">eirmod tempor invidunt ut labore et dolore magna aliquyam erat, sed diam voluptua. At vero</tspan>
	<tspan x="0" y="106" font-family="'Futura-Medium'" font-size="13.0825">eos et accusam et justo duo dolores et ea rebum. Stet clita kasd gubergren, no sea takimata</tspan>
	<tspan x="0" y="124" font-family="'Futura-Medium'" font-size="13.0825">sanctus est Lorem ipsum dolor sit amet.</tspan>
	<tspan x="0" y="142" font-family="'Futura-Medium'" font-size="13.0825"></tspan>
	<tspan x="0" y="160" font-family="'Futura-Medium'" font-size="13.0825">Mit freundlichen Gruessen,</tspan>
	<tspan x="0" y="178" font-family="'Futura-Medium'" font-size="13.0825"></tspan>
	<tspan x="0" y="196" font-family="'Futura-Medium'" font-size="13.0825">Unterschrift</tspan>
	<tspan x="0" y="214" font-family="'Futura-Medium'" font-size="13.0825">Vorname Nachname</tspan>
</text>
<g>
	<polygon fill="#FFFFFF" points="398.3,128.1 474.1,43.1 549.9,128.1 549.9,134 398.3,134 	"/>
	<polygon fill="#CEE6CE" points="390.8,141.6 390.8,125.3 474.1,31.7 557.5,125.3 557.5,141.6 	"/>
	<polygon fill="#A1C5E8" points="398.3,128.1 474.1,43.1 549.9,128.1 549.9,134 398.3,134 	"/>
</g>
<path fill="#FFCF1D" d="M447,112.1l0.4-1.6c0-2.5,2.8-4.6,5.3-4.6c2.5,0,5.7,2,5.7,4.6v-1.3c0-5.3-5.1-9.5-11.4-9.5
	c-6.3,0-11.4,4.2-11.4,9.5v1.3c0-2.5,3.2-4.6,5.7-4.6c2.5,0,5.3,2,5.3,4.6L447,112.1z"/>
<path fill="#832A8A" d="M440.2,109.8c-2.5,0-4.5,2-4.5,4.6v11h9.1v-11C444.7,111.9,442.7,109.8,440.2,109.8z"/>
<path fill="#832A8A" d="M453.8,109.8c-2.5,0-4.5,2-4.5,4.6v11h9.1v-11C458.4,111.9,456.3,109.8,453.8,109.8z"/>
<path fill="#7DC243" d="M449.3,114.4c0-2.5,2-4.6,4.5-4.6s4.5,2,4.5,4.6v-3.8c0-2.5-3.2-4.6-5.7-4.6c-2.5,0-5.3,2-5.3,4.6l-0.4,1.6
	l-0.4-1.6c0-2.5-2.8-4.6-5.3-4.6c-2.5,0-5.7,2-5.7,4.6v3.8c0-2.5,2-4.6,4.5-4.6c2.5,0,4.5,2,4.5,4.6H449.3z"/>
<rect x="435.6" y="125.4" fill="#FFD25B" width="22.7" height="4.7"/>
<rect x="444.7" y="114.4" fill="#5ABDEC" width="4.5" height="11"/>
<circle fill="#766DB1" cx="474.1" cy="84.3" r="11.4"/>
<circle fill="#FAA544" cx="474.1" cy="84.3" r="9.9"/>
<line fill="none" x1="398.4" y1="132.1" x2="408.2" y2="132.1"/>
<line fill="none" x1="540.1" y1="132.1" x2="549.9" y2="132.1"/>
<path fill="#FFFFFF" d="M546,52.6"/>
<path fill="#FFFFFF" d="M538.4,52.6"/>
<path fill="#FFFFFF" d="M542.2,58.6"/>
<path fill="#FFFFFF" d="M542.2,48"/>
<g>
	<path fill="#6B60AA" d="M474.2,43.3l-75.8,85.1l0,4h9.7v-6.1c0-2.5,1.7-4.5,3.9-4.5c1.7,0,3.1,1.3,3.7,3.1h0.2v0h1.1v-9.1
		c0-2.5,1.7-4.5,3.9-4.5c1.9,0,3.4,1.5,3.8,3.5l0,0c0,0,0,0,0.1,0v-0.1h1.1v-9.1c0-2.5,1.7-4.5,3.9-4.5c1.9,0,3.4,1.6,3.8,3.6
		c0,0,0.1,0,0.1,0v-0.1h1.1v-9.1c0-2.5,1.7-4.5,3.9-4.5c1.9,0,3.4,1.6,3.8,3.6c0,0,0.1,0,0.1,0v-0.1h1.1v-9.1c0-2.5,1.7-4.5,3.9-4.5
		c1.8,0,3.4,1.5,3.8,3.5c0,0,0.1,0,0.1,0v0h1.1v-9.1c0-2.5,1.7-4.5,3.9-4.5c1.9,0,3.4,1.5,3.8,3.6c0,0,0.1,0,0.1,0V74h1.1v-9.1
		c0-2.5,1.7-4.5,3.9-4.5c1.9,0,3.4,1.5,3.8,3.5c0,0,0,0,0.1,0c0,0,0,0,0,0v-0.1h1.1v-9.1c0-2.5,1.7-4.5,3.9-4.5c2.2,0,3.9,2,3.9,4.5
		v9.1h1.1v0.1c0,0,0.1,0,0.1,0c0.4-2,1.9-3.6,3.8-3.6c2.2,0,3.9,2,3.9,4.5V74h1.1v0.1c0,0,0.1,0,0.1,0c0.4-2,1.9-3.6,3.8-3.6
		c2.2,0,3.9,2,3.9,4.5v9.1h1.1v0c0,0,0.1,0,0.1,0l0,0c0.4-2,1.9-3.5,3.8-3.5c2.2,0,3.9,2,3.9,4.5v9.1h1.1v0.1h0c0,0,0,0,0,0
		c0.4-2,1.9-3.6,3.8-3.6c2.2,0,3.9,2,3.9,4.5v9.1h1.1v0.1c0,0,0.1,0,0.1,0c0.4-2,1.9-3.6,3.8-3.6c2.2,0,3.9,2,3.9,4.5v9.1h0.9
		c0.1,0,0.2,0,0.2,0c0,0,0.1,0,0.2,0c0.4-2,1.9-3.4,3.8-3.4c2.2,0,3.9,2,3.9,4.5v9.1h1.1v0h0.2c0.5-1.8,2-3.1,3.7-3.1
		c2.2,0,3.9,2,3.9,4.5v6.1h9.7v-4L474.2,43.3z"/>
</g>
<rect x="390.8" y="143.5" fill="#5ABDEC" width="166.7" height="163"/>
<rect x="390.8" y="141.6" fill="#EE4B95" width="166.7" height="1.9"/>
<rect x="408.1" y="130" fill="#F68F53" width="132.2" height="2.1"/>
<path fill="#FFCF1D" d="M474.1,112.1l0.4-1.6c0-2.5,2.8-4.6,5.3-4.6c2.5,0,5.7,2,5.7,4.6v-1.3c0-5.3-5.1-9.5-11.4-9.5
	c-6.3,0-11.4,4.2-11.4,9.5v1.3c0-2.5,3.2-4.6,5.7-4.6c2.5,0,5.3,2,5.3,4.6L474.1,112.1z"/>
<path fill="#832A8A" d="M467.3,109.8c-2.5,0-4.5,2-4.5,4.6v11h9.1v-11C471.9,111.9,469.8,109.8,467.3,109.8z"/>
<path fill="#832A8A" d="M481,109.8c-2.5,0-4.5,2-4.5,4.6v11h9.1v-11C485.5,111.9,483.5,109.8,481,109.8z"/>
<path fill="#7DC243" d="M476.4,114.4c0-2.5,2-4.6,4.5-4.6c2.5,0,4.5,2,4.5,4.6v-3.8c0-2.5-3.2-4.6-5.7-4.6c-2.5,0-5.3,2-5.3,4.6
	l-0.4,1.6l-0.4-1.6c0-2.5-2.8-4.6-5.3-4.6c-2.5,0-5.7,2-5.7,4.6v3.8c0-2.5,2-4.6,4.5-4.6s4.5,2,4.5,4.6H476.4z"/>
<rect x="462.8" y="125.4" fill="#FFD25B" width="22.7" height="4.7"/>
<rect x="471.9" y="114.4" fill="#5ABDEC" width="4.5" height="11"/>
<path fill="#FFCF1D" d="M501.4,112.1l0.4-1.6c0-2.5,2.8-4.6,5.3-4.6s5.7,2,5.7,4.6v-1.3c0-5.3-5.1-9.5-11.4-9.5S490,104,490,109.2
	v1.3c0-2.5,3.2-4.6,5.7-4.6s5.3,2,5.3,4.6L501.4,112.1z"/>
<path fill="#832A8A" d="M494.6,109.8c-2.5,0-4.5,2-4.5,4.6v11h9.1v-11C499.1,111.9,497.1,109.8,494.6,109.8z"/>
<path fill="#832A8A" d="M508.2,109.8c-2.5,0-4.5,2-4.5,4.6v11h9.1v-11C512.8,111.9,510.7,109.8,508.2,109.8z"/>
<path fill="#7DC243" d="M503.7,114.4c0-2.5,2-4.6,4.5-4.6c2.5,0,4.5,2,4.5,4.6v-3.8c0-2.5-3.2-4.6-5.7-4.6s-5.3,2-5.3,4.6l-0.4,1.6
	l-0.4-1.6c0-2.5-2.8-4.6-5.3-4.6s-5.7,2-5.7,4.6v3.8c0-2.5,2-4.6,4.5-4.6c2.5,0,4.5,2,4.5,4.6H503.7z"/>
<rect x="490" y="125.4" fill="#FFD25B" width="22.7" height="4.7"/>
<rect x="499.1" y="114.4" fill="#5ABDEC" width="4.5" height="11"/>
<path fill="#CD4B9A" d="M489.3,111.7h-3v-2.5c0-5.6-5.5-10.3-12.1-10.3c-6.7,0-12.1,4.6-12.1,10.3v2.5h-2.9v-2.5
	c0-5.6-5.5-10.3-12.1-10.3c-6.7,0-12.1,4.6-12.1,10.3v2.4h-0.8v-2.4c0-6.1,5.8-11,12.9-11c7.1,0,12.9,5,12.9,11v1.7h1.4v-1.7
	c0-6.1,5.8-11,12.9-11c7.1,0,12.9,5,12.9,11v1.7h1.5v-1.7c0-6.1,5.8-11,12.9-11s12.9,5,12.9,11v2.4h-0.8v-2.4
	c0-5.6-5.5-10.3-12.1-10.3s-12.1,4.6-12.1,10.3L489.3,111.7L489.3,111.7z"/>
<path fill="#832A8A" d="M509.6,145.8c-1.8,0-3.2,1.4-3.2,3.3v2.3h-0.6V149c0-1.8-1.4-3.3-3.2-3.3c-1.8,0-3.2,1.4-3.2,3.3v2.3h-0.6
	V149c0-1.8-1.4-3.3-3.2-3.3s-3.2,1.4-3.2,3.3v2.3h-0.6V149c0-1.8-1.4-3.3-3.2-3.3s-3.2,1.4-3.2,3.3v2.3h-0.7V149
	c0-1.8-1.4-3.3-3.2-3.3c-1.8,0-3.2,1.4-3.2,3.3v2.3h-0.6V149c0-1.8-1.4-3.3-3.2-3.3s-3.2,1.4-3.2,3.3v2.3h-0.6V149
	c0-1.8-1.4-3.3-3.2-3.3s-3.2,1.4-3.2,3.3v2.3h-0.7V149c0-1.8-1.4-3.3-3.2-3.3s-3.2,1.4-3.2,3.3v2.3h-0.6V149c0-1.8-1.4-3.3-3.2-3.3
	s-3.2,1.4-3.2,3.3v2.3h-0.6V149c0-1.8-1.4-3.3-3.2-3.3s-3.2,1.4-3.2,3.3v2.3h-0.7V149c0-1.8-1.4-3.3-3.2-3.3s-3.2,1.4-3.2,3.3v2.3
	v5.5v71.4h77.2v-71.4v-5.5V149C512.8,147.2,511.3,145.8,509.6,145.8z"/>
<circle fill="#FFD25B" cx="474.2" cy="187" r="31.4"/>
<circle fill="#48BAEB" cx="474.2" cy="187" r="30.5"/>
<circle fill="#E57426" cx="474.2" cy="187" r="29.5"/>
<circle fill="#CF157D" cx="474.2" cy="187" r="27.9"/>
<circle fill="#D2A12A" cx="474.2" cy="187" r="8.4"/>
<circle fill="#342F81" cx="474.2" cy="187" r="7.5"/>
<circle fill="#6BBE46" cx="474.2" cy="187" r="7.2"/>
<circle fill="#D2A12A" cx="474.2" cy="167.6" r="7.9"/>
<circle fill="#D2A12A" cx="460.5" cy="173.3" r="7.9"/>
<circle fill="#D2A12A" cx="454.8" cy="187" r="7.9"/>
<circle fill="#D2A12A" cx="460.5" cy="200.7" r="7.9"/>
<circle fill="#D2A12A" cx="474.2" cy="206.4" r="7.9"/>
<circle fill="#D2A12A" cx="487.9" cy="200.6" r="7.9"/>
<circle fill="#D2A12A" cx="493.6" cy="186.9" r="7.9"/>
<circle fill="#D2A12A" cx="487.8" cy="173.2" r="7.9"/>
<circle fill="#342F81" cx="474.2" cy="167.6" r="7.1"/>
<circle fill="#6BBE46" cx="474.2" cy="167.6" r="6.8"/>
<circle fill="#342F81" cx="460.5" cy="173.3" r="7.1"/>
<circle fill="#6BBE46" cx="460.5" cy="173.3" r="6.8"/>
<circle fill="#342F81" cx="454.8" cy="187" r="7.1"/>
<circle fill="#6BBE46" cx="454.8" cy="187" r="6.8"/>
<circle fill="#342F81" cx="460.5" cy="200.7" r="7.1"/>
<circle fill="#6BBE46" cx="460.5" cy="200.7" r="6.8"/>
<circle fill="#342F81" cx="474.2" cy="206.4" r="7.1"/>
<circle fill="#6BBE46" cx="474.2" cy="206.4" r="6.8"/>
<circle fill="#342F81" cx="487.9" cy="200.6" r="7.1"/>
<circle fill="#6BBE46" cx="487.9" cy="200.6" r="6.8"/>
<circle fill="#342F81" cx="493.6" cy="186.9" r="7.1"/>
<circle fill="#6BBE46" cx="493.6" cy="186.9" r="6.8"/>
<circle fill="#342F81" cx="487.8" cy="173.2" r="7.1"/>
<circle fill="#6BBE46" cx="487.8" cy="173.2" r="6.8"/>
<circle fill="#6BBE46" cx="474.2" cy="187" r="7.2"/>
<path fill="#FCF7BE" d="M503.3,187.5v-0.9l0,0v-0.3v-0.1l0,0l0-0.9l0,0l0-0.3v-0.2l0,0l-0.1-0.9l0,0l0-0.3v-0.2l0,0l-0.1-0.9l0,0
	l0-0.2l0-0.2l0,0l-0.2-0.9l0,0l0-0.2l0-0.2l0,0l-0.2-0.9l0,0l-0.1-0.2l0-0.2l0,0l-0.2-0.9l0,0l-0.1-0.2l0-0.2l0,0l-0.3-0.8l0,0
	l-0.1-0.2l0-0.2l0,0l-0.3-0.8l0,0l-0.1-0.2l-0.1-0.2l0,0l-0.4-0.9l0,0l-0.1-0.2l-0.1-0.2l0,0l-0.4-0.8l0,0l-0.1-0.2l-0.1-0.2l0,0
	l-0.4-0.8l0,0l-0.1-0.2l-0.1-0.2l0,0l-0.5-0.8l0,0l-0.2-0.2l-0.1-0.2l0,0l-0.5-0.8l0,0l-0.2-0.2l-0.1-0.2l0,0l-0.5-0.7l0,0l-0.2-0.2
	l-0.1-0.1l0,0l-0.6-0.7l0,0l-0.2-0.2l-0.1-0.1l0,0l-0.6-0.7l0,0l-0.2-0.2l-0.1-0.1l0,0l-0.6-0.6l0,0l-0.2-0.2l-0.1-0.1l0,0l-0.6-0.6
	l0,0l-0.2-0.2l-0.1-0.1l0,0l-0.7-0.6l0,0l-0.2-0.2l-0.1-0.1l0,0L492,164l0,0l-0.2-0.2l-0.1-0.1l0,0l-0.7-0.5l0,0l-0.2-0.2l-0.1-0.1
	l0,0l-0.8-0.5l0,0l-0.2-0.1l-0.2-0.1l0,0l-0.8-0.5l0,0l-0.2-0.1l-0.2-0.1l0,0l-0.8-0.4l0,0l-0.2-0.1l-0.2-0.1l0,0l-0.8-0.4l0,0
	l-0.2-0.1l-0.2-0.1l0,0l-0.8-0.3l0,0L485,160l-0.2-0.1l0,0l-0.8-0.3l0,0l-0.2-0.1l-0.2-0.1l0,0l-0.8-0.3l0,0l-0.2-0.1l-0.2,0l0,0
	l-0.9-0.2l0,0l-0.2,0l-0.2,0l0,0l-0.9-0.2l0,0l-0.2,0l-0.2,0l0,0l-0.9-0.2l0,0l-0.3,0l-0.2,0l0,0l-0.9-0.1l0,0l-0.3,0l-0.2,0l0,0
	l-0.9-0.1l0,0h-0.3H476l0,0l-0.9,0l0,0h-0.3h-0.2l0,0h-0.9l0,0h-0.3h-0.2l0,0l-0.9,0l0,0l-0.3,0H472l0,0l-0.9,0.1l0,0l-0.3,0h-0.2
	l0,0l-0.9,0.1l0,0l-0.2,0l-0.2,0l0,0l-0.9,0.2l0,0l-0.2,0l-0.2,0l0,0l-0.9,0.2l0,0l-0.2,0.1l-0.2,0l0,0l-0.9,0.2l0,0l-0.2,0.1
	l-0.2,0l0,0l-0.8,0.3l0,0l-0.2,0.1l-0.2,0l0,0l-0.8,0.3l0,0l-0.2,0.1l-0.2,0.1l0,0l-0.8,0.3l0,0l-0.2,0.1l-0.2,0.1l0,0l-0.8,0.4l0,0
	l-0.2,0.1l-0.2,0.1l0,0l-0.8,0.4l0,0l-0.2,0.1l-0.2,0.1l0,0l-0.8,0.5l0,0l-0.2,0.2l-0.2,0.1l0,0l-0.8,0.5l0,0l-0.3,0l-0.2,0.1l0,0
	l-0.7,0.5l0,0l-0.2,0.2l-0.2,0.1l0,0l-0.7,0.6l0,0l-0.2,0.2l-0.1,0.1l0,0l-0.7,0.6l0,0l-0.2,0.2l-0.1,0.1l0,0l-0.6,0.6l0,0l-0.2,0.2
	l-0.1,0.1l0,0l-0.6,0.6l0,0l-0.2,0.2l-0.1,0.1l0,0l-0.6,0.7l0,0l-0.2,0.2l-0.1,0.1l0,0l-0.6,0.7l0,0l-0.2,0.2l-0.1,0.1l0,0l-0.5,0.7
	l0,0l-0.2,0.2l-0.1,0.1l0,0l-0.5,0.8l0,0l-0.1,0.2l-0.1,0.2l0,0l-0.5,0.8l0,0l-0.1,0.2l-0.1,0.2l0,0l-0.4,0.8l0,0l-0.1,0.2l-0.1,0.2
	l0,0l-0.4,0.8l0,0l-0.1,0.2l-0.1,0.2l0,0l-0.3,0.8l0,0l-0.1,0.2l-0.1,0.2l0,0l-0.3,0.8l0,0l-0.1,0.2l-0.1,0.2l0,0l-0.3,0.8l0,0
	l-0.1,0.2l0,0.2l0,0l-0.2,0.9l0,0l0,0.2l0,0.2l0,0l-0.2,0.9l0,0l0,0.2l0,0.2l0,0l-0.2,0.9l0,0l0,0.3l0,0.2l0,0l-0.1,0.9l0,0l0,0.3
	l0,0.2l0,0l-0.1,0.9l0,0v0.3v0.2l0,0l0,0.9l0,0v0.3v0.2l0,0v0.9l0,0v0.3v0.2l0,0l0,0.9l0,0l0,0.3v0.2l0,0l0.1,0.9l0,0l0,0.3v0.2l0,0
	l0.1,0.9l0,0l0,0.2l0,0.2l0,0l0.2,0.9l0,0l0,0.2l0,0.2l0,0l0.2,0.9l0,0l0.1,0.2l0,0.2l0,0l0.2,0.9l0,0l0.1,0.2l0,0.2l0,0l0.3,0.8
	l0,0l0.1,0.2l0,0.2l0,0l0.3,0.8l0,0l0.1,0.2l0.1,0.2l0,0l0.3,0.8l0,0l0.1,0.2l0.1,0.2l0,0l0.4,0.8l0,0l0.1,0.2l0.1,0.2l0,0l0.4,0.8
	l0,0l0.1,0.2l0.1,0.2l0,0l0.5,0.8l0,0l0.2,0.2l0.1,0.2l0,0l0.5,0.8l0,0l0.2,0.2l0.1,0.2l0,0l0.5,0.7l0,0l0.2,0.2l0.1,0.2l0,0
	l0.6,0.7l0,0l0.2,0.2l0.1,0.1l0,0l0.6,0.7l0,0l0.2,0.2l0.1,0.1l0,0l0.6,0.6l0,0l0.2,0.2l0.1,0.1l0,0l0.6,0.6l0,0l0.2,0.2l0.1,0.1
	l0,0l0.7,0.6l0,0l0.2,0.2l0.1,0.1l0,0l0.7,0.6l0,0l0.2,0.2l0.1,0.1l0,0l0.7,0.5l0,0l0.2,0.2l0.1,0.1l0,0l0.8,0.5l0,0l0.2,0.1
	l0.2,0.1l0,0l0.8,0.5l0,0l0.2,0.1l0.2,0.1l0,0l0.8,0.4l0,0l0.2,0.1l0.2,0.1l0,0l0.8,0.4l0,0l0.2,0.1l0.2,0.1l0,0l0.8,0.3l0,0
	l0.2,0.1l0.2,0.1l0,0l0.8,0.3l0,0l0.2,0.1l0.2,0.1l0,0l0.8,0.3l0,0l0.2,0.1l0.2,0l0,0l0.9,0.2l0,0l0.2,0l0.2,0l0,0l0.9,0.2l0,0
	l0.2,0l0.2,0l0,0l0.9,0.2l0,0l0.3,0l0.2,0l0,0l0.9,0.1l0,0l0.3,0l0.2,0l0,0l0.9,0.1l0,0h0.3h0.2l0,0l0.9,0l0,0h0.3h0.2l0,0h0.9l0,0
	h0.3h0.2l0,0l0.9,0l0,0l0.3,0h0.2l0,0l0.9-0.1l0,0l0.3,0h0.2l0,0l0.9-0.1l0,0l0.2,0l0.2,0l0,0l0.9-0.2l0,0l0.2,0l0.2,0l0,0l0.9-0.2
	l0,0l0.2-0.1l0.2,0l0,0l0.9-0.2l0,0l0.2-0.1l0.2,0l0,0l0.8-0.3l0,0l0.2-0.1l0.2,0l0,0l0.8-0.3l0,0l0.2-0.1l0.2-0.1l0,0l0.8-0.3l0,0
	l0.2-0.1l0.2-0.1l0,0l0.8-0.4l0,0l0.2-0.1l0.2-0.1l0,0l0.8-0.4l0,0l0.2-0.1l0.2-0.1l0,0l0.8-0.5l0,0l0.2-0.2l0.2-0.1l0,0l0.8-0.5
	l0,0l0.2-0.2l0.2-0.1l0,0l0.7-0.5l0,0l0.2-0.2l0.1-0.1l0,0l0.7-0.6l0,0l0.2-0.2l0.1-0.1l0,0l0.7-0.6l0,0l0.2-0.2l0.1-0.1l0,0
	l0.6-0.6l0,0l0.2-0.2l0.1-0.1l0,0l0.6-0.6l0,0l0.2-0.2l0.1-0.1l0,0l0.6-0.7l0,0l0.2-0.2l0.1-0.1l0,0l0.6-0.7l0,0l0.2-0.2l0.1-0.1
	l0,0l0.5-0.7l0,0l0.2-0.2l0.1-0.1l0,0l0.5-0.8l0,0l0.1-0.2l0.1-0.2l0,0l0.5-0.8l0,0l0.1-0.2l0.1-0.2l0,0l0.4-0.8l0,0l0.1-0.2
	l0.1-0.2l0,0l0.4-0.8l0,0l0.1-0.2l0.1-0.2l0,0l0.3-0.8l0,0l0.1-0.2l0.1-0.2l0,0l0.3-0.8l0,0l0.1-0.2l0.1-0.2l0,0l0.3-0.8l0,0
	l0.1-0.2l0-0.2l0,0l0.2-0.9l0,0l0-0.2l0-0.2l0,0l0.2-0.9l0,0l0-0.2l0-0.2l0,0l0.2-0.9l0,0l0-0.3l0-0.2l0,0l0.1-0.9l0,0l0-0.3l0-0.2
	l0,0l0.1-0.9l0,0v-0.3v-0.2l0,0l0-0.9l0,0v-0.3l0,0L503.3,187.5L503.3,187.5z M484.6,212.5l-0.2,0.3l-0.3-0.1l-0.6,0.2l-0.2,0.3
	l-0.3-0.1l-0.6,0.2l-0.2,0.3l-0.3-0.1l-0.7,0.2l-0.2,0.3l-0.3-0.2l-0.7,0.2l-0.2,0.3l-0.3-0.2l-0.7,0.1l-0.2,0.3l-0.3-0.2l-0.7,0.1
	l-0.2,0.2l-0.3-0.2l-0.7,0.1l-0.2,0.2l-0.3-0.2l-0.7,0l-0.3,0.2l-0.3-0.2h-0.7l-0.3,0.2l-0.3-0.2l-0.7,0l-0.3,0.2l-0.3-0.2l-0.7-0.1
	l-0.3,0.2l-0.3-0.2l-0.7-0.1l-0.3,0.2l-0.3-0.3l-0.7-0.1l-0.3,0.2l-0.2-0.3l-0.7-0.2l-0.3,0.2l-0.2-0.3l-0.7-0.2l-0.3,0.1l-0.2-0.3
	l-0.6-0.2l-0.3,0.1l-0.2-0.3l-0.6-0.2l-0.3,0.1l-0.2-0.3l-0.6-0.3l-0.3,0.1l-0.2-0.3l-0.6-0.3l-0.3,0.1l-0.2-0.3l-0.6-0.3l-0.3,0.1
	l-0.2-0.3l-0.6-0.3l-0.3,0l-0.2-0.3l-0.6-0.4l-0.3,0l-0.1-0.3l-0.6-0.4h-0.3l-0.1-0.3l-0.5-0.4h-0.3l-0.1-0.3l-0.5-0.5h-0.3
	l-0.1-0.3l-0.5-0.5l-0.3,0l0-0.3l-0.5-0.5l-0.3,0l0-0.3l-0.5-0.5l-0.3-0.1l0-0.4l-0.4-0.5l-0.3-0.1v-0.4l-0.4-0.6l-0.3-0.1v-0.4
	l-0.4-0.6l-0.3-0.1l0-0.3l-0.3-0.6l-0.3-0.1l0-0.3l-0.3-0.6l-0.3-0.1l0.1-0.3l-0.3-0.6l-0.3-0.2l0.1-0.3l-0.3-0.6l-0.3-0.2l0.1-0.3
	l-0.2-0.6l-0.3-0.2l0.1-0.3l-0.2-0.6l-0.3-0.2l0.1-0.3l-0.2-0.7l-0.3-0.2l0.2-0.3l-0.2-0.7l-0.3-0.2l0.2-0.3l-0.1-0.7l-0.3-0.2
	l0.2-0.3l-0.1-0.7l-0.2-0.2l0.2-0.3l-0.1-0.7l-0.2-0.2l0.2-0.3l0-0.7l-0.2-0.3l0.2-0.3v-0.8l-0.2-0.3l0.2-0.3l0-0.7l-0.2-0.3
	l0.2-0.3l0.1-0.7l-0.2-0.3l0.2-0.3l0.1-0.7l-0.2-0.3l0.3-0.3l0.1-0.7l-0.2-0.3l0.3-0.2l0.2-0.7l-0.2-0.3l0.3-0.2l0.2-0.7l-0.1-0.3
	l0.3-0.2l0.2-0.6l-0.1-0.3l0.3-0.2l0.2-0.6l-0.1-0.3l0.3-0.2l0.3-0.6l-0.1-0.3l0.3-0.2l0.3-0.6l-0.1-0.3l0.3-0.2l0.3-0.6l-0.1-0.3
	l0.3-0.2l0.3-0.6l0-0.3l0.3-0.2l0.4-0.6l0-0.3l0.3-0.1l0.4-0.6v-0.3l0.3-0.1l0.4-0.5v-0.3l0.3-0.1l0.5-0.5v-0.3l0.3-0.1l0.5-0.5
	l0-0.3l0.3,0l0.5-0.5l0-0.3l0.3,0l0.5-0.5l0.1-0.3l0.4,0l0.5-0.4l0.1-0.3h0.4l0.6-0.4l0.1-0.3h0.4l0.6-0.4l0.1-0.3l0.3,0l0.6-0.3
	l0.1-0.3l0.3,0l0.6-0.3l0.1-0.3l0.3,0.1l0.6-0.3l0.2-0.3l0.3,0.1l0.6-0.3l0.2-0.3l0.3,0.1l0.6-0.2l0.2-0.3l0.3,0.1l0.6-0.2l0.2-0.3
	l0.3,0.1l0.7-0.2l0.2-0.3l0.3,0.2l0.7-0.2l0.2-0.3l0.3,0.2l0.7-0.1l0.2-0.3l0.3,0.2l0.7-0.1l0.2-0.2l0.3,0.2l0.7-0.1l0.2-0.2
	l0.3,0.2l0.7,0l0.3-0.2l0.3,0.2h0.7l0.3-0.2l0.3,0.2l0.7,0l0.3-0.2l0.3,0.2l0.7,0.1l0.3-0.2l0.3,0.2l0.7,0.1l0.3-0.2l0.3,0.3
	l0.7,0.1l0.3-0.2l0.2,0.3l0.7,0.2l0.3-0.2l0.2,0.3l0.7,0.2l0.3-0.1l0.2,0.3l0.6,0.2l0.3-0.1l0.2,0.3l0.6,0.2l0.3-0.1l0.2,0.3
	l0.6,0.3l0.3-0.1l0.2,0.3l0.6,0.3l0.3-0.1l0.2,0.3l0.6,0.3l0.3-0.1l0.2,0.3l0.6,0.3l0.3,0l0.2,0.3l0.6,0.4l0.3,0l0.1,0.3l0.6,0.4
	h0.3l0.1,0.3l0.5,0.4h0.3l0.1,0.3l0.5,0.5h0.3l0.1,0.3l0.5,0.5l0.3,0l0,0.3l0.5,0.5l0.3,0l0,0.3l0.5,0.5l0.3,0.1l0,0.4l0.4,0.5
	l0.3,0.1v0.4l0.4,0.6l0.3,0.1v0.4l0.4,0.6l0.3,0.1l0,0.3l0.3,0.6l0.3,0.1l0,0.3l0.3,0.6l0.3,0.1l-0.1,0.3l0.3,0.6l0.3,0.2l-0.1,0.3
	l0.3,0.6l0.3,0.2l-0.1,0.3l0.2,0.6l0.3,0.2l-0.1,0.3l0.2,0.6l0.3,0.2l-0.1,0.3l0.2,0.7l0.3,0.2l-0.2,0.3l0.2,0.7l0.3,0.2l-0.2,0.3
	l0.1,0.7l0.3,0.2l-0.2,0.3l0.1,0.7l0.2,0.2l-0.2,0.3l0.1,0.7l0.2,0.2l-0.2,0.3l0,0.7l0.2,0.3l-0.2,0.3v0.7l0.2,0.3l-0.2,0.3l0,0.7
	l0.2,0.3l-0.2,0.3l-0.1,0.7l0.2,0.3l-0.2,0.3l-0.1,0.7l0.2,0.3l-0.3,0.3l-0.1,0.7l0.2,0.3l-0.3,0.2l-0.2,0.7l0.2,0.3l-0.3,0.2
	l-0.2,0.7l0.1,0.3l-0.3,0.2l-0.2,0.6l0.1,0.3l-0.2,0.4l-0.2,0.6l0.1,0.3l-0.3,0.2l-0.3,0.6l0.1,0.3l-0.3,0.2l-0.3,0.6l0.1,0.3
	l-0.3,0.2l-0.3,0.6l0.1,0.3l-0.3,0.2l-0.3,0.6l0,0.3l-0.3,0.2l-0.4,0.6l0,0.3l-0.3,0.1l-0.4,0.6v0.3l-0.3,0.1l-0.4,0.5v0.3l-0.3,0.1
	l-0.5,0.5v0.3l-0.3,0.1l-0.5,0.5l0,0.3l-0.3,0l-0.5,0.5l0,0.3l-0.3,0l-0.5,0.5l-0.1,0.3l-0.4,0l-0.5,0.4l-0.1,0.3h-0.4l-0.6,0.4
	l-0.1,0.3h-0.4l-0.6,0.4l-0.1,0.3l-0.3,0l-0.6,0.3l-0.1,0.3l-0.3,0l-0.6,0.3l-0.1,0.3l-0.3-0.1l-0.6,0.3l-0.2,0.3l-0.3-0.1
	L484.6,212.5z"/>
<path fill="#CF157D" d="M485.7,186.9c0-2.3,0.9-4.3,2.5-5.8c-2.1,0.1-4.2-0.7-5.9-2.3c-1.6-1.6-2.4-3.8-2.3-5.8
	c-1.4,1.6-3.5,2.5-5.8,2.5c-2.3,0-4.3-0.9-5.8-2.5c0.1,2.1-0.7,4.2-2.3,5.9c-1.6,1.6-3.8,2.4-5.8,2.3c1.6,1.4,2.5,3.5,2.5,5.8
	c0,2.3-0.9,4.3-2.5,5.8c2.1-0.1,4.2,0.7,5.9,2.3c1.6,1.6,2.4,3.8,2.3,5.8c1.4-1.6,3.5-2.5,5.8-2.5c2.3,0,4.3,0.9,5.8,2.5
	c-0.1-2.1,0.7-4.2,2.3-5.9c1.6-1.6,3.8-2.4,5.8-2.3C486.6,191.3,485.7,189.2,485.7,186.9z M474.2,195.4c-4.7,0-8.4-3.8-8.4-8.4
	c0-4.7,3.8-8.4,8.4-8.4s8.4,3.8,8.4,8.4C482.6,191.6,478.8,195.4,474.2,195.4z"/>
<path fill="#4FC5D5" d="M501.9,186.4l-0.2-0.3l0-0.7l0.2-0.3l-0.2-0.2l-0.1-0.7l0.2-0.3l-0.2-0.2l-0.1-0.7l0.2-0.3l-0.3-0.2
	l-0.1-0.7l0.2-0.3l-0.3-0.2l-0.2-0.7l0.2-0.3l-0.3-0.2l-0.2-0.7l0.1-0.3l-0.3-0.2l-0.2-0.6l0.1-0.3l-0.3-0.2l-0.2-0.6l0.1-0.3
	l-0.3-0.2l-0.3-0.6l0.1-0.3l-0.3-0.2l-0.3-0.6l0.1-0.3l-0.3-0.1l-0.3-0.6l0-0.3l-0.3-0.1l-0.3-0.6l0-0.3l-0.3-0.2l-0.4-0.6v-0.4
	l-0.3-0.1l-0.4-0.6v-0.4l-0.3-0.1l-0.4-0.5l0-0.4l-0.3-0.1l-0.5-0.5l0-0.3l-0.3,0l-0.5-0.5l0-0.3l-0.3,0l-0.5-0.5l-0.1-0.3h-0.3
	l-0.5-0.4l-0.1-0.3h-0.3l-0.5-0.4L491,165h-0.3l-0.6-0.4l-0.1-0.3l-0.3,0l-0.6-0.4l-0.2-0.3l-0.3,0l-0.6-0.3l-0.2-0.3l-0.3,0.1
	l-0.6-0.3l-0.2-0.3l-0.3,0.1l-0.6-0.3l-0.2-0.3l-0.3,0.1l-0.6-0.3l-0.2-0.3l-0.3,0.1l-0.6-0.2l-0.2-0.3l-0.3,0.1l-0.6-0.2l-0.2-0.3
	l-0.3,0.1l-0.7-0.2l-0.2-0.3l-0.3,0.2l-0.7-0.2l-0.2-0.3l-0.3,0.2l-0.7-0.1l-0.3-0.3l-0.3,0.2l-0.7-0.1l-0.3-0.2l-0.3,0.2l-0.7-0.1
	l-0.3-0.2l-0.3,0.2l-0.7,0l-0.3-0.2l-0.3,0.2h-0.7l-0.3-0.2l-0.3,0.2l-0.7,0l-0.3-0.2l-0.2,0.2l-0.7,0.1l-0.3-0.2l-0.2,0.2l-0.7,0.1
	l-0.3-0.2l-0.2,0.3L469,160l-0.3-0.2l-0.2,0.3l-0.7,0.2l-0.3-0.2l-0.2,0.3l-0.7,0.2l-0.3-0.1l-0.2,0.3l-0.6,0.2l-0.3-0.1l-0.2,0.3
	l-0.6,0.2l-0.3-0.1l-0.2,0.3l-0.6,0.3l-0.3-0.1l-0.2,0.3l-0.6,0.3l-0.3-0.1l-0.1,0.3l-0.6,0.3l-0.3,0l-0.1,0.3l-0.6,0.3l-0.3,0
	l-0.1,0.3l-0.6,0.4h-0.4l-0.1,0.3l-0.6,0.4h-0.4l-0.1,0.3l-0.5,0.4l-0.4,0l-0.1,0.3l-0.5,0.5l-0.3,0l0,0.3l-0.5,0.5l-0.3,0l0,0.3
	l-0.5,0.5l-0.3,0.1v0.3l-0.5,0.5l-0.3,0.1v0.3l-0.4,0.5l-0.3,0.1v0.3l-0.4,0.6l-0.3,0.1l0,0.3l-0.4,0.6l-0.3,0.2l0,0.3l-0.3,0.6
	l-0.3,0.2l0.1,0.3l-0.3,0.6l-0.3,0.2l0.1,0.3l-0.3,0.6l-0.3,0.2l0.1,0.3l-0.3,0.6l-0.3,0.2l0.1,0.3l-0.2,0.6l-0.3,0.2l0.1,0.3
	l-0.2,0.6l-0.3,0.2l0.1,0.3l-0.2,0.7l-0.3,0.2l0.2,0.3l-0.2,0.7l-0.3,0.2l0.2,0.3l-0.1,0.7l-0.3,0.3l0.2,0.3l-0.1,0.7l-0.2,0.3
	l0.2,0.3l-0.1,0.7l-0.2,0.3l0.2,0.3l0,0.7l-0.2,0.3l0.2,0.3v0.7l-0.2,0.3l0.2,0.3l0,0.7l-0.2,0.3l0.2,0.2l0.1,0.7l-0.2,0.3l0.2,0.2
	l0.1,0.7l-0.2,0.3l0.3,0.2l0.1,0.7l-0.2,0.3l0.3,0.2l0.2,0.7l-0.2,0.3l0.3,0.2l0.2,0.7l-0.1,0.3l0.3,0.2l0.2,0.6l-0.1,0.3l0.3,0.2
	l0.2,0.6l-0.1,0.3l0.3,0.2l0.3,0.6l-0.1,0.3l0.3,0.2l0.3,0.6l-0.1,0.3l0.3,0.1l0.3,0.6l0,0.3l0.3,0.1l0.3,0.6l0,0.3l0.3,0.1l0.4,0.6
	v0.4l0.3,0.1l0.4,0.6v0.4l0.3,0.1l0.4,0.5l0,0.4l0.3,0.1l0.5,0.5l0,0.3l0.3,0l0.5,0.5l0,0.3l0.3,0l0.5,0.5l0.1,0.3h0.3l0.5,0.5
	l0.1,0.3h0.3l0.5,0.4l0.1,0.3h0.3l0.6,0.4l0.1,0.3l0.3,0l0.6,0.4l0.2,0.3l0.3,0l0.6,0.3l0.2,0.3l0.3-0.1l0.6,0.3l0.2,0.3l0.3-0.1
	l0.6,0.3l0.2,0.3l0.3-0.1l0.6,0.3l0.2,0.3l0.3-0.1l0.6,0.2l0.2,0.3l0.3-0.1l0.6,0.2l0.2,0.3l0.3-0.1l0.7,0.2l0.2,0.3l0.3-0.2
	l0.7,0.2l0.2,0.3l0.3-0.2l0.7,0.1l0.3,0.3l0.3-0.2l0.7,0.1l0.3,0.2l0.3-0.2l0.7,0.1l0.3,0.2l0.3-0.2l0.7,0l0.3,0.2l0.3-0.2h0.7
	l0.3,0.2l0.3-0.2l0.7,0l0.3,0.2l0.2-0.2l0.7-0.1l0.3,0.2l0.2-0.2l0.7-0.1l0.3,0.2l0.2-0.3l0.7-0.1l0.3,0.2l0.2-0.3l0.7-0.2l0.3,0.2
	l0.2-0.3l0.7-0.2l0.3,0.1l0.2-0.3l0.6-0.2l0.3,0.1l0.2-0.3l0.6-0.2l0.3,0.1l0.2-0.3l0.6-0.3l0.3,0.1l0.2-0.3l0.6-0.3l0.3,0.1
	l0.1-0.3l0.6-0.3l0.3,0l0.1-0.3l0.6-0.3l0.3,0l0.1-0.3l0.6-0.4h0.4l0.1-0.3l0.6-0.4h0.4l0.1-0.3l0.5-0.4l0.4,0l0.1-0.3l0.5-0.5
	l0.3,0l0-0.3l0.5-0.5l0.3,0l0-0.3l0.5-0.5l0.3-0.1v-0.3l0.5-0.5l0.3-0.1v-0.3l0.4-0.5l0.3-0.1v-0.3l0.4-0.6l0.3-0.1l0-0.3l0.4-0.6
	l0.3-0.2l0-0.3l0.3-0.6l0.3-0.2l-0.1-0.3l0.3-0.6l0.3-0.2l-0.1-0.3l0.3-0.6l0.3-0.2l-0.1-0.3l0.3-0.6l0.3-0.2l-0.1-0.3l0.2-0.6
	l0.3-0.2l-0.1-0.3l0.2-0.6l0.3-0.2l-0.1-0.3l0.2-0.7l0.3-0.2l-0.2-0.3l0.2-0.7l0.3-0.2l-0.2-0.3l0.1-0.7l0.3-0.3l-0.2-0.3l0.1-0.7
	l0.2-0.3l-0.2-0.3l0.1-0.7l0.2-0.3l-0.2-0.3l0-0.7l0.2-0.3l-0.2-0.3v-0.7L501.9,186.4z M493.6,194.8c-0.1,0-0.2,0-0.2,0
	c0.1,0.1,0.2,0.1,0.2,0.2c3.1,3.1,3.1,8.1,0,11.2c-3.1,3.1-8.1,3.1-11.2,0c0,0-0.1-0.1-0.2-0.2c0,0.1,0,0.2,0,0.3
	c0,4.4-3.6,7.9-7.9,7.9s-7.9-3.6-7.9-7.9c0-0.1,0-0.2,0-0.2c-0.1,0.1-0.1,0.2-0.2,0.2c-3.1,3.1-8.1,3.1-11.2,0s-3.1-8.1,0-11.2
	c0,0,0.1-0.1,0.2-0.2c-0.1,0-0.2,0-0.3,0c-4.4,0-7.9-3.6-7.9-7.9c0-4.4,3.6-7.9,7.9-7.9c0.1,0,0.2,0,0.2,0c-0.1-0.1-0.2-0.1-0.2-0.2
	c-3.1-3.1-3.1-8.1,0-11.2c3.1-3.1,8.1-3.1,11.2,0c0,0,0.1,0.1,0.2,0.2c0-0.1,0-0.2,0-0.3c0-4.4,3.6-7.9,7.9-7.9s7.9,3.6,7.9,7.9
	c0,0.1,0,0.2,0,0.2c0.1-0.1,0.1-0.2,0.2-0.2c3.1-3.1,8.1-3.1,11.2,0c3.1,3.1,3.1,8.1,0,11.2c0,0-0.1,0.1-0.2,0.2c0.1,0,0.2,0,0.3,0
	c4.4,0,7.9,3.6,7.9,7.9C501.5,191.3,498,194.8,493.6,194.8z"/>
<path fill="#8BC641" d="M488.3,145.8c-1.8,0-3.2,1.4-3.2,3.3v0.6h6.4V149C491.6,147.2,490.1,145.8,488.3,145.8z"/>
<path fill="#8BC641" d="M495.4,145.8c-1.8,0-3.2,1.4-3.2,3.3v0.6h6.4V149C498.6,147.2,497.2,145.8,495.4,145.8z"/>
<path fill="#8BC641" d="M481.3,145.8c-1.8,0-3.2,1.4-3.2,3.3v0.6h6.4V149C484.5,147.2,483.1,145.8,481.3,145.8z"/>
<path fill="#8BC641" d="M502.5,145.8c-1.8,0-3.2,1.4-3.2,3.3v0.6h6.4V149C505.7,147.2,504.3,145.8,502.5,145.8z"/>
<path fill="#8BC641" d="M509.6,145.8c-1.8,0-3.2,1.4-3.2,3.3v0.6h6.4V149C512.8,147.2,511.3,145.8,509.6,145.8z"/>
<path fill="#8BC641" d="M467.1,145.8c-1.8,0-3.2,1.4-3.2,3.3v0.6h6.4V149C470.3,147.2,468.9,145.8,467.1,145.8z"/>
<path fill="#8BC641" d="M445.9,145.8c-1.8,0-3.2,1.4-3.2,3.3v0.6h6.4V149C449.2,147.2,447.7,145.8,445.9,145.8z"/>
<path fill="#8BC641" d="M474.2,145.8c-1.8,0-3.2,1.4-3.2,3.3v0.6h6.4V149C477.4,147.2,476,145.8,474.2,145.8z"/>
<path fill="#8BC641" d="M438.8,145.8c-1.8,0-3.2,1.4-3.2,3.3v0.6h6.4V149C442.1,147.2,440.6,145.8,438.8,145.8z"/>
<path fill="#8BC641" d="M460.1,145.8c-1.8,0-3.2,1.4-3.2,3.3v0.6h6.4V149C463.3,147.2,461.9,145.8,460.1,145.8z"/>
<path fill="#8BC641" d="M453,145.8c-1.8,0-3.2,1.4-3.2,3.3v0.6h6.4V149C456.2,147.2,454.8,145.8,453,145.8z"/>
<path fill="#161543" d="M556.3,200.6v-2.3c0-1.8-1.4-3.3-3.2-3.3c-1.8,0-3.2,1.4-3.2,3.3v2.3h-0.6v-2.3c0-1.8-1.4-3.3-3.2-3.3
	s-3.2,1.4-3.2,3.3v2.3h-0.6v-2.3c0-1.8-1.4-3.3-3.2-3.3s-3.2,1.4-3.2,3.3v2.3h-0.6v-2.3c0-1.8-1.4-3.3-3.2-3.3
	c-1.8,0-3.2,1.4-3.2,3.3v2.3H528v-2.3c0-1.8-1.4-3.3-3.2-3.3s-3.2,1.4-3.2,3.3v2.3h-0.7v-2.3c0-1.8-1.4-3.3-3.2-3.3
	s-3.2,1.4-3.2,3.3v2.3v5.5v100.4h41.8"/>
<polygon fill="#4959A7" points="535.1,155.7 535.1,155.7 512.8,193.9 557.5,193.9 "/>
<path fill="#D0DD29" d="M545.9,195c-1.8,0-3.2,1.4-3.2,3.3v0.6h6.4v-0.6C549.2,196.5,547.8,195,545.9,195z"/>
<path fill="#D0DD29" d="M524.8,195c-1.8,0-3.2,1.4-3.2,3.3v0.6h6.4v-0.6C528,196.5,526.5,195,524.8,195z"/>
<path fill="#D0DD29" d="M553,195c-1.8,0-3.2,1.4-3.2,3.3v0.6h6.4v-0.6C556.3,196.5,554.8,195,553,195z"/>
<path fill="#D0DD29" d="M517.7,195c-1.8,0-3.2,1.4-3.2,3.3v0.6h6.4v-0.6C520.9,196.5,519.5,195,517.7,195z"/>
<path fill="#D0DD29" d="M538.9,195c-1.8,0-3.2,1.4-3.2,3.3v0.6h6.4v-0.6C542.1,196.5,540.7,195,538.9,195z"/>
<path fill="#D0DD29" d="M531.8,195c-1.8,0-3.2,1.4-3.2,3.3v0.6h6.4v-0.6C535,196.5,533.6,195,531.8,195z"/>
<path fill="#A24B24" d="M512.8,193.9v6.9h1.7v-0.2v-2.3c0-1.8,1.4-3.3,3.2-3.3s3.2,1.4,3.2,3.3v2.3h0.6v-2.3c0-1.8,1.4-3.3,3.2-3.3
	c1.8,0,3.2,1.4,3.2,3.3v2.3h0.6v-2.3c0-1.8,1.4-3.3,3.2-3.3c1.8,0,3.2,1.4,3.2,3.3v2.3h0.6v-2.3c0-1.8,1.4-3.3,3.2-3.3
	c1.8,0,3.2,1.4,3.2,3.3v2.3h0.6v-2.3c0-1.8,1.4-3.3,3.2-3.3c1.8,0,3.2,1.4,3.2,3.3v2.3h0.6v-2.3c0-1.8,1.4-3.3,3.2-3.3
	s3.2,1.4,3.2,3.3v2.3v0.2h1.4v-6.9L512.8,193.9L512.8,193.9z"/>
<path fill="#D2A12A" d="M556.3,217.8h-12.7v-0.2c0-4.6-3.8-8.4-8.4-8.4s-8.4,3.8-8.4,8.4v0.2h-12.4v-0.4h12.1c0.1-4.7,4-8.6,8.8-8.6
	s8.6,3.8,8.8,8.6h12.3L556.3,217.8L556.3,217.8z"/>
<path fill="#832A8A" d="M527.5,249.1c-1.5,0-2.7,1.3-2.7,2.8v6.7h5.5v-6.7C530.3,250.4,529,249.1,527.5,249.1z"/>
<path fill="#832A8A" d="M535.1,249.1c-1.5,0-2.7,1.3-2.7,2.8v6.7h5.5v-6.7C537.9,250.4,536.7,249.1,535.1,249.1z"/>
<path fill="#832A8A" d="M542.8,249.1c-1.5,0-2.7,1.3-2.7,2.8v6.7h5.5v-6.7C545.5,250.4,544.3,249.1,542.8,249.1z"/>
<path fill="#832A8A" d="M539.4,217.7c-1.5,0-2.7,1.3-2.7,2.8v6.7h5.5v-6.7C542.1,219,540.9,217.7,539.4,217.7z"/>
<path fill="#FFCF1D" d="M535.3,219.1l0.2-0.9c0-1.5,1.7-2.8,3.2-2.8s3.4,1.3,3.4,2.8v-0.8c0-3.2-3.1-6.5-6.9-6.5s-6.9,3.3-6.9,6.5
	v0.8c0-1.5,1.9-2.8,3.4-2.8s3.2,1.3,3.2,2.8L535.3,219.1z"/>
<path fill="#832A8A" d="M531.1,217.7c-1.5,0-2.7,1.3-2.7,2.8v6.7h5.5v-6.7C533.9,219,532.6,217.7,531.1,217.7z"/>
<path fill="#7DC243" d="M536.6,220.5c0-1.5,1.2-2.8,2.7-2.8s2.7,1.3,2.7,2.8v-2.3c0-1.5-1.9-2.8-3.4-2.8c-1.5,0-3.2,1.3-3.2,2.8
	l-0.2,0.9l-0.2-0.9c0-1.5-1.7-2.8-3.2-2.8s-3.4,1.3-3.4,2.8v2.3c0-1.5,1.2-2.8,2.7-2.8s2.7,1.3,2.7,2.8H536.6z"/>
<rect x="527.6" y="227.3" fill="#2B3C90" width="15.2" height="3.9"/>
<rect x="528.6" y="231.2" fill="#C2B59C" width="13.3" height="3.9"/>
<rect x="514.5" y="264.4" fill="#2B3C90" width="41.8" height="3.9"/>
<rect x="533.9" y="220.5" fill="#5ABDEC" width="2.7" height="6.7"/>
<circle fill="#D2A12A" cx="535.3" cy="213.6" r="2.4"/>
<circle fill="#342F81" cx="535.3" cy="213.6" r="2.2"/>
<circle fill="#6BBE46" cx="535.3" cy="213.6" r="2.1"/>
<g>
	<path fill="#5FBDEB" d="M542.9,227.2h-0.8v-9.7c0-3.1-3-6.5-6.9-6.5s-6.9,3.4-6.9,6.5v9.7h-0.8v-9.7c0-3.4,3.3-7.2,7.6-7.2
		c4.4,0,7.6,3.8,7.6,7.2V227.2z"/>
</g>
<rect x="514.5" y="264.1" fill="#F89521" width="41.8" height="0.4"/>
<rect x="523.3" y="258.4" fill="#F89521" width="23.9" height="0.4"/>
<rect x="527.6" y="235.1" fill="#F89521" width="15.2" height="0.4"/>
<path fill="#832A8A" d="M486.5,262.8c-4.5,0-8.2,3.7-8.2,8.3V291h16.4v-19.9C494.7,266.5,491,262.8,486.5,262.8z"/>
<path fill="#FFCF1D" d="M474.2,267l0.7-2.8c0-4.5,5-8.3,9.6-8.3c4.5,0,10.3,3.7,10.3,8.3v-2.4c0-9.5-9.2-19.5-20.5-19.5
	c-11.3,0-20.5,10-20.5,19.5v2.4c0-4.5,5.7-8.3,10.3-8.3c4.5,0,9.6,3.7,9.6,8.3L474.2,267z"/>
<path fill="#832A8A" d="M461.8,262.8c-4.5,0-8.2,3.7-8.2,8.3V291H470v-19.9C470,266.5,466.4,262.8,461.8,262.8z"/>
<path fill="#7DC243" d="M478.3,271.1c0-4.5,3.7-8.3,8.2-8.3c4.5,0,8.2,3.7,8.2,8.3v-6.9c0-4.5-5.7-8.3-10.3-8.3
	c-4.5,0-9.6,3.7-9.6,8.3l-0.7,2.8l-0.7-2.8c0-4.5-5-8.3-9.6-8.3c-4.5,0-10.3,3.7-10.3,8.3v6.9c0-4.5,3.7-8.3,8.2-8.3
	c4.5,0,8.2,3.7,8.2,8.3H478.3z"/>
<rect x="451.3" y="290.9" fill="#603A17" width="45.7" height="5.2"/>
<rect x="447.9" y="296" fill="#764E2A" width="52.5" height="5.2"/>
<rect x="443.3" y="301.2" fill="#8B5F3D" width="61.7" height="5.2"/>
<rect x="470" y="271.1" fill="#5ABDEC" width="8.2" height="19.9"/>
<circle fill="#D2A12A" cx="474.2" cy="250.5" r="7.2"/>
<circle fill="#342F81" cx="474.2" cy="250.5" r="6.4"/>
<circle fill="#6BBE46" cx="474.2" cy="250.5" r="6.2"/>
<g>
	<path fill="#282561" d="M497,291h-2.3v-29.2c0-9.2-8.8-19.4-20.6-19.4c-11.8,0-20.6,10.3-20.6,19.4V291h-2.3v-29.2
		c0-10.2,9.8-21.7,22.9-21.7c13.1,0,22.9,11.4,22.9,21.7V291z"/>
</g>
<rect x="517.2" y="242.2" fill="#F89523" width="0.9" height="0.9"/>
<rect x="518.9" y="242.2" fill="#F89523" width="0.9" height="0.9"/>
<rect x="520.6" y="242.2" fill="#F89523" width="0.9" height="0.9"/>
<rect x="522.3" y="242.2" fill="#F89523" width="0.9" height="0.9"/>
<rect x="524" y="242.2" fill="#F89523" width="0.9" height="0.9"/>
<rect x="525.6" y="242.2" fill="#F89523" width="0.9" height="0.9"/>
<rect x="527.3" y="242.2" fill="#F89523" width="0.9" height="0.9"/>
<rect x="529" y="242.2" fill="#F89523" width="0.9" height="0.9"/>
<rect x="530.7" y="242.2" fill="#F89523" width="0.9" height="0.9"/>
<rect x="532.4" y="242.2" fill="#F89523" width="0.9" height="0.9"/>
<rect x="534.1" y="242.2" fill="#F89523" width="0.9" height="0.9"/>
<rect x="535.8" y="242.2" fill="#F89523" width="0.9" height="0.9"/>
<rect x="537.4" y="242.2" fill="#F89523" width="0.9" height="0.9"/>
<rect x="539.1" y="242.2" fill="#F89523" width="0.9" height="0.9"/>
<rect x="540.8" y="242.2" fill="#F89523" width="0.9" height="0.9"/>
<rect x="542.5" y="242.2" fill="#F89523" width="0.9" height="0.9"/>
<rect x="544.2" y="242.2" fill="#F89523" width="0.9" height="0.9"/>
<rect x="545.9" y="242.2" fill="#F89523" width="0.9" height="0.9"/>
<rect x="547.5" y="242.2" fill="#F89523" width="0.9" height="0.9"/>
<rect x="549.2" y="242.2" fill="#F89523" width="0.9" height="0.9"/>
<rect x="550.9" y="242.2" fill="#F89523" width="0.9" height="0.9"/>
<rect x="552.6" y="242.2" fill="#F89523" width="0.9" height="0.9"/>
<rect x="518.1" y="241.3" fill="#F89523" width="0.9" height="0.9"/>
<rect x="519.8" y="241.3" fill="#F89523" width="0.9" height="0.9"/>
<rect x="521.5" y="241.3" fill="#F89523" width="0.9" height="0.9"/>
<rect x="523.2" y="241.3" fill="#F89523" width="0.9" height="0.9"/>
<rect x="524.8" y="241.3" fill="#F89523" width="0.9" height="0.9"/>
<rect x="526.5" y="241.3" fill="#F89523" width="0.9" height="0.9"/>
<rect x="528.2" y="241.3" fill="#F89523" width="0.9" height="0.9"/>
<rect x="529.9" y="241.3" fill="#F89523" width="0.9" height="0.9"/>
<rect x="531.6" y="241.3" fill="#F89523" width="0.9" height="0.9"/>
<rect x="533.3" y="241.3" fill="#F89523" width="0.9" height="0.9"/>
<rect x="535" y="241.3" fill="#F89523" width="0.9" height="0.9"/>
<rect x="536.7" y="241.3" fill="#F89523" width="0.9" height="0.9"/>
<rect x="538.3" y="241.3" fill="#F89523" width="0.9" height="0.9"/>
<rect x="540" y="241.3" fill="#F89523" width="0.9" height="0.9"/>
<rect x="541.7" y="241.3" fill="#F89523" width="0.9" height="0.9"/>
<rect x="543.4" y="241.3" fill="#F89523" width="0.9" height="0.9"/>
<rect x="545.1" y="241.3" fill="#F89523" width="0.9" height="0.9"/>
<rect x="546.7" y="241.3" fill="#F89523" width="0.9" height="0.9"/>
<rect x="548.4" y="241.3" fill="#F89523" width="0.9" height="0.9"/>
<rect x="550.1" y="241.3" fill="#F89523" width="0.9" height="0.9"/>
<rect x="551.8" y="241.3" fill="#F89523" width="0.9" height="0.9"/>
<path fill="#5FBDEB" d="M528.4,306.5v-24c0-3.1,3-6.5,6.9-6.5c3.9,0,6.9,3.4,6.9,6.5v24h0.8v-24c0-3.4-3.3-7.2-7.6-7.2
	c-4.4,0-7.6,3.8-7.6,7.2v24H528.4z"/>
<path fill="#D8E028" d="M542.1,306.5v-24c0-3.1-3-6.5-6.9-6.5s-6.9,3.4-6.9,6.5v24"/>
<rect x="514.5" y="298.4" fill="#F89521" width="13.2" height="0.4"/>
<rect x="542.9" y="298.4" fill="#F89521" width="13.4" height="0.4"/>
<rect x="514.5" y="299.4" fill="#F89521" width="13.2" height="0.4"/>
<rect x="542.9" y="299.4" fill="#F89521" width="13.4" height="0.4"/>
<path fill="#161543" d="M434.3,200.7v-2.3c0-1.8-1.4-3.3-3.2-3.3s-3.2,1.4-3.2,3.3v2.3h-0.6v-2.3c0-1.8-1.4-3.3-3.2-3.3
	s-3.2,1.4-3.2,3.3v2.3h-0.6v-2.3c0-1.8-1.4-3.3-3.2-3.3c-1.8,0-3.2,1.4-3.2,3.3v2.3h-0.6v-2.3c0-1.8-1.4-3.3-3.2-3.3
	s-3.2,1.4-3.2,3.3v2.3h-0.6v-2.3c0-1.8-1.4-3.3-3.2-3.3s-3.2,1.4-3.2,3.3v2.3H399v-2.3c0-1.8-1.4-3.3-3.2-3.3s-3.2,1.4-3.2,3.3v2.3
	v5.5v100.4h41.8"/>
<polygon fill="#4959A7" points="413.2,155.8 413.2,155.8 390.8,193.9 435.5,193.9 "/>
<path fill="#D0DD29" d="M424,195.2c-1.8,0-3.2,1.4-3.2,3.3v0.6h6.4v-0.6C427.2,196.6,425.8,195.2,424,195.2z"/>
<path fill="#D0DD29" d="M402.8,195.2c-1.8,0-3.2,1.4-3.2,3.3v0.6h6.4v-0.6C406,196.6,404.5,195.2,402.8,195.2z"/>
<path fill="#D0DD29" d="M431,195.2c-1.8,0-3.2,1.4-3.2,3.3v0.6h6.4v-0.6C434.3,196.6,432.8,195.2,431,195.2z"/>
<path fill="#D0DD29" d="M395.7,195.2c-1.8,0-3.2,1.4-3.2,3.3v0.6h6.4v-0.6C398.9,196.6,397.5,195.2,395.7,195.2z"/>
<path fill="#D0DD29" d="M416.9,195.2c-1.8,0-3.2,1.4-3.2,3.3v0.6h6.4v-0.6C420.1,196.6,418.7,195.2,416.9,195.2z"/>
<path fill="#D0DD29" d="M409.8,195.2c-1.8,0-3.2,1.4-3.2,3.3v0.6h6.4v-0.6C413,196.6,411.6,195.2,409.8,195.2z"/>
<path fill="#A24B24" d="M390.8,193.9v6.9h1.7v-0.2v-2.3c0-1.8,1.4-3.3,3.2-3.3s3.2,1.4,3.2,3.3v2.3h0.6v-2.3c0-1.8,1.4-3.3,3.2-3.3
	s3.2,1.4,3.2,3.3v2.3h0.6v-2.3c0-1.8,1.4-3.3,3.2-3.3c1.8,0,3.2,1.4,3.2,3.3v2.3h0.6v-2.3c0-1.8,1.4-3.3,3.2-3.3s3.2,1.4,3.2,3.3
	v2.3h0.6v-2.3c0-1.8,1.4-3.3,3.2-3.3s3.2,1.4,3.2,3.3v2.3h0.6v-2.3c0-1.8,1.4-3.3,3.2-3.3s3.2,1.4,3.2,3.3v2.3v0.2h1.4v-6.9H390.8z"
	/>
<path fill="#D2A12A" d="M434.3,217.9h-12.7v-0.2c0-4.6-3.8-8.4-8.4-8.4s-8.4,3.8-8.4,8.4v0.2h-12.4v-0.4h12.1c0.1-4.7,4-8.6,8.8-8.6
	s8.6,3.8,8.8,8.6h12.3L434.3,217.9L434.3,217.9z"/>
<path fill="#832A8A" d="M405.5,249.2c-1.5,0-2.7,1.3-2.7,2.8v6.7h5.5V252C408.3,250.4,407,249.2,405.5,249.2z"/>
<path fill="#832A8A" d="M413.2,249.2c-1.5,0-2.7,1.3-2.7,2.8v6.7h5.5V252C415.9,250.4,414.7,249.2,413.2,249.2z"/>
<path fill="#832A8A" d="M420.8,249.2c-1.5,0-2.7,1.3-2.7,2.8v6.7h5.5V252C423.5,250.4,422.3,249.2,420.8,249.2z"/>
<path fill="#832A8A" d="M417.4,217.9c-1.5,0-2.7,1.3-2.7,2.8v6.7h5.5v-6.7C420.1,219.1,418.9,217.9,417.4,217.9z"/>
<path fill="#FFCF1D" d="M413.3,219.3l0.2-0.9c0-1.5,1.7-2.8,3.2-2.8s3.4,1.3,3.4,2.8v-0.8c0-3.2-3.1-6.5-6.9-6.5s-6.9,3.3-6.9,6.5
	v0.8c0-1.5,1.9-2.8,3.4-2.8s3.2,1.3,3.2,2.8L413.3,219.3z"/>
<path fill="#832A8A" d="M409.1,217.9c-1.5,0-2.7,1.3-2.7,2.8v6.7h5.5v-6.7C411.9,219.1,410.6,217.9,409.1,217.9z"/>
<path fill="#7DC243" d="M414.6,220.6c0-1.5,1.2-2.8,2.7-2.8s2.7,1.3,2.7,2.8v-2.3c0-1.5-1.9-2.8-3.4-2.8s-3.2,1.3-3.2,2.8l-0.2,0.9
	l-0.2-0.9c0-1.5-1.7-2.8-3.2-2.8s-3.4,1.3-3.4,2.8v2.3c0-1.5,1.2-2.8,2.7-2.8s2.7,1.3,2.7,2.8H414.6z"/>
<rect x="405.6" y="227.3" fill="#2B3C90" width="15.2" height="3.9"/>
<rect x="406.6" y="231.3" fill="#C2B59C" width="13.3" height="3.9"/>
<rect x="392.5" y="264.5" fill="#2B3C90" width="41.8" height="3.9"/>
<rect x="411.9" y="220.6" fill="#5ABDEC" width="2.7" height="6.7"/>
<circle fill="#D2A12A" cx="413.3" cy="213.7" r="2.4"/>
<circle fill="#342F81" cx="413.3" cy="213.7" r="2.2"/>
<circle fill="#6BBE46" cx="413.3" cy="213.7" r="2.1"/>
<g>
	<path fill="#5FBDEB" d="M420.9,227.3h-0.8v-9.7c0-3.1-3-6.5-6.9-6.5s-6.9,3.4-6.9,6.5v9.7h-0.8v-9.7c0-3.4,3.3-7.2,7.6-7.2
		s7.6,3.8,7.6,7.2V227.3z"/>
</g>
<rect x="392.5" y="264.1" fill="#F89521" width="41.8" height="0.4"/>
<rect x="401.3" y="258.4" fill="#F89521" width="23.9" height="0.4"/>
<rect x="405.6" y="235.2" fill="#F89521" width="15.2" height="0.4"/>
<rect x="395.2" y="242.3" fill="#F89523" width="0.9" height="0.9"/>
<rect x="396.9" y="242.3" fill="#F89523" width="0.9" height="0.9"/>
<rect x="398.6" y="242.3" fill="#F89523" width="0.9" height="0.9"/>
<rect x="400.3" y="242.3" fill="#F89523" width="0.9" height="0.9"/>
<rect x="402" y="242.3" fill="#F89523" width="0.9" height="0.9"/>
<rect x="403.6" y="242.3" fill="#F89523" width="0.9" height="0.9"/>
<rect x="405.3" y="242.3" fill="#F89523" width="0.9" height="0.9"/>
<rect x="407" y="242.3" fill="#F89523" width="0.9" height="0.9"/>
<rect x="408.7" y="242.3" fill="#F89523" width="0.9" height="0.9"/>
<rect x="410.4" y="242.3" fill="#F89523" width="0.9" height="0.9"/>
<rect x="412.1" y="242.3" fill="#F89523" width="0.9" height="0.9"/>
<rect x="413.8" y="242.3" fill="#F89523" width="0.9" height="0.9"/>
<rect x="415.4" y="242.3" fill="#F89523" width="0.9" height="0.9"/>
<rect x="417.1" y="242.3" fill="#F89523" width="0.9" height="0.9"/>
<rect x="418.8" y="242.3" fill="#F89523" width="0.9" height="0.9"/>
<rect x="420.5" y="242.3" fill="#F89523" width="0.9" height="0.9"/>
<rect x="422.2" y="242.3" fill="#F89523" width="0.9" height="0.9"/>
<rect x="423.9" y="242.3" fill="#F89523" width="0.9" height="0.9"/>
<rect x="425.5" y="242.3" fill="#F89523" width="0.9" height="0.9"/>
<rect x="427.2" y="242.3" fill="#F89523" width="0.9" height="0.9"/>
<rect x="428.9" y="242.3" fill="#F89523" width="0.9" height="0.9"/>
<rect x="430.6" y="242.3" fill="#F89523" width="0.9" height="0.9"/>
<rect x="396.1" y="241.4" fill="#F89523" width="0.9" height="0.9"/>
<rect x="397.8" y="241.4" fill="#F89523" width="0.9" height="0.9"/>
<rect x="399.5" y="241.4" fill="#F89523" width="0.9" height="0.9"/>
<rect x="401.2" y="241.4" fill="#F89523" width="0.9" height="0.9"/>
<rect x="402.8" y="241.4" fill="#F89523" width="0.9" height="0.9"/>
<rect x="404.5" y="241.4" fill="#F89523" width="0.9" height="0.9"/>
<rect x="406.2" y="241.4" fill="#F89523" width="0.9" height="0.9"/>
<rect x="407.9" y="241.4" fill="#F89523" width="0.9" height="0.9"/>
<rect x="409.6" y="241.4" fill="#F89523" width="0.9" height="0.9"/>
<rect x="411.3" y="241.4" fill="#F89523" width="0.9" height="0.9"/>
<rect x="413" y="241.4" fill="#F89523" width="0.9" height="0.9"/>
<rect x="414.6" y="241.4" fill="#F89523" width="0.9" height="0.9"/>
<rect x="416.3" y="241.4" fill="#F89523" width="0.9" height="0.9"/>
<rect x="418" y="241.4" fill="#F89523" width="0.9" height="0.9"/>
<rect x="419.7" y="241.4" fill="#F89523" width="0.9" height="0.9"/>
<rect x="421.4" y="241.4" fill="#F89523" width="0.9" height="0.9"/>
<rect x="423.1" y="241.4" fill="#F89523" width="0.9" height="0.9"/>
<rect x="424.7" y="241.4" fill="#F89523" width="0.9" height="0.9"/>
<rect x="426.5" y="241.4" fill="#F89523" width="0.9" height="0.9"/>
<rect x="428.1" y="241.4" fill="#F89523" width="0.9" height="0.9"/>
<rect x="429.8" y="241.4" fill="#F89523" width="0.9" height="0.9"/>
<path fill="#5FBDEB" d="M406.4,306.6v-24c0-3.1,3-6.5,6.9-6.5s6.9,3.4,6.9,6.5v24h0.8v-24c0-3.4-3.3-7.2-7.6-7.2s-7.6,3.8-7.6,7.2
	v24H406.4z"/>
<path fill="#D8E028" d="M420.1,306.6v-24c0-3.1-3-6.5-6.9-6.5s-6.9,3.4-6.9,6.5v24"/>
<rect x="392.5" y="298.5" fill="#F89521" width="13.2" height="0.4"/>
<rect x="420.9" y="298.5" fill="#F89521" width="13.4" height="0.4"/>
<rect x="392.5" y="299.5" fill="#F89521" width="13.2" height="0.4"/>
<rect x="420.9" y="299.5" fill="#F89521" width="13.4" height="0.4"/>
<path fill="#2B3C90" d="M474.2,236.6c-14.6,0-26.3,13.8-26.3,25.2V296h3.4v-5h0v-29.2c0-10.2,9.8-21.7,22.9-21.7
	c13.1,0,22.9,11.4,22.9,21.7V291h0v5h3.4v-34.2C500.4,250.4,488.7,236.6,474.2,236.6z"/>
<path fill="#2075BC" d="M474.2,231.9c-16.5,0-30.8,17.2-30.8,30.1v39.2h4.6v-6.1h0v-33c0-11.6,11.4-25.3,26.3-25.3
	c14.8,0,26.3,13.7,26.3,25.3v33h0v6.1h4.6V262C505,249.1,490.7,231.9,474.2,231.9z"/>
<path fill="#29AAE1" d="M505,306.3h4.9v-45c0-15-16.6-34.9-35.8-34.9c-19.1,0-35.8,19.9-35.8,34.9v45h4.9v-5.2l0,0V262
	c0-8.8,6.6-19.5,16.1-25.5c0.1-0.1,0.2-0.1,0.3-0.2c0,0,0.1,0,0.1,0c1.7-1.1,3.5-2,5.5-2.7c0,0,0,0,0.1,0c0.2-0.1,0.3-0.1,0.5-0.2
	c2.7-0.9,5.5-1.5,8.4-1.5s5.7,0.5,8.4,1.5c0.2,0.1,0.3,0.1,0.5,0.2c0,0,0,0,0.1,0c1.9,0.7,3.7,1.6,5.5,2.7c0,0,0,0,0.1,0
	c0.1,0.1,0.2,0.1,0.3,0.2c9.4,6,16.1,16.7,16.1,25.5v39.2"/>
<path fill="#8EC641" d="M474.2,220.7c-21.8,0-40.1,22.7-40.1,39.8v46.1h4.9v-0.4h-0.6v-45c0-15,16.6-34.9,35.8-34.9
	c19.1,0,35.8,19.9,35.8,34.9v45h-0.6v0.3h5.2v-46.1C514.6,243.4,496,220.7,474.2,220.7z"/>
<path fill="#FCEE23" d="M440.7,240.8C440.7,240.8,440.8,240.8,440.7,240.8c0.5-0.8,1-1.5,1.6-2.2c0,0,0,0,0,0
	c0.8-1.1,1.7-2.2,2.6-3.2c0,0,0,0,0.1-0.1c0.6-0.7,1.2-1.3,1.9-2c0,0,0,0,0.1-0.1c0.3-0.3,0.6-0.6,0.9-0.9c0,0,0,0,0.1-0.1
	c0.6-0.6,1.3-1.2,2-1.8c0,0,0.1-0.1,0.2-0.1c0.7-0.6,1.4-1.1,2-1.7c0,0,0.1-0.1,0.2-0.1c0.3-0.2,0.6-0.5,0.9-0.7
	c0.1,0,0.1-0.1,0.2-0.1c0.4-0.3,0.7-0.5,1.1-0.8l0,0c0.3-0.2,0.7-0.5,1.1-0.7c0.1,0,0.2-0.1,0.2-0.2c0.3-0.2,0.6-0.4,1-0.6
	c0,0,0.1,0,0.1-0.1c0.4-0.2,0.8-0.4,1.1-0.6c0.1,0,0.2-0.1,0.2-0.1c0.3-0.2,0.6-0.3,0.9-0.5c0.1,0,0.2-0.1,0.3-0.1
	c0.4-0.2,0.8-0.4,1.2-0.5c0,0,0,0,0.1,0c0.4-0.2,0.7-0.3,1.1-0.5c0.1,0,0.2-0.1,0.3-0.1c0.3-0.1,0.6-0.3,1-0.4c0.1,0,0.2,0,0.2-0.1
	c0.4-0.2,0.8-0.3,1.2-0.4c0.1,0,0.2,0,0.3-0.1c0.3-0.1,0.6-0.2,0.9-0.3c0.1,0,0.2-0.1,0.3-0.1c0.4-0.1,0.8-0.2,1.2-0.3h0
	c0.4-0.1,0.8-0.2,1.2-0.2c0.1,0,0.2,0,0.3-0.1c0.3-0.1,0.7-0.1,1-0.2c0.1,0,0.2,0,0.3,0c0.4,0,0.8-0.1,1.3-0.2c0.1,0,0.2,0,0.3,0
	c0.3,0,0.7,0,1-0.1c0.1,0,0.2,0,0.3,0c0.4,0,0.8,0,1.3,0c0.4,0,0.8,0,1.3,0c0.1,0,0.2,0,0.3,0c0.3,0,0.7,0,1,0.1c0.1,0,0.2,0,0.3,0
	c0.4,0,0.8,0.1,1.3,0.2c0.1,0,0.2,0,0.3,0c0.3,0,0.7,0.1,1,0.2c0.1,0,0.2,0,0.3,0.1c0.4,0.1,0.8,0.2,1.2,0.2h0
	c0.4,0.1,0.8,0.2,1.2,0.3c0.1,0,0.2,0.1,0.3,0.1c0.3,0.1,0.6,0.2,0.9,0.3c0.1,0,0.2,0,0.3,0.1c0.4,0.1,0.8,0.3,1.2,0.4
	c0.1,0,0.2,0,0.2,0.1c0.3,0.1,0.6,0.2,1,0.4c0.1,0,0.2,0.1,0.3,0.1c0.4,0.2,0.8,0.3,1.1,0.5c0,0,0,0,0,0c0.4,0.2,0.8,0.3,1.2,0.5
	c0.1,0,0.2,0.1,0.3,0.1c0.3,0.2,0.6,0.3,0.9,0.5c0.1,0,0.2,0.1,0.2,0.1c0.4,0.2,0.8,0.4,1.1,0.6c0,0,0.1,0,0.1,0.1
	c0.3,0.2,0.7,0.4,1,0.6c0.1,0,0.2,0.1,0.2,0.2c0.4,0.2,0.7,0.5,1.1,0.7l0,0c0.4,0.2,0.7,0.5,1.1,0.8c0.1,0,0.1,0.1,0.2,0.1
	c0.3,0.2,0.6,0.5,0.9,0.7c0,0,0.1,0.1,0.2,0.1c0.7,0.5,1.4,1.1,2.1,1.7c0,0,0.1,0.1,0.2,0.1c0.7,0.6,1.4,1.2,2,1.8c0,0,0,0,0.1,0.1
	c0.3,0.3,0.6,0.6,0.9,0.9c0,0,0,0,0.1,0.1c0.6,0.6,1.3,1.3,1.9,2c0,0,0,0,0.1,0.1c0.9,1,1.8,2.1,2.6,3.2c0,0,0,0,0,0
	c0.5,0.7,1.1,1.5,1.6,2.2c0,0,0,0,0,0c0.8,1.1,1.4,2.3,2.1,3.4l0,0l0,0c2.3,4.2,3.8,8.5,4.4,12.7l0,0l0.1-7.8v-20.4l-40-41.8
	l-40.1,41.8v28.6h0C435,251.9,437.3,246.1,440.7,240.8z"/>
<polygon fill="#3DB54A" points="514.5,234.2 474.4,192.4 434.2,234.1 434.3,228.7 474.4,186.9 514.4,228.7 "/>
<circle fill="#D2A12A" cx="474.2" cy="209" r="8.4"/>
<circle fill="#342F81" cx="474.2" cy="209" r="6.5"/>
<circle fill="#6BBE46" cx="474.2" cy="209" r="6.3"/>
<g>
	<path fill="#019547" d="M477.3,206c0-0.2-0.1-0.3-0.3-0.3h-0.4l0,0h-0.2c-0.1-1.1-1.1-1.3-2.2-1.3c-1.1,0-2.1,0.2-2.2,1.3l-0.2-0.3
		c0-0.1-0.2-0.2-0.3-0.2c-0.1,0-0.2,0.2-0.2,0.3l0.1,0.2h0c-0.2,0-0.3,0.1-0.3,0.3s0.1,0.3,0.3,0.3h0.4l0,0l0,0h0.2v3.6v2.8
		c0,0.2,0.1,0.3,0.3,0.3h1h2h1c0.2,0,0.3-0.1,0.3-0.3v-2.8v-1.7l0,0v-1.9l0.1,0.3c0,0.1,0.1,0.2,0.2,0.2c0,0,0.1,0,0.1,0
		c0.1,0,0.2-0.2,0.2-0.3l-0.1-0.2h0C477.2,206.2,477.3,206.1,477.3,206z M475.3,209.9l-1-0.5c0,0-0.1,0-0.2,0v-1.6
		c0-0.1,0-0.2-0.1-0.2s-0.1-0.1-0.2-0.1l-1.4,0.2v-1.6h0.6l-0.1,0.1c-0.1,0.1,0,0.3,0.1,0.3c0,0,0.1,0,0.1,0c0.1,0,0.2,0,0.2-0.1
		l0.2-0.4h0.6l0,0l0,0h0.8v0.3c0,0.2,0.1,0.3,0.3,0.3c0.2,0,0.3-0.1,0.3-0.3v-0.3h0.5v1.6l-1.1-0.2c-0.2,0-0.3,0-0.3,0.2
		c0,0.2,0,0.3,0.2,0.3l0.3,0.1c0,0.2,0.2,0.2,0.3,0.2c0.1,0,0.2,0,0.2-0.1l0.3,0.1v0.6c0,0.5-0.2,0.9-0.5,1.2v0
		C475.5,210,475.4,210,475.3,209.9z M473.1,209.9c-0.1,0-0.2,0.1-0.2,0.2v0c-0.3-0.3-0.5-0.8-0.5-1.2v-0.7l0.3,0
		c0,0.1,0.2,0.2,0.3,0.2c0.2,0,0.3-0.1,0.3-0.2l0.3,0v1.5L473.1,209.9z M474.2,204.9c0.9,0,1.6,0,1.7,0.8h-1.3l0.1-0.1
		c0.1-0.1,0-0.3-0.1-0.3c-0.1-0.1-0.3,0-0.3,0.1l-0.2,0.4h-0.7v-0.2c0-0.2-0.1-0.3-0.3-0.3c-0.2,0-0.3,0.1-0.3,0.3v0.3h-0.4
		C472.7,204.9,473.4,204.9,474.2,204.9z M472.5,210.3c0.2,0.2,0.3,0.3,0.5,0.5v1.6h-0.5V210.3z M473.5,210.3l0.8-0.4l0.8,0.4v2.1
		h-1.5L473.5,210.3L473.5,210.3z M475.5,212.4v-1.6c0.2-0.1,0.3-0.3,0.5-0.5v2L475.5,212.4L475.5,212.4z"/>
	<path fill="#019547" d="M474.5,210.4l-0.3,0.1l-0.3-0.1c-0.2,0-0.3,0.1-0.3,0.3c0,0.2,0.1,0.3,0.3,0.3l0.3,0.3l0.3-0.3
		c0.2,0,0.3-0.1,0.3-0.3C474.8,210.5,474.7,210.4,474.5,210.4z"/>
</g>
<g id="Logo">
	<polygon fill="#030303" points="55.9,36.1 42.1,36.1 42.1,50.1 55.9,50.1 46.5,43.1 	"/>
	<path fill="#030303" d="M69.8,36.3l-3.3,4.3L62.9,36l-3.6,4.7l-3.4-4.6V50H70l0,0h13V36.1H69.4L69.8,36.3z M70.1,49.6L70,43.2
		l4.4,3.4L70.1,49.6z M70,42.9l-0.1-6.4l4.3,3.1L70,42.9z"/>
	<polygon fill="#030303" points="94.2,37 93.8,37 89.3,43.9 89.3,37 88.9,37 88.9,49.3 89.3,49.3 89.3,44.6 90.2,43.2 94.1,49.3 
		94.5,49.3 90.4,42.8 	"/>
	<path fill="#030303" d="M100.5,46.3c0,1.5-0.5,2.8-2.2,2.8c-1.6,0-2.2-1.3-2.2-2.8v-9.2h-0.4v9.2c0,1.7,0.7,3.1,2.5,3.1
		c1.9,0,2.5-1.4,2.5-3.1v-9.2h-0.2V46.3z"/>
	<polygon fill="#030303" points="102.6,37 102.3,37 102.3,49.3 106.8,49.3 106.8,48.9 102.6,48.9 	"/>
	<polygon fill="#030303" points="106.8,37.4 109.5,37.4 109.5,49.3 109.9,49.3 109.9,37.4 112.6,37.4 112.6,37 106.8,37 	"/>
	<path fill="#030303" d="M118.3,46.3c0,1.5-0.5,2.8-2.2,2.8c-1.7,0-2.2-1.3-2.2-2.8v-9.2h-0.4v9.2c0,1.7,0.7,3.1,2.5,3.1
		c1.9,0,2.5-1.4,2.5-3.1v-9.2h-0.4v9.2H118.3z"/>
	<path fill="#030303" d="M125,45.9c0-1.3-0.6-2.2-1.9-2.5c1.3-0.2,1.9-1.1,1.9-2.6v-1.1c0-1.7-0.7-2.8-2.5-2.8h-2.4v12.3h0.4v-5.7
		h1.5c1.6,0,2.7,0.5,2.7,2.3v1.9c0,0.5,0.1,1.1,0.3,1.5h0.4c-0.3-0.4-0.3-1-0.3-1.5L125,45.9L125,45.9z M120.5,43.2v-5.9h2
		c1.6,0,2.2,0.9,2.2,2.4v1.1c0,1.9-1,2.3-2.7,2.3h-1.5V43.2z"/>
	<polygon fill="#030303" points="133.8,48.7 131.8,37.1 131.3,37.1 129.2,48.7 127.1,37 126.7,37 128.9,49.3 129.4,49.3 131.5,37.9 
		133.5,49.3 134,49.3 136.2,37 135.8,37 	"/>
	<polygon fill="#030303" points="137.5,49.3 142.2,49.3 142.2,48.9 137.9,48.9 137.9,43.2 141.5,43.2 141.5,42.9 137.9,42.9 
		137.9,37.4 142.2,37.4 142.2,37 137.5,37 	"/>
	<path fill="#030303" d="M148.5,45.9c0-1.3-0.6-2.2-1.9-2.5c1.3-0.2,1.9-1.1,1.9-2.6v-1.1c0-1.7-0.7-2.8-2.5-2.8h-2.4v12.3h0.4v-5.7
		h1.5c1.6,0,2.7,0.5,2.7,2.3v1.9c0,0.5,0.1,1.1,0.3,1.5h0.4c-0.3-0.4-0.3-1-0.3-1.5L148.5,45.9L148.5,45.9z M144,43.2v-5.9h2
		c1.6,0,2.2,0.9,2.2,2.4v1.1c0,1.9-1,2.3-2.7,2.3H144V43.2z"/>
	<polygon fill="#030303" points="155.6,37 155.2,37 150.6,43.9 150.6,37 150.2,37 150.2,49.3 150.6,49.3 150.6,44.6 151.6,43.2 
		155.5,49.3 155.9,49.3 151.8,42.8 	"/>
	<path fill="#030303" d="M157.6,39.9c0-1.5,0.5-2.7,2.2-2.7c1.6,0,2.1,1.2,2.1,2.7v0.2h0.4v-0.2c0-1.7-0.7-3-2.5-3s-2.5,1.2-2.5,3
		c0,3.4,4.7,3.3,4.7,6.4c0,1.5-0.6,2.7-2.2,2.7c-1.6,0-2.2-1.2-2.2-2.7v-0.6h-0.4v0.6c0,1.7,0.7,3,2.6,3c1.9,0,2.6-1.3,2.6-3
		C162.3,43,157.6,43.1,157.6,39.9z"/>
	<polygon fill="#030303" points="163.3,37.4 165.9,37.4 165.9,49.3 166.3,49.3 166.3,37.4 169,37.4 169,37 163.3,37 	"/>
	<path fill="#030303" d="M172.3,37l-3,12.3h0.4l0.7-2.9h4.4l0.7,2.9h0.4l-3-12.3H172.3z M170.5,46l2.1-8.6l2.1,8.6H170.5z"/>
	<polygon fill="#030303" points="176.2,37.4 178.9,37.4 178.9,49.3 179.3,49.3 179.3,37.4 181.9,37.4 181.9,37 176.2,37 	"/>
	<polygon fill="#030303" points="182.6,37.4 185.3,37.4 185.3,49.3 185.7,49.3 185.7,37.4 188.4,37.4 188.4,37 182.6,37 	"/>
	<path fill="#030303" d="M195.2,42.7c1.4-0.2,1.8-1,1.8-2.4v-0.8c0-1.6-0.6-2.5-2.4-2.5h-2.5v12.3h2.5c1.9,0,2.6-1.1,2.6-2.8v-1.1
		C197.2,43.9,196.7,42.9,195.2,42.7z M192.5,37.4h2.1c1.5,0,2,0.8,2,2.2v0.8c0,1.8-0.8,2.2-2.5,2.2h-1.6V37.4z M196.8,46.4
		c0,1.5-0.6,2.5-2.2,2.5h-2.1v-6h1.8c1.7,0,2.5,0.6,2.5,2.4V46.4z"/>
	<polygon fill="#030303" points="198.6,49.3 203.2,49.3 203.2,48.9 199,48.9 199,43.2 202.6,43.2 202.6,42.9 199,42.9 199,37.4 
		203.2,37.4 203.2,37 198.6,37 	"/>
	<path fill="#030303" d="M209.6,45.9c0-1.3-0.6-2.2-1.9-2.5c1.3-0.2,1.9-1.1,1.9-2.6v-1.1c0-1.7-0.7-2.8-2.5-2.8h-2.4v12.3h0.4v-5.7
		h1.5c1.6,0,2.7,0.5,2.7,2.3v1.9c0,0.5,0.1,1.1,0.3,1.5h0.4c-0.3-0.4-0.3-1-0.3-1.5L209.6,45.9L209.6,45.9z M205,43.2v-5.9h2
		c1.6,0,2.2,0.9,2.2,2.4v1.1c0,1.9-1,2.3-2.7,2.3H205V43.2z"/>
	<polygon fill="#030303" points="211.7,37 211.3,37 211.3,49.3 215.8,49.3 215.8,48.9 211.7,48.9 	"/>
	<rect x="217.1" y="37" fill="#030303" width="0.4" height="12.3"/>
	<polygon fill="#030303" points="223.7,37 223.7,48.5 219.4,37 218.9,37 218.9,49.3 219.3,49.3 219.3,37.6 223.6,49.3 224.1,49.3 
		224.1,37 	"/>
</g>
</svg>
