<svg version="1.1" id="Ebene_1" xmlns="http://www.w3.org/2000/svg" xmlns:xlink="http://www.w3.org/1999/xlink" x="0px" y="0px"
	 viewBox="0 0 595.3 841.9" enable-background="new 0 0 595.3 841.9" preserveAspectRatio="none">
<text transform="matrix(1 0 0 1 119.499 39.8427)" font-family="'MyriadPro-Regular'" font-size="3.143">Auguststraße 90</text>
<text transform="matrix(1 0 0 1 124.6855 43.6147)" font-family="'MyriadPro-Regular'" font-size="3.143">10117 Berlin</text>
<text transform="matrix(1 0 0 1 14.8486 51.6109)" fill="#808080" font-family="'MyriadPro-Regular'" font-size="2.0953">Evangelische Kulturwerkstatt Berlin - Auguststraße 90 - 10117 Berlin</text>
<text transform="matrix(1 0 0 1 14.8486 57.3492)" font-family="'MyriadPro-Regular'" font-size="3.143">Empfänger Unternehmen </text>
<text transform="matrix(1 0 0 1 14.8486 61.1207)" font-family="'MyriadPro-Regular'" font-size="3.143">Abteilung</text>
<text transform="matrix(1 0 0 1 14.8486 64.8922)" font-family="'MyriadPro-Regular'" font-size="3.143">Vorname Nachname</text>
<text transform="matrix(1 0 0 1 14.8486 72.4351)" font-family="'MyriadPro-Regular'" font-size="3.143">PLZ Ort </text>
<text transform="matrix(1 0 0 1 81.3828 87.1968)" font-family="'MyriadPro-Regular'" font-size="3.143">Ort, Datum</text>
<text transform="matrix(1 0 0 1 14.8486 99.5987)" font-family="'MyriadPro-Regular'" font-size="3.143">Sehr geehrte Damen und Herren,</text>
<text transform="matrix(1 0 0 1 14.8486 107.1421)" font-family="'MyriadPro-Regular'" font-size="3.143">Lorem ipsum dolor sit amet, consetetur sadipscing elitr, sed diam nonumy eirmod tempor </text>
<text transform="matrix(1 0 0 1 14.8486 110.9131)" font-family="'MyriadPro-Regular'" font-size="3.143">invidunt ut labore et dolore magna aliquyam erat, sed diam voluptua. At vero eos et accusam et </text>
<text transform="matrix(1 0 0 1 14.8486 114.6846)" font-family="'MyriadPro-Regular'" font-size="3.143">justo duo dolores et ea rebum. Stet clita kasd gubergren, no sea takimata sanctus est Lorem </text>
<text transform="matrix(1 0 0 1 14.8486 118.4566)" font-family="'MyriadPro-Regular'" font-size="3.143">ipsum dolor sit amet. Lorem ipsum dolor sit amet, consetetur sadipscing elitr, sed diam nonumy </text>
<text transform="matrix(1 0 0 1 14.8486 122.2281)" font-family="'MyriadPro-Regular'" font-size="3.143">eirmod tempor invidunt ut labore et dolore magna aliquyam erat, sed diam voluptua. At vero </text>
<text transform="matrix(1 0 0 1 14.8486 125.9996)" font-family="'MyriadPro-Regular'" font-size="3.143">eos et accusam et justo duo dolores et ea rebum. Stet clita kasd gubergren, no sea takimata </text>
<text transform="matrix(1 0 0 1 14.8486 129.772)" font-family="'MyriadPro-Regular'" font-size="3.143">sanctus est Lorem ipsum dolor sit amet.</text>
<text transform="matrix(1 0 0 1 14.8486 133.5435)" font-family="'MyriadPro-Regular'" font-size="3.143">Mit freundlichen Grüßen,</text>
<text transform="matrix(1 0 0 1 14.8486 144.8589)" font-family="'MyriadPro-Regular'" font-size="3.143">Unterschrift</text>
<text transform="matrix(1 0 0 1 14.8486 152.4009)" font-family="'MyriadPro-Regular'" font-size="3.143">Vorname Nachname</text>
<text transform="matrix(1 0 0 1 14.8486 90.4234)" font-family="'MyriadPro-Regular'" font-size="3.143">Betreff</text>
<g id="Logo_1_">
	<polygon fill="#000100" points="107.8,32.9 105.1,32.9 105.1,35.7 107.8,35.7 105.9,34.3 	"/>
	<path fill="#000100" d="M110.6,32.9l-0.7,0.9l-0.7-0.9l-0.7,0.9l-0.7-0.9v2.8h2.8l0,0h2.6v-2.8L110.6,32.9L110.6,32.9z M110.6,35.6
		l0-1.3l0.9,0.7L110.6,35.6z M110.6,34.2l0-1.3l0.9,0.6L110.6,34.2z"/>
	<polygon fill="#000100" points="115.4,33.1 115.3,33.1 114.4,34.4 114.4,33.1 114.4,33.1 114.4,35.5 114.4,35.5 114.4,34.6 
		114.6,34.3 115.4,35.5 115.5,35.5 114.7,34.2 	"/>
	<path fill="#000100" d="M116.7,34.9c0,0.3-0.1,0.6-0.4,0.6c-0.3,0-0.4-0.3-0.4-0.6v-1.8h-0.1v1.8c0,0.3,0.1,0.6,0.5,0.6
		C116.6,35.5,116.7,35.3,116.7,34.9l0-1.8h0V34.9z"/>
	<polygon fill="#000100" points="117.1,33.1 117,33.1 117,35.5 117.9,35.5 117.9,35.4 117.1,35.4 	"/>
	<polygon fill="#000100" points="117.9,33.1 118.4,33.1 118.4,35.5 118.5,35.5 118.5,33.1 119.1,33.1 119.1,33.1 117.9,33.1 	"/>
	<path fill="#000100" d="M120.2,34.9c0,0.3-0.1,0.6-0.4,0.6c-0.3,0-0.4-0.3-0.4-0.6v-1.8h-0.1v1.8c0,0.3,0.1,0.6,0.5,0.6
		C120.1,35.5,120.2,35.3,120.2,34.9l0-1.8h-0.1L120.2,34.9L120.2,34.9z"/>
	<path fill="#000100" d="M121.5,34.8c0-0.3-0.1-0.4-0.4-0.5c0.3,0,0.4-0.2,0.4-0.5v-0.2c0-0.3-0.1-0.6-0.5-0.6h-0.5v2.4h0.1v-1.1
		h0.3C121.2,34.4,121.5,34.5,121.5,34.8l-0.1,0.4c0,0.1,0,0.2,0.1,0.3h0.1c-0.1-0.1-0.1-0.2-0.1-0.3L121.5,34.8L121.5,34.8z
		 M120.6,34.3v-1.2h0.4c0.3,0,0.4,0.2,0.4,0.5v0.2c0,0.4-0.2,0.5-0.5,0.5L120.6,34.3L120.6,34.3z"/>
	<polygon fill="#000100" points="123.3,35.4 122.9,33.1 122.8,33.1 122.3,35.4 121.9,33.1 121.9,33.1 122.3,35.5 122.4,35.5 
		122.8,33.2 123.2,35.5 123.3,35.5 123.7,33.1 123.7,33.1 	"/>
	<polygon fill="#000100" points="124,35.5 124.9,35.5 124.9,35.4 124.1,35.4 124.1,34.3 124.8,34.3 124.8,34.2 124.1,34.2 
		124.1,33.1 124.9,33.1 124.9,33.1 124,33.1 	"/>
	<path fill="#000100" d="M126.2,34.8c0-0.3-0.1-0.4-0.4-0.5c0.3,0,0.4-0.2,0.4-0.5v-0.2c0-0.3-0.1-0.6-0.5-0.6h-0.5v2.4h0.1v-1.1
		h0.3C125.9,34.4,126.1,34.5,126.2,34.8l-0.1,0.4c0,0.1,0,0.2,0.1,0.3h0.1c-0.1-0.1-0.1-0.2-0.1-0.3L126.2,34.8L126.2,34.8z
		 M125.3,34.3v-1.2h0.4c0.3,0,0.4,0.2,0.4,0.5v0.2c0,0.4-0.2,0.5-0.5,0.5L125.3,34.3L125.3,34.3z"/>
	<polygon fill="#000100" points="127.6,33.1 127.5,33.1 126.6,34.4 126.6,33.1 126.5,33.1 126.5,35.5 126.6,35.5 126.6,34.6 
		126.8,34.3 127.6,35.5 127.6,35.5 126.8,34.2 	"/>
	<path fill="#000100" d="M128,33.6c0-0.3,0.1-0.5,0.4-0.5c0.3,0,0.4,0.2,0.4,0.5v0h0.1v0c0-0.3-0.1-0.6-0.5-0.6S127.9,33.3,128,33.6
		c-0.1,0.7,0.9,0.7,0.9,1.3c0,0.3-0.1,0.5-0.4,0.5s-0.4-0.2-0.4-0.5v-0.1h-0.1v0.1c0,0.3,0.1,0.6,0.5,0.6s0.5-0.3,0.5-0.6
		C128.9,34.3,128,34.3,128,33.6z"/>
	<polygon fill="#000100" points="129.1,33.1 129.6,33.1 129.6,35.5 129.7,35.5 129.7,33.1 130.2,33.1 130.2,33.1 129.1,33.1 	"/>
	<path fill="#000100" d="M130.9,33.1l-0.6,2.4h0.1l0.1-0.6h0.9l0.1,0.6h0.1l-0.6-2.4H130.9z M130.5,34.9l0.4-1.7l0.4,1.7H130.5z"/>
	<polygon fill="#000100" points="131.7,33.1 132.2,33.1 132.2,35.5 132.3,35.5 132.3,33.1 132.8,33.1 132.8,33.1 131.7,33.1 	"/>
	<polygon fill="#000100" points="132.9,33.1 133.5,33.1 133.5,35.5 133.6,35.5 133.6,33.1 134.1,33.1 134.1,33.1 132.9,33.1 	"/>
	<path fill="#000100" d="M135.4,34.2c0.3,0,0.4-0.2,0.4-0.5v-0.2c0-0.3-0.1-0.5-0.5-0.5h-0.5v2.4h0.5c0.4,0,0.5-0.2,0.5-0.6v-0.2
		C135.8,34.4,135.7,34.2,135.4,34.2z M134.9,33.1h0.4c0.3,0,0.4,0.2,0.4,0.4v0.2c0,0.4-0.2,0.4-0.5,0.4h-0.3V33.1z M135.8,34.9
		c0,0.3-0.1,0.5-0.4,0.5h-0.4v-1.2h0.4c0.3,0,0.5,0.1,0.5,0.5V34.9z"/>
	<polygon fill="#000100" points="136.1,35.5 137,35.5 137,35.4 136.2,35.4 136.2,34.3 136.9,34.3 136.9,34.2 136.2,34.2 136.2,33.1 
		137,33.1 137,33.1 136.1,33.1 	"/>
	<path fill="#000100" d="M138.3,34.8c0-0.3-0.1-0.4-0.4-0.5c0.3,0,0.4-0.2,0.4-0.5v-0.2c0-0.3-0.1-0.6-0.5-0.6h-0.5v2.4h0.1v-1.1
		h0.3C138,34.4,138.2,34.5,138.3,34.8l-0.1,0.4c0,0.1,0,0.2,0.1,0.3h0.1c-0.1-0.1-0.1-0.2-0.1-0.3L138.3,34.8L138.3,34.8z
		 M137.4,34.3v-1.2h0.4c0.3,0,0.4,0.2,0.4,0.5v0.2c0,0.4-0.2,0.5-0.5,0.5L137.4,34.3L137.4,34.3z"/>
	<polygon fill="#000100" points="138.7,33.1 138.6,33.1 138.6,35.5 139.5,35.5 139.5,35.4 138.7,35.4 	"/>
	<rect x="139.8" y="33.1" fill="#000100" width="0.1" height="2.4"/>
	<polygon fill="#000100" points="141.1,33.1 141.1,35.4 140.2,33.1 140.1,33.1 140.1,35.5 140.2,35.5 140.2,33.2 141.1,35.5 
		141.2,35.5 141.2,33.1 	"/>
</g>
<g>
	<polygon fill="#FFFFFF" points="15.9,21.2 25.5,10.5 35.1,21.2 35.1,22 15.9,22 	"/>
	<polygon fill="#CEE7CE" points="15,22.9 15,20.9 25.5,9 36.1,20.9 36.1,22.9 	"/>
	<polygon fill="#A0C5E9" points="15.9,21.2 25.5,10.5 35.1,21.2 35.1,22 15.9,22 	"/>
</g>
<path fill="#FFCE1B" d="M22.1,19.2l0-0.2c0-0.3,0.4-0.6,0.7-0.6s0.7,0.3,0.7,0.6v-0.2c0-0.7-0.6-1.2-1.4-1.2c-0.8,0-1.4,0.5-1.4,1.2
	V19c0-0.3,0.4-0.6,0.7-0.6c0.3,0,0.7,0.3,0.7,0.6L22.1,19.2z"/>
<path fill="#83298B" d="M21.2,18.9c-0.3,0-0.6,0.3-0.6,0.6v1.4h1.2v-1.4C21.8,19.2,21.5,18.9,21.2,18.9z"/>
<path fill="#83298B" d="M22.9,18.9c-0.3,0-0.6,0.3-0.6,0.6v1.4h1.2v-1.4C23.5,19.2,23.3,18.9,22.9,18.9z"/>
<path fill="#7DC242" d="M22.4,19.5c0-0.3,0.3-0.6,0.6-0.6s0.6,0.3,0.6,0.6V19c0-0.3-0.4-0.6-0.7-0.6s-0.7,0.3-0.7,0.6l0,0.2l0-0.2
	c0-0.3-0.4-0.6-0.7-0.6c-0.3,0-0.7,0.3-0.7,0.6v0.5c0-0.3,0.3-0.6,0.6-0.6s0.6,0.3,0.6,0.6H22.4z"/>
<rect x="20.6" y="20.9" fill="#FFD15A" width="2.9" height="0.6"/>
<rect x="21.8" y="19.5" fill="#57BDEC" width="0.6" height="1.4"/>
<circle fill="#756CB1" cx="25.5" cy="15.7" r="1.4"/>
<circle fill="#FAA442" cx="25.5" cy="15.7" r="1.2"/>
<line fill="none" x1="15.9" y1="21.7" x2="17.2" y2="21.7"/>
<line fill="none" x1="33.9" y1="21.7" x2="35.1" y2="21.7"/>
<path fill="#FFFFFF" d="M34.6,11.7"/>
<path fill="#FFFFFF" d="M33.7,11.7"/>
<path fill="#FFFFFF" d="M34.1,12.4"/>
<path fill="#FFFFFF" d="M34.1,11.1"/>
<g>
	<path fill="#6A5FAA" d="M25.5,10.5l-9.6,10.8l0,0.5h1.2V21c0-0.3,0.2-0.6,0.5-0.6c0.2,0,0.4,0.2,0.5,0.4h0v0h0.1v-1.2
		c0-0.3,0.2-0.6,0.5-0.6c0.2,0,0.4,0.2,0.5,0.4l0,0c0,0,0,0,0,0v0h0.1v-1.2c0-0.3,0.2-0.6,0.5-0.6c0.2,0,0.4,0.2,0.5,0.5
		c0,0,0,0,0,0v0h0.1v-1.2c0-0.3,0.2-0.6,0.5-0.6c0.2,0,0.4,0.2,0.5,0.5c0,0,0,0,0,0v0h0.1v-1.2c0-0.3,0.2-0.6,0.5-0.6
		c0.2,0,0.4,0.2,0.5,0.4c0,0,0,0,0,0v0h0.1v-1.2c0-0.3,0.2-0.6,0.5-0.6c0.2,0,0.4,0.2,0.5,0.5c0,0,0,0,0,0v0h0.1v-1.2
		c0-0.3,0.2-0.6,0.5-0.6c0.2,0,0.4,0.2,0.5,0.4c0,0,0,0,0,0c0,0,0,0,0,0v0H25v-1.2c0-0.3,0.2-0.6,0.5-0.6c0.3,0,0.5,0.3,0.5,0.6v1.2
		h0.1v0c0,0,0,0,0,0c0-0.3,0.2-0.5,0.5-0.5c0.3,0,0.5,0.3,0.5,0.6v1.2h0.1v0c0,0,0,0,0,0c0-0.3,0.2-0.5,0.5-0.5
		c0.3,0,0.5,0.3,0.5,0.6v1.2h0.1v0c0,0,0,0,0,0l0,0c0.1-0.3,0.2-0.4,0.5-0.4c0.3,0,0.5,0.3,0.5,0.6V17h0.1v0h0c0,0,0,0,0,0
		c0-0.3,0.2-0.5,0.5-0.5c0.3,0,0.5,0.3,0.5,0.6v1.2h0.1v0c0,0,0,0,0,0c0-0.3,0.2-0.5,0.5-0.5c0.3,0,0.5,0.3,0.5,0.6v1.2h0.1
		c0,0,0,0,0,0c0,0,0,0,0,0c0.1-0.2,0.2-0.4,0.5-0.4c0.3,0,0.5,0.3,0.5,0.6v1.2h0.1v0h0c0.1-0.2,0.2-0.4,0.5-0.4
		c0.3,0,0.5,0.3,0.5,0.6v0.8H35v-0.5L25.5,10.5z"/>
</g>
<rect x="15" y="23.2" fill="#57BDEC" width="21.1" height="20.6"/>
<rect x="15" y="22.9" fill="#EE4A95" width="21.1" height="0.2"/>
<rect x="17.1" y="21.5" fill="#F68E52" width="16.7" height="0.3"/>
<path fill="#FFCE1B" d="M25.5,19.2l0-0.2c0-0.3,0.4-0.6,0.7-0.6c0.3,0,0.7,0.3,0.7,0.6v-0.2c0-0.7-0.6-1.2-1.4-1.2s-1.4,0.5-1.4,1.2
	V19c0-0.3,0.4-0.6,0.7-0.6c0.3,0,0.7,0.3,0.7,0.6L25.5,19.2z"/>
<path fill="#83298B" d="M24.6,18.9c-0.3,0-0.6,0.3-0.6,0.6v1.4h1.2v-1.4C25.2,19.2,25,18.9,24.6,18.9z"/>
<path fill="#83298B" d="M26.4,18.9c-0.3,0-0.6,0.3-0.6,0.6v1.4h1.2v-1.4C26.9,19.2,26.7,18.9,26.4,18.9z"/>
<path fill="#7DC242" d="M25.8,19.5c0-0.3,0.3-0.6,0.6-0.6c0.3,0,0.6,0.3,0.6,0.6V19c0-0.3-0.4-0.6-0.7-0.6c-0.3,0-0.7,0.3-0.7,0.6
	l0,0.2l0-0.2c0-0.3-0.4-0.6-0.7-0.6c-0.3,0-0.7,0.3-0.7,0.6v0.5c0-0.3,0.3-0.6,0.6-0.6c0.3,0,0.6,0.3,0.6,0.6H25.8z"/>
<rect x="24.1" y="20.9" fill="#FFD15A" width="2.9" height="0.6"/>
<rect x="25.2" y="19.5" fill="#57BDEC" width="0.6" height="1.4"/>
<path fill="#FFCE1B" d="M29,19.2l0-0.2c0-0.3,0.4-0.6,0.7-0.6c0.3,0,0.7,0.3,0.7,0.6v-0.2c0-0.7-0.6-1.2-1.4-1.2
	c-0.8,0-1.4,0.5-1.4,1.2V19c0-0.3,0.4-0.6,0.7-0.6s0.7,0.3,0.7,0.6L29,19.2z"/>
<path fill="#83298B" d="M28.1,18.9c-0.3,0-0.6,0.3-0.6,0.6v1.4h1.2v-1.4C28.7,19.2,28.4,18.9,28.1,18.9z"/>
<path fill="#83298B" d="M29.8,18.9c-0.3,0-0.6,0.3-0.6,0.6v1.4h1.2v-1.4C30.4,19.2,30.1,18.9,29.8,18.9z"/>
<path fill="#7DC242" d="M29.3,19.5c0-0.3,0.3-0.6,0.6-0.6s0.6,0.3,0.6,0.6V19c0-0.3-0.4-0.6-0.7-0.6c-0.3,0-0.7,0.3-0.7,0.6l0,0.2
	l0-0.2c0-0.3-0.4-0.6-0.7-0.6s-0.7,0.3-0.7,0.6v0.5c0-0.3,0.3-0.6,0.6-0.6c0.3,0,0.6,0.3,0.6,0.6H29.3z"/>
<rect x="27.5" y="20.9" fill="#FFD15A" width="2.9" height="0.6"/>
<rect x="28.7" y="19.5" fill="#57BDEC" width="0.6" height="1.4"/>
<path fill="#CD499A" d="M27.4,19.2H27v-0.3c0-0.7-0.7-1.3-1.5-1.3S24,18.1,24,18.8v0.3h-0.4v-0.3c0-0.7-0.7-1.3-1.5-1.3
	c-0.8,0-1.5,0.6-1.5,1.3v0.3h-0.1v-0.3c0-0.8,0.7-1.4,1.6-1.4c0.9,0,1.6,0.6,1.6,1.4v0.2h0.2v-0.2c0-0.8,0.7-1.4,1.6-1.4
	s1.6,0.6,1.6,1.4v0.2L27.4,19.2l-0.1-0.3c0-0.8,0.7-1.4,1.6-1.4c0.9,0,1.6,0.6,1.6,1.4v0.3h-0.1v-0.3c0-0.7-0.7-1.3-1.5-1.3
	c-0.8,0-1.5,0.6-1.5,1.3L27.4,19.2L27.4,19.2z"/>
<path fill="#83298B" d="M30,23.5c-0.2,0-0.4,0.2-0.4,0.4v0.3h-0.1v-0.3c0-0.2-0.2-0.4-0.4-0.4c-0.2,0-0.4,0.2-0.4,0.4v0.3h-0.1v-0.3
	c0-0.2-0.2-0.4-0.4-0.4c-0.2,0-0.4,0.2-0.4,0.4v0.3h-0.1v-0.3c0-0.2-0.2-0.4-0.4-0.4s-0.4,0.2-0.4,0.4v0.3h-0.1v-0.3
	c0-0.2-0.2-0.4-0.4-0.4c-0.2,0-0.4,0.2-0.4,0.4v0.3h-0.1v-0.3c0-0.2-0.2-0.4-0.4-0.4c-0.2,0-0.4,0.2-0.4,0.4v0.3H25v-0.3
	c0-0.2-0.2-0.4-0.4-0.4s-0.4,0.2-0.4,0.4v0.3h-0.1v-0.3c0-0.2-0.2-0.4-0.4-0.4c-0.2,0-0.4,0.2-0.4,0.4v0.3h-0.1v-0.3
	c0-0.2-0.2-0.4-0.4-0.4s-0.4,0.2-0.4,0.4v0.3h-0.1v-0.3c0-0.2-0.2-0.4-0.4-0.4s-0.4,0.2-0.4,0.4v0.3h-0.1v-0.3
	c0-0.2-0.2-0.4-0.4-0.4c-0.2,0-0.4,0.2-0.4,0.4v0.3v0.7v9h9.8v-9v-0.7v-0.3C30.4,23.7,30.2,23.5,30,23.5z"/>
<circle fill="#FFD15A" cx="25.5" cy="28.7" r="4"/>
<circle fill="#45BAEB" cx="25.5" cy="28.7" r="3.9"/>
<circle fill="#E57325" cx="25.5" cy="28.7" r="3.7"/>
<circle fill="#CF157E" cx="25.5" cy="28.7" r="3.5"/>
<circle fill="#D2A01F" cx="25.5" cy="28.7" r="1.1"/>
<circle fill="#352C81" cx="25.5" cy="28.7" r="0.9"/>
<circle fill="#69BD45" cx="25.5" cy="28.7" r="0.9"/>
<circle fill="#D2A01F" cx="25.5" cy="26.2" r="1"/>
<circle fill="#D2A01F" cx="23.8" cy="27" r="1"/>
<circle fill="#D2A01F" cx="23.1" cy="28.7" r="1"/>
<circle fill="#D2A01F" cx="23.8" cy="30.4" r="1"/>
<circle fill="#D2A01F" cx="25.5" cy="31.1" r="1"/>
<circle fill="#D2A01F" cx="27.3" cy="30.4" r="1"/>
<circle fill="#D2A01F" cx="28" cy="28.7" r="1"/>
<circle fill="#D2A01F" cx="27.2" cy="26.9" r="1"/>
<circle fill="#352C81" cx="25.5" cy="26.2" r="0.9"/>
<circle fill="#69BD45" cx="25.5" cy="26.2" r="0.9"/>
<circle fill="#352C81" cx="23.8" cy="27" r="0.9"/>
<circle fill="#69BD45" cx="23.8" cy="27" r="0.9"/>
<circle fill="#352C81" cx="23.1" cy="28.7" r="0.9"/>
<circle fill="#69BD45" cx="23.1" cy="28.7" r="0.9"/>
<circle fill="#352C81" cx="23.8" cy="30.4" r="0.9"/>
<circle fill="#69BD45" cx="23.8" cy="30.4" r="0.9"/>
<circle fill="#352C81" cx="25.5" cy="31.1" r="0.9"/>
<circle fill="#69BD45" cx="25.5" cy="31.1" r="0.9"/>
<circle fill="#352C81" cx="27.3" cy="30.4" r="0.9"/>
<circle fill="#69BD45" cx="27.3" cy="30.4" r="0.9"/>
<circle fill="#352C81" cx="28" cy="28.7" r="0.9"/>
<circle fill="#69BD45" cx="28" cy="28.7" r="0.9"/>
<circle fill="#352C81" cx="27.2" cy="26.9" r="0.9"/>
<circle fill="#69BD45" cx="27.2" cy="26.9" r="0.9"/>
<circle fill="#69BD45" cx="25.5" cy="28.7" r="0.9"/>
<path fill="#FCF7BC" d="M29.2,28.7v-0.1l0,0v0v0l0,0l0-0.1l0,0l0,0v0l0,0l0-0.1l0,0l0,0v0l0,0l0-0.1l0,0l0,0l0,0l0,0l0-0.1l0,0l0,0
	l0,0l0,0l0-0.1l0,0l0,0l0,0l0,0l0-0.1l0,0l0,0l0,0l0,0l0-0.1l0,0l0,0l0,0l0,0l0-0.1l0,0l0,0l0,0l0,0l0-0.1l0,0l0,0l0,0l0,0l0-0.1
	l0,0l0,0l0,0l0,0l-0.1-0.1l0,0l0,0l0,0l0,0l-0.1-0.1l0,0l0,0l0,0l0,0l-0.1-0.1l0,0l0,0l0,0l0,0l-0.1-0.1l0,0l0,0l0,0l0,0l-0.1-0.1
	l0,0l0,0l0,0l0,0l-0.1-0.1l0,0l0,0l0,0l0,0l-0.1-0.1l0,0l0,0l0,0l0,0L28,26l0,0l0,0l0,0l0,0l-0.1-0.1l0,0l0,0l0,0l0,0l-0.1-0.1l0,0
	l0,0l0,0l0,0l-0.1-0.1l0,0l0,0l0,0l0,0l-0.1-0.1l0,0l0,0l0,0l0,0l-0.1-0.1l0,0l0,0l0,0l0,0l-0.1-0.1l0,0l0,0l0,0l0,0l-0.1,0l0,0l0,0
	l0,0l0,0l-0.1,0l0,0l0,0l0,0l0,0l-0.1,0l0,0l0,0l0,0l0,0l-0.1,0l0,0l0,0l0,0l0,0l-0.1,0l0,0l0,0l0,0l0,0l-0.1,0l0,0l0,0l0,0l0,0
	l-0.1,0l0,0l0,0l0,0l0,0L26,25l0,0l0,0l0,0l0,0l-0.1,0l0,0h0h0l0,0l-0.1,0l0,0h0h0l0,0h-0.1l0,0h0h0l0,0l-0.1,0l0,0l0,0h0l0,0
	l-0.1,0l0,0l0,0h0l0,0l-0.1,0l0,0l0,0l0,0l0,0l-0.1,0l0,0l0,0l0,0l0,0l-0.1,0l0,0l0,0l0,0l0,0l-0.1,0l0,0l0,0l0,0l0,0l-0.1,0l0,0
	l0,0l0,0l0,0l-0.1,0l0,0l0,0l0,0l0,0l-0.1,0l0,0l0,0l0,0l0,0l-0.1,0l0,0l0,0l0,0l0,0l-0.1,0.1l0,0l0,0l0,0l0,0l-0.1,0.1l0,0l0,0l0,0
	l0,0l-0.1,0.1l0,0l0,0l0,0l0,0l-0.1,0.1l0,0l0,0l0,0l0,0l-0.1,0.1l0,0l0,0l0,0l0,0L23.1,26l0,0l0,0l0,0l0,0l-0.1,0.1l0,0l0,0l0,0
	l0,0l-0.1,0.1l0,0l0,0l0,0l0,0l-0.1,0.1l0,0l0,0l0,0l0,0l-0.1,0.1l0,0l0,0l0,0l0,0l-0.1,0.1l0,0l0,0l0,0l0,0l-0.1,0.1l0,0l0,0l0,0
	l0,0l-0.1,0.1l0,0l0,0l0,0l0,0L22.2,27l0,0l0,0l0,0l0,0l0,0.1l0,0l0,0l0,0l0,0l0,0.1l0,0l0,0l0,0l0,0l0,0.1l0,0l0,0l0,0l0,0l0,0.1
	l0,0l0,0l0,0l0,0l0,0.1l0,0l0,0l0,0l0,0l0,0.1l0,0l0,0l0,0l0,0l0,0.1l0,0l0,0l0,0l0,0l0,0.1l0,0l0,0l0,0l0,0l0,0.1l0,0v0v0l0,0
	l0,0.1l0,0v0v0l0,0v0.1l0,0v0v0l0,0l0,0.1l0,0l0,0v0l0,0l0,0.1l0,0l0,0v0l0,0l0,0.1l0,0l0,0l0,0l0,0l0,0.1l0,0l0,0l0,0l0,0l0,0.1
	l0,0l0,0l0,0l0,0l0,0.1l0,0l0,0l0,0l0,0l0,0.1l0,0l0,0l0,0l0,0l0,0.1l0,0l0,0l0,0l0,0l0,0.1l0,0l0,0l0,0l0,0l0,0.1l0,0l0,0l0,0l0,0
	l0.1,0.1l0,0l0,0l0,0l0,0l0.1,0.1l0,0l0,0l0,0l0,0l0.1,0.1l0,0l0,0l0,0l0,0l0.1,0.1l0,0l0,0l0,0l0,0l0.1,0.1l0,0l0,0l0,0l0,0
	l0.1,0.1l0,0l0,0l0,0l0,0l0.1,0.1l0,0l0,0l0,0l0,0l0.1,0.1l0,0l0,0l0,0l0,0l0.1,0.1l0,0l0,0l0,0l0,0l0.1,0.1l0,0l0,0l0,0l0,0
	l0.1,0.1l0,0l0,0l0,0l0,0l0.1,0.1l0,0l0,0l0,0l0,0l0.1,0.1l0,0l0,0l0,0l0,0l0.1,0.1l0,0l0,0l0,0l0,0l0.1,0l0,0l0,0l0,0l0,0l0.1,0
	l0,0l0,0l0,0l0,0l0.1,0l0,0l0,0l0,0l0,0l0.1,0l0,0l0,0l0,0l0,0l0.1,0l0,0l0,0l0,0l0,0l0.1,0l0,0l0,0l0,0l0,0l0.1,0l0,0l0,0l0,0l0,0
	l0.1,0l0,0l0,0l0,0l0,0l0.1,0l0,0h0h0l0,0l0.1,0l0,0h0h0l0,0h0.1l0,0h0h0l0,0l0.1,0l0,0l0,0h0l0,0l0.1,0l0,0l0,0h0l0,0l0.1,0l0,0
	l0,0l0,0l0,0l0.1,0l0,0l0,0l0,0l0,0l0.1,0l0,0l0,0l0,0l0,0l0.1,0l0,0l0,0l0,0l0,0l0.1,0l0,0l0,0l0,0l0,0l0.1,0l0,0l0,0l0,0l0,0
	l0.1,0l0,0l0,0l0,0l0,0l0.1,0l0,0l0,0l0,0l0,0l0.1-0.1l0,0l0,0l0,0l0,0l0.1-0.1l0,0l0,0l0,0l0,0l0.1-0.1l0,0l0,0l0,0l0,0l0.1-0.1
	l0,0l0,0l0,0l0,0l0.1-0.1l0,0l0,0l0,0l0,0l0.1-0.1l0,0l0,0l0,0l0,0l0.1-0.1l0,0l0,0l0,0l0,0l0.1-0.1l0,0l0,0l0,0l0,0l0.1-0.1l0,0
	l0,0l0,0l0,0l0.1-0.1l0,0l0,0l0,0l0,0l0.1-0.1l0,0l0,0l0,0l0,0l0.1-0.1l0,0l0,0l0,0l0,0l0.1-0.1l0,0l0,0l0,0l0,0l0.1-0.1l0,0l0,0
	l0,0l0,0l0-0.1l0,0l0,0l0,0l0,0l0-0.1l0,0l0,0l0,0l0,0l0-0.1l0,0l0,0l0,0l0,0l0-0.1l0,0l0,0l0,0l0,0l0-0.1l0,0l0,0l0,0l0,0l0-0.1
	l0,0l0,0l0,0l0,0l0-0.1l0,0l0,0l0,0l0,0l0-0.1l0,0l0,0l0,0l0,0l0-0.1l0,0v0v0l0,0L29.2,28.7L29.2,28.7L29.2,28.7L29.2,28.7
	L29.2,28.7L29.2,28.7z M26.8,31.9L26.8,31.9L26.8,31.9L26.7,32l0,0l0,0l-0.1,0l0,0l0,0l-0.1,0l0,0l0,0l-0.1,0l0,0l0,0l-0.1,0l0,0
	l0,0l-0.1,0l0,0l0,0l-0.1,0l0,0l0,0l-0.1,0l0,0l0,0h-0.1l0,0l0,0l-0.1,0l0,0l0,0l-0.1,0l0,0l0,0l-0.1,0l0,0l0,0l-0.1,0l0,0l0,0
	l-0.1,0l0,0l0,0l-0.1,0l0,0l0,0l-0.1,0l0,0l0,0l-0.1,0l0,0l0,0l-0.1,0l0,0l0,0l-0.1,0l0,0l0,0l-0.1,0l0,0l0,0l-0.1,0l0,0l0,0l-0.1,0
	l0,0l0,0l-0.1-0.1h0l0,0l-0.1-0.1h0l0,0l-0.1-0.1h0l0,0l-0.1-0.1l0,0l0,0L23,31.1l0,0l0,0L22.9,31l0,0l0,0l-0.1-0.1l0,0v0l-0.1-0.1
	l0,0v0l0-0.1l0,0l0,0l0-0.1l0,0l0,0l0-0.1l0,0l0,0l0-0.1l0,0l0,0l0-0.1l0,0l0,0l0-0.1l0,0l0,0l0-0.1l0,0l0,0l0-0.1l0,0l0,0l0-0.1
	l0,0l0,0l0-0.1l0,0l0,0l0-0.1l0,0l0,0l0-0.1l0,0l0,0l0-0.1l0,0l0,0v-0.1l0,0l0,0l0-0.1l0,0l0,0l0-0.1l0,0l0,0l0-0.1l0,0l0,0l0-0.1
	l0,0l0,0l0-0.1l0,0l0,0l0-0.1l0,0l0,0l0-0.1l0,0l0,0l0-0.1l0,0l0,0l0-0.1l0,0l0,0l0-0.1l0,0l0,0l0-0.1l0,0l0,0l0-0.1l0,0l0,0l0-0.1
	l0,0l0,0l0.1-0.1v0l0,0l0.1-0.1v0l0,0l0.1-0.1v0l0,0l0.1-0.1l0,0l0,0l0.1-0.1l0,0l0,0l0.1-0.1l0,0l0,0l0.1-0.1l0,0h0l0.1-0.1l0,0h0
	l0.1,0l0,0l0,0l0.1,0l0,0l0,0l0.1,0l0,0l0,0l0.1,0l0,0l0,0l0.1,0l0,0l0,0l0.1,0l0,0l0,0l0.1,0l0,0l0,0l0.1,0l0,0l0,0l0.1,0l0,0l0,0
	l0.1,0l0,0l0,0l0.1,0l0,0l0,0l0.1,0l0,0l0,0l0.1,0l0,0l0,0h0.1l0,0l0,0l0.1,0l0,0l0,0l0.1,0l0,0l0,0l0.1,0l0,0l0,0l0.1,0l0,0l0,0
	l0.1,0l0,0l0,0l0.1,0l0,0l0,0l0.1,0l0,0l0,0l0.1,0l0,0l0,0l0.1,0l0,0l0,0l0.1,0l0,0l0,0l0.1,0l0,0l0,0l0.1,0l0,0l0,0l0.1,0l0,0l0,0
	l0.1,0.1h0l0,0l0.1,0.1h0l0,0l0.1,0.1h0l0,0l0.1,0.1l0,0l0,0l0.1,0.1l0,0l0,0l0.1,0.1l0,0l0,0l0.1,0.1l0,0v0l0.1,0.1l0,0v0l0,0.1
	l0,0l0,0l0,0.1l0,0l0,0l0,0.1l0,0l0,0l0,0.1l0,0l0,0l0,0.1l0,0l0,0l0,0.1l0,0l0,0l0,0.1l0,0l0,0l0,0.1l0,0l0,0l0,0.1l0,0l0,0l0,0.1
	l0,0l0,0l0,0.1l0,0l0,0l0,0.1l0,0l0,0l0,0.1l0,0l0,0v0.1l0,0l0,0l0,0.1l0,0l0,0l0,0.1l0,0l0,0l0,0.1l0,0l0,0l0,0.1l0,0l0,0l0,0.1
	l0,0l0,0l0,0.1l0,0l0,0l0,0.1l0,0l0,0l0,0.1l0,0l0,0l0,0.1l0,0l0,0l0,0.1l0,0l0,0l0,0.1l0,0l0,0l0,0.1l0,0l0,0l0,0.1l0,0l0,0
	l-0.1,0.1v0l0,0l-0.1,0.1v0l0,0L28.1,31v0l0,0L28,31.1l0,0l0,0l-0.1,0.1l0,0l0,0l-0.1,0.1l0,0l0,0l-0.1,0.1l0,0h0l-0.1,0.1l0,0h0
	l-0.1,0l0,0l0,0l-0.1,0l0,0l0,0l-0.1,0l0,0l0,0l-0.1,0l0,0L26.8,31.9L26.8,31.9z"/>
<path fill="#CF157E" d="M27,28.7c0-0.3,0.1-0.5,0.3-0.7c-0.3,0-0.5-0.1-0.7-0.3c-0.2-0.2-0.3-0.5-0.3-0.7c-0.2,0.2-0.4,0.3-0.7,0.3
	c-0.3,0-0.5-0.1-0.7-0.3c0,0.3-0.1,0.5-0.3,0.7C24.3,27.9,24,28,23.8,28c0.2,0.2,0.3,0.4,0.3,0.7c0,0.3-0.1,0.5-0.3,0.7
	c0.3,0,0.5,0.1,0.7,0.3c0.2,0.2,0.3,0.5,0.3,0.7c0.2-0.2,0.4-0.3,0.7-0.3c0.3,0,0.5,0.1,0.7,0.3c0-0.3,0.1-0.5,0.3-0.7
	c0.2-0.2,0.5-0.3,0.7-0.3C27.1,29.2,27,29,27,28.7z M25.5,29.8c-0.6,0-1.1-0.5-1.1-1.1c0-0.6,0.5-1.1,1.1-1.1c0.6,0,1.1,0.5,1.1,1.1
	C26.6,29.3,26.1,29.8,25.5,29.8z"/>
<path fill="#4EC5D6" d="M29,28.6L29,28.6l0-0.1l0,0l0,0l0-0.1l0,0l0,0l0-0.1l0,0l0,0l0-0.1l0,0l0,0l0-0.1l0,0l0,0l0-0.1l0,0l0,0
	l0-0.1l0,0l0,0l0-0.1l0,0l0,0l0-0.1l0,0l0,0l0-0.1l0,0l0,0l0-0.1l0,0l0,0l0-0.1l0,0l0,0l0-0.1v0l0,0l-0.1-0.1v0l0,0l-0.1-0.1l0,0
	l0,0l-0.1-0.1l0,0l0,0L28,26.2l0,0l0,0l-0.1-0.1l0,0h0L27.8,26l0,0h0l-0.1-0.1l0,0h0l-0.1-0.1l0,0l0,0l-0.1,0l0,0l0,0l-0.1,0l0,0
	l0,0l-0.1,0l0,0l0,0l-0.1,0l0,0l0,0l-0.1,0l0,0l0,0l-0.1,0l0,0l0,0l-0.1,0l0,0l0,0l-0.1,0l0,0l0,0l-0.1,0l0,0l0,0l-0.1,0l0,0l0,0
	l-0.1,0l0,0l0,0l-0.1,0l0,0l0,0l-0.1,0l0,0l0,0h-0.1l0,0l0,0l-0.1,0l0,0l0,0l-0.1,0l0,0l0,0l-0.1,0l0,0l0,0l-0.1,0l0,0l0,0l-0.1,0
	l0,0l0,0l-0.1,0l0,0l0,0l-0.1,0l0,0l0,0l-0.1,0l0,0l0,0l-0.1,0l0,0l0,0l-0.1,0l0,0l0,0l-0.1,0l0,0l0,0l-0.1,0l0,0l0,0l-0.1,0h0l0,0
	l-0.1,0.1h0l0,0L23.3,26l0,0l0,0l-0.1,0.1l0,0l0,0l-0.1,0.1l0,0l0,0L23,26.3l0,0v0l-0.1,0.1l0,0v0l-0.1,0.1l0,0v0l-0.1,0.1l0,0l0,0
	l0,0.1l0,0l0,0l0,0.1l0,0l0,0l0,0.1l0,0l0,0l0,0.1l0,0l0,0l0,0.1l0,0l0,0l0,0.1l0,0l0,0l0,0.1l0,0l0,0l0,0.1l0,0l0,0l0,0.1l0,0l0,0
	l0,0.1l0,0l0,0l0,0.1l0,0l0,0l0,0.1l0,0l0,0l0,0.1l0,0l0,0v0.1l0,0l0,0l0,0.1l0,0l0,0l0,0.1l0,0l0,0l0,0.1l0,0l0,0l0,0.1l0,0l0,0
	l0,0.1l0,0l0,0l0,0.1l0,0l0,0l0,0.1l0,0l0,0l0,0.1l0,0l0,0l0,0.1l0,0l0,0l0,0.1l0,0l0,0l0,0.1l0,0l0,0l0,0.1l0,0l0,0l0,0.1v0l0,0
	l0.1,0.1v0l0,0l0.1,0.1l0,0l0,0l0.1,0.1l0,0l0,0l0.1,0.1l0,0l0,0l0.1,0.1l0,0h0l0.1,0.1l0,0h0l0.1,0.1l0,0h0l0.1,0.1l0,0l0,0l0.1,0
	l0,0l0,0l0.1,0l0,0l0,0l0.1,0l0,0l0,0l0.1,0l0,0l0,0l0.1,0l0,0l0,0l0.1,0l0,0l0,0l0.1,0l0,0l0,0l0.1,0l0,0l0,0l0.1,0l0,0l0,0l0.1,0
	l0,0l0,0l0.1,0l0,0l0,0l0.1,0l0,0l0,0l0.1,0l0,0l0,0h0.1l0,0l0,0l0.1,0l0,0l0,0l0.1,0l0,0l0,0l0.1,0l0,0l0,0l0.1,0l0,0l0,0l0.1,0
	l0,0l0,0l0.1,0l0,0l0,0l0.1,0l0,0l0,0l0.1,0l0,0l0,0l0.1,0l0,0l0,0l0.1,0l0,0l0,0l0.1,0l0,0l0,0l0.1,0l0,0l0,0l0.1,0h0l0,0l0.1-0.1
	h0l0,0l0.1-0.1l0,0l0,0l0.1-0.1l0,0l0,0l0.1-0.1l0,0l0,0l0.1-0.1l0,0v0l0.1-0.1l0,0v0l0.1-0.1l0,0v0l0.1-0.1l0,0l0,0l0-0.1l0,0l0,0
	l0-0.1l0,0l0,0l0-0.1l0,0l0,0l0-0.1l0,0l0,0l0-0.1l0,0l0,0l0-0.1l0,0l0,0l0-0.1l0,0l0,0l0-0.1l0,0l0,0l0-0.1l0,0l0,0l0-0.1l0,0l0,0
	l0-0.1l0,0l0,0l0-0.1l0,0l0,0l0-0.1l0,0l0,0L29,28.6L29,28.6z M28,29.7C28,29.7,28,29.7,28,29.7C28,29.7,28,29.7,28,29.7
	c0.4,0.4,0.4,1.1,0,1.4s-1,0.4-1.4,0c0,0,0,0,0,0c0,0,0,0,0,0c0,0.6-0.5,1-1,1s-1-0.5-1-1c0,0,0,0,0,0c0,0,0,0,0,0
	c-0.4,0.4-1,0.4-1.4,0c-0.4-0.4-0.4-1,0-1.4c0,0,0,0,0,0c0,0,0,0,0,0c-0.6,0-1-0.5-1-1s0.5-1,1-1c0,0,0,0,0,0c0,0,0,0,0,0
	c-0.4-0.4-0.4-1,0-1.4c0.4-0.4,1-0.4,1.4,0c0,0,0,0,0,0c0,0,0,0,0,0c0-0.6,0.5-1,1-1s1,0.5,1,1c0,0,0,0,0,0c0,0,0,0,0,0
	c0.4-0.4,1-0.4,1.4,0s0.4,1,0,1.4c0,0,0,0,0,0c0,0,0,0,0,0c0.6,0,1,0.5,1,1C29,29.2,28.5,29.7,28,29.7z"/>
<path fill="#8AC640" d="M27.3,23.5c-0.2,0-0.4,0.2-0.4,0.4V24h0.8v-0.1C27.7,23.7,27.5,23.5,27.3,23.5z"/>
<path fill="#8AC640" d="M28.2,23.5c-0.2,0-0.4,0.2-0.4,0.4V24h0.8v-0.1C28.6,23.7,28.4,23.5,28.2,23.5z"/>
<path fill="#8AC640" d="M26.4,23.5c-0.2,0-0.4,0.2-0.4,0.4V24h0.8v-0.1C26.8,23.7,26.6,23.5,26.4,23.5z"/>
<path fill="#8AC640" d="M29.1,23.5c-0.2,0-0.4,0.2-0.4,0.4V24h0.8v-0.1C29.5,23.7,29.3,23.5,29.1,23.5z"/>
<path fill="#8AC640" d="M30,23.5c-0.2,0-0.4,0.2-0.4,0.4V24h0.8v-0.1C30.4,23.7,30.2,23.5,30,23.5z"/>
<path fill="#8AC640" d="M24.6,23.5c-0.2,0-0.4,0.2-0.4,0.4V24H25v-0.1C25,23.7,24.8,23.5,24.6,23.5z"/>
<path fill="#8AC640" d="M21.9,23.5c-0.2,0-0.4,0.2-0.4,0.4V24h0.8v-0.1C22.3,23.7,22.2,23.5,21.9,23.5z"/>
<path fill="#8AC640" d="M25.5,23.5c-0.2,0-0.4,0.2-0.4,0.4V24h0.8v-0.1C25.9,23.7,25.7,23.5,25.5,23.5z"/>
<path fill="#8AC640" d="M21,23.5c-0.2,0-0.4,0.2-0.4,0.4V24h0.8v-0.1C21.5,23.7,21.3,23.5,21,23.5z"/>
<path fill="#8AC640" d="M23.7,23.5c-0.2,0-0.4,0.2-0.4,0.4V24h0.8v-0.1C24.1,23.7,24,23.5,23.7,23.5z"/>
<path fill="#8AC640" d="M22.8,23.5c-0.2,0-0.4,0.2-0.4,0.4V24h0.8v-0.1C23.2,23.7,23.1,23.5,22.8,23.5z"/>
<path fill="#111243" d="M35.9,30.4v-0.3c0-0.2-0.2-0.4-0.4-0.4s-0.4,0.2-0.4,0.4v0.3H35v-0.3c0-0.2-0.2-0.4-0.4-0.4
	s-0.4,0.2-0.4,0.4v0.3h-0.1v-0.3c0-0.2-0.2-0.4-0.4-0.4s-0.4,0.2-0.4,0.4v0.3h-0.1v-0.3c0-0.2-0.2-0.4-0.4-0.4s-0.4,0.2-0.4,0.4v0.3
	h-0.1v-0.3c0-0.2-0.2-0.4-0.4-0.4s-0.4,0.2-0.4,0.4v0.3h-0.1v-0.3c0-0.2-0.2-0.4-0.4-0.4s-0.4,0.2-0.4,0.4v0.3v0.7v12.7h5.3"/>
<polygon fill="#4957A6" points="33.2,24.7 33.2,24.7 30.4,29.6 36.1,29.6 "/>
<path fill="#D0DD27" d="M34.6,29.7c-0.2,0-0.4,0.2-0.4,0.4v0.1H35v-0.1C35,29.9,34.8,29.7,34.6,29.7z"/>
<path fill="#D0DD27" d="M31.9,29.7c-0.2,0-0.4,0.2-0.4,0.4v0.1h0.8v-0.1C32.3,29.9,32.1,29.7,31.9,29.7z"/>
<path fill="#D0DD27" d="M35.5,29.7c-0.2,0-0.4,0.2-0.4,0.4v0.1h0.8v-0.1C35.9,29.9,35.7,29.7,35.5,29.7z"/>
<path fill="#D0DD27" d="M31,29.7c-0.2,0-0.4,0.2-0.4,0.4v0.1h0.8v-0.1C31.4,29.9,31.2,29.7,31,29.7z"/>
<path fill="#D0DD27" d="M33.7,29.7c-0.2,0-0.4,0.2-0.4,0.4v0.1h0.8v-0.1C34.1,29.9,33.9,29.7,33.7,29.7z"/>
<path fill="#D0DD27" d="M32.8,29.7c-0.2,0-0.4,0.2-0.4,0.4v0.1h0.8v-0.1C33.2,29.9,33,29.7,32.8,29.7z"/>
<path fill="#A14923" d="M30.4,29.6v0.9h0.2v0v-0.3c0-0.2,0.2-0.4,0.4-0.4s0.4,0.2,0.4,0.4v0.3h0.1v-0.3c0-0.2,0.2-0.4,0.4-0.4
	c0.2,0,0.4,0.2,0.4,0.4v0.3h0.1v-0.3c0-0.2,0.2-0.4,0.4-0.4s0.4,0.2,0.4,0.4v0.3h0.1v-0.3c0-0.2,0.2-0.4,0.4-0.4s0.4,0.2,0.4,0.4
	v0.3h0.1v-0.3c0-0.2,0.2-0.4,0.4-0.4s0.4,0.2,0.4,0.4v0.3h0.1v-0.3c0-0.2,0.2-0.4,0.4-0.4s0.4,0.2,0.4,0.4v0.3v0h0.2v-0.9L30.4,29.6
	L30.4,29.6z"/>
<path fill="#D2A01F" d="M35.9,32.6h-1.6v0c0-0.6-0.5-1.1-1.1-1.1c-0.6,0-1.1,0.5-1.1,1.1v0h-1.6v0h1.5c0-0.6,0.5-1.1,1.1-1.1
	c0.6,0,1.1,0.5,1.1,1.1L35.9,32.6L35.9,32.6L35.9,32.6z"/>
<path fill="#83298B" d="M32.3,36.6c-0.2,0-0.3,0.2-0.3,0.4v0.8h0.7v-0.8C32.6,36.7,32.5,36.6,32.3,36.6z"/>
<path fill="#83298B" d="M33.2,36.6c-0.2,0-0.3,0.2-0.3,0.4v0.8h0.7v-0.8C33.6,36.7,33.4,36.6,33.2,36.6z"/>
<path fill="#83298B" d="M34.2,36.6c-0.2,0-0.3,0.2-0.3,0.4v0.8h0.7v-0.8C34.5,36.7,34.4,36.6,34.2,36.6z"/>
<path fill="#83298B" d="M33.8,32.6c-0.2,0-0.3,0.2-0.3,0.4v0.8h0.7v-0.8C34.1,32.7,34,32.6,33.8,32.6z"/>
<path fill="#FFCE1B" d="M33.2,32.8l0-0.1c0-0.2,0.2-0.4,0.4-0.4s0.4,0.2,0.4,0.4v-0.1c0-0.4-0.4-0.8-0.9-0.8c-0.5,0-0.9,0.4-0.9,0.8
	v0.1c0-0.2,0.2-0.4,0.4-0.4s0.4,0.2,0.4,0.4L33.2,32.8z"/>
<path fill="#83298B" d="M32.7,32.6c-0.2,0-0.3,0.2-0.3,0.4v0.8h0.7v-0.8C33.1,32.7,32.9,32.6,32.7,32.6z"/>
<path fill="#7DC242" d="M33.4,32.9c0-0.2,0.2-0.4,0.3-0.4s0.3,0.2,0.3,0.4v-0.3c0-0.2-0.2-0.4-0.4-0.4s-0.4,0.2-0.4,0.4l0,0.1l0-0.1
	c0-0.2-0.2-0.4-0.4-0.4c-0.2,0-0.4,0.2-0.4,0.4v0.3c0-0.2,0.2-0.4,0.3-0.4c0.2,0,0.3,0.2,0.3,0.4H33.4z"/>
<rect x="32.3" y="33.8" fill="#2B3990" width="1.9" height="0.5"/>
<rect x="32.4" y="34.3" fill="#C2B59B" width="1.7" height="0.5"/>
<rect x="30.6" y="38.5" fill="#2B3990" width="5.3" height="0.5"/>
<rect x="33.1" y="32.9" fill="#57BDEC" width="0.3" height="0.8"/>
<circle fill="#D2A01F" cx="33.2" cy="32.1" r="0.3"/>
<circle fill="#352C81" cx="33.2" cy="32.1" r="0.3"/>
<circle fill="#69BD45" cx="33.2" cy="32.1" r="0.3"/>
<g>
	<path fill="#5CBDEB" d="M34.2,33.8L34.2,33.8l-0.1-1.2c0-0.4-0.4-0.8-0.9-0.8c-0.5,0-0.9,0.4-0.9,0.8v1.2h-0.1v-1.2
		c0-0.4,0.4-0.9,1-0.9s1,0.5,1,0.9V33.8z"/>
</g>
<rect x="30.6" y="38.4" fill="#F7941E" width="5.3" height="0"/>
<rect x="31.7" y="37.7" fill="#F7941E" width="3" height="0"/>
<rect x="32.3" y="34.8" fill="#F7941E" width="1.9" height="0"/>
<path fill="#83298B" d="M27.1,38.3c-0.6,0-1,0.5-1,1v2.5h2.1v-2.5C28.1,38.8,27.6,38.3,27.1,38.3z"/>
<path fill="#FFCE1B" d="M25.5,38.8l0.1-0.4c0-0.6,0.6-1,1.2-1s1.3,0.5,1.3,1v-0.3c0-1.2-1.2-2.5-2.6-2.5c-1.4,0-2.6,1.3-2.6,2.5v0.3
	c0-0.6,0.7-1,1.3-1s1.2,0.5,1.2,1L25.5,38.8z"/>
<path fill="#83298B" d="M24,38.3c-0.6,0-1,0.5-1,1v2.5H25v-2.5C25,38.8,24.5,38.3,24,38.3z"/>
<path fill="#7DC242" d="M26,39.3c0-0.6,0.5-1,1-1s1,0.5,1,1v-0.9c0-0.6-0.7-1-1.3-1s-1.2,0.5-1.2,1l-0.1,0.4l-0.1-0.4
	c0-0.6-0.6-1-1.2-1s-1.3,0.5-1.3,1v0.9c0-0.6,0.5-1,1-1c0.6,0,1,0.5,1,1H26z"/>
<rect x="22.6" y="41.8" fill="#603913" width="5.8" height="0.7"/>
<rect x="22.2" y="42.5" fill="#754C29" width="6.6" height="0.7"/>
<rect x="21.6" y="43.1" fill="#8B5E3C" width="7.8" height="0.7"/>
<rect x="25" y="39.3" fill="#57BDEC" width="1" height="2.5"/>
<circle fill="#D2A01F" cx="25.5" cy="36.7" r="0.9"/>
<circle fill="#352C81" cx="25.5" cy="36.7" r="0.8"/>
<circle fill="#69BD45" cx="25.5" cy="36.7" r="0.8"/>
<g>
	<path fill="#262262" d="M28.4,41.9h-0.3v-3.7c0-1.2-1.1-2.5-2.6-2.5s-2.6,1.3-2.6,2.5v3.7h-0.3v-3.7c0-1.3,1.2-2.7,2.9-2.7
		s2.9,1.4,2.9,2.7V41.9z"/>
</g>
<rect x="31" y="35.7" fill="#F89420" width="0.1" height="0.1"/>
<rect x="31.2" y="35.7" fill="#F89420" width="0.1" height="0.1"/>
<rect x="31.4" y="35.7" fill="#F89420" width="0.1" height="0.1"/>
<rect x="31.6" y="35.7" fill="#F89420" width="0.1" height="0.1"/>
<rect x="31.8" y="35.7" fill="#F89420" width="0.1" height="0.1"/>
<rect x="32" y="35.7" fill="#F89420" width="0.1" height="0.1"/>
<rect x="32.2" y="35.7" fill="#F89420" width="0.1" height="0.1"/>
<rect x="32.5" y="35.7" fill="#F89420" width="0.1" height="0.1"/>
<rect x="32.7" y="35.7" fill="#F89420" width="0.1" height="0.1"/>
<rect x="32.9" y="35.7" fill="#F89420" width="0.1" height="0.1"/>
<rect x="33.1" y="35.7" fill="#F89420" width="0.1" height="0.1"/>
<rect x="33.3" y="35.7" fill="#F89420" width="0.1" height="0.1"/>
<rect x="33.5" y="35.7" fill="#F89420" width="0.1" height="0.1"/>
<rect x="33.7" y="35.7" fill="#F89420" width="0.1" height="0.1"/>
<rect x="33.9" y="35.7" fill="#F89420" width="0.1" height="0.1"/>
<rect x="34.2" y="35.7" fill="#F89420" width="0.1" height="0.1"/>
<rect x="34.4" y="35.7" fill="#F89420" width="0.1" height="0.1"/>
<rect x="34.6" y="35.7" fill="#F89420" width="0.1" height="0.1"/>
<rect x="34.8" y="35.7" fill="#F89420" width="0.1" height="0.1"/>
<rect x="35" y="35.7" fill="#F89420" width="0.1" height="0.1"/>
<rect x="35.2" y="35.7" fill="#F89420" width="0.1" height="0.1"/>
<rect x="35.4" y="35.7" fill="#F89420" width="0.1" height="0.1"/>
<rect x="31.1" y="35.6" fill="#F89420" width="0.1" height="0.1"/>
<rect x="31.3" y="35.6" fill="#F89420" width="0.1" height="0.1"/>
<rect x="31.5" y="35.6" fill="#F89420" width="0.1" height="0.1"/>
<rect x="31.7" y="35.6" fill="#F89420" width="0.1" height="0.1"/>
<rect x="31.9" y="35.6" fill="#F89420" width="0.1" height="0.1"/>
<rect x="32.1" y="35.6" fill="#F89420" width="0.1" height="0.1"/>
<rect x="32.4" y="35.6" fill="#F89420" width="0.1" height="0.1"/>
<rect x="32.6" y="35.6" fill="#F89420" width="0.1" height="0.1"/>
<rect x="32.8" y="35.6" fill="#F89420" width="0.1" height="0.1"/>
<rect x="33" y="35.6" fill="#F89420" width="0.1" height="0.1"/>
<rect x="33.2" y="35.6" fill="#F89420" width="0.1" height="0.1"/>
<rect x="33.4" y="35.6" fill="#F89420" width="0.1" height="0.1"/>
<rect x="33.6" y="35.6" fill="#F89420" width="0.1" height="0.1"/>
<rect x="33.8" y="35.6" fill="#F89420" width="0.1" height="0.1"/>
<rect x="34.1" y="35.6" fill="#F89420" width="0.1" height="0.1"/>
<rect x="34.3" y="35.6" fill="#F89420" width="0.1" height="0.1"/>
<rect x="34.5" y="35.6" fill="#F89420" width="0.1" height="0.1"/>
<rect x="34.7" y="35.6" fill="#F89420" width="0.1" height="0.1"/>
<rect x="34.9" y="35.6" fill="#F89420" width="0.1" height="0.1"/>
<rect x="35.1" y="35.6" fill="#F89420" width="0.1" height="0.1"/>
<rect x="35.3" y="35.6" fill="#F89420" width="0.1" height="0.1"/>
<path fill="#5CBDEB" d="M32.4,43.8v-3c0-0.4,0.4-0.8,0.9-0.8s0.9,0.4,0.9,0.8v3h0.1v-3c0-0.4-0.4-0.9-1-0.9s-1,0.5-1,0.9L32.4,43.8
	L32.4,43.8z"/>
<path fill="#D7DF23" d="M34.1,43.8v-3c0-0.4-0.4-0.8-0.9-0.8c-0.5,0-0.9,0.4-0.9,0.8v3"/>
<rect x="30.6" y="42.8" fill="#F7941E" width="1.7" height="0"/>
<rect x="34.2" y="42.8" fill="#F7941E" width="1.7" height="0"/>
<rect x="30.6" y="42.9" fill="#F7941E" width="1.7" height="0"/>
<rect x="34.2" y="42.9" fill="#F7941E" width="1.7" height="0"/>
<path fill="#111243" d="M20.5,30.4v-0.3c0-0.2-0.2-0.4-0.4-0.4s-0.4,0.2-0.4,0.4v0.3h-0.1v-0.3c0-0.2-0.2-0.4-0.4-0.4
	s-0.4,0.2-0.4,0.4v0.3h-0.1v-0.3c0-0.2-0.2-0.4-0.4-0.4c-0.2,0-0.4,0.2-0.4,0.4v0.3h-0.1v-0.3c0-0.2-0.2-0.4-0.4-0.4
	c-0.2,0-0.4,0.2-0.4,0.4v0.3h-0.1v-0.3c0-0.2-0.2-0.4-0.4-0.4c-0.2,0-0.4,0.2-0.4,0.4v0.3H16v-0.3c0-0.2-0.2-0.4-0.4-0.4
	s-0.4,0.2-0.4,0.4v0.3v0.7v12.7h5.3"/>
<polygon fill="#4957A6" points="17.8,24.7 17.8,24.7 15,29.6 20.6,29.6 "/>
<path fill="#D0DD27" d="M19.2,29.7c-0.2,0-0.4,0.2-0.4,0.4v0.1h0.8v-0.1C19.6,29.9,19.4,29.7,19.2,29.7z"/>
<path fill="#D0DD27" d="M16.5,29.7c-0.2,0-0.4,0.2-0.4,0.4v0.1h0.8v-0.1C16.9,29.9,16.7,29.7,16.5,29.7z"/>
<path fill="#D0DD27" d="M20.1,29.7c-0.2,0-0.4,0.2-0.4,0.4v0.1h0.8v-0.1C20.5,29.9,20.3,29.7,20.1,29.7z"/>
<path fill="#D0DD27" d="M15.6,29.7c-0.2,0-0.4,0.2-0.4,0.4v0.1H16v-0.1C16,29.9,15.8,29.7,15.6,29.7z"/>
<path fill="#D0DD27" d="M18.3,29.7c-0.2,0-0.4,0.2-0.4,0.4v0.1h0.8v-0.1C18.7,29.9,18.5,29.7,18.3,29.7z"/>
<path fill="#D0DD27" d="M17.4,29.7c-0.2,0-0.4,0.2-0.4,0.4v0.1h0.8v-0.1C17.8,29.9,17.6,29.7,17.4,29.7z"/>
<path fill="#A14923" d="M15,29.6v0.9h0.2v0v-0.3c0-0.2,0.2-0.4,0.4-0.4c0.2,0,0.4,0.2,0.4,0.4v0.3h0.1v-0.3c0-0.2,0.2-0.4,0.4-0.4
	c0.2,0,0.4,0.2,0.4,0.4v0.3H17v-0.3c0-0.2,0.2-0.4,0.4-0.4c0.2,0,0.4,0.2,0.4,0.4v0.3h0.1v-0.3c0-0.2,0.2-0.4,0.4-0.4
	c0.2,0,0.4,0.2,0.4,0.4v0.3h0.1v-0.3c0-0.2,0.2-0.4,0.4-0.4c0.2,0,0.4,0.2,0.4,0.4v0.3h0.1v-0.3c0-0.2,0.2-0.4,0.4-0.4
	s0.4,0.2,0.4,0.4v0.3v0h0.2v-0.9H15z"/>
<path fill="#D2A01F" d="M20.5,32.6h-1.6v0c0-0.6-0.5-1.1-1.1-1.1c-0.6,0-1.1,0.5-1.1,1.1v0h-1.6v0h1.5c0-0.6,0.5-1.1,1.1-1.1
	s1.1,0.5,1.1,1.1L20.5,32.6L20.5,32.6L20.5,32.6z"/>
<path fill="#83298B" d="M16.8,36.6c-0.2,0-0.3,0.2-0.3,0.4v0.8h0.7v-0.8C17.2,36.7,17,36.6,16.8,36.6z"/>
<path fill="#83298B" d="M17.8,36.6c-0.2,0-0.3,0.2-0.3,0.4v0.8h0.7v-0.8C18.1,36.7,18,36.6,17.8,36.6z"/>
<path fill="#83298B" d="M18.8,36.6c-0.2,0-0.3,0.2-0.3,0.4v0.8h0.7v-0.8C19.1,36.7,18.9,36.6,18.8,36.6z"/>
<path fill="#83298B" d="M18.3,32.6c-0.2,0-0.3,0.2-0.3,0.4v0.8h0.7v-0.8C18.7,32.7,18.5,32.6,18.3,32.6z"/>
<path fill="#FFCE1B" d="M17.8,32.8l0-0.1c0-0.2,0.2-0.4,0.4-0.4c0.2,0,0.4,0.2,0.4,0.4v-0.1c0-0.4-0.4-0.8-0.9-0.8s-0.9,0.4-0.9,0.8
	v0.1c0-0.2,0.2-0.4,0.4-0.4s0.4,0.2,0.4,0.4L17.8,32.8z"/>
<path fill="#83298B" d="M17.3,32.6c-0.2,0-0.3,0.2-0.3,0.4v0.8h0.7v-0.8C17.6,32.7,17.5,32.6,17.3,32.6z"/>
<path fill="#7DC242" d="M18,32.9c0-0.2,0.2-0.4,0.3-0.4s0.3,0.2,0.3,0.4v-0.3c0-0.2-0.2-0.4-0.4-0.4c-0.2,0-0.4,0.2-0.4,0.4l0,0.1
	l0-0.1c0-0.2-0.2-0.4-0.4-0.4s-0.4,0.2-0.4,0.4v0.3c0-0.2,0.2-0.4,0.3-0.4c0.2,0,0.3,0.2,0.3,0.4H18z"/>
<rect x="16.8" y="33.8" fill="#2B3990" width="1.9" height="0.5"/>
<rect x="17" y="34.3" fill="#C2B59B" width="1.7" height="0.5"/>
<rect x="15.2" y="38.5" fill="#2B3990" width="5.3" height="0.5"/>
<rect x="17.6" y="32.9" fill="#57BDEC" width="0.3" height="0.8"/>
<circle fill="#D2A01F" cx="17.8" cy="32.1" r="0.3"/>
<circle fill="#352C81" cx="17.8" cy="32.1" r="0.3"/>
<circle fill="#69BD45" cx="17.8" cy="32.1" r="0.3"/>
<g>
	<path fill="#5CBDEB" d="M18.8,33.8L18.8,33.8l-0.1-1.2c0-0.4-0.4-0.8-0.9-0.8s-0.9,0.4-0.9,0.8v1.2h-0.1v-1.2c0-0.4,0.4-0.9,1-0.9
		s1,0.5,1,0.9V33.8z"/>
</g>
<rect x="15.2" y="38.5" fill="#F7941E" width="5.3" height="0"/>
<rect x="16.3" y="37.7" fill="#F7941E" width="3" height="0"/>
<rect x="16.8" y="34.8" fill="#F7941E" width="1.9" height="0"/>
<rect x="15.5" y="35.7" fill="#F89420" width="0.1" height="0.1"/>
<rect x="15.7" y="35.7" fill="#F89420" width="0.1" height="0.1"/>
<rect x="15.9" y="35.7" fill="#F89420" width="0.1" height="0.1"/>
<rect x="16.2" y="35.7" fill="#F89420" width="0.1" height="0.1"/>
<rect x="16.4" y="35.7" fill="#F89420" width="0.1" height="0.1"/>
<rect x="16.6" y="35.7" fill="#F89420" width="0.1" height="0.1"/>
<rect x="16.8" y="35.7" fill="#F89420" width="0.1" height="0.1"/>
<rect x="17" y="35.7" fill="#F89420" width="0.1" height="0.1"/>
<rect x="17.2" y="35.7" fill="#F89420" width="0.1" height="0.1"/>
<rect x="17.4" y="35.7" fill="#F89420" width="0.1" height="0.1"/>
<rect x="17.7" y="35.7" fill="#F89420" width="0.1" height="0.1"/>
<rect x="17.9" y="35.7" fill="#F89420" width="0.1" height="0.1"/>
<rect x="18.1" y="35.7" fill="#F89420" width="0.1" height="0.1"/>
<rect x="18.3" y="35.7" fill="#F89420" width="0.1" height="0.1"/>
<rect x="18.5" y="35.7" fill="#F89420" width="0.1" height="0.1"/>
<rect x="18.7" y="35.7" fill="#F89420" width="0.1" height="0.1"/>
<rect x="18.9" y="35.7" fill="#F89420" width="0.1" height="0.1"/>
<rect x="19.1" y="35.7" fill="#F89420" width="0.1" height="0.1"/>
<rect x="19.4" y="35.7" fill="#F89420" width="0.1" height="0.1"/>
<rect x="19.6" y="35.7" fill="#F89420" width="0.1" height="0.1"/>
<rect x="19.8" y="35.7" fill="#F89420" width="0.1" height="0.1"/>
<rect x="20" y="35.7" fill="#F89420" width="0.1" height="0.1"/>
<rect x="15.6" y="35.6" fill="#F89420" width="0.1" height="0.1"/>
<rect x="15.8" y="35.6" fill="#F89420" width="0.1" height="0.1"/>
<rect x="16.1" y="35.6" fill="#F89420" width="0.1" height="0.1"/>
<rect x="16.3" y="35.6" fill="#F89420" width="0.1" height="0.1"/>
<rect x="16.5" y="35.6" fill="#F89420" width="0.1" height="0.1"/>
<rect x="16.7" y="35.6" fill="#F89420" width="0.1" height="0.1"/>
<rect x="16.9" y="35.6" fill="#F89420" width="0.1" height="0.1"/>
<rect x="17.1" y="35.6" fill="#F89420" width="0.1" height="0.1"/>
<rect x="17.3" y="35.6" fill="#F89420" width="0.1" height="0.1"/>
<rect x="17.6" y="35.6" fill="#F89420" width="0.1" height="0.1"/>
<rect x="17.8" y="35.6" fill="#F89420" width="0.1" height="0.1"/>
<rect x="18" y="35.6" fill="#F89420" width="0.1" height="0.1"/>
<rect x="18.2" y="35.6" fill="#F89420" width="0.1" height="0.1"/>
<rect x="18.4" y="35.6" fill="#F89420" width="0.1" height="0.1"/>
<rect x="18.6" y="35.6" fill="#F89420" width="0.1" height="0.1"/>
<rect x="18.8" y="35.6" fill="#F89420" width="0.1" height="0.1"/>
<rect x="19" y="35.6" fill="#F89420" width="0.1" height="0.1"/>
<rect x="19.3" y="35.6" fill="#F89420" width="0.1" height="0.1"/>
<rect x="19.5" y="35.6" fill="#F89420" width="0.1" height="0.1"/>
<rect x="19.7" y="35.6" fill="#F89420" width="0.1" height="0.1"/>
<rect x="19.9" y="35.6" fill="#F89420" width="0.1" height="0.1"/>
<path fill="#5CBDEB" d="M16.9,43.8v-3c0-0.4,0.4-0.8,0.9-0.8s0.9,0.4,0.9,0.8v3h0.1v-3c0-0.4-0.4-0.9-1-0.9s-1,0.5-1,0.9L16.9,43.8
	L16.9,43.8z"/>
<path fill="#D7DF23" d="M18.7,43.8v-3c0-0.4-0.4-0.8-0.9-0.8s-0.9,0.4-0.9,0.8v3"/>
<rect x="15.2" y="42.8" fill="#F7941E" width="1.7" height="0"/>
<rect x="18.8" y="42.8" fill="#F7941E" width="1.7" height="0"/>
<rect x="15.2" y="42.9" fill="#F7941E" width="1.7" height="0"/>
<rect x="18.8" y="42.9" fill="#F7941E" width="1.7" height="0"/>
<path fill="#2B3990" d="M25.5,35c-1.8,0-3.3,1.8-3.3,3.2v4.3h0.4v-0.6h0v-3.7c0-1.3,1.2-2.7,2.9-2.7s2.9,1.4,2.9,2.7v3.7h0v0.6h0.4
	v-4.3C28.8,36.7,27.4,35,25.5,35z"/>
<path fill="#1C75BC" d="M25.5,34.4c-2.1,0-3.9,2.2-3.9,3.8v5h0.6v-0.8h0v-4.2c0-1.5,1.4-3.2,3.3-3.2c1.9,0,3.3,1.7,3.3,3.2v4.2h0
	v0.8h0.6v-5C29.4,36.5,27.6,34.4,25.5,34.4z"/>
<path fill="#27AAE1" d="M29.4,43.8H30v-5.7c0-1.9-2.1-4.4-4.5-4.4S21,36.2,21,38.1v5.7h0.6v-0.7l0,0v-5c0-1.1,0.8-2.5,2-3.2
	c0,0,0,0,0,0c0,0,0,0,0,0c0.2-0.1,0.4-0.2,0.7-0.3c0,0,0,0,0,0c0,0,0,0,0.1,0c0.3-0.1,0.7-0.2,1.1-0.2s0.7,0.1,1.1,0.2
	c0,0,0,0,0.1,0c0,0,0,0,0,0c0.2,0.1,0.5,0.2,0.7,0.3c0,0,0,0,0,0c0,0,0,0,0,0c1.2,0.8,2,2.1,2,3.2v5"/>
<path fill="#8DC63F" d="M25.5,33c-2.8,0-5.1,2.9-5.1,5v5.8h0.6v0H21v-5.7c0-1.9,2.1-4.4,4.5-4.4s4.5,2.5,4.5,4.4v5.7H30v0h0.7V38
	C30.6,35.8,28.3,33,25.5,33z"/>
<path fill="#FFF200" d="M21.3,35.5C21.3,35.5,21.3,35.5,21.3,35.5c0.1-0.1,0.1-0.2,0.2-0.3c0,0,0,0,0,0c0.1-0.1,0.2-0.3,0.3-0.4
	c0,0,0,0,0,0c0.1-0.1,0.2-0.2,0.2-0.2c0,0,0,0,0,0c0,0,0.1-0.1,0.1-0.1c0,0,0,0,0,0c0.1-0.1,0.2-0.2,0.2-0.2c0,0,0,0,0,0
	c0.1-0.1,0.2-0.1,0.3-0.2c0,0,0,0,0,0c0,0,0.1-0.1,0.1-0.1c0,0,0,0,0,0c0,0,0.1-0.1,0.1-0.1l0,0c0,0,0.1-0.1,0.1-0.1c0,0,0,0,0,0
	c0,0,0.1,0,0.1-0.1c0,0,0,0,0,0c0,0,0.1-0.1,0.1-0.1c0,0,0,0,0,0c0,0,0.1,0,0.1-0.1c0,0,0,0,0,0c0,0,0.1,0,0.1-0.1c0,0,0,0,0,0
	c0,0,0.1,0,0.1-0.1c0,0,0,0,0,0c0,0,0.1,0,0.1,0c0,0,0,0,0,0c0,0,0.1,0,0.1,0c0,0,0,0,0,0c0,0,0.1,0,0.1,0c0,0,0,0,0,0
	c0.1,0,0.1,0,0.2,0h0c0,0,0.1,0,0.1,0c0,0,0,0,0,0c0,0,0.1,0,0.1,0c0,0,0,0,0,0c0.1,0,0.1,0,0.2,0c0,0,0,0,0,0c0,0,0.1,0,0.1,0
	c0,0,0,0,0,0c0.1,0,0.1,0,0.2,0c0.1,0,0.1,0,0.2,0c0,0,0,0,0,0c0,0,0.1,0,0.1,0c0,0,0,0,0,0c0.1,0,0.1,0,0.2,0c0,0,0,0,0,0
	c0,0,0.1,0,0.1,0c0,0,0,0,0,0c0,0,0.1,0,0.1,0h0c0.1,0,0.1,0,0.2,0c0,0,0,0,0,0c0,0,0.1,0,0.1,0c0,0,0,0,0,0c0.1,0,0.1,0,0.1,0
	c0,0,0,0,0,0c0,0,0.1,0,0.1,0c0,0,0,0,0,0c0,0,0.1,0,0.1,0.1c0,0,0,0,0,0c0,0,0.1,0,0.1,0.1c0,0,0,0,0,0c0,0,0.1,0,0.1,0.1
	c0,0,0,0,0,0c0,0,0.1,0.1,0.1,0.1c0,0,0,0,0,0c0,0,0.1,0,0.1,0.1c0,0,0,0,0,0c0,0,0.1,0.1,0.1,0.1l0,0c0,0,0.1,0.1,0.1,0.1
	c0,0,0,0,0,0c0,0,0.1,0.1,0.1,0.1c0,0,0,0,0,0c0.1,0.1,0.2,0.1,0.3,0.2c0,0,0,0,0,0c0.1,0.1,0.2,0.1,0.3,0.2c0,0,0,0,0,0
	c0,0,0.1,0.1,0.1,0.1c0,0,0,0,0,0c0.1,0.1,0.2,0.2,0.2,0.2c0,0,0,0,0,0c0.1,0.1,0.2,0.3,0.3,0.4c0,0,0,0,0,0
	c0.1,0.1,0.1,0.2,0.2,0.3c0,0,0,0,0,0c0.1,0.1,0.2,0.3,0.3,0.4l0,0l0,0c0.3,0.5,0.5,1.1,0.6,1.6l0,0l0-1V34l-5.1-5.3L20.5,34v3.6h0
	C20.6,36.9,20.8,36.2,21.3,35.5z"/>
<polygon fill="#39B54A" points="30.6,34.7 25.5,29.4 20.5,34.7 20.5,34 25.5,28.7 30.6,34 "/>
<circle fill="#D2A01F" cx="25.5" cy="31.5" r="1.1"/>
<circle fill="#352C81" cx="25.5" cy="31.5" r="0.8"/>
<circle fill="#69BD45" cx="25.5" cy="31.5" r="0.8"/>
<g>
	<path fill="#009444" d="M25.9,31.1C25.9,31.1,25.9,31.1,25.9,31.1L25.9,31.1L25.9,31.1l-0.1,0c0-0.1-0.1-0.2-0.3-0.2
		c-0.1,0-0.3,0-0.3,0.2l0,0c0,0,0,0,0,0c0,0,0,0,0,0l0,0h0c0,0,0,0,0,0c0,0,0,0,0,0h0l0,0l0,0h0v0.5v0.4c0,0,0,0,0,0h0.1h0.3h0.1
		c0,0,0,0,0,0v-0.4v-0.2l0,0v-0.2L25.9,31.1C25.8,31.2,25.8,31.2,25.9,31.1C25.9,31.2,25.9,31.2,25.9,31.1
		C25.9,31.2,25.9,31.2,25.9,31.1L25.9,31.1L25.9,31.1C25.9,31.1,25.9,31.1,25.9,31.1z M25.7,31.6l-0.1-0.1c0,0,0,0,0,0v-0.2
		c0,0,0,0,0,0c0,0,0,0,0,0l-0.2,0v-0.2h0.1l0,0c0,0,0,0,0,0c0,0,0,0,0,0c0,0,0,0,0,0l0,0h0.1l0,0l0,0h0.1v0c0,0,0,0,0,0c0,0,0,0,0,0
		v0h0.1v0.2l-0.1,0c0,0,0,0,0,0c0,0,0,0,0,0l0,0c0,0,0,0,0,0c0,0,0,0,0,0l0,0v0.1C25.8,31.5,25.7,31.6,25.7,31.6L25.7,31.6
		C25.7,31.6,25.7,31.6,25.7,31.6z M25.4,31.6C25.4,31.6,25.4,31.6,25.4,31.6L25.4,31.6c-0.1,0-0.1-0.1-0.1-0.1v-0.1l0,0c0,0,0,0,0,0
		c0,0,0,0,0,0l0,0L25.4,31.6L25.4,31.6z M25.5,31c0.1,0,0.2,0,0.2,0.1h-0.2L25.5,31C25.6,31,25.6,31,25.5,31
		C25.6,31,25.5,31,25.5,31l0,0.1h-0.1v0c0,0,0,0,0,0c0,0,0,0,0,0v0h0C25.3,31,25.4,31,25.5,31z M25.3,31.6
		C25.3,31.7,25.3,31.7,25.3,31.6l0.1,0.3h-0.1V31.6z M25.4,31.6L25.4,31.6h0.2v0.3h-0.2L25.4,31.6L25.4,31.6z M25.7,31.9v-0.2
		c0,0,0,0,0.1-0.1L25.7,31.9L25.7,31.9L25.7,31.9z"/>
	<path fill="#009444" d="M25.6,31.7L25.6,31.7L25.6,31.7c-0.1,0-0.1,0-0.1,0S25.5,31.7,25.6,31.7l0,0.1L25.6,31.7
		C25.6,31.7,25.6,31.7,25.6,31.7C25.6,31.7,25.6,31.7,25.6,31.7z"/>
</g>
</svg>
