<svg version="1.1" id="Ebene_1" xmlns="http://www.w3.org/2000/svg" xmlns:xlink="http://www.w3.org/1999/xlink" x="0px" y="0px"
	 viewBox="0 0 155.9 240.9" xml:space="preserve">
	 <image id="background_image" xlink:href="" x="0" y="0" filter=""/> 
<rect id="svg_x5F_background" fill="#FFFFFF" width="155.9" height="240.9" filter=""/>
<text transform="matrix(0.9151 0 0 1 9.1553 17.5864)">
	<tspan font-family="'Futura-Medium'" font-size="3.761" x="0" y="0">Evangelische Kulturwerkstatt Berlin</tspan>
	<tspan font-family="'Futura-Medium'" font-size="3.761" x="0" y="5">Auguststrasse 90</tspan>
	<tspan font-family="'Futura-Medium'" font-size="3.761" x="0" y="10">10117 Berlin</tspan>
</text>
<text transform="matrix(0.9151 0 0 1 9.1553 52.4341)" fill="#808080"><tspan x="0" y="0" font-family="'Futura-Medium'" font-size="2.5073">Evangelische Kulturwerkstatt Berlin - Auguststrasse 90 - 10117 Berlin</tspan></text>
<text transform="matrix(0.9151 0 0 1 9.1553 59.3012)">
	<tspan x="0" y="0" font-family="'Futura-Medium'" font-size="3.761">Empfaenger Firma</tspan>
	<tspan x="0" y="5" font-family="'Futura-Medium'" font-size="3.761">Vorname Nachname</tspan>
	<tspan x="0" y="10" font-family="'Futura-Medium'" font-size="3.761">Strasse</tspan>
	<tspan x="0" y="15" font-family="'Futura-Medium'" font-size="3.761">PLZ Ort</tspan>
</text>
<text transform="matrix(0.9151 0 0 1 131.2353 97.145)">
	<tspan x="0" y="0" font-family="'Futura-Medium'" font-size="3.761">Ort, Datum</tspan>
</text>
<text transform="matrix(0.9151 0 0 1 9.1553 106.3012)">
	<tspan x="0" y="0" font-family="'Futura-Medium'" font-size="3.761">Betreff</tspan>
</text>
<text transform="matrix(0.9151 0 0 1 9.1553 117.2778)">
	<tspan x="0" y="0" font-family="'Futura-Medium'" font-size="3.761">Sehr geehrte Damen und Herren,</tspan>
	<tspan x="0" y="5" font-family="'Futura-Medium'" font-size="3.761">Lorem ipsum dolor sit amet, consetetur sadipscing elitr, sed diam nonumy eirmod tempor</tspan>
	<tspan x="0" y="10" font-family="'Futura-Medium'" font-size="3.761">invidunt ut labore et dolore magna aliquyam erat, sed diam voluptua. At vero eos et accusam et</tspan>
	<tspan x="0" y="15" font-family="'Futura-Medium'" font-size="3.761">justo duo dolores et ea rebum. Stet clita kasd gubergren, no sea takimata sanctus est Lorem</tspan>
	<tspan x="0" y="20" font-family="'Futura-Medium'" font-size="3.761">ipsum dolor sit amet. Lorem ipsum dolor sit amet, consetetur sadipscing elitr, sed diam nonumy</tspan>
	<tspan x="0" y="25" font-family="'Futura-Medium'" font-size="3.761">eirmod tempor invidunt ut labore et dolore magna aliquyam erat, sed diam voluptua. At vero</tspan>
	<tspan x="0" y="30" font-family="'Futura-Medium'" font-size="3.761">eos et accusam et justo duo dolores et ea rebum. Stet clita kasd gubergren, no sea takimata</tspan>
	<tspan x="0" y="35" font-family="'Futura-Medium'" font-size="3.761">sanctus est Lorem ipsum dolor sit amet.</tspan>
	<tspan x="0" y="40" font-family="'Futura-Medium'" font-size="3.761"></tspan>
	<tspan x="0" y="45" font-family="'Futura-Medium'" font-size="3.761">Mit freundlichen Gruessen,</tspan>
	<tspan x="0" y="50" font-family="'Futura-Medium'" font-size="3.761"></tspan>
	<tspan x="0" y="55" font-family="'Futura-Medium'" font-size="3.761">Unterschrift</tspan>
	<tspan x="0" y="60" font-family="'Futura-Medium'" font-size="3.761">Vorname Nachname</tspan></text>

<g>
	<polygon fill="#FFFFFF" points="104.1,36.4 125.1,12.9 146.1,36.4 146.1,38.1 104.1,38.1 	"/>
	<polygon fill="#CEE7CE" points="102,40.2 102,35.6 125.1,9.7 148.2,35.6 148.2,40.2 	"/>
	<polygon fill="#A0C5E9" points="104.1,36.4 125.1,12.9 146.1,36.4 146.1,38.1 104.1,38.1 	"/>
</g>
<path fill="#FFCE1B" d="M117.6,32l0.1-0.4c0-0.7,0.8-1.3,1.5-1.3c0.7,0,1.6,0.6,1.6,1.3v-0.4c0-1.5-1.4-2.6-3.2-2.6
	c-1.7,0-3.2,1.2-3.2,2.6v0.4c0-0.7,0.9-1.3,1.6-1.3c0.7,0,1.5,0.6,1.5,1.3L117.6,32z"/>
<path fill="#83298B" d="M115.7,31.4c-0.7,0-1.3,0.6-1.3,1.3v3.1h2.5v-3.1C117,31.9,116.4,31.4,115.7,31.4z"/>
<path fill="#83298B" d="M119.5,31.4c-0.7,0-1.3,0.6-1.3,1.3v3.1h2.5v-3.1C120.7,31.9,120.2,31.4,119.5,31.4z"/>
<path fill="#7DC242" d="M118.2,32.6c0-0.7,0.6-1.3,1.3-1.3s1.3,0.6,1.3,1.3v-1.1c0-0.7-0.9-1.3-1.6-1.3c-0.7,0-1.5,0.6-1.5,1.3
	l-0.1,0.4l-0.1-0.4c0-0.7-0.8-1.3-1.5-1.3c-0.7,0-1.6,0.6-1.6,1.3v1.1c0-0.7,0.6-1.3,1.3-1.3s1.3,0.6,1.3,1.3H118.2z"/>
<rect x="114.4" y="35.7" fill="#FFD15A" width="6.3" height="1.3"/>
<rect x="117" y="32.6" fill="#57BDEC" width="1.3" height="3.1"/>
<circle fill="#756CB1" cx="125.1" cy="24.3" r="3.2"/>
<circle fill="#FAA442" cx="125.1" cy="24.3" r="2.7"/>
<line fill="none" x1="104.1" y1="37.5" x2="106.8" y2="37.5"/>
<line fill="none" x1="143.4" y1="37.5" x2="146.1" y2="37.5"/>
<path fill="#FFFFFF" d="M145,15.5"/>
<path fill="#FFFFFF" d="M142.9,15.5"/>
<path fill="#FFFFFF" d="M144,17.2"/>
<path fill="#FFFFFF" d="M144,14.2"/>
<g>
	<path fill="#6A5FAA" d="M125.1,12.9l-21,23.6l0,1.1h2.7v-1.7c0-0.7,0.5-1.3,1.1-1.3c0.5,0,0.9,0.4,1,0.9h0.1v0h0.3V33
		c0-0.7,0.5-1.3,1.1-1.3c0.5,0,0.9,0.4,1.1,1l0,0c0,0,0,0,0,0v0h0.3v-2.5c0-0.7,0.5-1.3,1.1-1.3c0.5,0,0.9,0.4,1.1,1c0,0,0,0,0,0v0
		h0.3v-2.5c0-0.7,0.5-1.3,1.1-1.3c0.5,0,0.9,0.4,1.1,1c0,0,0,0,0,0v0h0.3v-2.5c0-0.7,0.5-1.3,1.1-1.3c0.5,0,0.9,0.4,1.1,1
		c0,0,0,0,0,0v0h0.3v-2.5c0-0.7,0.5-1.3,1.1-1.3c0.5,0,0.9,0.4,1.1,1c0,0,0,0,0,0v0h0.3v-2.5c0-0.7,0.5-1.3,1.1-1.3
		c0.5,0,0.9,0.4,1.1,1c0,0,0,0,0,0c0,0,0,0,0,0v0h0.3v-2.5c0-0.7,0.5-1.3,1.1-1.3c0.6,0,1.1,0.6,1.1,1.3v2.5h0.3v0c0,0,0,0,0,0
		c0.1-0.6,0.5-1,1.1-1c0.6,0,1.1,0.6,1.1,1.3v2.5h0.3v0c0,0,0,0,0,0c0.1-0.6,0.5-1,1.1-1c0.6,0,1.1,0.6,1.1,1.3v2.5h0.3v0
		c0,0,0,0,0,0l0,0c0.1-0.6,0.5-1,1.1-1c0.6,0,1.1,0.6,1.1,1.3v2.5h0.3v0h0c0,0,0,0,0,0c0.1-0.6,0.5-1,1.1-1c0.6,0,1.1,0.6,1.1,1.3
		v2.5h0.3v0c0,0,0,0,0,0c0.1-0.6,0.5-1,1.1-1c0.6,0,1.1,0.6,1.1,1.3v2.5h0.2c0,0,0,0,0.1,0c0,0,0,0,0,0c0.1-0.5,0.5-1,1-1
		c0.6,0,1.1,0.6,1.1,1.3v2.5h0.3v0h0.1c0.1-0.5,0.5-0.9,1-0.9c0.6,0,1.1,0.6,1.1,1.3v1.7h2.7v-1.1L125.1,12.9z"/>
</g>
<rect x="102" y="40.7" fill="#57BDEC" width="46.2" height="45.2"/>
<rect x="102" y="40.2" fill="#EE4A95" width="46.2" height="0.5"/>
<rect x="106.8" y="37" fill="#F68E52" width="36.6" height="0.6"/>
<path fill="#FFCE1B" d="M125.1,32l0.1-0.4c0-0.7,0.8-1.3,1.5-1.3s1.6,0.6,1.6,1.3v-0.4c0-1.5-1.4-2.6-3.2-2.6s-3.2,1.2-3.2,2.6v0.4
	c0-0.7,0.9-1.3,1.6-1.3s1.5,0.6,1.5,1.3L125.1,32z"/>
<path fill="#83298B" d="M123.2,31.4c-0.7,0-1.3,0.6-1.3,1.3v3.1h2.5v-3.1C124.5,31.9,123.9,31.4,123.2,31.4z"/>
<path fill="#83298B" d="M127,31.4c-0.7,0-1.3,0.6-1.3,1.3v3.1h2.5v-3.1C128.3,31.9,127.7,31.4,127,31.4z"/>
<path fill="#7DC242" d="M125.7,32.6c0-0.7,0.6-1.3,1.3-1.3c0.7,0,1.3,0.6,1.3,1.3v-1.1c0-0.7-0.9-1.3-1.6-1.3s-1.5,0.6-1.5,1.3
	l-0.1,0.4l-0.1-0.4c0-0.7-0.8-1.3-1.5-1.3s-1.6,0.6-1.6,1.3v1.1c0-0.7,0.6-1.3,1.3-1.3c0.7,0,1.3,0.6,1.3,1.3H125.7z"/>
<rect x="122" y="35.7" fill="#FFD15A" width="6.3" height="1.3"/>
<rect x="124.5" y="32.6" fill="#57BDEC" width="1.3" height="3.1"/>
<path fill="#FFCE1B" d="M132.7,32l0.1-0.4c0-0.7,0.8-1.3,1.5-1.3c0.7,0,1.6,0.6,1.6,1.3v-0.4c0-1.5-1.4-2.6-3.2-2.6
	s-3.2,1.2-3.2,2.6v0.4c0-0.7,0.9-1.3,1.6-1.3c0.7,0,1.5,0.6,1.5,1.3L132.7,32z"/>
<path fill="#83298B" d="M130.8,31.4c-0.7,0-1.3,0.6-1.3,1.3v3.1h2.5v-3.1C132,31.9,131.5,31.4,130.8,31.4z"/>
<path fill="#83298B" d="M134.6,31.4c-0.7,0-1.3,0.6-1.3,1.3v3.1h2.5v-3.1C135.8,31.9,135.3,31.4,134.6,31.4z"/>
<path fill="#7DC242" d="M133.3,32.6c0-0.7,0.6-1.3,1.3-1.3c0.7,0,1.3,0.6,1.3,1.3v-1.1c0-0.7-0.9-1.3-1.6-1.3
	c-0.7,0-1.5,0.6-1.5,1.3l-0.1,0.4l-0.1-0.4c0-0.7-0.8-1.3-1.5-1.3c-0.7,0-1.6,0.6-1.6,1.3v1.1c0-0.7,0.6-1.3,1.3-1.3
	s1.3,0.6,1.3,1.3H133.3z"/>
<rect x="129.5" y="35.7" fill="#FFD15A" width="6.3" height="1.3"/>
<rect x="132" y="32.6" fill="#57BDEC" width="1.3" height="3.1"/>
<path fill="#CD499A" d="M129.3,31.9h-0.8v-0.7c0-1.6-1.5-2.8-3.4-2.8s-3.4,1.3-3.4,2.8v0.7h-0.8v-0.7c0-1.6-1.5-2.8-3.4-2.8
	c-1.8,0-3.4,1.3-3.4,2.8v0.7H114v-0.7c0-1.7,1.6-3.1,3.6-3.1c2,0,3.6,1.4,3.6,3.1v0.5h0.4v-0.5c0-1.7,1.6-3.1,3.6-3.1
	c2,0,3.6,1.4,3.6,3.1v0.5h0.4v-0.5c0-1.7,1.6-3.1,3.6-3.1c2,0,3.6,1.4,3.6,3.1v0.7H136v-0.7c0-1.6-1.5-2.8-3.4-2.8
	c-1.8,0-3.4,1.3-3.4,2.8L129.3,31.9L129.3,31.9z"/>
<path fill="#83298B" d="M134.9,41.3c-0.5,0-0.9,0.4-0.9,0.9v0.6h-0.2v-0.6c0-0.5-0.4-0.9-0.9-0.9c-0.5,0-0.9,0.4-0.9,0.9v0.6h-0.2
	v-0.6c0-0.5-0.4-0.9-0.9-0.9c-0.5,0-0.9,0.4-0.9,0.9v0.6H130v-0.6c0-0.5-0.4-0.9-0.9-0.9c-0.5,0-0.9,0.4-0.9,0.9v0.6H128v-0.6
	c0-0.5-0.4-0.9-0.9-0.9s-0.9,0.4-0.9,0.9v0.6H126v-0.6c0-0.5-0.4-0.9-0.9-0.9s-0.9,0.4-0.9,0.9v0.6h-0.2v-0.6c0-0.5-0.4-0.9-0.9-0.9
	s-0.9,0.4-0.9,0.9v0.6h-0.2v-0.6c0-0.5-0.4-0.9-0.9-0.9s-0.9,0.4-0.9,0.9v0.6h-0.2v-0.6c0-0.5-0.4-0.9-0.9-0.9s-0.9,0.4-0.9,0.9v0.6
	h-0.2v-0.6c0-0.5-0.4-0.9-0.9-0.9c-0.5,0-0.9,0.4-0.9,0.9v0.6h-0.2v-0.6c0-0.5-0.4-0.9-0.9-0.9s-0.9,0.4-0.9,0.9v0.6v1.5v19.8h21.4
	V44.4v-1.5v-0.6C135.8,41.7,135.4,41.3,134.9,41.3z"/>
<circle fill="#FFD15A" cx="125.1" cy="52.8" r="8.7"/>
<circle fill="#45BAEB" cx="125.1" cy="52.8" r="8.5"/>
<circle fill="#E57325" cx="125.1" cy="52.8" r="8.2"/>
<circle fill="#CF157E" cx="125.1" cy="52.8" r="7.7"/>
<circle fill="#D2A01F" cx="125.1" cy="52.8" r="2.3"/>
<circle fill="#352C81" cx="125.1" cy="52.8" r="2.1"/>
<circle fill="#69BD45" cx="125.1" cy="52.8" r="2"/>
<circle fill="#D2A01F" cx="125.1" cy="47.4" r="2.2"/>
<circle fill="#D2A01F" cx="121.3" cy="49" r="2.2"/>
<circle fill="#D2A01F" cx="119.8" cy="52.8" r="2.2"/>
<circle fill="#D2A01F" cx="121.3" cy="56.6" r="2.2"/>
<circle fill="#D2A01F" cx="125.1" cy="58.1" r="2.2"/>
<circle fill="#D2A01F" cx="128.9" cy="56.5" r="2.2"/>
<circle fill="#D2A01F" cx="130.5" cy="52.7" r="2.2"/>
<circle fill="#D2A01F" cx="128.9" cy="48.9" r="2.2"/>
<circle fill="#352C81" cx="125.1" cy="47.4" r="2"/>
<circle fill="#69BD45" cx="125.1" cy="47.4" r="1.9"/>
<circle fill="#352C81" cx="121.3" cy="49" r="2"/>
<circle fill="#69BD45" cx="121.3" cy="49" r="1.9"/>
<circle fill="#352C81" cx="119.8" cy="52.8" r="2"/>
<circle fill="#69BD45" cx="119.8" cy="52.8" r="1.9"/>
<circle fill="#352C81" cx="121.3" cy="56.6" r="2"/>
<circle fill="#69BD45" cx="121.3" cy="56.6" r="1.9"/>
<circle fill="#352C81" cx="125.1" cy="58.1" r="2"/>
<circle fill="#69BD45" cx="125.1" cy="58.1" r="1.9"/>
<circle fill="#352C81" cx="128.9" cy="56.5" r="2"/>
<circle fill="#69BD45" cx="128.9" cy="56.5" r="1.9"/>
<circle fill="#352C81" cx="130.5" cy="52.7" r="2"/>
<circle fill="#69BD45" cx="130.5" cy="52.7" r="1.9"/>
<circle fill="#352C81" cx="128.9" cy="48.9" r="2"/>
<circle fill="#69BD45" cx="128.9" cy="48.9" r="1.9"/>
<circle fill="#69BD45" cx="125.1" cy="52.8" r="2"/>
<path fill="#FCF7BC" d="M133.2,52.9v-0.3l0,0v-0.1v0l0,0l0-0.3l0,0l0-0.1v0l0,0l0-0.2l0,0l0-0.1v0l0,0l0-0.2l0,0l0-0.1l0,0l0,0
	l0-0.2l0,0l0-0.1l0,0l0,0l-0.1-0.2l0,0l0-0.1l0,0l0,0l-0.1-0.2l0,0l0-0.1l0,0l0,0l-0.1-0.2l0,0l0-0.1l0,0l0,0l-0.1-0.2l0,0l0-0.1
	l0,0l0,0l-0.1-0.3l0,0l0-0.1l0,0l0,0l-0.1-0.2l0,0l0-0.1l0,0l0,0l-0.1-0.2l0,0l0-0.1l0,0l0,0l-0.1-0.2l0,0l0-0.1l0,0l0,0l-0.1-0.2
	l0,0l0-0.1l0,0l0,0l-0.1-0.2l0,0l0-0.1l0,0l0,0l-0.2-0.2l0,0l0-0.1l0,0l0,0l-0.2-0.2l0,0l-0.1-0.1l0,0l0,0l-0.2-0.2l0,0l-0.1-0.1
	l0,0l0,0l-0.2-0.2l0,0l-0.1,0l0,0l0,0l-0.2-0.2l0,0l-0.1,0l0,0l0,0l-0.2-0.2l0,0l-0.1,0l0,0l0,0l-0.2-0.1l0,0l-0.1,0l0,0l0,0
	l-0.2-0.1l0,0l-0.1,0l0,0l0,0l-0.2-0.1l0,0l-0.1,0l0,0l0,0l-0.2-0.1l0,0l-0.1,0l0,0l0,0l-0.2-0.1l0,0l-0.1,0l0,0l0,0l-0.2-0.1l0,0
	l-0.1,0l0,0l0,0l-0.2-0.1l0,0l-0.1,0l0,0l0,0l-0.2-0.1l0,0l-0.1,0l0,0l0,0l-0.2-0.1l0,0l-0.1,0l0,0l0,0l-0.2-0.1l0,0l-0.1,0l0,0l0,0
	l-0.2,0l0,0l-0.1,0l0,0l0,0l-0.2,0l0,0l-0.1,0l0,0l0,0l-0.2,0l0,0h-0.1h0l0,0l-0.3,0l0,0h-0.1h0l0,0H125l0,0h-0.1h0l0,0l-0.3,0l0,0
	l-0.1,0h0l0,0l-0.2,0l0,0l-0.1,0h0l0,0l-0.2,0l0,0l-0.1,0l0,0l0,0l-0.2,0l0,0l-0.1,0l0,0l0,0l-0.2,0.1l0,0l-0.1,0l0,0l0,0l-0.2,0.1
	l0,0l-0.1,0l0,0l0,0l-0.2,0.1l0,0l-0.1,0l0,0l0,0l-0.2,0.1l0,0l-0.1,0l0,0l0,0l-0.2,0.1l0,0l-0.1,0l0,0l0,0l-0.2,0.1l0,0l-0.1,0l0,0
	l0,0l-0.2,0.1l0,0l-0.1,0l0,0l0,0l-0.2,0.1l0,0l-0.1,0l0,0l0,0l-0.2,0.1l0,0l-0.1,0l0,0l0,0l-0.2,0.1l0,0l-0.1,0l0,0l0,0l-0.2,0.2
	l0,0l-0.1,0l0,0l0,0l-0.2,0.2l0,0l-0.1,0.1l0,0l0,0l-0.2,0.2l0,0l-0.1,0.1l0,0l0,0l-0.2,0.2l0,0l0,0.1l0,0l0,0l-0.2,0.2l0,0l0,0.1
	l0,0l0,0l-0.2,0.2l0,0l0,0.1l0,0l0,0l-0.1,0.2l0,0l0,0.1l0,0l0,0l-0.1,0.2l0,0l0,0.1l0,0l0,0l-0.1,0.2l0,0l0,0.1l0,0l0,0L118,49l0,0
	l0,0.1l0,0l0,0l-0.1,0.2l0,0l0,0.1l0,0l0,0l-0.1,0.2l0,0l0,0.1l0,0l0,0l-0.1,0.2l0,0l0,0.1l0,0l0,0l-0.1,0.2l0,0l0,0.1l0,0l0,0
	l-0.1,0.2l0,0l0,0.1l0,0l0,0l-0.1,0.2l0,0l0,0.1l0,0l0,0l0,0.2l0,0l0,0.1l0,0l0,0l0,0.2l0,0l0,0.1l0,0l0,0l0,0.2l0,0v0.1v0l0,0
	l0,0.3l0,0v0.1v0l0,0v0.3l0,0v0.1v0l0,0l0,0.3l0,0l0,0.1v0l0,0l0,0.2l0,0l0,0.1v0l0,0l0,0.2l0,0l0,0.1l0,0l0,0l0,0.2l0,0l0,0.1l0,0
	l0,0l0.1,0.2l0,0l0,0.1l0,0l0,0l0.1,0.2l0,0l0,0.1l0,0l0,0l0.1,0.2l0,0l0,0.1l0,0l0,0l0.1,0.2l0,0l0,0.1l0,0l0,0l0.1,0.2l0,0l0,0.1
	l0,0l0,0l0.1,0.2l0,0l0,0.1l0,0l0,0l0.1,0.2l0,0l0,0.1l0,0l0,0l0.1,0.2l0,0l0,0.1l0,0l0,0l0.1,0.2l0,0l0,0.1l0,0l0,0l0.1,0.2l0,0
	l0,0.1l0,0l0,0l0.2,0.2l0,0l0,0.1l0,0l0,0l0.2,0.2l0,0l0.1,0.1l0,0l0,0l0.2,0.2l0,0l0.1,0.1l0,0l0,0l0.2,0.2l0,0l0.1,0l0,0l0,0
	l0.2,0.2l0,0l0.1,0l0,0l0,0l0.2,0.2l0,0l0.1,0l0,0l0,0l0.2,0.1l0,0l0.1,0l0,0l0,0l0.2,0.1l0,0l0.1,0l0,0l0,0l0.2,0.1l0,0l0.1,0l0,0
	l0,0l0.2,0.1l0,0l0.1,0l0,0l0,0l0.2,0.1l0,0l0.1,0l0,0l0,0l0.2,0.1l0,0l0.1,0l0,0l0,0l0.2,0.1l0,0l0.1,0l0,0l0,0l0.2,0.1l0,0l0.1,0
	l0,0l0,0l0.2,0.1l0,0l0.1,0l0,0l0,0l0.2,0.1l0,0l0.1,0l0,0l0,0l0.2,0l0,0l0.1,0l0,0l0,0l0.2,0l0,0l0.1,0l0,0l0,0l0.2,0l0,0h0.1h0
	l0,0l0.3,0l0,0h0.1h0l0,0h0.3l0,0h0.1h0l0,0l0.3,0l0,0l0.1,0h0l0,0l0.2,0l0,0l0.1,0h0l0,0l0.2,0l0,0l0.1,0l0,0l0,0l0.2,0l0,0l0.1,0
	l0,0l0,0l0.2-0.1l0,0l0.1,0l0,0l0,0l0.2-0.1l0,0l0.1,0l0,0l0,0l0.2-0.1l0,0l0.1,0l0,0l0,0l0.2-0.1l0,0l0.1,0l0,0l0,0l0.2-0.1l0,0
	l0.1,0l0,0l0,0l0.2-0.1l0,0l0.1,0l0,0l0,0l0.2-0.1l0,0l0.1,0l0,0l0,0l0.2-0.1l0,0l0.1,0l0,0l0,0l0.2-0.1l0,0l0.1,0l0,0l0,0l0.2-0.1
	l0,0l0.1,0l0,0l0,0l0.2-0.2l0,0l0.1,0l0,0l0,0l0.2-0.2l0,0l0.1-0.1l0,0l0,0l0.2-0.2l0,0l0.1-0.1l0,0l0,0l0.2-0.2l0,0l0-0.1l0,0l0,0
	l0.2-0.2l0,0l0-0.1l0,0l0,0l0.2-0.2l0,0l0-0.1l0,0l0,0l0.1-0.2l0,0l0-0.1l0,0l0,0l0.1-0.2l0,0l0-0.1l0,0l0,0l0.1-0.2l0,0l0-0.1l0,0
	l0,0l0.1-0.2l0,0l0-0.1l0,0l0,0l0.1-0.2l0,0l0-0.1l0,0l0,0l0.1-0.2l0,0l0-0.1l0,0l0,0l0.1-0.2l0,0l0-0.1l0,0l0,0l0.1-0.2l0,0l0-0.1
	l0,0l0,0l0.1-0.2l0,0l0-0.1l0,0l0,0l0.1-0.2l0,0l0-0.1l0,0l0,0l0-0.2l0,0l0-0.1l0,0l0,0l0-0.2l0,0l0-0.1l0,0l0,0l0-0.2l0,0v-0.1v0
	l0,0L133.2,52.9L133.2,52.9L133.2,52.9L133.2,52.9L133.2,52.9L133.2,52.9z M128,59.8L128,59.8l-0.1,0.1l-0.2,0.1l0,0.1l-0.1,0
	l-0.2,0.1l-0.1,0.1l-0.1,0l-0.2,0.1l-0.1,0.1l-0.1,0l-0.2,0l-0.1,0.1l-0.1,0l-0.2,0l-0.1,0.1l-0.1,0l-0.2,0l-0.1,0.1l-0.1-0.1
	l-0.2,0l-0.1,0.1l-0.1-0.1l-0.2,0l-0.1,0.1l-0.1-0.1H125l-0.1,0.1l-0.1-0.1l-0.2,0l-0.1,0.1l-0.1-0.1l-0.2,0l-0.1,0.1l-0.1-0.1
	l-0.2,0l-0.1,0l-0.1-0.1l-0.2,0l-0.1,0l-0.1-0.1l-0.2,0l-0.1,0l-0.1-0.1l-0.2-0.1l-0.1,0l-0.1-0.1l-0.2-0.1l-0.1,0l-0.1-0.1
	l-0.2-0.1l-0.1,0l-0.1-0.1l-0.2-0.1l-0.1,0l-0.1-0.1l-0.2-0.1l-0.1,0l0-0.1l-0.2-0.1l-0.1,0l0-0.1l-0.2-0.1l-0.1,0l0-0.1l-0.2-0.1
	l-0.1,0l0-0.1l-0.2-0.1h-0.1l0-0.1l-0.1-0.1h-0.1l0-0.1l-0.1-0.1h-0.1l0-0.1l-0.1-0.1l-0.1,0l0-0.1l-0.1-0.1l-0.1,0l0-0.1l-0.1-0.1
	l-0.1,0l0-0.1l-0.1-0.1l-0.1,0v-0.1l-0.1-0.2l-0.1,0V57l-0.1-0.2l-0.1,0l0-0.1l-0.1-0.2l-0.1,0l0-0.1l-0.1-0.2l-0.1,0l0-0.1
	l-0.1-0.2l-0.1,0l0-0.1l-0.1-0.2l-0.1,0l0-0.1l-0.1-0.2l-0.1,0l0-0.1l-0.1-0.2l-0.1-0.1l0-0.1l-0.1-0.2l-0.1-0.1l0-0.1l0-0.2
	l-0.1-0.1l0-0.1l0-0.2l-0.1-0.1l0-0.1l0-0.2l-0.1-0.1l0.1-0.1l0-0.2l-0.1-0.1l0.1-0.1l0-0.2l-0.1-0.1l0.1-0.1v-0.2l-0.1-0.1l0.1-0.1
	l0-0.2l-0.1-0.1l0.1-0.1l0-0.2l-0.1-0.1l0.1-0.1l0-0.2l0-0.1l0.1-0.1l0-0.2l0-0.1l0.1-0.1l0-0.2l0-0.1l0.1-0.1l0.1-0.2l0-0.1
	l0.1-0.1l0.1-0.2l0-0.1l0.1-0.1L118,50l0-0.1l0.1-0.1l0.1-0.2l0-0.1l0.1-0.1l0.1-0.2l0-0.1l0.1,0l0.1-0.2l0-0.1l0.1,0l0.1-0.2l0-0.1
	l0.1,0l0.1-0.2l0-0.1l0.1,0l0.1-0.2v-0.1l0.1,0l0.1-0.1v-0.1l0.1,0l0.1-0.1v-0.1l0.1,0l0.1-0.1l0-0.1l0.1,0l0.1-0.1l0-0.1l0.1,0
	l0.1-0.1l0-0.1l0.1,0l0.1-0.1l0-0.1h0.1l0.2-0.1l0-0.1h0.1l0.2-0.1l0-0.1l0.1,0l0.2-0.1l0-0.1l0.1,0l0.2-0.1l0-0.1l0.1,0l0.2-0.1
	l0-0.1l0.1,0l0.2-0.1l0-0.1l0.1,0l0.2-0.1l0-0.1l0.1,0l0.2-0.1l0.1-0.1l0.1,0l0.2-0.1l0.1-0.1l0.1,0l0.2,0l0.1-0.1l0.1,0l0.2,0
	l0.1-0.1l0.1,0l0.2,0l0.1-0.1l0.1,0.1l0.2,0l0.1-0.1l0.1,0.1l0.2,0l0.1-0.1l0.1,0.1h0.2l0.1-0.1l0.1,0.1l0.2,0l0.1-0.1l0.1,0.1
	l0.2,0l0.1-0.1l0.1,0.1l0.2,0l0.1,0l0.1,0.1l0.2,0l0.1,0l0.1,0.1l0.2,0l0.1,0l0.1,0.1l0.2,0.1l0.1,0l0.1,0.1l0.2,0.1l0.1,0l0.1,0.1
	l0.2,0.1l0.1,0l0.1,0.1l0.2,0.1l0.1,0l0.1,0.1l0.2,0.1l0.1,0l0,0.1l0.2,0.1l0.1,0l0,0.1l0.2,0.1l0.1,0l0,0.1l0.2,0.1l0.1,0l0,0.1
	l0.2,0.1h0.1l0,0.1l0.1,0.1h0.1l0,0.1l0.1,0.1h0.1l0,0.1l0.1,0.1l0.1,0l0,0.1l0.1,0.1l0.1,0l0,0.1l0.1,0.1l0.1,0l0,0.1l0.1,0.1
	l0.1,0v0.1l0.1,0.2l0.1,0v0.1l0.1,0.2l0.1,0l0,0.1l0.1,0.2l0.1,0l0,0.1l0.1,0.2l0.1,0l0,0.1l0.1,0.2l0.1,0l0,0.1l0.1,0.2l0.1,0
	l0,0.1l0.1,0.2l0.1,0l0,0.1l0.1,0.2l0.1,0.1l0,0.1l0.1,0.2l0.1,0.1l0,0.1l0,0.2l0.1,0.1l0,0.1l0,0.2l0.1,0.1l0,0.1l0,0.2l0.1,0.1
	l-0.1,0.1l0,0.2l0.1,0.1l-0.1,0.1l0,0.2l0.1,0.1l-0.1,0.1v0.2l0.1,0.1l-0.1,0.1l0,0.2l0.1,0.1l-0.1,0.1l0,0.2l0.1,0.1l-0.1,0.1
	l0,0.2l0,0.1l-0.1,0.1l0,0.2l0,0.1l-0.1,0.1l0,0.2l0,0.1l-0.1,0.1l-0.1,0.2l0,0.1l-0.1,0.1l-0.1,0.2l0,0.1l-0.1,0.1l-0.1,0.2l0,0.1
	l-0.1,0.1l-0.1,0.2l0,0.1L132,56l-0.1,0.2l0,0.1l-0.1,0l-0.1,0.2l0,0.1l-0.1,0l-0.1,0.2l0,0.1l-0.1,0l-0.1,0.2l0,0.1l-0.1,0
	l-0.1,0.2v0.1l-0.1,0l-0.1,0.1v0.1l-0.1,0l-0.1,0.1V58l-0.1,0l-0.1,0.1l0,0.1l-0.1,0l-0.1,0.1l0,0.1l-0.1,0l-0.1,0.1l0,0.1l-0.1,0
	l-0.1,0.1l0,0.1h-0.1l-0.2,0.1l0,0.1h-0.1l-0.2,0.1l0,0.1l-0.1,0l-0.2,0.1l0,0.1l-0.1,0l-0.2,0.1l0,0.1l-0.1,0l-0.2,0.1l0,0.1
	l-0.1,0L128,59.8z"/>
<path fill="#CF157E" d="M128.3,52.7c0-0.6,0.3-1.2,0.7-1.6c-0.6,0-1.2-0.2-1.6-0.6c-0.4-0.4-0.7-1-0.6-1.6c-0.4,0.4-1,0.7-1.6,0.7
	c-0.6,0-1.2-0.3-1.6-0.7c0,0.6-0.2,1.2-0.6,1.6c-0.4,0.4-1,0.7-1.6,0.6c0.4,0.4,0.7,1,0.7,1.6c0,0.6-0.3,1.2-0.7,1.6
	c0.6,0,1.2,0.2,1.6,0.6c0.4,0.4,0.7,1,0.6,1.6c0.4-0.4,1-0.7,1.6-0.7c0.6,0,1.2,0.3,1.6,0.7c0-0.6,0.2-1.2,0.6-1.6
	c0.4-0.4,1-0.7,1.6-0.6C128.6,53.9,128.3,53.4,128.3,52.7z M125.1,55.1c-1.3,0-2.3-1-2.3-2.3s1-2.3,2.3-2.3c1.3,0,2.3,1,2.3,2.3
	C127.5,54,126.4,55.1,125.1,55.1z"/>
<path fill="#4EC5D6" d="M132.8,52.6L132.8,52.6l-0.1-0.3l0.1-0.1l-0.1-0.1l0-0.2l0.1-0.1l-0.1-0.1l0-0.2l0-0.1l-0.1-0.1l0-0.2l0-0.1
	l-0.1-0.1l0-0.2l0-0.1l-0.1-0.1l-0.1-0.2l0-0.1l-0.1-0.1l-0.1-0.2l0-0.1l-0.1,0l-0.1-0.2l0-0.1l-0.1,0l-0.1-0.2l0-0.1l-0.1,0
	l-0.1-0.2l0-0.1l-0.1,0l-0.1-0.2l0-0.1l-0.1,0l-0.1-0.2l0-0.1l-0.1-0.1l-0.1-0.2v-0.1l-0.1,0l-0.1-0.2v-0.1l-0.1,0l-0.1-0.1l0-0.1
	l-0.1,0l-0.1-0.1l0-0.1l-0.1,0l-0.1-0.1l0-0.1l-0.1,0l-0.1-0.1l0-0.1h-0.1l-0.1-0.1l0-0.1H130l-0.1-0.1l0-0.1h-0.1l-0.2-0.1l0-0.1
	l-0.1,0l-0.2-0.1l0-0.1l-0.1,0l-0.2-0.1l0-0.1l-0.1,0l-0.2-0.1l0-0.1l-0.1,0l-0.2-0.1l-0.1-0.1l-0.1,0l-0.2-0.1l-0.1-0.1l-0.1,0
	l-0.2-0.1l-0.1-0.1l-0.1,0l-0.2-0.1l-0.1-0.1l-0.1,0l-0.2-0.1l-0.1-0.1l-0.1,0l-0.2,0l-0.1-0.1l-0.1,0l-0.2,0l-0.1-0.1l-0.1,0
	l-0.2,0l-0.1-0.1l-0.1,0.1l-0.2,0l-0.1-0.1l-0.1,0.1l-0.2,0l-0.1-0.1l-0.1,0.1H125l-0.1-0.1l-0.1,0.1l-0.2,0l-0.1-0.1l-0.1,0.1
	l-0.2,0l-0.1-0.1l-0.1,0.1l-0.2,0l-0.1,0l-0.1,0.1l-0.2,0l-0.1,0l-0.1,0.1l-0.2,0l-0.1,0l-0.1,0.1l-0.2,0.1l-0.1,0l-0.1,0.1
	l-0.2,0.1l-0.1,0l0,0.1l-0.2,0.1l-0.1,0l0,0.1l-0.2,0.1l-0.1,0l0,0.1l-0.2,0.1l-0.1,0l0,0.1l-0.2,0.1l-0.1,0l0,0.1l-0.2,0.1l-0.1,0
	l0,0.1l-0.2,0.1h-0.1l0,0.1l-0.2,0.1h-0.1l0,0.1l-0.1,0.1l-0.1,0l0,0.1l-0.1,0.1l-0.1,0l0,0.1l-0.1,0.1l-0.1,0l0,0.1l-0.1,0.1
	l-0.1,0v0.1l-0.1,0.1l-0.1,0v0.1l-0.1,0.1l-0.1,0v0.1l-0.1,0.2l-0.1,0l0,0.1l-0.1,0.2l-0.1,0l0,0.1l-0.1,0.2l-0.1,0l0,0.1l-0.1,0.2
	l-0.1,0l0,0.1l-0.1,0.2l-0.1,0.1l0,0.1l-0.1,0.2l-0.1,0.1l0,0.1l-0.1,0.2l-0.1,0.1l0,0.1l-0.1,0.2l-0.1,0.1l0,0.1l-0.1,0.2l-0.1,0.1
	l0,0.1l0,0.2l-0.1,0.1l0,0.1l0,0.2l-0.1,0.1l0,0.1l0,0.2l-0.1,0.1l0.1,0.1l0,0.2l-0.1,0.1l0.1,0.1l0,0.2l-0.1,0.1l0.1,0.1v0.2
	l-0.1,0.1l0.1,0.1l0,0.2l-0.1,0.1l0.1,0.1l0,0.2l-0.1,0.1l0.1,0.1l0,0.2l0,0.1l0.1,0.1l0,0.2l0,0.1l0.1,0.1l0,0.2l0,0.1l0.1,0.1
	l0.1,0.2l0,0.1l0.1,0.1l0.1,0.2l0,0.1l0.1,0l0.1,0.2l0,0.1l0.1,0l0.1,0.2l0,0.1l0.1,0l0.1,0.2l0,0.1l0.1,0l0.1,0.2l0,0.1l0.1,0
	l0.1,0.2l0,0.1l0.1,0l0.1,0.2v0.1l0.1,0l0.1,0.2v0.1l0.1,0l0.1,0.1l0,0.1l0.1,0l0.1,0.1l0,0.1l0.1,0l0.1,0.1l0,0.1l0.1,0l0.1,0.1
	l0,0.1h0.1l0.1,0.1l0,0.1h0.1l0.1,0.1l0,0.1h0.1l0.2,0.1l0,0.1l0.1,0l0.2,0.1l0,0.1l0.1,0l0.2,0.1l0,0.1l0.1,0l0.2,0.1l0,0.1l0.1,0
	l0.2,0.1l0.1,0.1l0.1,0l0.2,0.1l0.1,0.1l0.1,0l0.2,0.1l0.1,0.1l0.1,0l0.2,0.1l0.1,0.1l0.1,0l0.2,0.1l0.1,0.1l0.1,0l0.2,0l0.1,0.1
	l0.1,0l0.2,0l0.1,0.1l0.1,0l0.2,0l0.1,0.1l0.1-0.1l0.2,0l0.1,0.1l0.1-0.1l0.2,0l0.1,0.1l0.1-0.1h0.2l0.1,0.1l0.1-0.1l0.2,0l0.1,0.1
	l0.1-0.1l0.2,0l0.1,0.1l0.1-0.1l0.2,0l0.1,0l0.1-0.1l0.2,0l0.1,0l0.1-0.1l0.2,0l0.1,0l0.1-0.1l0.2-0.1l0.1,0l0.1-0.1l0.2-0.1l0.1,0
	l0-0.1l0.2-0.1l0.1,0l0-0.1l0.2-0.1l0.1,0l0-0.1l0.2-0.1l0.1,0l0-0.1l0.2-0.1l0.1,0l0-0.1l0.2-0.1l0.1,0l0-0.1l0.2-0.1h0.1l0-0.1
	l0.2-0.1h0.1l0-0.1l0.1-0.1l0.1,0l0-0.1l0.1-0.1l0.1,0l0-0.1l0.1-0.1l0.1,0l0-0.1l0.1-0.1l0.1,0v-0.1l0.1-0.1l0.1,0v-0.1l0.1-0.1
	l0.1,0v-0.1l0.1-0.2l0.1,0l0-0.1l0.1-0.2l0.1,0l0-0.1l0.1-0.2l0.1,0l0-0.1l0.1-0.2l0.1,0l0-0.1L132,56l0.1-0.1l0-0.1l0.1-0.2
	l0.1-0.1l0-0.1l0.1-0.2l0.1-0.1l0-0.1l0.1-0.2l0.1-0.1l0-0.1l0.1-0.2l0.1-0.1l0-0.1l0-0.2l0.1-0.1l0-0.1l0-0.2l0.1-0.1l0-0.1l0-0.2
	l0.1-0.1l-0.1-0.1l0-0.2l0.1-0.1l-0.1-0.1l0-0.2l0.1-0.1l-0.1-0.1L132.8,52.6L132.8,52.6z M130.5,54.9
	C130.5,54.9,130.5,54.9,130.5,54.9C130.5,55,130.5,55,130.5,54.9c0.9,0.9,0.9,2.3,0,3.2c-0.9,0.9-2.2,0.9-3.1,0c0,0,0,0,0-0.1
	c0,0,0,0.1,0,0.1c0,1.2-1,2.2-2.2,2.2c-1.2,0-2.2-1-2.2-2.2c0,0,0,0,0-0.1c0,0,0,0-0.1,0.1c-0.9,0.9-2.2,0.9-3.1,0
	c-0.9-0.9-0.9-2.2,0-3.1c0,0,0,0,0.1,0c0,0-0.1,0-0.1,0c-1.2,0-2.2-1-2.2-2.2s1-2.2,2.2-2.2c0,0,0,0,0.1,0c0,0,0,0-0.1-0.1
	c-0.9-0.9-0.9-2.2,0-3.1s2.2-0.9,3.1,0c0,0,0,0,0,0.1c0,0,0-0.1,0-0.1c0-1.2,1-2.2,2.2-2.2s2.2,1,2.2,2.2c0,0,0,0,0,0.1
	c0,0,0,0,0.1-0.1c0.9-0.9,2.2-0.9,3.1,0c0.9,0.9,0.9,2.2,0,3.1c0,0,0,0-0.1,0c0,0,0.1,0,0.1,0c1.2,0,2.2,1,2.2,2.2
	C132.7,53.9,131.7,54.9,130.5,54.9z"/>
<path fill="#8AC640" d="M129.1,41.3c-0.5,0-0.9,0.4-0.9,0.9v0.2h1.8v-0.2C129.9,41.7,129.5,41.3,129.1,41.3z"/>
<path fill="#8AC640" d="M131,41.3c-0.5,0-0.9,0.4-0.9,0.9v0.2h1.8v-0.2C131.9,41.7,131.5,41.3,131,41.3z"/>
<path fill="#8AC640" d="M127.1,41.3c-0.5,0-0.9,0.4-0.9,0.9v0.2h1.8v-0.2C128,41.7,127.6,41.3,127.1,41.3z"/>
<path fill="#8AC640" d="M133,41.3c-0.5,0-0.9,0.4-0.9,0.9v0.2h1.8v-0.2C133.9,41.7,133.5,41.3,133,41.3z"/>
<path fill="#8AC640" d="M134.9,41.3c-0.5,0-0.9,0.4-0.9,0.9v0.2h1.8v-0.2C135.8,41.7,135.4,41.3,134.9,41.3z"/>
<path fill="#8AC640" d="M123.2,41.3c-0.5,0-0.9,0.4-0.9,0.9v0.2h1.8v-0.2C124.1,41.7,123.7,41.3,123.2,41.3z"/>
<path fill="#8AC640" d="M117.3,41.3c-0.5,0-0.9,0.4-0.9,0.9v0.2h1.8v-0.2C118.2,41.7,117.8,41.3,117.3,41.3z"/>
<path fill="#8AC640" d="M125.1,41.3c-0.5,0-0.9,0.4-0.9,0.9v0.2h1.8v-0.2C126,41.7,125.6,41.3,125.1,41.3z"/>
<path fill="#8AC640" d="M115.3,41.3c-0.5,0-0.9,0.4-0.9,0.9v0.2h1.8v-0.2C116.2,41.7,115.8,41.3,115.3,41.3z"/>
<path fill="#8AC640" d="M121.2,41.3c-0.5,0-0.9,0.4-0.9,0.9v0.2h1.8v-0.2C122.1,41.7,121.7,41.3,121.2,41.3z"/>
<path fill="#8AC640" d="M119.2,41.3c-0.5,0-0.9,0.4-0.9,0.9v0.2h1.8v-0.2C120.1,41.7,119.7,41.3,119.2,41.3z"/>
<path fill="#111243" d="M147.9,56.5v-0.6c0-0.5-0.4-0.9-0.9-0.9c-0.5,0-0.9,0.4-0.9,0.9v0.6h-0.2v-0.6c0-0.5-0.4-0.9-0.9-0.9
	c-0.5,0-0.9,0.4-0.9,0.9v0.6H144v-0.6c0-0.5-0.4-0.9-0.9-0.9c-0.5,0-0.9,0.4-0.9,0.9v0.6H142v-0.6c0-0.5-0.4-0.9-0.9-0.9
	c-0.5,0-0.9,0.4-0.9,0.9v0.6h-0.2v-0.6c0-0.5-0.4-0.9-0.9-0.9c-0.5,0-0.9,0.4-0.9,0.9v0.6h-0.2v-0.6c0-0.5-0.4-0.9-0.9-0.9
	c-0.5,0-0.9,0.4-0.9,0.9v0.6v1.5v27.8h11.6"/>
<polygon fill="#4957A6" points="142,44.1 142,44.1 135.8,54.7 148.2,54.7 "/>
<path fill="#D0DD27" d="M145,55c-0.5,0-0.9,0.4-0.9,0.9v0.2h1.8v-0.2C145.9,55.4,145.5,55,145,55z"/>
<path fill="#D0DD27" d="M139.1,55c-0.5,0-0.9,0.4-0.9,0.9v0.2h1.8v-0.2C140,55.4,139.6,55,139.1,55z"/>
<path fill="#D0DD27" d="M147,55c-0.5,0-0.9,0.4-0.9,0.9v0.2h1.8v-0.2C147.9,55.4,147.5,55,147,55z"/>
<path fill="#D0DD27" d="M137.2,55c-0.5,0-0.9,0.4-0.9,0.9v0.2h1.8v-0.2C138.1,55.4,137.7,55,137.2,55z"/>
<path fill="#D0DD27" d="M143.1,55c-0.5,0-0.9,0.4-0.9,0.9v0.2h1.8v-0.2C144,55.4,143.6,55,143.1,55z"/>
<path fill="#D0DD27" d="M141.1,55c-0.5,0-0.9,0.4-0.9,0.9v0.2h1.8v-0.2C142,55.4,141.6,55,141.1,55z"/>
<path fill="#A14923" d="M135.8,54.7v1.9h0.5v-0.1v-0.6c0-0.5,0.4-0.9,0.9-0.9c0.5,0,0.9,0.4,0.9,0.9v0.6h0.2v-0.6
	c0-0.5,0.4-0.9,0.9-0.9c0.5,0,0.9,0.4,0.9,0.9v0.6h0.2v-0.6c0-0.5,0.4-0.9,0.9-0.9c0.5,0,0.9,0.4,0.9,0.9v0.6h0.2v-0.6
	c0-0.5,0.4-0.9,0.9-0.9c0.5,0,0.9,0.4,0.9,0.9v0.6h0.2v-0.6c0-0.5,0.4-0.9,0.9-0.9s0.9,0.4,0.9,0.9v0.6h0.2v-0.6
	c0-0.5,0.4-0.9,0.9-0.9c0.5,0,0.9,0.4,0.9,0.9v0.6v0.1h0.4v-1.9L135.8,54.7L135.8,54.7z"/>
<path fill="#D2A01F" d="M147.9,61.3h-3.5v-0.1c0-1.3-1-2.3-2.3-2.3c-1.3,0-2.3,1-2.3,2.3v0.1h-3.4v-0.1h3.3c0-1.3,1.1-2.4,2.4-2.4
	s2.4,1.1,2.4,2.4h3.4L147.9,61.3L147.9,61.3z"/>
<path fill="#83298B" d="M139.9,70c-0.4,0-0.8,0.3-0.8,0.8v1.8h1.5v-1.8C140.7,70.3,140.3,70,139.9,70z"/>
<path fill="#83298B" d="M142,70c-0.4,0-0.8,0.3-0.8,0.8v1.8h1.5v-1.8C142.8,70.3,142.4,70,142,70z"/>
<path fill="#83298B" d="M144.1,70c-0.4,0-0.8,0.3-0.8,0.8v1.8h1.5v-1.8C144.9,70.3,144.6,70,144.1,70z"/>
<path fill="#83298B" d="M143.2,61.3c-0.4,0-0.8,0.3-0.8,0.8v1.8h1.5V62C144,61.6,143.6,61.3,143.2,61.3z"/>
<path fill="#FFCE1B" d="M142.1,61.7l0.1-0.3c0-0.4,0.5-0.8,0.9-0.8s0.9,0.3,0.9,0.8v-0.2c0-0.9-0.9-1.8-1.9-1.8
	c-1.1,0-1.9,0.9-1.9,1.8v0.2c0-0.4,0.5-0.8,0.9-0.8s0.9,0.3,0.9,0.8L142.1,61.7z"/>
<path fill="#83298B" d="M140.9,61.3c-0.4,0-0.8,0.3-0.8,0.8v1.8h1.5V62C141.7,61.6,141.3,61.3,140.9,61.3z"/>
<path fill="#7DC242" d="M142.4,62c0-0.4,0.3-0.8,0.8-0.8s0.8,0.3,0.8,0.8v-0.6c0-0.4-0.5-0.8-0.9-0.8s-0.9,0.3-0.9,0.8l-0.1,0.3
	l-0.1-0.3c0-0.4-0.5-0.8-0.9-0.8s-0.9,0.3-0.9,0.8V62c0-0.4,0.3-0.8,0.8-0.8s0.8,0.3,0.8,0.8H142.4z"/>
<rect x="139.9" y="63.9" fill="#2B3990" width="4.2" height="1.1"/>
<rect x="140.2" y="65" fill="#C2B59B" width="3.7" height="1.1"/>
<rect x="136.3" y="74.2" fill="#2B3990" width="11.6" height="1.1"/>
<rect x="141.7" y="62" fill="#57BDEC" width="0.8" height="1.8"/>
<circle fill="#D2A01F" cx="142.1" cy="60.1" r="0.7"/>
<circle fill="#352C81" cx="142.1" cy="60.1" r="0.6"/>
<circle fill="#69BD45" cx="142.1" cy="60.1" r="0.6"/>
<g>
	<path fill="#5CBDEB" d="M144.2,63.9H144v-2.7c0-0.9-0.8-1.8-1.9-1.8c-1.1,0-1.9,0.9-1.9,1.8v2.7h-0.2v-2.7c0-0.9,0.9-2,2.1-2
		s2.1,1.1,2.1,2V63.9z"/>
</g>
<rect x="136.3" y="74.1" fill="#F7941E" width="11.6" height="0.1"/>
<rect x="138.7" y="72.5" fill="#F7941E" width="6.6" height="0.1"/>
<rect x="139.9" y="66.1" fill="#F7941E" width="4.2" height="0.1"/>
<path fill="#83298B" d="M128.5,73.8c-1.3,0-2.3,1-2.3,2.3v5.5h4.6v-5.5C130.8,74.8,129.8,73.8,128.5,73.8z"/>
<path fill="#FFCE1B" d="M125.1,74.9l0.2-0.8c0-1.3,1.4-2.3,2.7-2.3c1.3,0,2.8,1,2.8,2.3v-0.7c0-2.6-2.6-5.4-5.7-5.4
	c-3.1,0-5.7,2.8-5.7,5.4v0.7c0-1.3,1.6-2.3,2.8-2.3c1.3,0,2.7,1,2.7,2.3L125.1,74.9z"/>
<path fill="#83298B" d="M121.7,73.8c-1.3,0-2.3,1-2.3,2.3v5.5h4.6v-5.5C124,74.8,123,73.8,121.7,73.8z"/>
<path fill="#7DC242" d="M126.3,76.1c0-1.3,1-2.3,2.3-2.3c1.3,0,2.3,1,2.3,2.3v-1.9c0-1.3-1.6-2.3-2.8-2.3s-2.7,1-2.7,2.3l-0.2,0.8
	l-0.2-0.8c0-1.3-1.4-2.3-2.7-2.3c-1.3,0-2.8,1-2.8,2.3v1.9c0-1.3,1-2.3,2.3-2.3c1.3,0,2.3,1,2.3,2.3H126.3z"/>
<rect x="118.8" y="81.6" fill="#603913" width="12.7" height="1.4"/>
<rect x="117.8" y="83" fill="#754C29" width="14.6" height="1.4"/>
<rect x="116.6" y="84.4" fill="#8B5E3C" width="17.1" height="1.4"/>
<rect x="124" y="76.1" fill="#57BDEC" width="2.3" height="5.5"/>
<circle fill="#D2A01F" cx="125.1" cy="70.4" r="2"/>
<circle fill="#352C81" cx="125.1" cy="70.4" r="1.8"/>
<circle fill="#69BD45" cx="125.1" cy="70.4" r="1.7"/>
<g>
	<path fill="#262262" d="M131.5,81.6h-0.6v-8.1c0-2.5-2.4-5.4-5.7-5.4c-3.3,0-5.7,2.8-5.7,5.4v8.1h-0.6v-8.1c0-2.8,2.7-6,6.3-6
		s6.3,3.2,6.3,6V81.6z"/>
</g>
<rect x="137.1" y="68.1" fill="#F89420" width="0.2" height="0.2"/>
<rect x="137.5" y="68.1" fill="#F89420" width="0.2" height="0.2"/>
<rect x="138" y="68.1" fill="#F89420" width="0.2" height="0.2"/>
<rect x="138.5" y="68.1" fill="#F89420" width="0.2" height="0.2"/>
<rect x="138.9" y="68.1" fill="#F89420" width="0.2" height="0.2"/>
<rect x="139.4" y="68.1" fill="#F89420" width="0.2" height="0.2"/>
<rect x="139.9" y="68.1" fill="#F89420" width="0.2" height="0.2"/>
<rect x="140.3" y="68.1" fill="#F89420" width="0.2" height="0.2"/>
<rect x="140.8" y="68.1" fill="#F89420" width="0.2" height="0.2"/>
<rect x="141.3" y="68.1" fill="#F89420" width="0.2" height="0.2"/>
<rect x="141.7" y="68.1" fill="#F89420" width="0.2" height="0.2"/>
<rect x="142.2" y="68.1" fill="#F89420" width="0.2" height="0.2"/>
<rect x="142.7" y="68.1" fill="#F89420" width="0.2" height="0.2"/>
<rect x="143.1" y="68.1" fill="#F89420" width="0.2" height="0.2"/>
<rect x="143.6" y="68.1" fill="#F89420" width="0.2" height="0.2"/>
<rect x="144.1" y="68.1" fill="#F89420" width="0.2" height="0.2"/>
<rect x="144.5" y="68.1" fill="#F89420" width="0.2" height="0.2"/>
<rect x="145" y="68.1" fill="#F89420" width="0.2" height="0.2"/>
<rect x="145.5" y="68.1" fill="#F89420" width="0.2" height="0.2"/>
<rect x="145.9" y="68.1" fill="#F89420" width="0.2" height="0.2"/>
<rect x="146.4" y="68.1" fill="#F89420" width="0.2" height="0.2"/>
<rect x="146.9" y="68.1" fill="#F89420" width="0.2" height="0.2"/>
<rect x="137.3" y="67.8" fill="#F89420" width="0.2" height="0.2"/>
<rect x="137.8" y="67.8" fill="#F89420" width="0.2" height="0.2"/>
<rect x="138.2" y="67.8" fill="#F89420" width="0.2" height="0.2"/>
<rect x="138.7" y="67.8" fill="#F89420" width="0.2" height="0.2"/>
<rect x="139.2" y="67.8" fill="#F89420" width="0.2" height="0.2"/>
<rect x="139.6" y="67.8" fill="#F89420" width="0.2" height="0.2"/>
<rect x="140.1" y="67.8" fill="#F89420" width="0.2" height="0.2"/>
<rect x="140.6" y="67.8" fill="#F89420" width="0.2" height="0.2"/>
<rect x="141" y="67.8" fill="#F89420" width="0.2" height="0.2"/>
<rect x="141.5" y="67.8" fill="#F89420" width="0.2" height="0.2"/>
<rect x="142" y="67.8" fill="#F89420" width="0.2" height="0.2"/>
<rect x="142.4" y="67.8" fill="#F89420" width="0.2" height="0.2"/>
<rect x="142.9" y="67.8" fill="#F89420" width="0.2" height="0.2"/>
<rect x="143.4" y="67.8" fill="#F89420" width="0.2" height="0.2"/>
<rect x="143.8" y="67.8" fill="#F89420" width="0.2" height="0.2"/>
<rect x="144.3" y="67.8" fill="#F89420" width="0.2" height="0.2"/>
<rect x="144.8" y="67.8" fill="#F89420" width="0.2" height="0.2"/>
<rect x="145.2" y="67.8" fill="#F89420" width="0.2" height="0.2"/>
<rect x="145.7" y="67.8" fill="#F89420" width="0.2" height="0.2"/>
<rect x="146.2" y="67.8" fill="#F89420" width="0.2" height="0.2"/>
<rect x="146.6" y="67.8" fill="#F89420" width="0.2" height="0.2"/>
<path fill="#5CBDEB" d="M140.2,85.9v-6.7c0-0.9,0.8-1.8,1.9-1.8c1.1,0,1.9,0.9,1.9,1.8v6.7h0.2v-6.7c0-0.9-0.9-2-2.1-2
	s-2.1,1.1-2.1,2v6.7H140.2z"/>
<path fill="#D7DF23" d="M144,85.9v-6.7c0-0.9-0.8-1.8-1.9-1.8c-1.1,0-1.9,0.9-1.9,1.8v6.7"/>
<rect x="136.3" y="83.6" fill="#F7941E" width="3.7" height="0.1"/>
<rect x="144.2" y="83.6" fill="#F7941E" width="3.7" height="0.1"/>
<rect x="136.3" y="83.9" fill="#F7941E" width="3.7" height="0.1"/>
<rect x="144.2" y="83.9" fill="#F7941E" width="3.7" height="0.1"/>
<path fill="#111243" d="M114.1,56.6v-0.6c0-0.5-0.4-0.9-0.9-0.9s-0.9,0.4-0.9,0.9v0.6h-0.2v-0.6c0-0.5-0.4-0.9-0.9-0.9
	c-0.5,0-0.9,0.4-0.9,0.9v0.6h-0.2v-0.6c0-0.5-0.4-0.9-0.9-0.9s-0.9,0.4-0.9,0.9v0.6h-0.2v-0.6c0-0.5-0.4-0.9-0.9-0.9
	s-0.9,0.4-0.9,0.9v0.6h-0.2v-0.6c0-0.5-0.4-0.9-0.9-0.9s-0.9,0.4-0.9,0.9v0.6h-0.2v-0.6c0-0.5-0.4-0.9-0.9-0.9s-0.9,0.4-0.9,0.9v0.6
	v1.5v27.8h11.6"/>
<polygon fill="#4957A6" points="108.2,44.1 108.2,44.1 102,54.7 114.4,54.7 "/>
<path fill="#D0DD27" d="M111.2,55c-0.5,0-0.9,0.4-0.9,0.9v0.2h1.8v-0.2C112.1,55.4,111.7,55,111.2,55z"/>
<path fill="#D0DD27" d="M105.3,55c-0.5,0-0.9,0.4-0.9,0.9v0.2h1.8v-0.2C106.2,55.4,105.8,55,105.3,55z"/>
<path fill="#D0DD27" d="M113.2,55c-0.5,0-0.9,0.4-0.9,0.9v0.2h1.8v-0.2C114.1,55.4,113.7,55,113.2,55z"/>
<path fill="#D0DD27" d="M103.4,55c-0.5,0-0.9,0.4-0.9,0.9v0.2h1.8v-0.2C104.3,55.4,103.9,55,103.4,55z"/>
<path fill="#D0DD27" d="M109.2,55c-0.5,0-0.9,0.4-0.9,0.9v0.2h1.8v-0.2C110.1,55.4,109.7,55,109.2,55z"/>
<path fill="#D0DD27" d="M107.3,55c-0.5,0-0.9,0.4-0.9,0.9v0.2h1.8v-0.2C108.2,55.4,107.8,55,107.3,55z"/>
<path fill="#A14923" d="M102,54.7v1.9h0.5v-0.1v-0.6c0-0.5,0.4-0.9,0.9-0.9s0.9,0.4,0.9,0.9v0.6h0.2v-0.6c0-0.5,0.4-0.9,0.9-0.9
	c0.5,0,0.9,0.4,0.9,0.9v0.6h0.2v-0.6c0-0.5,0.4-0.9,0.9-0.9s0.9,0.4,0.9,0.9v0.6h0.2v-0.6c0-0.5,0.4-0.9,0.9-0.9s0.9,0.4,0.9,0.9
	v0.6h0.2v-0.6c0-0.5,0.4-0.9,0.9-0.9s0.9,0.4,0.9,0.9v0.6h0.2v-0.6c0-0.5,0.4-0.9,0.9-0.9s0.9,0.4,0.9,0.9v0.6v0.1h0.4v-1.9H102z"/>
<path fill="#D2A01F" d="M114.1,61.3h-3.5v-0.1c0-1.3-1-2.3-2.3-2.3s-2.3,1-2.3,2.3v0.1h-3.4v-0.1h3.3c0-1.3,1.1-2.4,2.4-2.4
	s2.4,1.1,2.4,2.4h3.4L114.1,61.3L114.1,61.3z"/>
<path fill="#83298B" d="M106.1,70c-0.4,0-0.8,0.3-0.8,0.8v1.8h1.5v-1.8C106.8,70.4,106.5,70,106.1,70z"/>
<path fill="#83298B" d="M108.2,70c-0.4,0-0.8,0.3-0.8,0.8v1.8h1.5v-1.8C109,70.4,108.6,70,108.2,70z"/>
<path fill="#83298B" d="M110.3,70c-0.4,0-0.8,0.3-0.8,0.8v1.8h1.5v-1.8C111.1,70.4,110.7,70,110.3,70z"/>
<path fill="#83298B" d="M109.4,61.3c-0.4,0-0.8,0.3-0.8,0.8v1.8h1.5v-1.8C110.1,61.7,109.8,61.3,109.4,61.3z"/>
<path fill="#FFCE1B" d="M108.2,61.7l0.1-0.3c0-0.4,0.5-0.8,0.9-0.8s0.9,0.3,0.9,0.8v-0.2c0-0.9-0.9-1.8-1.9-1.8
	c-1.1,0-1.9,0.9-1.9,1.8v0.2c0-0.4,0.5-0.8,0.9-0.8c0.4,0,0.9,0.3,0.9,0.8L108.2,61.7z"/>
<path fill="#83298B" d="M107.1,61.3c-0.4,0-0.8,0.3-0.8,0.8v1.8h1.5v-1.8C107.9,61.7,107.5,61.3,107.1,61.3z"/>
<path fill="#7DC242" d="M108.6,62.1c0-0.4,0.3-0.8,0.8-0.8s0.8,0.3,0.8,0.8v-0.6c0-0.4-0.5-0.8-0.9-0.8s-0.9,0.3-0.9,0.8l-0.1,0.3
	l-0.1-0.3c0-0.4-0.5-0.8-0.9-0.8s-0.9,0.3-0.9,0.8v0.6c0-0.4,0.3-0.8,0.8-0.8s0.8,0.3,0.8,0.8H108.6z"/>
<rect x="106.1" y="63.9" fill="#2B3990" width="4.2" height="1.1"/>
<rect x="106.4" y="65" fill="#C2B59B" width="3.7" height="1.1"/>
<rect x="102.5" y="74.2" fill="#2B3990" width="11.6" height="1.1"/>
<rect x="107.9" y="62.1" fill="#57BDEC" width="0.8" height="1.8"/>
<circle fill="#D2A01F" cx="108.2" cy="60.2" r="0.7"/>
<circle fill="#352C81" cx="108.2" cy="60.2" r="0.6"/>
<circle fill="#69BD45" cx="108.2" cy="60.2" r="0.6"/>
<g>
	<path fill="#5CBDEB" d="M110.3,63.9h-0.2v-2.7c0-0.9-0.8-1.8-1.9-1.8s-1.9,0.9-1.9,1.8v2.7h-0.2v-2.7c0-0.9,0.9-2,2.1-2
		s2.1,1.1,2.1,2V63.9z"/>
</g>
<rect x="102.5" y="74.1" fill="#F7941E" width="11.6" height="0.1"/>
<rect x="104.9" y="72.6" fill="#F7941E" width="6.6" height="0.1"/>
<rect x="106.1" y="66.1" fill="#F7941E" width="4.2" height="0.1"/>
<rect x="103.2" y="68.1" fill="#F89420" width="0.2" height="0.2"/>
<rect x="103.7" y="68.1" fill="#F89420" width="0.2" height="0.2"/>
<rect x="104.2" y="68.1" fill="#F89420" width="0.2" height="0.2"/>
<rect x="104.6" y="68.1" fill="#F89420" width="0.2" height="0.2"/>
<rect x="105.1" y="68.1" fill="#F89420" width="0.2" height="0.2"/>
<rect x="105.6" y="68.1" fill="#F89420" width="0.2" height="0.2"/>
<rect x="106" y="68.1" fill="#F89420" width="0.2" height="0.2"/>
<rect x="106.5" y="68.1" fill="#F89420" width="0.2" height="0.2"/>
<rect x="107" y="68.1" fill="#F89420" width="0.2" height="0.2"/>
<rect x="107.4" y="68.1" fill="#F89420" width="0.2" height="0.2"/>
<rect x="107.9" y="68.1" fill="#F89420" width="0.2" height="0.2"/>
<rect x="108.4" y="68.1" fill="#F89420" width="0.2" height="0.2"/>
<rect x="108.8" y="68.1" fill="#F89420" width="0.2" height="0.2"/>
<rect x="109.3" y="68.1" fill="#F89420" width="0.2" height="0.2"/>
<rect x="109.8" y="68.1" fill="#F89420" width="0.2" height="0.2"/>
<rect x="110.2" y="68.1" fill="#F89420" width="0.2" height="0.2"/>
<rect x="110.7" y="68.1" fill="#F89420" width="0.2" height="0.2"/>
<rect x="111.2" y="68.1" fill="#F89420" width="0.2" height="0.2"/>
<rect x="111.6" y="68.1" fill="#F89420" width="0.2" height="0.2"/>
<rect x="112.1" y="68.1" fill="#F89420" width="0.2" height="0.2"/>
<rect x="112.6" y="68.1" fill="#F89420" width="0.2" height="0.2"/>
<rect x="113" y="68.1" fill="#F89420" width="0.2" height="0.2"/>
<rect x="103.5" y="67.8" fill="#F89420" width="0.2" height="0.2"/>
<rect x="103.9" y="67.8" fill="#F89420" width="0.2" height="0.2"/>
<rect x="104.4" y="67.8" fill="#F89420" width="0.2" height="0.2"/>
<rect x="104.9" y="67.8" fill="#F89420" width="0.2" height="0.2"/>
<rect x="105.3" y="67.8" fill="#F89420" width="0.2" height="0.2"/>
<rect x="105.8" y="67.8" fill="#F89420" width="0.2" height="0.2"/>
<rect x="106.3" y="67.8" fill="#F89420" width="0.2" height="0.2"/>
<rect x="106.8" y="67.8" fill="#F89420" width="0.2" height="0.2"/>
<rect x="107.2" y="67.8" fill="#F89420" width="0.2" height="0.2"/>
<rect x="107.7" y="67.8" fill="#F89420" width="0.2" height="0.2"/>
<rect x="108.2" y="67.8" fill="#F89420" width="0.2" height="0.2"/>
<rect x="108.6" y="67.8" fill="#F89420" width="0.2" height="0.2"/>
<rect x="109.1" y="67.8" fill="#F89420" width="0.2" height="0.2"/>
<rect x="109.5" y="67.8" fill="#F89420" width="0.2" height="0.2"/>
<rect x="110" y="67.8" fill="#F89420" width="0.2" height="0.2"/>
<rect x="110.5" y="67.8" fill="#F89420" width="0.2" height="0.2"/>
<rect x="111" y="67.8" fill="#F89420" width="0.2" height="0.2"/>
<rect x="111.4" y="67.8" fill="#F89420" width="0.2" height="0.2"/>
<rect x="111.9" y="67.8" fill="#F89420" width="0.2" height="0.2"/>
<rect x="112.4" y="67.8" fill="#F89420" width="0.2" height="0.2"/>
<rect x="112.8" y="67.8" fill="#F89420" width="0.2" height="0.2"/>
<path fill="#5CBDEB" d="M106.3,85.9v-6.7c0-0.9,0.8-1.8,1.9-1.8s1.9,0.9,1.9,1.8v6.7h0.2v-6.7c0-0.9-0.9-2-2.1-2s-2.1,1.1-2.1,2v6.7
	H106.3z"/>
<path fill="#D7DF23" d="M110.1,85.9v-6.7c0-0.9-0.8-1.8-1.9-1.8s-1.9,0.9-1.9,1.8v6.7"/>
<rect x="102.5" y="83.7" fill="#F7941E" width="3.7" height="0.1"/>
<rect x="110.3" y="83.7" fill="#F7941E" width="3.7" height="0.1"/>
<rect x="102.5" y="84" fill="#F7941E" width="3.7" height="0.1"/>
<rect x="110.3" y="84" fill="#F7941E" width="3.7" height="0.1"/>
<path fill="#2B3990" d="M125.1,66.5c-4,0-7.3,3.8-7.3,7V83h0.9v-1.4h0v-8.1c0-2.8,2.7-6,6.3-6c3.6,0,6.3,3.2,6.3,6v8.1h0V83h0.9
	v-9.5C132.4,70.3,129.2,66.5,125.1,66.5z"/>
<path fill="#1C75BC" d="M125.1,65.2c-4.6,0-8.6,4.8-8.6,8.3v10.9h1.3v-1.7h0v-9.2c0-3.2,3.2-7,7.3-7s7.3,3.8,7.3,7v9.2h0v1.7h1.3
	V73.6C133.7,70,129.7,65.2,125.1,65.2z"/>
<path fill="#27AAE1" d="M133.7,85.8h1.4V73.4c0-4.2-4.6-9.7-9.9-9.7c-5.3,0-9.9,5.5-9.9,9.7v12.5h1.4v-1.4l0,0V73.6
	c0-2.4,1.8-5.4,4.5-7.1c0,0,0.1,0,0.1-0.1c0,0,0,0,0,0c0.5-0.3,1-0.5,1.5-0.7c0,0,0,0,0,0c0,0,0.1,0,0.1-0.1
	c0.7-0.3,1.5-0.4,2.3-0.4c0.8,0,1.6,0.1,2.3,0.4c0,0,0.1,0,0.1,0.1c0,0,0,0,0,0c0.5,0.2,1,0.4,1.5,0.7c0,0,0,0,0,0
	c0,0,0.1,0,0.1,0.1c2.6,1.7,4.5,4.6,4.5,7.1v10.9"/>
<path fill="#8DC63F" d="M125.1,62.1c-6.1,0-11.1,6.3-11.1,11v12.8h1.3v-0.1h-0.2V73.4c0-4.2,4.6-9.7,9.9-9.7c5.3,0,9.9,5.5,9.9,9.7
	v12.5h-0.2v0.1h1.5V73.2C136.3,68.4,131.2,62.1,125.1,62.1z"/>
<path fill="#FFF200" d="M115.9,67.7C115.9,67.7,115.9,67.7,115.9,67.7c0.1-0.2,0.3-0.4,0.4-0.6c0,0,0,0,0,0c0.2-0.3,0.5-0.6,0.7-0.9
	c0,0,0,0,0,0c0.2-0.2,0.3-0.4,0.5-0.5c0,0,0,0,0,0c0.1-0.1,0.2-0.2,0.3-0.3c0,0,0,0,0,0c0.2-0.2,0.4-0.3,0.5-0.5c0,0,0,0,0,0
	c0.2-0.2,0.4-0.3,0.6-0.5c0,0,0,0,0,0c0.1-0.1,0.2-0.1,0.3-0.2c0,0,0,0,0.1,0c0.1-0.1,0.2-0.1,0.3-0.2l0,0c0.1-0.1,0.2-0.1,0.3-0.2
	c0,0,0,0,0.1,0c0.1-0.1,0.2-0.1,0.3-0.2c0,0,0,0,0,0c0.1-0.1,0.2-0.1,0.3-0.2c0,0,0,0,0.1,0c0.1,0,0.2-0.1,0.3-0.1c0,0,0.1,0,0.1,0
	c0.1-0.1,0.2-0.1,0.3-0.1c0,0,0,0,0,0c0.1,0,0.2-0.1,0.3-0.1c0,0,0.1,0,0.1,0c0.1,0,0.2-0.1,0.3-0.1c0,0,0,0,0.1,0
	c0.1,0,0.2-0.1,0.3-0.1c0,0,0.1,0,0.1,0c0.1,0,0.2-0.1,0.3-0.1c0,0,0.1,0,0.1,0c0.1,0,0.2-0.1,0.3-0.1h0c0.1,0,0.2,0,0.3-0.1
	c0,0,0.1,0,0.1,0c0.1,0,0.2,0,0.3,0c0,0,0.1,0,0.1,0c0.1,0,0.2,0,0.3,0c0,0,0.1,0,0.1,0c0.1,0,0.2,0,0.3,0c0,0,0.1,0,0.1,0
	c0.1,0,0.2,0,0.4,0c0.1,0,0.2,0,0.4,0c0,0,0.1,0,0.1,0c0.1,0,0.2,0,0.3,0c0,0,0.1,0,0.1,0c0.1,0,0.2,0,0.3,0c0,0,0.1,0,0.1,0
	c0.1,0,0.2,0,0.3,0c0,0,0.1,0,0.1,0c0.1,0,0.2,0,0.3,0.1h0c0.1,0,0.2,0.1,0.3,0.1c0,0,0.1,0,0.1,0c0.1,0,0.2,0.1,0.3,0.1
	c0,0,0.1,0,0.1,0c0.1,0,0.2,0.1,0.3,0.1c0,0,0,0,0.1,0c0.1,0,0.2,0.1,0.3,0.1c0,0,0.1,0,0.1,0c0.1,0,0.2,0.1,0.3,0.1c0,0,0,0,0,0
	c0.1,0,0.2,0.1,0.3,0.1c0,0,0.1,0,0.1,0c0.1,0,0.2,0.1,0.3,0.1c0,0,0,0,0.1,0c0.1,0.1,0.2,0.1,0.3,0.2c0,0,0,0,0,0
	c0.1,0.1,0.2,0.1,0.3,0.2c0,0,0,0,0.1,0c0.1,0.1,0.2,0.1,0.3,0.2l0,0c0.1,0.1,0.2,0.1,0.3,0.2c0,0,0,0,0.1,0
	c0.1,0.1,0.2,0.1,0.3,0.2c0,0,0,0,0,0c0.2,0.1,0.4,0.3,0.6,0.5c0,0,0,0,0,0c0.2,0.2,0.4,0.3,0.6,0.5c0,0,0,0,0,0
	c0.1,0.1,0.2,0.2,0.3,0.3c0,0,0,0,0,0c0.2,0.2,0.3,0.4,0.5,0.5c0,0,0,0,0,0c0.3,0.3,0.5,0.6,0.7,0.9c0,0,0,0,0,0
	c0.1,0.2,0.3,0.4,0.4,0.6c0,0,0,0,0,0c0.2,0.3,0.4,0.6,0.6,1l0,0l0,0c0.6,1.2,1.1,2.4,1.2,3.5l0,0l0-2.2v-5.7l-11.1-11.6l-11.1,11.6
	v7.9h0C114.3,70.8,114.9,69.2,115.9,67.7z"/>
<polygon fill="#39B54A" points="136.3,65.8 125.2,54.3 114,65.8 114.1,64.3 125.2,52.7 136.3,64.3 "/>
<circle fill="#D2A01F" cx="125.1" cy="58.9" r="2.3"/>
<circle fill="#352C81" cx="125.1" cy="58.9" r="1.8"/>
<circle fill="#69BD45" cx="125.1" cy="58.9" r="1.7"/>
<g>
	<path fill="#009444" d="M126,58C126,58,126,58,126,58l-0.2-0.1l0,0h0c0-0.3-0.3-0.4-0.6-0.4c-0.3,0-0.6,0.1-0.6,0.4l0-0.1
		c0,0-0.1-0.1-0.1,0c0,0-0.1,0.1,0,0.1l0,0h0c0,0-0.1,0-0.1,0.1s0,0.1,0.1,0.1h0.1l0,0l0,0h0v1v0.8c0,0,0,0.1,0.1,0.1h0.3h0.6h0.3
		c0,0,0.1,0,0.1-0.1v-0.8v-0.5l0,0v-0.5l0,0.1c0,0,0,0,0.1,0c0,0,0,0,0,0c0,0,0.1-0.1,0-0.1L126,58L126,58C126,58.1,126,58.1,126,58
		z M125.4,59.1l-0.3-0.1c0,0,0,0,0,0v-0.4c0,0,0,0,0-0.1c0,0,0,0-0.1,0l-0.4,0v-0.4h0.2l0,0c0,0,0,0.1,0,0.1c0,0,0,0,0,0
		c0,0,0,0,0.1,0l0.1-0.1h0.2l0,0l0,0h0.2v0.1c0,0,0,0.1,0.1,0.1c0,0,0.1,0,0.1-0.1v-0.1h0.1v0.4l-0.3-0.1c0,0-0.1,0-0.1,0.1
		s0,0.1,0.1,0.1l0.1,0c0,0,0,0.1,0.1,0.1c0,0,0.1,0,0.1,0l0.1,0v0.2C125.6,59,125.6,59.1,125.4,59.1L125.4,59.1
		C125.5,59.1,125.5,59.1,125.4,59.1z M124.8,59.1C124.8,59.1,124.8,59.1,124.8,59.1L124.8,59.1c-0.1,0-0.2-0.1-0.2-0.3v-0.2l0.1,0
		c0,0,0,0,0.1,0c0,0,0.1,0,0.1-0.1l0.1,0V59L124.8,59.1z M125.1,57.7c0.2,0,0.4,0,0.5,0.2h-0.4l0,0c0,0,0-0.1,0-0.1c0,0-0.1,0-0.1,0
		l-0.1,0.1h-0.2v-0.1c0,0,0-0.1-0.1-0.1s-0.1,0-0.1,0.1V58h-0.1C124.7,57.7,124.9,57.7,125.1,57.7z M124.7,59.2
		c0,0.1,0.1,0.1,0.1,0.1v0.4h-0.1V59.2z M124.9,59.2l0.2-0.1l0.2,0.1v0.6h-0.4L124.9,59.2L124.9,59.2z M125.5,59.8v-0.4
		c0.1,0,0.1-0.1,0.1-0.1v0.6L125.5,59.8L125.5,59.8z"/>
	<path fill="#009444" d="M125.2,59.2L125.2,59.2h-0.2c0,0-0.1,0-0.1,0.1s0,0.1,0.1,0.1l0.1,0.1l0.1-0.1
		C125.3,59.4,125.3,59.4,125.2,59.2C125.3,59.3,125.3,59.2,125.2,59.2z"/>
</g>
<g id="Logo">
	<polygon fill="#000100" points="12.2,9.6 9.2,9.6 9.2,12.6 12.2,12.6 10.1,11.1 	"/>
	<path fill="#000100" d="M15.2,9.6l-0.7,0.9l-0.8-1l-0.8,1l-0.7-1v3h3.1l0,0h2.8v-3L15.2,9.6L15.2,9.6z M15.3,12.5l0-1.4l1,0.7
		L15.3,12.5z M15.2,11.1l0-1.4l0.9,0.7L15.2,11.1z"/>
</g>
</svg>
