<?xml version="1.0" encoding="utf-8"?>
<!-- Generator: Adobe Illustrator 18.1.1, SVG Export Plug-In . SVG Version: 6.00 Build 0)  -->
<!DOCTYPE svg PUBLIC "-//W3C//DTD SVG 1.1//EN" "http://www.w3.org/Graphics/SVG/1.1/DTD/svg11.dtd">
<svg version="1.1" id="Layer_1" xmlns="http://www.w3.org/2000/svg" xmlns:xlink="http://www.w3.org/1999/xlink" x="0px" y="0px"
	 viewBox="0 0 595.3 841.9" enable-background="new 0 0 595.3 841.9" xml:space="preserve">
<g>
	<polygon fill="#FFFFFF" points="95.6,302.9 295.6,78.4 495.6,302.9 495.6,318.4 95.6,318.4 	"/>
	<polygon fill="#CEE7CE" points="75.6,338.4 75.6,295.3 295.6,48.3 515.6,295.3 515.6,338.4 	"/>
	<polygon fill="#A0C5E9" points="95.6,302.9 295.6,78.4 495.6,302.9 495.6,318.4 95.6,318.4 	"/>
</g>
<path fill="#FFCE1B" d="M224,260.6l1-4.1c0-6.7,7.4-12.1,14-12.1c6.6,0,15,5.4,15,12.1V253c0-13.9-13.4-25.1-30-25.1
	c-16.6,0-30,11.2-30,25.1v3.5c0-6.7,8.4-12.1,15-12.1c6.6,0,14,5.4,14,12.1L224,260.6z"/>
<path fill="#83298B" d="M206,254.5c-6.6,0-12,5.4-12,12.1v29.1h24v-29.1C218,259.9,212.6,254.5,206,254.5z"/>
<path fill="#83298B" d="M242,254.5c-6.6,0-12,5.4-12,12.1v29.1h24v-29.1C254,259.9,248.6,254.5,242,254.5z"/>
<path fill="#7DC242" d="M230,266.5c0-6.7,5.4-12.1,12-12.1c6.6,0,12,5.4,12,12.1v-10c0-6.7-8.4-12.1-15-12.1c-6.6,0-14,5.4-14,12.1
	l-1,4.1l-1-4.1c0-6.7-7.4-12.1-14-12.1c-6.6,0-15,5.4-15,12.1v10c0-6.7,5.4-12.1,12-12.1c6.6,0,12,5.4,12,12.1H230z"/>
<rect x="194" y="295.6" fill="#FFD15A" width="60" height="12.3"/>
<rect x="218" y="266.5" fill="#57BDEC" width="12" height="29.1"/>
<circle fill="#756CB1" cx="295.6" cy="187.2" r="30"/>
<circle fill="#FAA442" cx="295.6" cy="187.2" r="26"/>
<line fill="none" x1="95.7" y1="313.4" x2="121.7" y2="313.4"/>
<line fill="none" x1="469.6" y1="313.4" x2="495.6" y2="313.4"/>
<path fill="#FFFFFF" d="M485.3,103.5"/>
<path fill="#FFFFFF" d="M465.3,103.5"/>
<path fill="#FFFFFF" d="M475.3,119.5"/>
<path fill="#FFFFFF" d="M475.3,91.5"/>
<g>
	<path fill="#6A5FAA" d="M295.7,79l-200,224.5l0.1,10.5h25.5v-16c0-6.6,4.6-12,10.2-12c4.5,0,8.3,3.4,9.7,8.1h0.6V294h2.9v-24
		c0-6.6,4.6-12,10.2-12c4.9,0,9,4,10,9.3c0,0,0,0,0,0c0.1,0,0.1,0,0.2,0v-0.2h2.9v-24c0-6.6,4.6-12,10.2-12c4.9,0,9,4.1,10,9.5
		c0.1,0,0.2,0,0.2,0v-0.2h2.9v-24c0-6.6,4.6-12,10.2-12c4.9,0,9,4.1,10,9.5c0.1,0,0.2,0,0.2,0v-0.2h2.9v-24c0-6.6,4.6-12,10.2-12
		c4.8,0,8.9,3.9,10,9.2c0.1,0,0.2,0,0.3,0v-0.1h2.9v-24c0-6.6,4.6-12,10.2-12c4.9,0,9,4,10,9.4c0.1,0,0.2,0,0.3,0v-0.2h2.9v-24
		c0-6.6,4.6-12,10.2-12c4.9,0,8.9,4,10,9.3c0.1,0,0.1,0,0.2,0c0,0,0.1,0,0.1,0.1v-0.2h2.9v-24c0-6.6,4.6-12,10.2-12
		c5.7,0,10.2,5.4,10.2,12v24h2.9v0.3c0.1,0,0.2-0.1,0.3-0.1c1-5.4,5.1-9.4,10-9.4c5.7,0,10.2,5.4,10.2,12v24h2.9v0.2
		c0.1,0,0.2,0,0.3,0c1-5.4,5.1-9.4,10-9.4c5.7,0,10.2,5.4,10.2,12v24h2.9v0.1c0.1,0,0.2,0,0.3,0c0,0,0,0,0,0c1.1-5.3,5.1-9.2,10-9.2
		c5.7,0,10.2,5.4,10.2,12v24h2.9v0.2c0,0,0.1,0,0.1,0c0.1,0,0.1,0,0.1,0c1-5.4,5.1-9.5,10-9.5c5.7,0,10.2,5.4,10.2,12v24h2.9v0.2
		c0.1,0,0.2,0,0.2,0c1-5.4,5.1-9.5,10-9.5c5.7,0,10.2,5.4,10.2,12v24h2.3c0.2,0,0.4,0,0.6,0c0.1,0,0.2,0,0.4,0
		c1.1-5.2,5.1-9.1,9.9-9.1c5.7,0,10.2,5.4,10.2,12v24h2.9v0.1h0.6c1.4-4.7,5.2-8.1,9.7-8.1c5.7,0,10.2,5.4,10.2,12v16h25.6v-10.5
		L295.7,79z"/>
</g>
<rect x="75.7" y="343.4" fill="#57BDEC" width="439.9" height="430"/>
<rect x="75.7" y="338.4" fill="#EE4A95" width="439.9" height="5"/>
<rect x="121.3" y="307.9" fill="#F68E52" width="348.7" height="5.5"/>
<path fill="#FFCE1B" d="M295.6,260.6l1-4.1c0-6.7,7.4-12.1,14-12.1c6.6,0,15,5.4,15,12.1V253c0-13.9-13.4-25.1-30-25.1
	c-16.6,0-30,11.2-30,25.1v3.5c0-6.7,8.4-12.1,15-12.1c6.6,0,14,5.4,14,12.1L295.6,260.6z"/>
<path fill="#83298B" d="M277.6,254.5c-6.6,0-12,5.4-12,12.1v29.1h24v-29.1C289.6,259.9,284.2,254.5,277.6,254.5z"/>
<path fill="#83298B" d="M313.6,254.5c-6.6,0-12,5.4-12,12.1v29.1h24v-29.1C325.6,259.9,320.2,254.5,313.6,254.5z"/>
<path fill="#7DC242" d="M301.6,266.5c0-6.7,5.4-12.1,12-12.1c6.6,0,12,5.4,12,12.1v-10c0-6.7-8.4-12.1-15-12.1
	c-6.6,0-14,5.4-14,12.1l-1,4.1l-1-4.1c0-6.7-7.4-12.1-14-12.1c-6.6,0-15,5.4-15,12.1v10c0-6.7,5.4-12.1,12-12.1
	c6.6,0,12,5.4,12,12.1H301.6z"/>
<rect x="265.6" y="295.6" fill="#FFD15A" width="60" height="12.3"/>
<rect x="289.6" y="266.5" fill="#57BDEC" width="12" height="29.1"/>
<path fill="#FFCE1B" d="M367.6,260.6l1-4.1c0-6.7,7.4-12.1,14-12.1c6.6,0,15,5.4,15,12.1V253c0-13.9-13.4-25.1-30-25.1
	c-16.6,0-30,11.2-30,25.1v3.5c0-6.7,8.4-12.1,15-12.1c6.6,0,14,5.4,14,12.1L367.6,260.6z"/>
<path fill="#83298B" d="M349.6,254.5c-6.6,0-12,5.4-12,12.1v29.1h24v-29.1C361.6,259.9,356.2,254.5,349.6,254.5z"/>
<path fill="#83298B" d="M385.6,254.5c-6.6,0-12,5.4-12,12.1v29.1h24v-29.1C397.6,259.9,392.2,254.5,385.6,254.5z"/>
<path fill="#7DC242" d="M373.6,266.5c0-6.7,5.4-12.1,12-12.1c6.6,0,12,5.4,12,12.1v-10c0-6.7-8.4-12.1-15-12.1
	c-6.6,0-14,5.4-14,12.1l-1,4.1l-1-4.1c0-6.7-7.4-12.1-14-12.1c-6.6,0-15,5.4-15,12.1v10c0-6.7,5.4-12.1,12-12.1
	c6.6,0,12,5.4,12,12.1H373.6z"/>
<rect x="337.6" y="295.6" fill="#FFD15A" width="60" height="12.3"/>
<rect x="361.6" y="266.5" fill="#57BDEC" width="12" height="29.1"/>
<path fill="#CD499A" d="M335.6,259.5h-8V253c0-14.9-14.4-27.1-32-27.1s-32,12.2-32,27.1v6.5H256V253c0-14.9-14.4-27.1-32-27.1
	S192,238,192,253v6.4h-2V253c0-16,15.3-29.1,34-29.1s34,13.1,34,29.1v4.5h3.7V253c0-16,15.3-29.1,34-29.1s34,13.1,34,29.1v4.5h4V253
	c0-16,15.3-29.1,34-29.1s34,13.1,34,29.1v6.4h-2V253c0-14.9-14.4-27.1-32-27.1s-32,12.2-32,27.1V259.5z"/>
<path fill="#83298B" d="M389.1,349.4c-4.7,0-8.5,3.8-8.5,8.6v6.1H379v-6.1c0-4.7-3.8-8.6-8.5-8.6c-4.7,0-8.5,3.8-8.5,8.6v6.1h-1.6
	v-6.1c0-4.7-3.8-8.6-8.5-8.6c-4.7,0-8.5,3.8-8.5,8.6v6.1h-1.6v-6.1c0-4.7-3.8-8.6-8.5-8.6c-4.7,0-8.5,3.8-8.5,8.6v6.1H323v-6.1
	c0-4.7-3.8-8.6-8.5-8.6c-4.7,0-8.5,3.8-8.5,8.6v6.1h-1.6v-6.1c0-4.7-3.8-8.6-8.5-8.6c-4.7,0-8.5,3.8-8.5,8.6v6.1h-1.6v-6.1
	c0-4.7-3.8-8.6-8.5-8.6c-4.7,0-8.5,3.8-8.5,8.6v6.1H267v-6.1c0-4.7-3.8-8.6-8.5-8.6c-4.7,0-8.5,3.8-8.5,8.6v6.1h-1.6v-6.1
	c0-4.7-3.8-8.6-8.5-8.6c-4.7,0-8.5,3.8-8.5,8.6v6.1h-1.6v-6.1c0-4.7-3.8-8.6-8.5-8.6c-4.7,0-8.5,3.8-8.5,8.6v6.1H211v-6.1
	c0-4.7-3.8-8.6-8.5-8.6c-4.7,0-8.5,3.8-8.5,8.6v6.1v14.6v188.3h203.7V378.6V364v-6.1C397.6,353.2,393.8,349.4,389.1,349.4z"/>
<circle fill="#FFD15A" cx="295.8" cy="458.1" r="82.8"/>
<circle fill="#45BAEB" cx="295.8" cy="458.1" r="80.6"/>
<circle fill="#E57325" cx="295.8" cy="458.1" r="77.8"/>
<circle fill="#CF157E" cx="295.8" cy="458.1" r="73.6"/>
<circle fill="#D2A01F" cx="295.8" cy="458.1" r="22.2"/>
<circle fill="#352C81" cx="295.8" cy="458.1" r="19.8"/>
<circle fill="#69BD45" cx="295.8" cy="458.1" r="19.1"/>
<circle fill="#D2A01F" cx="295.7" cy="407" r="20.9"/>
<circle fill="#D2A01F" cx="259.6" cy="422.1" r="20.9"/>
<circle fill="#D2A01F" cx="244.7" cy="458.3" r="20.9"/>
<circle fill="#D2A01F" cx="259.7" cy="494.4" r="20.9"/>
<circle fill="#D2A01F" cx="295.9" cy="509.3" r="20.9"/>
<circle fill="#D2A01F" cx="332" cy="494.2" r="20.9"/>
<circle fill="#D2A01F" cx="346.9" cy="458" r="20.9"/>
<circle fill="#D2A01F" cx="331.8" cy="421.9" r="20.9"/>
<circle fill="#352C81" cx="295.7" cy="407" r="18.7"/>
<circle fill="#69BD45" cx="295.7" cy="407" r="18"/>
<circle fill="#352C81" cx="259.6" cy="422.1" r="18.7"/>
<circle fill="#69BD45" cx="259.6" cy="422.1" r="18"/>
<circle fill="#352C81" cx="244.7" cy="458.3" r="18.7"/>
<circle fill="#69BD45" cx="244.7" cy="458.3" r="18"/>
<circle fill="#352C81" cx="259.7" cy="494.4" r="18.7"/>
<circle fill="#69BD45" cx="259.7" cy="494.4" r="18"/>
<circle fill="#352C81" cx="295.9" cy="509.3" r="18.7"/>
<circle fill="#69BD45" cx="295.9" cy="509.3" r="18"/>
<circle fill="#352C81" cx="332" cy="494.2" r="18.7"/>
<circle fill="#69BD45" cx="332" cy="494.2" r="18"/>
<circle fill="#352C81" cx="346.9" cy="458" r="18.7"/>
<circle fill="#69BD45" cx="346.9" cy="458" r="18"/>
<circle fill="#352C81" cx="331.8" cy="421.9" r="18.7"/>
<circle fill="#69BD45" cx="331.8" cy="421.9" r="18"/>
<circle fill="#69BD45" cx="295.8" cy="458.1" r="19.1"/>
<path fill="#FCF7BC" d="M372.6,459.4v-2.4l0,0l0-0.7V456h0l-0.1-2.4l0,0l-0.1-0.7l0-0.4l0,0l-0.2-2.3l0,0l-0.1-0.7l0-0.4l0,0
	l-0.3-2.3l0,0l-0.1-0.6l-0.1-0.4l0,0l-0.4-2.3l0,0l-0.1-0.6l-0.1-0.4l0,0l-0.5-2.3l0,0l-0.2-0.6l-0.1-0.4l0,0l-0.6-2.3l0,0l-0.2-0.6
	l-0.1-0.4l0,0l-0.7-2.2l0,0l-0.2-0.6l-0.1-0.4l0,0l-0.8-2.2l0,0l-0.3-0.6l-0.2-0.4l0,0L366,427l0,0l-0.3-0.6l-0.2-0.4l0,0l-1-2.1
	l0,0l-0.3-0.6l-0.2-0.4l0,0l-1.1-2.1l0,0l-0.3-0.6l-0.2-0.4l0,0l-1.2-2l0,0l-0.4-0.5l-0.2-0.4l0,0l-1.3-2l0,0l-0.4-0.5l-0.2-0.4l0,0
	l-1.4-1.9l0,0l-0.4-0.5l-0.3-0.3l0,0l-1.5-1.8l0,0l-0.4-0.5l-0.3-0.3l0,0l-1.6-1.8l0,0l-0.5-0.5l-0.3-0.3l0,0l-1.6-1.7l0,0l-0.5-0.5
	l-0.3-0.3l0,0l-1.7-1.6l0,0l-0.5-0.4l-0.3-0.3l0,0l-1.8-1.6l0,0l-0.5-0.4l-0.3-0.3l0,0l-1.8-1.5l0,0l-0.5-0.4l-0.3-0.3l0,0l-1.9-1.4
	l0,0l-0.5-0.4l-0.3-0.3l0,0l-2-1.3l0,0l-0.6-0.3l-0.4-0.2l0,0l-2-1.2l0,0l-0.6-0.3l-0.4-0.2l0,0l-2.1-1.1l0,0l-0.6-0.3l-0.4-0.2l0,0
	l-2.1-1l0,0l-0.6-0.3l-0.4-0.2l0,0l-2.2-0.9l0,0l-0.6-0.2l-0.4-0.2l0,0l-2.2-0.8l0,0l-0.6-0.2l-0.4-0.2l0,0l-2.2-0.7l0,0l-0.6-0.2
	l-0.4-0.1l0,0l-2.3-0.6l0,0l-0.6-0.1l-0.4-0.1l0,0l-2.3-0.5l0,0l-0.6-0.1l-0.4-0.1l0,0l-2.3-0.4l0,0l-0.7-0.1l-0.4-0.1l0,0l-2.3-0.3
	l0,0l-0.7-0.1l-0.4-0.1l0,0l-2.3-0.2l0,0l-0.7,0l-0.4,0l0,0l-2.4-0.1v0h-0.7l-0.4,0l0,0h-2.4l0,0l-0.7,0h-0.4v0l-2.4,0.1l0,0
	l-0.7,0.1l-0.4,0l0,0l-2.3,0.2l0,0l-0.7,0.1l-0.4,0l0,0l-2.3,0.3l0,0l-0.6,0.1l-0.4,0.1l0,0l-2.3,0.4l0,0l-0.6,0.1l-0.4,0.1l0,0
	l-2.3,0.5l0,0l-0.6,0.2l-0.4,0.1l0,0l-2.3,0.6l0,0l-0.6,0.2l-0.4,0.1l0,0l-2.2,0.7l0,0l-0.6,0.2l-0.4,0.1l0,0l-2.2,0.8l0,0l-0.6,0.3
	l-0.4,0.2l0,0l-2.2,0.9l0,0l-0.6,0.3l-0.4,0.2l0,0l-2.1,1l0,0l-0.6,0.3l-0.4,0.2l0,0l-2.1,1.1l0,0l-0.6,0.3l-0.4,0.2l0,0l-2,1.2l0,0
	l-0.5,0.4l-0.4,0.2l0,0l-2,1.3l0,0L252,395l-0.4,0.2l0,0l-1.9,1.4l0,0l-0.5,0.4l-0.4,0.3l0,0l-1.8,1.5l0,0l-0.5,0.4l-0.3,0.3l0,0
	l-1.8,1.6l0,0l-0.5,0.5l-0.3,0.3l0,0l-1.7,1.6l0,0l-0.5,0.5l-0.3,0.3l0,0l-1.6,1.7l0,0l-0.4,0.5l-0.3,0.3l0,0l-1.6,1.8l0,0l-0.4,0.5
	l-0.3,0.3l0,0l-1.5,1.8l0,0l-0.4,0.5l-0.3,0.3l0,0l-1.4,1.9l0,0l-0.4,0.5l-0.3,0.3l0,0l-1.3,2l0,0l-0.3,0.6l-0.2,0.4l0,0l-1.2,2l0,0
	l-0.3,0.6l-0.2,0.4l0,0l-1.1,2.1l0,0l-0.3,0.6l-0.2,0.4l0,0l-1,2.1l0,0l-0.3,0.6l-0.2,0.4l0,0l-0.9,2.2l0,0l-0.2,0.6l-0.2,0.4l0,0
	l-0.8,2.2l0,0l-0.2,0.6l-0.2,0.4l0,0l-0.7,2.2l0,0l-0.2,0.6l-0.1,0.4l0,0l-0.6,2.3l0,0l-0.1,0.6l-0.1,0.4l0,0l-0.5,2.3l0,0l-0.1,0.6
	l-0.1,0.4l0,0l-0.4,2.3l0,0l-0.1,0.7l-0.1,0.4l0,0l-0.3,2.3l0,0l-0.1,0.7l-0.1,0.4l0,0l-0.2,2.3l0,0l0,0.7l0,0.4l0,0l-0.1,2.4h0v0.7
	l0,0.4l0,0v2.4l0,0l0,0.7v0.4h0l0.1,2.4l0,0l0.1,0.7l0,0.4l0,0l0.2,2.3l0,0l0.1,0.7l0,0.4l0,0l0.3,2.3l0,0l0.1,0.6l0.1,0.4l0,0
	l0.4,2.3l0,0l0.1,0.6l0.1,0.4l0,0l0.5,2.3l0,0l0.2,0.6l0.1,0.4l0,0l0.6,2.3l0,0l0.2,0.6l0.1,0.4l0,0l0.7,2.2l0,0l0.2,0.6l0.1,0.4
	l0,0l0.8,2.2l0,0l0.3,0.6l0.2,0.4l0,0l0.9,2.2l0,0l0.3,0.6l0.2,0.4l0,0l1,2.1l0,0l0.3,0.6l0.2,0.4l0,0l1.1,2.1l0,0l0.3,0.6l0.2,0.4
	l0,0l1.2,2l0,0l0.4,0.5l0.2,0.4l0,0l1.3,2l0,0l0.4,0.5l0.2,0.4l0,0l1.4,1.9l0,0l0.4,0.5l0.3,0.4l0,0l1.5,1.8l0,0l0.4,0.5l0.3,0.3
	l0,0l1.6,1.8l0,0l0.5,0.5l0.3,0.3l0,0l1.6,1.7l0,0l0.5,0.5l0.3,0.3l0,0l1.7,1.6l0,0l0.5,0.4l0.3,0.3l0,0l1.8,1.6l0,0l0.5,0.4
	l0.3,0.3l0,0l1.8,1.5l0,0l0.5,0.4l0.3,0.3l0,0l1.9,1.4l0,0l0.5,0.4l0.3,0.3l0,0l2,1.3l0,0l0.6,0.3l0.4,0.2l0,0l2,1.2l0,0l0.6,0.3
	l0.4,0.2l0,0l2.1,1.1l0,0l0.6,0.3l0.4,0.2l0,0l2.1,1l0,0l0.6,0.3l0.4,0.2l0,0l2.2,0.9l0,0l0.6,0.2l0.4,0.2l0,0l2.2,0.8l0,0l0.6,0.2
	l0.4,0.2l0,0l2.2,0.7l0,0l0.6,0.2l0.4,0.1l0,0l2.3,0.6l0,0l0.6,0.1l0.4,0.1l0,0l2.3,0.5l0,0l0.6,0.1l0.4,0.1l0,0l2.3,0.4l0,0
	l0.7,0.1l0.4,0.1l0,0l2.3,0.3l0,0l0.7,0.1l0.4,0.1l0,0l2.3,0.2l0,0l0.7,0l0.4,0l0,0l2.4,0.1v0h0.7l0.4,0l0,0h2.4l0,0l0.7,0h0.4v0
	l2.4-0.1l0,0l0.7-0.1l0.4,0l0,0l2.3-0.2l0,0l0.7-0.1l0.4,0l0,0l2.3-0.3l0,0l0.6-0.1l0.4-0.1l0,0l2.3-0.4l0,0l0.6-0.1l0.4-0.1l0,0
	l2.3-0.5l0,0l0.6-0.2l0.4-0.1l0,0l2.3-0.6l0,0l0.6-0.2l0.4-0.1l0,0l2.2-0.7l0,0l0.6-0.2l0.4-0.1l0,0l2.2-0.8l0,0l0.6-0.3l0.4-0.2
	l0,0l2.2-0.9l0,0l0.6-0.3l0.4-0.2l0,0l2.1-1l0,0l0.6-0.3l0.4-0.2l0,0l2.1-1.1l0,0l0.6-0.3l0.4-0.2l0,0l2-1.2l0,0l0.5-0.4l0.4-0.2
	l0,0l2-1.3l0,0l0.5-0.4l0.4-0.2l0,0l1.9-1.4l0,0l0.5-0.4l0.3-0.3l0,0l1.8-1.5l0,0l0.5-0.4l0.3-0.3l0,0l1.8-1.6l0,0l0.5-0.5l0.3-0.3
	l0,0l1.7-1.6l0,0l0.5-0.5l0.3-0.3l0,0l1.6-1.7l0,0l0.4-0.5l0.3-0.3l0,0l1.6-1.8l0,0l0.4-0.5l0.3-0.3l0,0l1.5-1.8l0,0l0.4-0.5
	l0.3-0.3l0,0l1.4-1.9l0,0l0.4-0.5l0.3-0.3l0,0l1.3-2l0,0l0.3-0.6l0.2-0.4l0,0l1.2-2l0,0l0.3-0.6l0.2-0.4l0,0l1.1-2.1l0,0l0.3-0.6
	l0.2-0.4l0,0l1-2.1l0,0l0.3-0.6l0.2-0.4l0,0l0.9-2.2l0,0l0.2-0.6l0.2-0.4l0,0l0.8-2.2l0,0l0.2-0.6l0.2-0.4l0,0l0.7-2.2l0,0l0.2-0.6
	l0.1-0.4l0,0l0.6-2.3l0,0l0.1-0.6l0.1-0.4l0,0l0.5-2.3l0,0l0.1-0.6l0.1-0.4l0,0l0.4-2.3l0,0l0.1-0.7l0.1-0.4l0,0l0.3-2.3l0,0
	l0.1-0.7l0.1-0.4l0,0l0.2-2.3l0,0l0-0.7l0-0.4l0,0l0.1-2.4h0v-0.7V459.4L372.6,459.4z M323.3,525.4l-0.4,0.8l-0.9-0.2l-1.7,0.6
	l-0.4,0.7l-0.9-0.3l-1.7,0.6l-0.5,0.7l-0.9-0.3l-1.8,0.5l-0.5,0.7l-0.9-0.4l-1.8,0.4l-0.5,0.7l-0.9-0.4l-1.8,0.3l-0.6,0.7l-0.8-0.4
	l-1.8,0.2l-0.6,0.6l-0.8-0.5l-1.8,0.2l-0.6,0.6l-0.8-0.5l-1.8,0.1l-0.7,0.6l-0.8-0.5h-1.8l-0.7,0.5l-0.8-0.6l-1.8-0.1l-0.7,0.5
	l-0.7-0.6l-1.8-0.2l-0.7,0.5l-0.7-0.6l-1.8-0.2l-0.7,0.4l-0.7-0.7l-1.8-0.3l-0.8,0.4l-0.6-0.7l-1.8-0.4l-0.8,0.4l-0.6-0.7l-1.8-0.5
	l-0.8,0.3l-0.6-0.8l-1.7-0.6l-0.8,0.3l-0.5-0.8l-1.7-0.6l-0.8,0.3l-0.5-0.8l-1.7-0.7l-0.8,0.2l-0.5-0.8l-1.6-0.8l-0.8,0.2l-0.4-0.9
	l-1.6-0.9l-0.9,0.2l-0.4-0.9l-1.6-0.9l-0.9,0.1l-0.4-0.9l-1.5-1l-0.9,0.1l-0.3-0.9l-1.5-1.1l-0.9,0l-0.3-0.9l-1.4-1.1l-0.9,0
	l-0.2-0.9l-1.4-1.2l-0.9,0l-0.2-0.9l-1.3-1.3l-0.9-0.1l-0.1-0.9l-1.3-1.3l-0.9-0.1l-0.1-0.9l-1.2-1.4l-0.9-0.2l-0.1-1l-1.1-1.4
	l-0.8-0.2l0-1l-1.1-1.5l-0.8-0.2l0-1l-1-1.5l-0.8-0.3l0.1-0.9l-0.9-1.6l-0.8-0.3l0.1-0.9l-0.9-1.6l-0.8-0.3l0.2-0.9l-0.8-1.6
	l-0.8-0.4l0.2-0.9l-0.7-1.7l-0.8-0.4l0.2-0.9l-0.6-1.7l-0.7-0.4l0.3-0.9l-0.6-1.7l-0.7-0.5l0.3-0.9l-0.5-1.8l-0.7-0.5l0.4-0.9
	l-0.4-1.8l-0.7-0.5l0.4-0.9l-0.3-1.8l-0.7-0.6l0.4-0.8l-0.2-1.8l-0.6-0.6l0.5-0.8l-0.2-1.8l-0.6-0.6l0.5-0.8l-0.1-1.8l-0.6-0.7
	l0.5-0.8V457l-0.5-0.7l0.6-0.8l0.1-1.8l-0.5-0.7l0.6-0.7l0.2-1.8l-0.5-0.7l0.6-0.7l0.2-1.8l-0.4-0.7l0.7-0.7l0.3-1.8l-0.4-0.8
	l0.7-0.6l0.4-1.8l-0.4-0.8l0.7-0.6l0.5-1.8l-0.3-0.8l0.8-0.6l0.6-1.7l-0.3-0.8l0.8-0.5l0.6-1.7l-0.3-0.8l0.8-0.5l0.7-1.7l-0.2-0.8
	l0.8-0.5l0.8-1.6l-0.2-0.8l0.9-0.4l0.9-1.6l-0.2-0.9l0.9-0.4l0.9-1.6l-0.1-0.9l0.9-0.4l1-1.5l-0.1-0.9l0.9-0.3l1.1-1.5l0-0.9
	l0.9-0.3l1.1-1.4l0-0.9l0.9-0.2l1.2-1.4l0-0.9l0.9-0.2l1.3-1.3l0.1-0.9l0.9-0.1l1.3-1.3l0.1-0.9l0.9-0.1l1.4-1.2l0.2-0.9l1-0.1
	l1.4-1.1l0.2-0.8l1,0l1.5-1.1l0.2-0.8l1,0l1.5-1l0.3-0.8l0.9,0.1l1.6-0.9l0.3-0.8l0.9,0.1l1.6-0.9l0.3-0.8l0.9,0.2l1.6-0.8l0.4-0.8
	l0.9,0.2l1.7-0.7l0.4-0.8l0.9,0.2l1.7-0.6l0.4-0.7l0.9,0.3l1.7-0.6l0.5-0.7l0.9,0.3l1.8-0.5l0.5-0.7l0.9,0.4l1.8-0.4l0.5-0.7
	l0.9,0.4l1.8-0.3l0.6-0.7l0.8,0.4l1.8-0.2l0.6-0.6l0.8,0.5l1.8-0.2l0.6-0.6l0.8,0.5l1.8-0.1l0.7-0.6l0.8,0.5h1.8l0.7-0.5l0.8,0.6
	l1.8,0.1l0.7-0.5l0.7,0.6l1.8,0.2l0.7-0.5l0.7,0.6l1.8,0.2l0.7-0.4l0.7,0.7l1.8,0.3l0.8-0.4l0.6,0.7l1.8,0.4l0.8-0.4l0.6,0.7
	l1.8,0.5l0.8-0.3l0.6,0.8l1.7,0.6l0.8-0.3l0.5,0.8l1.7,0.6l0.8-0.3l0.5,0.8l1.7,0.7l0.8-0.2l0.5,0.8l1.6,0.8l0.8-0.2l0.4,0.9
	l1.6,0.9l0.9-0.2l0.4,0.9l1.6,0.9l0.9-0.1l0.4,0.9l1.5,1l0.9-0.1l0.3,0.9l1.5,1.1l0.9,0l0.3,0.9l1.4,1.1l0.9,0l0.2,0.9l1.4,1.2
	l0.9,0l0.2,0.9l1.3,1.3l0.9,0.1l0.1,0.9l1.3,1.3l0.9,0.1l0.1,0.9l1.2,1.4l0.9,0.2l0.1,1l1.1,1.4l0.8,0.2l0,1l1.1,1.5l0.8,0.2l0,1
	l1,1.5l0.8,0.3l-0.1,0.9l0.9,1.6l0.8,0.3l-0.1,0.9l0.9,1.6l0.8,0.3l-0.2,0.9l0.8,1.6l0.8,0.4l-0.2,0.9l0.7,1.7l0.8,0.4l-0.2,0.9
	l0.6,1.7l0.7,0.4l-0.3,0.9l0.6,1.7l0.7,0.5l-0.3,0.9l0.5,1.8l0.7,0.5l-0.4,0.9l0.4,1.8l0.7,0.5l-0.4,0.9l0.3,1.8l0.7,0.6l-0.4,0.8
	l0.2,1.8l0.6,0.6l-0.5,0.8l0.2,1.8l0.6,0.6l-0.5,0.8l0.1,1.8l0.6,0.7l-0.5,0.8v1.8l0.5,0.7l-0.6,0.8l-0.1,1.8l0.5,0.7l-0.6,0.7
	l-0.2,1.8l0.5,0.7l-0.6,0.7l-0.2,1.8l0.4,0.7l-0.7,0.7l-0.3,1.8l0.4,0.8l-0.7,0.6l-0.4,1.8l0.4,0.8l-0.7,0.6l-0.5,1.8l0.3,0.8
	l-0.8,0.6l-0.6,1.7l0.3,0.8L364,483l-0.6,1.7l0.3,0.8l-0.8,0.5l-0.7,1.7l0.2,0.8l-0.8,0.5l-0.8,1.6l0.2,0.8l-0.9,0.4l-0.9,1.6
	l0.2,0.9l-0.9,0.4l-0.9,1.6l0.1,0.9l-0.9,0.4l-1,1.5l0.1,0.9l-0.9,0.3l-1.1,1.5l0,0.9l-0.9,0.3l-1.1,1.4l0,0.9l-0.9,0.2l-1.2,1.4
	l0,0.9l-0.9,0.2l-1.3,1.3l-0.1,0.9l-0.9,0.1l-1.3,1.3l-0.1,0.9l-0.9,0.1l-1.4,1.2l-0.2,0.9l-1,0.1l-1.4,1.1l-0.2,0.8l-1,0l-1.5,1.1
	l-0.2,0.8l-1,0l-1.5,1l-0.3,0.8l-0.9-0.1l-1.6,0.9l-0.3,0.8l-0.9-0.1l-1.6,0.9l-0.3,0.8l-0.9-0.2l-1.6,0.8l-0.4,0.8l-0.9-0.2
	L323.3,525.4z"/>
<path fill="#CF157E" d="M326,458c0-6,2.5-11.4,6.6-15.2c-5.6,0.2-11.2-1.8-15.5-6.1c-4.2-4.2-6.3-9.9-6.1-15.4
	c-3.8,4.1-9.2,6.7-15.3,6.7c-6,0-11.4-2.5-15.2-6.6c0.2,5.6-1.8,11.2-6.1,15.5c-4.2,4.2-9.9,6.3-15.4,6.1c4.1,3.8,6.7,9.2,6.7,15.3
	c0,6-2.5,11.4-6.6,15.2c5.6-0.2,11.2,1.8,15.5,6.1c4.2,4.2,6.3,9.9,6.1,15.4c3.8-4.1,9.2-6.7,15.3-6.7c6,0,11.4,2.5,15.2,6.6
	c-0.2-5.6,1.8-11.2,6.1-15.5c4.2-4.2,9.9-6.3,15.4-6.1C328.5,469.5,326,464,326,458z M295.8,480.3c-12.3,0-22.2-9.9-22.2-22.2
	s9.9-22.2,22.2-22.2c12.3,0,22.2,9.9,22.2,22.2S308,480.3,295.8,480.3z"/>
<path fill="#4EC5D6" d="M369,456.6l-0.6-0.7l-0.1-1.8l0.5-0.8l-0.6-0.6l-0.2-1.8l0.5-0.8l-0.6-0.6l-0.2-1.8l0.4-0.8l-0.7-0.6
	l-0.3-1.8l0.4-0.9l-0.7-0.5l-0.4-1.8l0.4-0.9l-0.7-0.5l-0.5-1.8l0.3-0.9l-0.7-0.5l-0.6-1.7l0.3-0.9l-0.7-0.4l-0.6-1.7l0.2-0.9
	l-0.8-0.4l-0.7-1.7l0.2-0.9l-0.8-0.4l-0.8-1.6l0.2-0.9l-0.8-0.3l-0.9-1.6l0.1-0.9l-0.8-0.3l-0.9-1.6l0.1-0.9L357,419l-1-1.5l0-1
	l-0.8-0.2l-1.1-1.5l0-1l-0.8-0.2l-1.1-1.4l-0.1-1l-0.9-0.2l-1.2-1.4l-0.1-0.9l-0.9-0.1l-1.3-1.3l-0.1-0.9l-0.9-0.1l-1.3-1.3
	l-0.2-0.9l-0.9,0L343,403l-0.2-0.9l-0.9,0l-1.4-1.1l-0.3-0.9l-0.9,0l-1.5-1.1l-0.3-0.9l-0.9,0.1l-1.5-1l-0.4-0.9l-0.9,0.1l-1.6-0.9
	l-0.4-0.9l-0.9,0.2l-1.6-0.9l-0.4-0.9l-0.8,0.2l-1.6-0.8l-0.5-0.8l-0.8,0.2l-1.7-0.7l-0.5-0.8l-0.8,0.3l-1.7-0.6l-0.5-0.8l-0.8,0.3
	l-1.7-0.6l-0.6-0.8l-0.8,0.3l-1.8-0.5l-0.6-0.7l-0.8,0.4l-1.8-0.4l-0.6-0.7l-0.8,0.4l-1.8-0.3l-0.7-0.7l-0.7,0.4l-1.8-0.2l-0.7-0.6
	l-0.7,0.5l-1.8-0.2l-0.7-0.6l-0.7,0.5l-1.8-0.1l-0.8-0.6l-0.7,0.5h-1.8l-0.8-0.5l-0.7,0.6l-1.8,0.1l-0.8-0.5l-0.6,0.6l-1.8,0.2
	l-0.8-0.5l-0.6,0.6l-1.8,0.2l-0.8-0.4l-0.6,0.7l-1.8,0.3l-0.9-0.4l-0.5,0.7l-1.8,0.4l-0.9-0.4l-0.5,0.7l-1.8,0.5l-0.9-0.3l-0.5,0.7
	l-1.7,0.6l-0.9-0.3l-0.4,0.7l-1.7,0.6l-0.9-0.2l-0.4,0.8l-1.7,0.7l-0.9-0.2l-0.4,0.8l-1.6,0.8l-0.9-0.2l-0.3,0.8l-1.6,0.9l-0.9-0.1
	l-0.3,0.8l-1.6,0.9l-0.9-0.1l-0.3,0.8l-1.5,1l-1,0l-0.2,0.8l-1.5,1.1l-1,0l-0.2,0.8l-1.4,1.1l-1,0.1l-0.2,0.9l-1.4,1.2l-0.9,0.1
	l-0.1,0.9l-1.3,1.3l-0.9,0.1l-0.1,0.9l-1.3,1.3l-0.9,0.2l0,0.9l-1.2,1.4l-0.9,0.2l0,0.9l-1.1,1.4l-0.9,0.3l0,0.9l-1.1,1.5l-0.9,0.3
	l0.1,0.9l-1,1.5l-0.9,0.4l0.1,0.9l-0.9,1.6l-0.9,0.4l0.2,0.9l-0.9,1.6l-0.9,0.4l0.2,0.8l-0.8,1.6l-0.8,0.5l0.2,0.8l-0.7,1.7
	l-0.8,0.5l0.3,0.8l-0.6,1.7l-0.8,0.5l0.3,0.8l-0.6,1.7l-0.8,0.6l0.3,0.8l-0.5,1.8l-0.7,0.6l0.4,0.8l-0.4,1.8l-0.7,0.6l0.4,0.8
	l-0.3,1.8l-0.7,0.7l0.4,0.7l-0.2,1.8l-0.6,0.7l0.5,0.7l-0.2,1.8l-0.6,0.7l0.5,0.7l-0.1,1.8l-0.6,0.8l0.5,0.7v1.8l-0.5,0.8l0.6,0.7
	l0.1,1.8l-0.5,0.8l0.6,0.6l0.2,1.8l-0.5,0.8l0.6,0.6l0.2,1.8l-0.4,0.8l0.7,0.6l0.3,1.8l-0.4,0.9l0.7,0.5l0.4,1.8l-0.4,0.9l0.7,0.5
	l0.5,1.8l-0.3,0.9l0.7,0.5l0.6,1.7l-0.3,0.9l0.7,0.4l0.6,1.7l-0.2,0.9l0.8,0.4l0.7,1.7l-0.2,0.9l0.8,0.4l0.8,1.6l-0.2,0.9l0.8,0.3
	l0.9,1.6l-0.1,0.9l0.8,0.3l0.9,1.6l-0.1,0.9l0.8,0.3l1,1.5l0,1l0.8,0.2l1.1,1.5l0,1l0.8,0.2l1.1,1.4l0.1,1l0.9,0.2l1.2,1.4l0.1,0.9
	l0.9,0.1l1.3,1.3l0.1,0.9l0.9,0.1l1.3,1.3l0.2,0.9l0.9,0l1.4,1.2l0.2,0.9l0.9,0l1.4,1.1l0.3,0.9l0.9,0l1.5,1.1l0.3,0.9l0.9-0.1
	l1.5,1l0.4,0.9l0.9-0.1l1.6,0.9l0.4,0.9l0.9-0.2l1.6,0.9l0.4,0.9l0.8-0.2l1.6,0.8l0.5,0.8l0.8-0.2l1.7,0.7l0.5,0.8l0.8-0.3l1.7,0.6
	l0.5,0.8l0.8-0.3l1.7,0.6l0.6,0.8l0.8-0.3l1.8,0.5l0.6,0.7l0.8-0.4l1.8,0.4l0.6,0.7l0.8-0.4l1.8,0.3l0.7,0.7l0.7-0.4l1.8,0.2
	l0.7,0.6l0.7-0.5l1.8,0.2l0.7,0.6l0.7-0.5l1.8,0.1l0.8,0.6l0.7-0.5h1.8l0.8,0.5l0.7-0.6l1.8-0.1l0.8,0.5l0.6-0.6l1.8-0.2l0.8,0.5
	l0.6-0.6l1.8-0.2l0.8,0.4l0.6-0.7l1.8-0.3l0.9,0.4l0.5-0.7l1.8-0.4l0.9,0.4l0.5-0.7l1.8-0.5l0.9,0.3l0.5-0.7l1.7-0.6l0.9,0.3
	l0.4-0.7l1.7-0.6l0.9,0.2l0.4-0.8l1.7-0.7l0.9,0.2l0.4-0.8l1.6-0.8l0.9,0.2l0.3-0.8l1.6-0.9l0.9,0.1l0.3-0.8l1.6-0.9l0.9,0.1
	l0.3-0.8l1.5-1l1,0l0.2-0.8l1.5-1.1l1,0l0.2-0.8l1.4-1.1l1-0.1l0.2-0.9l1.4-1.2l0.9-0.1l0.1-0.9l1.3-1.3l0.9-0.1l0.1-0.9l1.3-1.3
	l0.9-0.2l0-0.9l1.2-1.4l0.9-0.2l0-0.9l1.1-1.4l0.9-0.3l0-0.9l1.1-1.5l0.9-0.3l-0.1-0.9l1-1.5l0.9-0.4l-0.1-0.9l0.9-1.6l0.9-0.4
	l-0.2-0.9l0.9-1.6l0.9-0.4l-0.2-0.8l0.8-1.6l0.8-0.5l-0.2-0.8l0.7-1.7l0.8-0.5l-0.3-0.8l0.6-1.7l0.8-0.5l-0.3-0.8l0.6-1.7l0.8-0.6
	l-0.3-0.8l0.5-1.8l0.7-0.6l-0.4-0.8l0.4-1.8l0.7-0.6l-0.4-0.8l0.3-1.8l0.7-0.7l-0.4-0.7l0.2-1.8l0.6-0.7l-0.5-0.7l0.2-1.8l0.6-0.7
	l-0.5-0.7l0.1-1.8l0.6-0.8l-0.5-0.7v-1.8L369,456.6z M346.9,478.9c-0.2,0-0.4,0-0.6,0c0.2,0.2,0.4,0.3,0.5,0.5
	c8.2,8.2,8.2,21.4,0,29.6c-8.2,8.2-21.4,8.2-29.6,0c-0.1-0.1-0.3-0.3-0.4-0.5c0,0.2,0,0.5,0,0.7c0,11.6-9.4,20.9-20.9,20.9
	s-20.9-9.4-20.9-20.9c0-0.2,0-0.4,0-0.6c-0.2,0.2-0.3,0.4-0.5,0.5c-8.2,8.2-21.4,8.2-29.6,0c-8.2-8.2-8.2-21.4,0-29.6
	c0.1-0.1,0.3-0.3,0.5-0.4c-0.2,0-0.5,0-0.7,0c-11.6,0-20.9-9.4-20.9-20.9s9.4-20.9,20.9-20.9c0.2,0,0.4,0,0.6,0
	c-0.2-0.2-0.4-0.3-0.5-0.5c-8.2-8.2-8.2-21.4,0-29.6s21.4-8.2,29.6,0c0.1,0.1,0.3,0.3,0.4,0.5c0-0.2,0-0.5,0-0.7
	c0-11.6,9.4-20.9,20.9-20.9s20.9,9.4,20.9,20.9c0,0.2,0,0.4,0,0.6c0.2-0.2,0.3-0.4,0.5-0.5c8.2-8.2,21.4-8.2,29.6,0
	c8.2,8.2,8.2,21.4,0,29.6c-0.1,0.1-0.3,0.3-0.5,0.4c0.2,0,0.5,0,0.7,0c11.6,0,20.9,9.4,20.9,20.9S358.5,478.9,346.9,478.9z"/>
<path fill="#8AC640" d="M333.1,349.4c-4.7,0-8.5,3.8-8.5,8.6v1.7h17v-1.7C341.6,353.2,337.8,349.4,333.1,349.4z"/>
<path fill="#8AC640" d="M351.8,349.4c-4.7,0-8.5,3.8-8.5,8.6v1.7h17v-1.7C360.3,353.2,356.5,349.4,351.8,349.4z"/>
<path fill="#8AC640" d="M314.4,349.4c-4.7,0-8.5,3.8-8.5,8.6v1.7h17v-1.7C323,353.2,319.2,349.4,314.4,349.4z"/>
<path fill="#8AC640" d="M370.4,349.4c-4.7,0-8.5,3.8-8.5,8.6v1.7h17v-1.7C379,353.2,375.1,349.4,370.4,349.4z"/>
<path fill="#8AC640" d="M389.1,349.4c-4.7,0-8.5,3.8-8.5,8.6v1.7h17v-1.7C397.6,353.2,393.8,349.4,389.1,349.4z"/>
<path fill="#8AC640" d="M277.1,349.4c-4.7,0-8.5,3.8-8.5,8.6v1.7h17v-1.7C285.6,353.2,281.8,349.4,277.1,349.4z"/>
<path fill="#8AC640" d="M221.1,349.4c-4.7,0-8.5,3.8-8.5,8.6v1.7h17v-1.7C229.7,353.2,225.8,349.4,221.1,349.4z"/>
<path fill="#8AC640" d="M295.8,349.4c-4.7,0-8.5,3.8-8.5,8.6v1.7h17v-1.7C304.3,353.2,300.5,349.4,295.8,349.4z"/>
<path fill="#8AC640" d="M202.5,349.4c-4.7,0-8.5,3.8-8.5,8.6v1.7h17v-1.7C211,353.2,207.2,349.4,202.5,349.4z"/>
<path fill="#8AC640" d="M258.5,349.4c-4.7,0-8.5,3.8-8.5,8.6v1.7h17v-1.7C267,353.2,263.2,349.4,258.5,349.4z"/>
<path fill="#8AC640" d="M239.8,349.4c-4.7,0-8.5,3.8-8.5,8.6v1.7h17v-1.7C248.3,353.2,244.5,349.4,239.8,349.4z"/>
<path fill="#111243" d="M512.3,494V488c0-4.7-3.8-8.6-8.5-8.6c-4.7,0-8.5,3.8-8.5,8.6v6.1h-1.6V488c0-4.7-3.8-8.6-8.5-8.6
	c-4.7,0-8.5,3.8-8.5,8.6v6.1H475V488c0-4.7-3.8-8.6-8.5-8.6c-4.7,0-8.5,3.8-8.5,8.6v6.1h-1.6V488c0-4.7-3.8-8.6-8.5-8.6
	c-4.7,0-8.5,3.8-8.5,8.6v6.1h-1.6V488c0-4.7-3.8-8.6-8.5-8.6c-4.7,0-8.5,3.8-8.5,8.6v6.1H419V488c0-4.7-3.8-8.6-8.5-8.6
	c-4.7,0-8.5,3.8-8.5,8.6v6.1v14.6v265h110.4"/>
<polygon fill="#4957A6" points="456.6,375.6 456.6,375.6 397.6,476.3 515.6,476.3 "/>
<path fill="#D0DD27" d="M485.1,479.4c-4.7,0-8.5,3.8-8.5,8.6v1.7h17V488C493.7,483.3,489.9,479.4,485.1,479.4z"/>
<path fill="#D0DD27" d="M429.2,479.4c-4.7,0-8.5,3.8-8.5,8.6v1.7h17V488C437.7,483.3,433.9,479.4,429.2,479.4z"/>
<path fill="#D0DD27" d="M503.8,479.4c-4.7,0-8.5,3.8-8.5,8.6v1.7h17V488C512.3,483.3,508.5,479.4,503.8,479.4z"/>
<path fill="#D0DD27" d="M410.5,479.4c-4.7,0-8.5,3.8-8.5,8.6v1.7h17V488C419,483.3,415.2,479.4,410.5,479.4z"/>
<path fill="#D0DD27" d="M466.5,479.4c-4.7,0-8.5,3.8-8.5,8.6v1.7h17V488C475,483.3,471.2,479.4,466.5,479.4z"/>
<path fill="#D0DD27" d="M447.8,479.4c-4.7,0-8.5,3.8-8.5,8.6v1.7h17V488C456.3,483.3,452.5,479.4,447.8,479.4z"/>
<path fill="#A14923" d="M397.6,476.3v18.3h4.4V494V488c0-4.7,3.8-8.6,8.5-8.6c4.7,0,8.5,3.8,8.5,8.6v6.1h1.6V488
	c0-4.7,3.8-8.6,8.5-8.6c4.7,0,8.5,3.8,8.5,8.6v6.1h1.6V488c0-4.7,3.8-8.6,8.5-8.6c4.7,0,8.5,3.8,8.5,8.6v6.1h1.6V488
	c0-4.7,3.8-8.6,8.5-8.6c4.7,0,8.5,3.8,8.5,8.6v6.1h1.6V488c0-4.7,3.8-8.6,8.5-8.6c4.7,0,8.5,3.8,8.5,8.6v6.1h1.6V488
	c0-4.7,3.8-8.6,8.5-8.6c4.7,0,8.5,3.8,8.5,8.6v6.1v0.6h3.8v-18.3H397.6z"/>
<path fill="#D2A01F" d="M512.3,539.5h-33.4V539c0-12.2-9.9-22.1-22.1-22.1s-22.1,9.9-22.1,22.1v0.5H402v-1h31.8
	c0.3-12.5,10.5-22.6,23.1-22.6s22.8,10.1,23.1,22.6h32.4V539.5z"/>
<path fill="#83298B" d="M436.5,622.1c-4,0-7.2,3.3-7.2,7.3V647h14.5v-17.6C443.7,625.4,440.5,622.1,436.5,622.1z"/>
<path fill="#83298B" d="M456.6,622.1c-4,0-7.2,3.3-7.2,7.3V647h14.5v-17.6C463.8,625.4,460.6,622.1,456.6,622.1z"/>
<path fill="#83298B" d="M476.7,622.1c-4,0-7.2,3.3-7.2,7.3V647H484v-17.6C484,625.4,480.7,622.1,476.7,622.1z"/>
<path fill="#83298B" d="M467.7,539.3c-4,0-7.2,3.3-7.2,7.3v17.6H475v-17.6C475,542.6,471.7,539.3,467.7,539.3z"/>
<path fill="#FFCE1B" d="M456.9,543l0.6-2.5c0-4,4.4-7.3,8.4-7.3c4,0,9,3.3,9,7.3v-2.1c0-8.4-8.1-17.1-18.1-17.1
	c-10,0-18.1,8.8-18.1,17.1v2.1c0-4,5-7.3,9-7.3c4,0,8.4,3.3,8.4,7.3L456.9,543z"/>
<path fill="#83298B" d="M446,539.3c-4,0-7.2,3.3-7.2,7.3v17.6h14.5v-17.6C453.3,542.6,450,539.3,446,539.3z"/>
<path fill="#7DC242" d="M460.5,546.6c0-4,3.2-7.3,7.2-7.3c4,0,7.2,3.3,7.2,7.3v-6c0-4-5-7.3-9-7.3c-4,0-8.4,3.3-8.4,7.3l-0.6,2.5
	l-0.6-2.5c0-4-4.4-7.3-8.4-7.3c-4,0-9,3.3-9,7.3v6c0-4,3.2-7.3,7.2-7.3c4,0,7.2,3.3,7.2,7.3H460.5z"/>
<rect x="436.8" y="564.4" fill="#2B3990" width="40.2" height="10.3"/>
<rect x="439.3" y="574.9" fill="#C2B59B" width="35.2" height="10.3"/>
<rect x="402" y="662.5" fill="#2B3990" width="110.4" height="10.3"/>
<rect x="453.3" y="546.6" fill="#57BDEC" width="7.2" height="17.6"/>
<circle fill="#D2A01F" cx="456.9" cy="528.4" r="6.4"/>
<circle fill="#352C81" cx="456.9" cy="528.4" r="5.7"/>
<circle fill="#69BD45" cx="456.9" cy="528.4" r="5.5"/>
<g>
	<path fill="#5CBDEB" d="M477,564.2h-2v-25.7c0-8.1-7.8-17.1-18.1-17.1s-18.1,9-18.1,17.1v25.7h-2v-25.7c0-9,8.6-19.1,20.1-19.1
		s20.1,10.1,20.1,19.1V564.2z"/>
</g>
<rect x="402" y="661.5" fill="#F7941E" width="110.4" height="1"/>
<rect x="425.3" y="646.5" fill="#F7941E" width="63.1" height="1"/>
<rect x="436.8" y="585.1" fill="#F7941E" width="40.2" height="1"/>
<path fill="#83298B" d="M328.2,658.3c-12,0-21.7,9.8-21.7,21.8v52.6h43.4v-52.6C349.9,668,340.2,658.3,328.2,658.3z"/>
<path fill="#FFCE1B" d="M295.7,669.3l1.8-7.4c0-12,13.3-21.8,25.3-21.8c12,0,27.1,9.8,27.1,21.8v-6.4c0-25.1-24.3-51.4-54.2-51.4
	c-29.9,0-54.2,26.3-54.2,51.4v6.4c0-12,15.1-21.8,27.1-21.8c12,0,25.3,9.8,25.3,21.8L295.7,669.3z"/>
<path fill="#83298B" d="M263.1,658.3c-12,0-21.7,9.8-21.7,21.8v52.6h43.4v-52.6C284.8,668,275.1,658.3,263.1,658.3z"/>
<path fill="#7DC242" d="M306.5,680.1c0-12,9.7-21.8,21.7-21.8c12,0,21.7,9.8,21.7,21.8V662c0-12-15.1-21.8-27.1-21.8
	c-12,0-25.3,9.8-25.3,21.8l-1.8,7.4l-1.8-7.4c0-12-13.3-21.8-25.3-21.8c-12,0-27.1,9.8-27.1,21.8v18.1c0-12,9.7-21.8,21.7-21.8
	c12,0,21.7,9.8,21.7,21.8H306.5z"/>
<rect x="235.4" y="732.4" fill="#603913" width="120.6" height="13.6"/>
<rect x="226.4" y="745.8" fill="#754C29" width="138.5" height="13.6"/>
<rect x="214.3" y="759.4" fill="#8B5E3C" width="162.8" height="13.6"/>
<rect x="284.8" y="680.1" fill="#57BDEC" width="21.7" height="52.6"/>
<circle fill="#D2A01F" cx="295.7" cy="625.7" r="19"/>
<circle fill="#352C81" cx="295.7" cy="625.7" r="17"/>
<circle fill="#69BD45" cx="295.7" cy="625.7" r="16.4"/>
<g>
	<path fill="#262262" d="M356,732.7h-6v-77c0-24.2-23.2-51.3-54.3-51.3s-54.3,27.1-54.3,51.3v77h-6v-77c0-27,25.8-57.3,60.3-57.3
		s60.3,30.2,60.3,57.3V732.7z"/>
</g>
<rect x="409.3" y="603.8" fill="#F89420" width="2.3" height="2.3"/>
<rect x="413.8" y="603.8" fill="#F89420" width="2.3" height="2.3"/>
<rect x="418.2" y="603.8" fill="#F89420" width="2.3" height="2.3"/>
<rect x="422.7" y="603.8" fill="#F89420" width="2.3" height="2.3"/>
<rect x="427.1" y="603.8" fill="#F89420" width="2.3" height="2.3"/>
<rect x="431.5" y="603.8" fill="#F89420" width="2.3" height="2.3"/>
<rect x="436" y="603.8" fill="#F89420" width="2.3" height="2.3"/>
<rect x="440.4" y="603.8" fill="#F89420" width="2.3" height="2.3"/>
<rect x="444.9" y="603.8" fill="#F89420" width="2.3" height="2.3"/>
<rect x="449.3" y="603.8" fill="#F89420" width="2.3" height="2.3"/>
<rect x="453.8" y="603.8" fill="#F89420" width="2.3" height="2.3"/>
<rect x="458.2" y="603.8" fill="#F89420" width="2.3" height="2.3"/>
<rect x="462.6" y="603.8" fill="#F89420" width="2.3" height="2.3"/>
<rect x="467.1" y="603.8" fill="#F89420" width="2.3" height="2.3"/>
<rect x="471.5" y="603.8" fill="#F89420" width="2.3" height="2.3"/>
<rect x="476" y="603.8" fill="#F89420" width="2.3" height="2.3"/>
<rect x="480.4" y="603.8" fill="#F89420" width="2.3" height="2.3"/>
<rect x="484.9" y="603.8" fill="#F89420" width="2.3" height="2.3"/>
<rect x="489.3" y="603.8" fill="#F89420" width="2.3" height="2.3"/>
<rect x="493.8" y="603.8" fill="#F89420" width="2.3" height="2.3"/>
<rect x="498.2" y="603.8" fill="#F89420" width="2.3" height="2.3"/>
<rect x="502.6" y="603.8" fill="#F89420" width="2.3" height="2.3"/>
<rect x="411.7" y="601.5" fill="#F89420" width="2.3" height="2.3"/>
<rect x="416.1" y="601.5" fill="#F89420" width="2.3" height="2.3"/>
<rect x="420.6" y="601.5" fill="#F89420" width="2.3" height="2.3"/>
<rect x="425" y="601.5" fill="#F89420" width="2.3" height="2.3"/>
<rect x="429.4" y="601.5" fill="#F89420" width="2.3" height="2.3"/>
<rect x="433.9" y="601.5" fill="#F89420" width="2.3" height="2.3"/>
<rect x="438.3" y="601.5" fill="#F89420" width="2.3" height="2.3"/>
<rect x="442.8" y="601.5" fill="#F89420" width="2.3" height="2.3"/>
<rect x="447.2" y="601.5" fill="#F89420" width="2.3" height="2.3"/>
<rect x="451.7" y="601.5" fill="#F89420" width="2.3" height="2.3"/>
<rect x="456.1" y="601.5" fill="#F89420" width="2.3" height="2.3"/>
<rect x="460.6" y="601.5" fill="#F89420" width="2.3" height="2.3"/>
<rect x="465" y="601.5" fill="#F89420" width="2.3" height="2.3"/>
<rect x="469.4" y="601.5" fill="#F89420" width="2.3" height="2.3"/>
<rect x="473.9" y="601.5" fill="#F89420" width="2.3" height="2.3"/>
<rect x="478.3" y="601.5" fill="#F89420" width="2.3" height="2.3"/>
<rect x="482.8" y="601.5" fill="#F89420" width="2.3" height="2.3"/>
<rect x="487.2" y="601.5" fill="#F89420" width="2.3" height="2.3"/>
<rect x="491.7" y="601.5" fill="#F89420" width="2.3" height="2.3"/>
<rect x="496.1" y="601.5" fill="#F89420" width="2.3" height="2.3"/>
<rect x="500.5" y="601.5" fill="#F89420" width="2.3" height="2.3"/>
<path fill="#5CBDEB" d="M438.8,773.6v-63.4c0-8.1,7.8-17.1,18.1-17.1s18.1,9,18.1,17.1v63.4h2v-63.4c0-9-8.6-19.1-20.1-19.1
	s-20.1,10.1-20.1,19.1v63.4H438.8z"/>
<path fill="#D7DF23" d="M475,773.6v-63.4c0-8.1-7.8-17.1-18.1-17.1s-18.1,9-18.1,17.1v63.4"/>
<rect x="402" y="752.1" fill="#F7941E" width="34.8" height="1"/>
<rect x="477" y="752.1" fill="#F7941E" width="35.3" height="1"/>
<rect x="402" y="754.8" fill="#F7941E" width="34.8" height="1"/>
<rect x="477" y="754.8" fill="#F7941E" width="35.3" height="1"/>
<path fill="#111243" d="M190.4,494.3v-6.1c0-4.7-3.8-8.6-8.5-8.6c-4.7,0-8.5,3.8-8.5,8.6v6.1h-1.6v-6.1c0-4.7-3.8-8.6-8.5-8.6
	c-4.7,0-8.5,3.8-8.5,8.6v6.1h-1.6v-6.1c0-4.7-3.8-8.6-8.5-8.6c-4.7,0-8.5,3.8-8.5,8.6v6.1h-1.6v-6.1c0-4.7-3.8-8.6-8.5-8.6
	c-4.7,0-8.5,3.8-8.5,8.6v6.1h-1.6v-6.1c0-4.7-3.8-8.6-8.5-8.6c-4.7,0-8.5,3.8-8.5,8.6v6.1h-1.6v-6.1c0-4.7-3.8-8.6-8.5-8.6
	c-4.7,0-8.5,3.8-8.5,8.6v6.1v14.6v265h110.4"/>
<polygon fill="#4957A6" points="134.7,375.8 134.7,375.8 75.7,476.5 193.7,476.5 "/>
<path fill="#D0DD27" d="M163.2,479.7c-4.7,0-8.5,3.8-8.5,8.6v1.7h17v-1.7C171.8,483.5,168,479.7,163.2,479.7z"/>
<path fill="#D0DD27" d="M107.3,479.7c-4.7,0-8.5,3.8-8.5,8.6v1.7h17v-1.7C115.8,483.5,112,479.7,107.3,479.7z"/>
<path fill="#D0DD27" d="M181.9,479.7c-4.7,0-8.5,3.8-8.5,8.6v1.7h17v-1.7C190.4,483.5,186.6,479.7,181.9,479.7z"/>
<path fill="#D0DD27" d="M88.6,479.7c-4.7,0-8.5,3.8-8.5,8.6v1.7h17v-1.7C97.1,483.5,93.3,479.7,88.6,479.7z"/>
<path fill="#D0DD27" d="M144.6,479.7c-4.7,0-8.5,3.8-8.5,8.6v1.7h17v-1.7C153.1,483.5,149.3,479.7,144.6,479.7z"/>
<path fill="#D0DD27" d="M125.9,479.7c-4.7,0-8.5,3.8-8.5,8.6v1.7h17v-1.7C134.4,483.5,130.6,479.7,125.9,479.7z"/>
<path fill="#A14923" d="M75.7,476.5v18.3h4.4v-0.6v-6.1c0-4.7,3.8-8.6,8.5-8.6c4.7,0,8.5,3.8,8.5,8.6v6.1h1.6v-6.1
	c0-4.7,3.8-8.6,8.5-8.6c4.7,0,8.5,3.8,8.5,8.6v6.1h1.6v-6.1c0-4.7,3.8-8.6,8.5-8.6c4.7,0,8.5,3.8,8.5,8.6v6.1h1.6v-6.1
	c0-4.7,3.8-8.6,8.5-8.6c4.7,0,8.5,3.8,8.5,8.6v6.1h1.6v-6.1c0-4.7,3.8-8.6,8.5-8.6c4.7,0,8.5,3.8,8.5,8.6v6.1h1.6v-6.1
	c0-4.7,3.8-8.6,8.5-8.6c4.7,0,8.5,3.8,8.5,8.6v6.1v0.6h3.8v-18.3H75.7z"/>
<path fill="#D2A01F" d="M190.4,539.7H157v-0.5c0-12.2-9.9-22.1-22.1-22.1s-22.1,9.9-22.1,22.1v0.5H80.1v-1h31.8
	c0.3-12.5,10.5-22.6,23.1-22.6s22.8,10.1,23.1,22.6h32.4V539.7z"/>
<path fill="#83298B" d="M114.6,622.4c-4,0-7.2,3.3-7.2,7.3v17.6h14.5v-17.6C121.8,625.6,118.6,622.4,114.6,622.4z"/>
<path fill="#83298B" d="M134.7,622.4c-4,0-7.2,3.3-7.2,7.3v17.6h14.5v-17.6C141.9,625.6,138.7,622.4,134.7,622.4z"/>
<path fill="#83298B" d="M154.8,622.4c-4,0-7.2,3.3-7.2,7.3v17.6h14.5v-17.6C162.1,625.6,158.8,622.4,154.8,622.4z"/>
<path fill="#83298B" d="M145.8,539.6c-4,0-7.2,3.3-7.2,7.3v17.6h14.5v-17.6C153.1,542.8,149.8,539.6,145.8,539.6z"/>
<path fill="#FFCE1B" d="M135,543.3l0.6-2.5c0-4,4.4-7.3,8.4-7.3c4,0,9,3.3,9,7.3v-2.1c0-8.4-8.1-17.1-18.1-17.1
	c-10,0-18.1,8.8-18.1,17.1v2.1c0-4,5-7.3,9-7.3c4,0,8.4,3.3,8.4,7.3L135,543.3z"/>
<path fill="#83298B" d="M124.1,539.6c-4,0-7.2,3.3-7.2,7.3v17.6h14.5v-17.6C131.4,542.8,128.1,539.6,124.1,539.6z"/>
<path fill="#7DC242" d="M138.6,546.8c0-4,3.2-7.3,7.2-7.3c4,0,7.2,3.3,7.2,7.3v-6c0-4-5-7.3-9-7.3c-4,0-8.4,3.3-8.4,7.3l-0.6,2.5
	l-0.6-2.5c0-4-4.4-7.3-8.4-7.3c-4,0-9,3.3-9,7.3v6c0-4,3.2-7.3,7.2-7.3c4,0,7.2,3.3,7.2,7.3H138.6z"/>
<rect x="114.9" y="564.6" fill="#2B3990" width="40.2" height="10.3"/>
<rect x="117.4" y="575.1" fill="#C2B59B" width="35.2" height="10.3"/>
<rect x="80.1" y="662.7" fill="#2B3990" width="110.4" height="10.3"/>
<rect x="131.4" y="546.8" fill="#57BDEC" width="7.2" height="17.6"/>
<circle fill="#D2A01F" cx="135" cy="528.7" r="6.4"/>
<circle fill="#352C81" cx="135" cy="528.7" r="5.7"/>
<circle fill="#69BD45" cx="135" cy="528.7" r="5.5"/>
<g>
	<path fill="#5CBDEB" d="M155.1,564.4h-2v-25.7c0-8.1-7.8-17.1-18.1-17.1s-18.1,9-18.1,17.1v25.7h-2v-25.7c0-9,8.6-19.1,20.1-19.1
		s20.1,10.1,20.1,19.1V564.4z"/>
</g>
<rect x="80.1" y="661.7" fill="#F7941E" width="110.4" height="1"/>
<rect x="103.4" y="646.7" fill="#F7941E" width="63.1" height="1"/>
<rect x="114.9" y="585.4" fill="#F7941E" width="40.2" height="1"/>
<rect x="87.4" y="604.1" fill="#F89420" width="2.3" height="2.3"/>
<rect x="91.9" y="604.1" fill="#F89420" width="2.3" height="2.3"/>
<rect x="96.3" y="604.1" fill="#F89420" width="2.3" height="2.3"/>
<rect x="100.8" y="604.1" fill="#F89420" width="2.3" height="2.3"/>
<rect x="105.2" y="604.1" fill="#F89420" width="2.3" height="2.3"/>
<rect x="109.6" y="604.1" fill="#F89420" width="2.3" height="2.3"/>
<rect x="114.1" y="604.1" fill="#F89420" width="2.3" height="2.3"/>
<rect x="118.5" y="604.1" fill="#F89420" width="2.3" height="2.3"/>
<rect x="123" y="604.1" fill="#F89420" width="2.3" height="2.3"/>
<rect x="127.4" y="604.1" fill="#F89420" width="2.3" height="2.3"/>
<rect x="131.9" y="604.1" fill="#F89420" width="2.3" height="2.3"/>
<rect x="136.3" y="604.1" fill="#F89420" width="2.3" height="2.3"/>
<rect x="140.7" y="604.1" fill="#F89420" width="2.3" height="2.3"/>
<rect x="145.2" y="604.1" fill="#F89420" width="2.3" height="2.3"/>
<rect x="149.6" y="604.1" fill="#F89420" width="2.3" height="2.3"/>
<rect x="154.1" y="604.1" fill="#F89420" width="2.3" height="2.3"/>
<rect x="158.5" y="604.1" fill="#F89420" width="2.3" height="2.3"/>
<rect x="163" y="604.1" fill="#F89420" width="2.3" height="2.3"/>
<rect x="167.4" y="604.1" fill="#F89420" width="2.3" height="2.3"/>
<rect x="171.8" y="604.1" fill="#F89420" width="2.3" height="2.3"/>
<rect x="176.3" y="604.1" fill="#F89420" width="2.3" height="2.3"/>
<rect x="180.7" y="604.1" fill="#F89420" width="2.3" height="2.3"/>
<rect x="89.8" y="601.7" fill="#F89420" width="2.3" height="2.3"/>
<rect x="94.2" y="601.7" fill="#F89420" width="2.3" height="2.3"/>
<rect x="98.7" y="601.7" fill="#F89420" width="2.3" height="2.3"/>
<rect x="103.1" y="601.7" fill="#F89420" width="2.3" height="2.3"/>
<rect x="107.5" y="601.7" fill="#F89420" width="2.3" height="2.3"/>
<rect x="112" y="601.7" fill="#F89420" width="2.3" height="2.3"/>
<rect x="116.4" y="601.7" fill="#F89420" width="2.3" height="2.3"/>
<rect x="120.9" y="601.7" fill="#F89420" width="2.3" height="2.3"/>
<rect x="125.3" y="601.7" fill="#F89420" width="2.3" height="2.3"/>
<rect x="129.8" y="601.7" fill="#F89420" width="2.3" height="2.3"/>
<rect x="134.2" y="601.7" fill="#F89420" width="2.3" height="2.3"/>
<rect x="138.6" y="601.7" fill="#F89420" width="2.3" height="2.3"/>
<rect x="143.1" y="601.7" fill="#F89420" width="2.3" height="2.3"/>
<rect x="147.5" y="601.7" fill="#F89420" width="2.3" height="2.3"/>
<rect x="152" y="601.7" fill="#F89420" width="2.3" height="2.3"/>
<rect x="156.4" y="601.7" fill="#F89420" width="2.3" height="2.3"/>
<rect x="160.9" y="601.7" fill="#F89420" width="2.3" height="2.3"/>
<rect x="165.3" y="601.7" fill="#F89420" width="2.3" height="2.3"/>
<rect x="169.8" y="601.7" fill="#F89420" width="2.3" height="2.3"/>
<rect x="174.2" y="601.7" fill="#F89420" width="2.3" height="2.3"/>
<rect x="178.6" y="601.7" fill="#F89420" width="2.3" height="2.3"/>
<path fill="#5CBDEB" d="M116.9,773.9v-63.4c0-8.1,7.8-17.1,18.1-17.1s18.1,9,18.1,17.1v63.4h2v-63.4c0-9-8.6-19.1-20.1-19.1
	s-20.1,10.1-20.1,19.1v63.4H116.9z"/>
<path fill="#D7DF23" d="M153.1,773.9v-63.4c0-8.1-7.8-17.1-18.1-17.1s-18.1,9-18.1,17.1v63.4"/>
<rect x="80.1" y="752.4" fill="#F7941E" width="34.8" height="1"/>
<rect x="155.1" y="752.4" fill="#F7941E" width="35.3" height="1"/>
<rect x="80.1" y="755.1" fill="#F7941E" width="34.8" height="1"/>
<rect x="155.1" y="755.1" fill="#F7941E" width="35.3" height="1"/>
<path fill="#2B3990" d="M295.7,589c-38.5,0-69.3,36.5-69.3,66.6v90.2h9v-13.1h-0.1v-77c0-27,25.8-57.3,60.3-57.3
	c34.5,0,60.3,30.2,60.3,57.3v77h-0.1v13.1h9v-90.2C364.9,625.5,334.1,589,295.7,589z"/>
<path fill="#1C75BC" d="M295.7,576.7c-43.5,0-81.4,45.3-81.4,79.4v103.4h12.2v-16.1h-0.1v-87.1c0-30.6,30.2-66.8,69.3-66.8
	c39.1,0,69.3,36.2,69.3,66.8v87.1h-0.1v16.1h12.2V656.1C377.1,622,339.2,576.7,295.7,576.7z"/>
<path fill="#27AAE1" d="M377.1,773h13V654.2c0-39.6-43.9-92.1-94.4-92.1s-94.4,52.5-94.4,92.1V773h13v-13.6h0V656.1
	c0-23.2,17.5-51.5,42.4-67.3c0.2-0.2,0.5-0.3,0.7-0.5c0.1,0,0.2-0.1,0.2-0.1c4.5-2.8,9.3-5.2,14.4-7.1c0.1,0,0.1,0,0.2-0.1
	c0.4-0.2,0.9-0.3,1.3-0.5c7.1-2.5,14.6-3.9,22.2-3.9c7.6,0,15.1,1.4,22.2,3.9c0.4,0.2,0.9,0.3,1.3,0.5c0.1,0,0.1,0,0.2,0.1
	c5,1.8,9.8,4.2,14.4,7.1c0.1,0,0.1,0.1,0.2,0.1c0.2,0.2,0.5,0.3,0.7,0.5c24.9,15.8,42.4,44.1,42.4,67.3v103.4"/>
<path fill="#8DC63F" d="M295.7,547.2c-57.6,0-105.7,60-105.7,105.1v121.7h12.8V773h-1.5V654.2c0-39.6,43.9-92.1,94.4-92.1
	s94.4,52.5,94.4,92.1V773h-1.5l0,0.9h13.8V652.3C402.4,607.1,353.3,547.2,295.7,547.2z"/>
<path fill="#FFF200" d="M207.5,600.2C207.5,600.2,207.6,600.1,207.5,600.2c1.4-2.1,2.7-4,4.1-5.9c0,0,0,0,0-0.1
	c2.1-2.9,4.4-5.7,6.8-8.4c0.1-0.1,0.1-0.1,0.2-0.2c1.6-1.8,3.2-3.5,4.9-5.2c0.1-0.1,0.1-0.1,0.2-0.2c0.8-0.8,1.6-1.6,2.4-2.4
	c0.1-0.1,0.1-0.1,0.2-0.2c1.7-1.6,3.4-3.2,5.2-4.7c0.1-0.1,0.3-0.2,0.4-0.3c1.8-1.5,3.6-3,5.4-4.4c0.1-0.1,0.3-0.2,0.4-0.3
	c0.8-0.6,1.6-1.2,2.4-1.8c0.2-0.1,0.3-0.2,0.5-0.3c1-0.7,1.9-1.3,2.9-2c0,0,0,0,0,0c0.9-0.6,1.9-1.2,2.8-1.8
	c0.2-0.1,0.4-0.3,0.6-0.4c0.9-0.5,1.7-1,2.6-1.6c0.1-0.1,0.2-0.1,0.3-0.2c1-0.6,2-1.1,3-1.6c0.2-0.1,0.4-0.2,0.6-0.3
	c0.8-0.4,1.6-0.8,2.5-1.2c0.2-0.1,0.5-0.2,0.7-0.3c1-0.5,2-1,3.1-1.4c0,0,0.1,0,0.2-0.1c1-0.4,1.9-0.8,2.9-1.2
	c0.3-0.1,0.5-0.2,0.8-0.3c0.9-0.3,1.7-0.7,2.6-1c0.2-0.1,0.4-0.1,0.6-0.2c1-0.4,2.1-0.7,3.1-1c0.2-0.1,0.5-0.1,0.7-0.2
	c0.8-0.3,1.7-0.5,2.5-0.7c0.3-0.1,0.6-0.2,0.9-0.2c1.1-0.3,2.1-0.5,3.2-0.8c0,0,0.1,0,0.1,0c1-0.2,2.1-0.4,3.1-0.6
	c0.3-0.1,0.6-0.1,0.9-0.2c0.9-0.2,1.8-0.3,2.6-0.4c0.2,0,0.5-0.1,0.7-0.1c1.1-0.1,2.2-0.3,3.3-0.4c0.3,0,0.5,0,0.8-0.1
	c0.9-0.1,1.8-0.1,2.6-0.2c0.3,0,0.6,0,0.9,0c1.1,0,2.2-0.1,3.4-0.1c1.1,0,2.2,0,3.4,0.1c0.3,0,0.6,0,0.9,0c0.9,0,1.8,0.1,2.6,0.2
	c0.3,0,0.5,0,0.8,0.1c1.1,0.1,2.2,0.2,3.3,0.4c0.2,0,0.5,0.1,0.7,0.1c0.9,0.1,1.8,0.3,2.6,0.4c0.3,0.1,0.6,0.1,0.9,0.2
	c1,0.2,2.1,0.4,3.1,0.6c0,0,0.1,0,0.1,0c1.1,0.2,2.2,0.5,3.2,0.8c0.3,0.1,0.6,0.2,0.9,0.2c0.9,0.2,1.7,0.5,2.5,0.7
	c0.2,0.1,0.5,0.1,0.7,0.2c1.1,0.3,2.1,0.7,3.1,1c0.2,0.1,0.4,0.1,0.6,0.2c0.9,0.3,1.7,0.6,2.6,1c0.3,0.1,0.5,0.2,0.8,0.3
	c1,0.4,2,0.8,2.9,1.2c0,0,0.1,0,0.1,0.1c1,0.4,2.1,0.9,3.1,1.4c0.2,0.1,0.5,0.2,0.7,0.3c0.8,0.4,1.7,0.8,2.5,1.2
	c0.2,0.1,0.4,0.2,0.6,0.3c1,0.5,2,1.1,3,1.6c0.1,0.1,0.2,0.1,0.3,0.2c0.9,0.5,1.8,1,2.7,1.6c0.2,0.1,0.4,0.3,0.6,0.4
	c1,0.6,1.9,1.2,2.8,1.8c0,0,0,0,0,0c1,0.6,1.9,1.3,2.9,2c0.2,0.1,0.3,0.2,0.5,0.3c0.8,0.6,1.7,1.2,2.5,1.8c0.1,0.1,0.3,0.2,0.4,0.3
	c1.9,1.4,3.7,2.9,5.5,4.4c0.1,0.1,0.3,0.2,0.4,0.3c1.8,1.5,3.6,3.1,5.3,4.7c0.1,0.1,0.1,0.1,0.2,0.2c0.8,0.8,1.6,1.6,2.4,2.4
	c0.1,0.1,0.1,0.1,0.2,0.2c1.7,1.7,3.3,3.5,4.9,5.2c0.1,0.1,0.1,0.1,0.2,0.2c2.4,2.7,4.7,5.5,6.9,8.4c0,0,0,0,0,0.1
	c1.4,1.9,2.8,3.9,4.2,5.9c0,0,0,0.1,0.1,0.1c2,3,3.8,6,5.5,9.1c0,0,0,0,0,0l0,0c6.1,11,10.1,22.5,11.7,33.4v0l0.2-20.6v-53.9
	L296.2,458.1L190.4,568.3v75.4h0.1C192.3,629.4,198.3,614.2,207.5,600.2z"/>
<polygon fill="#39B54A" points="402.2,582.7 296.2,472.5 190.3,582.5 190.4,568.3 296.2,458 401.9,568.3 "/>
<circle fill="#D2A01F" cx="295.8" cy="516.2" r="22.2"/>
<circle fill="#352C81" cx="295.8" cy="516.2" r="17.2"/>
<circle fill="#69BD45" cx="295.8" cy="516.2" r="16.6"/>
<g>
	<path fill="#009444" d="M303.9,508.3c0-0.4-0.3-0.7-0.7-0.7h-1c0,0,0,0,0,0h-0.4c-0.3-2.9-2.8-3.5-5.9-3.5c-3,0-5.5,0.5-5.9,3.5
		l-0.4-0.9c-0.1-0.3-0.5-0.5-0.9-0.4c-0.3,0.1-0.5,0.5-0.4,0.9l0.2,0.4h-0.1c-0.4,0-0.7,0.3-0.7,0.7s0.3,0.7,0.7,0.7h1c0,0,0,0,0,0
		c0,0,0,0,0,0h0.4v9.5v7.4c0,0.4,0.3,0.7,0.7,0.7h2.6h5.3h2.6c0.4,0,0.7-0.3,0.7-0.7v-7.4V514c0,0,0,0,0,0v-4.9l0.3,0.8
		c0.1,0.3,0.3,0.4,0.6,0.4c0.1,0,0.2,0,0.2,0c0.3-0.1,0.5-0.5,0.4-0.9l-0.2-0.4h0.1C303.6,508.9,303.9,508.6,303.9,508.3z
		 M298.8,518.6l-2.6-1.3c-0.1-0.1-0.3-0.1-0.4-0.1v-4.1c0-0.2-0.1-0.4-0.2-0.5c-0.1-0.1-0.3-0.2-0.5-0.2l-3.7,0.4v-4.1h1.6l-0.2,0.3
		c-0.2,0.3-0.1,0.7,0.2,0.9c0.1,0.1,0.2,0.1,0.3,0.1c0.2,0,0.4-0.1,0.6-0.3l0.6-1h1.5c0,0,0,0,0,0c0,0,0,0,0,0h2v0.7
		c0,0.4,0.3,0.7,0.7,0.7s0.7-0.3,0.7-0.7v-0.7h1.3v4.2l-2.9-0.6c-0.4-0.1-0.7,0.1-0.8,0.5c-0.1,0.4,0.1,0.7,0.5,0.8l0.8,0.2
		c0.1,0.4,0.4,0.6,0.8,0.6c0.3,0,0.5-0.1,0.6-0.3l0.9,0.2v1.6c0,1.2-0.5,2.4-1.3,3.2v-0.1C299.2,519,299,518.8,298.8,518.6z
		 M293,518.6c-0.2,0.1-0.4,0.3-0.4,0.6v0.1c-0.8-0.8-1.3-2-1.3-3.2v-1.8l0.9-0.1c0.1,0.3,0.4,0.4,0.7,0.4c0.4,0,0.7-0.3,0.8-0.6
		l0.8-0.1v4L293,518.6z M295.9,505.4c2.3,0,4.2-0.1,4.5,2.2h-3.4l0.2-0.3c0.2-0.3,0.1-0.7-0.2-0.9c-0.3-0.2-0.7-0.1-0.9,0.2l-0.6,1
		h-1.9V507c0-0.4-0.3-0.7-0.7-0.7c-0.4,0-0.7,0.3-0.7,0.7v0.7h-1C291.7,505.4,293.6,505.4,295.9,505.4z M291.3,519.8
		c0.4,0.5,0.8,0.9,1.3,1.2v4.1h-1.3V519.8z M293.9,519.6l2-1l2,1v5.5h-3.9V519.6z M299.2,525.1V521c0.5-0.3,0.9-0.7,1.3-1.2v5.4
		H299.2z"/>
	<path fill="#009444" d="M296.7,519.9l-0.7,0.3l-0.8-0.3c-0.4,0-0.7,0.3-0.7,0.7s0.3,0.7,0.7,0.7l0.8,0.7l0.8-0.7
		c0.4,0,0.7-0.3,0.7-0.7S297.1,519.9,296.7,519.9z"/>
</g>
</svg>
