<svg version="1.1" id="Ebene_1" xmlns="http://www.w3.org/2000/svg" xmlns:xlink="http://www.w3.org/1999/xlink" x="0px" y="0px"
	 viewBox="0 0 595.3 841.9" enable-background="new 0 0 595.3 841.9" xml:space="preserve">
	 <image id="background_image" xlink:href="" x="0" y="0" filter=""/> 
<rect id="svg_x5F_background" fill="#FFFFFF" width="595.3" height="841.9" filter=""/>
<rect x="91.1" y="47.3" fill="url(#SVGID_4_)" width="1.7" height="0.1"/>
<line fill="none" stroke="#000000" stroke-width="0.7559" x1="0" y1="420.8" x2="11.3" y2="420.8"/>
<line fill="none" stroke="#000000" stroke-width="0.4226" x1="0" y1="297.5" x2="14.2" y2="297.5"/>
<line fill="none" stroke="#000000" stroke-width="0.4226" x1="0" y1="595.4" x2="14.2" y2="595.4"/>
<rect x="601.5" y="519.2" fill="none" stroke="#000000" stroke-width="6.9697" width="0" height="0"/>
<g>
	<polygon fill="#FFFFFF" points="59.8,55.1 90.5,20.7 121.2,55.1 121.2,57.5 59.8,57.5 	"/>
	<polygon fill="#CEE6CE" points="56.7,60.6 56.7,54 90.5,16 124.3,54 124.3,60.6 	"/>
	<polygon fill="#A1C5E8" points="59.8,55.1 90.5,20.7 121.2,55.1 121.2,57.5 59.8,57.5 	"/>
</g>
<path fill="#FFCF1D" d="M79.5,48.6l0.2-0.6c0-1,1.1-1.9,2.2-1.9c1,0,2.3,0.8,2.3,1.9v-0.5c0-2.1-2.1-3.9-4.6-3.9
	c-2.5,0-4.6,1.7-4.6,3.9V48c0-1,1.3-1.9,2.3-1.9s2.2,0.8,2.2,1.9L79.5,48.6z"/>
<path fill="#832A8A" d="M76.7,47.7c-1,0-1.8,0.8-1.8,1.9V54h3.7v-4.5C78.6,48.5,77.8,47.7,76.7,47.7z"/>
<path fill="#832A8A" d="M82.3,47.7c-1,0-1.8,0.8-1.8,1.9V54h3.7v-4.5C84.1,48.5,83.3,47.7,82.3,47.7z"/>
<path fill="#7DC243" d="M80.4,49.5c0-1,0.8-1.9,1.8-1.9s1.8,0.8,1.8,1.9V48c0-1-1.3-1.9-2.3-1.9c-1,0-2.2,0.8-2.2,1.9l-0.2,0.6
	L79.4,48c0-1-1.1-1.9-2.2-1.9S74.9,47,74.9,48v1.5c0-1,0.8-1.9,1.8-1.9s1.8,0.8,1.8,1.9H80.4z"/>
<rect x="74.9" y="54" fill="#FFD25B" width="9.2" height="1.9"/>
<rect x="78.6" y="49.5" fill="#5ABDEC" width="1.8" height="4.5"/>
<circle fill="#766DB1" cx="90.5" cy="37.4" r="4.6"/>
<circle fill="#FAA544" cx="90.5" cy="37.4" r="4"/>
<line fill="none" x1="59.8" y1="56.7" x2="63.8" y2="56.7"/>
<line fill="none" x1="117.2" y1="56.7" x2="121.2" y2="56.7"/>
<path fill="#FFFFFF" d="M119.6,24.5"/>
<path fill="#FFFFFF" d="M116.6,24.5"/>
<path fill="#FFFFFF" d="M118.1,27"/>
<path fill="#FFFFFF" d="M118.1,22.7"/>
<g>
	<path fill="#6B60AA" d="M90.5,20.7L59.8,55.2l0,1.6h3.9v-2.5c0-1,0.7-1.8,1.6-1.8c0.7,0,1.3,0.5,1.5,1.2h0.1v0h0.4v-3.7
		c0-1,0.7-1.8,1.6-1.8c0.8,0,1.4,0.6,1.5,1.4l0,0c0,0,0,0,0,0v0h0.4V46c0-1,0.7-1.8,1.6-1.8c0.8,0,1.4,0.6,1.5,1.5c0,0,0,0,0,0v0
		h0.4v-3.7c0-1,0.7-1.8,1.6-1.8c0.8,0,1.4,0.6,1.5,1.5c0,0,0,0,0,0v0h0.4v-3.7c0-1,0.7-1.8,1.6-1.8c0.7,0,1.4,0.6,1.5,1.4
		c0,0,0,0,0,0v0h0.4v-3.7c0-1,0.7-1.8,1.6-1.8c0.8,0,1.4,0.6,1.5,1.4c0,0,0,0,0,0v0h0.4v-3.7c0-1,0.7-1.8,1.6-1.8
		c0.8,0,1.4,0.6,1.5,1.4c0,0,0,0,0,0c0,0,0,0,0,0v0h0.4v-3.7c0-1,0.7-1.8,1.6-1.8c0.9,0,1.6,0.8,1.6,1.8v3.7h0.4v0c0,0,0,0,0,0
		c0.2-0.8,0.8-1.4,1.5-1.4c0.9,0,1.6,0.8,1.6,1.8v3.7H96v0c0,0,0,0,0,0c0.2-0.8,0.8-1.4,1.5-1.4c0.9,0,1.6,0.8,1.6,1.8v3.7h0.4v0
		c0,0,0,0,0,0l0,0c0.2-0.8,0.8-1.4,1.5-1.4c0.9,0,1.6,0.8,1.6,1.8v3.7h0.4v0h0c0,0,0,0,0,0c0.2-0.8,0.8-1.5,1.5-1.5
		c0.9,0,1.6,0.8,1.6,1.8v3.7h0.4v0c0,0,0,0,0,0c0.2-0.8,0.8-1.5,1.5-1.5c0.9,0,1.6,0.8,1.6,1.8v3.7h0.4c0,0,0.1,0,0.1,0
		c0,0,0,0,0.1,0c0.2-0.8,0.8-1.4,1.5-1.4c0.9,0,1.6,0.8,1.6,1.8v3.7h0.4v0h0.1c0.2-0.7,0.8-1.2,1.5-1.2c0.9,0,1.6,0.8,1.6,1.8v2.5
		h3.9v-1.6L90.5,20.7z"/>
</g>
<rect x="56.7" y="61.4" fill="#5ABDEC" width="67.6" height="66"/>
<rect x="56.7" y="60.6" fill="#EE4B95" width="67.6" height="0.8"/>
<rect x="63.7" y="55.9" fill="#F68F53" width="53.6" height="0.8"/>
<path fill="#FFCF1D" d="M90.5,48.6l0.2-0.6c0-1,1.1-1.9,2.2-1.9c1,0,2.3,0.8,2.3,1.9v-0.5c0-2.1-2.1-3.9-4.6-3.9
	c-2.5,0-4.6,1.7-4.6,3.9V48c0-1,1.3-1.9,2.3-1.9s2.2,0.8,2.2,1.9L90.5,48.6z"/>
<path fill="#832A8A" d="M87.7,47.7c-1,0-1.8,0.8-1.8,1.9V54h3.7v-4.5C89.6,48.5,88.8,47.7,87.7,47.7z"/>
<path fill="#832A8A" d="M93.3,47.7c-1,0-1.8,0.8-1.8,1.9V54h3.7v-4.5C95.1,48.5,94.3,47.7,93.3,47.7z"/>
<path fill="#7DC243" d="M91.4,49.5c0-1,0.8-1.9,1.8-1.9s1.8,0.8,1.8,1.9V48c0-1-1.3-1.9-2.3-1.9c-1,0-2.2,0.8-2.2,1.9l-0.2,0.6
	L90.3,48c0-1-1.1-1.9-2.2-1.9S85.9,47,85.9,48v1.5c0-1,0.8-1.9,1.8-1.9c1,0,1.8,0.8,1.8,1.9H91.4z"/>
<rect x="85.9" y="54" fill="#FFD25B" width="9.2" height="1.9"/>
<rect x="89.6" y="49.5" fill="#5ABDEC" width="1.8" height="4.5"/>
<path fill="#FFCF1D" d="M101.6,48.6l0.2-0.6c0-1,1.1-1.9,2.2-1.9s2.3,0.8,2.3,1.9v-0.5c0-2.1-2.1-3.9-4.6-3.9
	c-2.5,0-4.6,1.7-4.6,3.9V48c0-1,1.3-1.9,2.3-1.9c1,0,2.2,0.8,2.2,1.9L101.6,48.6z"/>
<path fill="#832A8A" d="M98.8,47.7c-1,0-1.8,0.8-1.8,1.9V54h3.7v-4.5C100.6,48.5,99.8,47.7,98.8,47.7z"/>
<path fill="#832A8A" d="M104.3,47.7c-1,0-1.8,0.8-1.8,1.9V54h3.7v-4.5C106.2,48.5,105.3,47.7,104.3,47.7z"/>
<path fill="#7DC243" d="M102.5,49.5c0-1,0.8-1.9,1.8-1.9c1,0,1.8,0.8,1.8,1.9V48c0-1-1.3-1.9-2.3-1.9s-2.2,0.8-2.2,1.9l-0.2,0.6
	l-0.2-0.6c0-1-1.1-1.9-2.2-1.9c-1,0-2.3,0.8-2.3,1.9v1.5c0-1,0.8-1.9,1.8-1.9s1.8,0.8,1.8,1.9H102.5z"/>
<rect x="97" y="54" fill="#FFD25B" width="9.2" height="1.9"/>
<rect x="100.6" y="49.5" fill="#5ABDEC" width="1.8" height="4.5"/>
<path fill="#CD4B9A" d="M96.6,48.5h-1.2v-1c0-2.3-2.2-4.2-4.9-4.2c-2.7,0-4.9,1.9-4.9,4.2v1h-1.2v-1c0-2.3-2.2-4.2-4.9-4.2
	s-4.9,1.9-4.9,4.2v1h-0.3v-1c0-2.5,2.3-4.5,5.2-4.5s5.2,2,5.2,4.5v0.7h0.6v-0.7c0-2.5,2.3-4.5,5.2-4.5s5.2,2,5.2,4.5v0.7h0.6v-0.7
	c0-2.5,2.3-4.5,5.2-4.5c2.9,0,5.2,2,5.2,4.5v1h-0.3v-1c0-2.3-2.2-4.2-4.9-4.2c-2.7,0-4.9,1.9-4.9,4.2L96.6,48.5L96.6,48.5z"/>
<path fill="#832A8A" d="M104.9,62.3c-0.7,0-1.3,0.6-1.3,1.3v0.9h-0.2v-0.9c0-0.7-0.6-1.3-1.3-1.3c-0.7,0-1.3,0.6-1.3,1.3v0.9h-0.2
	v-0.9c0-0.7-0.6-1.3-1.3-1.3s-1.3,0.6-1.3,1.3v0.9h-0.2v-0.9c0-0.7-0.6-1.3-1.3-1.3S95,62.9,95,63.6v0.9h-0.3v-0.9
	c0-0.7-0.6-1.3-1.3-1.3s-1.3,0.6-1.3,1.3v0.9h-0.2v-0.9c0-0.7-0.6-1.3-1.3-1.3s-1.3,0.6-1.3,1.3v0.9H89v-0.9c0-0.7-0.6-1.3-1.3-1.3
	s-1.3,0.6-1.3,1.3v0.9h-0.3v-0.9c0-0.7-0.6-1.3-1.3-1.3c-0.7,0-1.3,0.6-1.3,1.3v0.9h-0.2v-0.9c0-0.7-0.6-1.3-1.3-1.3
	s-1.3,0.6-1.3,1.3v0.9h-0.2v-0.9c0-0.7-0.6-1.3-1.3-1.3s-1.3,0.6-1.3,1.3v0.9h-0.3v-0.9c0-0.7-0.6-1.3-1.3-1.3s-1.3,0.6-1.3,1.3v0.9
	v2.2v28.9h31.3V66.8v-2.2v-0.9C106.2,62.9,105.6,62.3,104.9,62.3z"/>
<circle fill="#FFD25B" cx="90.5" cy="79" r="12.7"/>
<circle fill="#48BAEB" cx="90.5" cy="79" r="12.4"/>
<circle fill="#E57426" cx="90.5" cy="79" r="11.9"/>
<circle fill="#CF157D" cx="90.5" cy="79" r="11.3"/>
<circle fill="#D2A12A" cx="90.5" cy="79" r="3.4"/>
<circle fill="#342F81" cx="90.5" cy="79" r="3"/>
<circle fill="#6BBE46" cx="90.5" cy="79" r="2.9"/>
<circle fill="#D2A12A" cx="90.5" cy="71.1" r="3.2"/>
<circle fill="#D2A12A" cx="85" cy="73.4" r="3.2"/>
<circle fill="#D2A12A" cx="82.7" cy="79" r="3.2"/>
<circle fill="#D2A12A" cx="85" cy="84.5" r="3.2"/>
<circle fill="#D2A12A" cx="90.5" cy="86.8" r="3.2"/>
<circle fill="#D2A12A" cx="96.1" cy="84.5" r="3.2"/>
<circle fill="#D2A12A" cx="98.4" cy="79" r="3.2"/>
<circle fill="#D2A12A" cx="96.1" cy="73.4" r="3.2"/>
<circle fill="#342F81" cx="90.5" cy="71.1" r="2.9"/>
<circle fill="#6BBE46" cx="90.5" cy="71.1" r="2.8"/>
<circle fill="#342F81" cx="85" cy="73.4" r="2.9"/>
<circle fill="#6BBE46" cx="85" cy="73.4" r="2.8"/>
<circle fill="#342F81" cx="82.7" cy="79" r="2.9"/>
<circle fill="#6BBE46" cx="82.7" cy="79" r="2.8"/>
<circle fill="#342F81" cx="85" cy="84.5" r="2.9"/>
<circle fill="#6BBE46" cx="85" cy="84.5" r="2.8"/>
<circle fill="#342F81" cx="90.5" cy="86.8" r="2.9"/>
<circle fill="#6BBE46" cx="90.5" cy="86.8" r="2.8"/>
<circle fill="#342F81" cx="96.1" cy="84.5" r="2.9"/>
<circle fill="#6BBE46" cx="96.1" cy="84.5" r="2.8"/>
<circle fill="#342F81" cx="98.4" cy="79" r="2.9"/>
<circle fill="#6BBE46" cx="98.4" cy="79" r="2.8"/>
<circle fill="#342F81" cx="96.1" cy="73.4" r="2.9"/>
<circle fill="#6BBE46" cx="96.1" cy="73.4" r="2.8"/>
<circle fill="#6BBE46" cx="90.5" cy="79" r="2.9"/>
<path fill="#FCF7BE" d="M102.3,79.2v-0.4l0,0v-0.1v0l0,0l0-0.4l0,0l0-0.1v-0.1l0,0l0-0.4l0,0l0-0.1v-0.1l0,0l0-0.4l0,0l0-0.1l0-0.1
	l0,0l-0.1-0.4l0,0l0-0.1l0-0.1l0,0l-0.1-0.4l0,0l0-0.1l0-0.1l0,0l-0.1-0.4l0,0l0-0.1l0-0.1l0,0l-0.1-0.3l0,0l0-0.1l0-0.1l0,0
	l-0.1-0.3l0,0l0-0.1l0-0.1l0,0l-0.2-0.4l0,0l0-0.1l0-0.1l0,0l-0.2-0.3l0,0l0-0.1l0-0.1l0,0l-0.2-0.3l0,0l0-0.1l0-0.1l0,0l-0.2-0.3
	l0,0l-0.1-0.1l0-0.1l0,0l-0.2-0.3l0,0l-0.1-0.1l0-0.1l0,0l-0.2-0.3l0,0l-0.1-0.1l0,0l0,0l-0.2-0.3l0,0l-0.1-0.1l0,0l0,0l-0.2-0.3
	l0,0L99.2,71l0,0l0,0l-0.2-0.3l0,0l-0.1-0.1l0,0l0,0l-0.3-0.2l0,0l-0.1-0.1l0,0l0,0L98.1,70l0,0l-0.1-0.1l0,0l0,0l-0.3-0.2l0,0
	l-0.1-0.1l0,0l0,0l-0.3-0.2l0,0l-0.1-0.1l0,0l0,0L96.9,69l0,0l-0.1,0l-0.1,0l0,0l-0.3-0.2l0,0l-0.1,0l-0.1,0l0,0L96,68.5l0,0l-0.1,0
	l-0.1,0l0,0l-0.3-0.2l0,0l-0.1,0l-0.1,0l0,0L95,68.1l0,0l-0.1,0l-0.1,0l0,0l-0.3-0.1l0,0l-0.1,0l-0.1,0l0,0L94,67.7l0,0l-0.1,0
	l-0.1,0l0,0l-0.4-0.1l0,0l-0.1,0l-0.1,0l0,0L93,67.5l0,0l-0.1,0l-0.1,0l0,0l-0.4-0.1l0,0l-0.1,0l-0.1,0l0,0l-0.4,0l0,0l-0.1,0
	l-0.1,0l0,0l-0.4,0l0,0h-0.1h-0.1l0,0l-0.4,0l0,0h-0.1h-0.1l0,0h-0.4l0,0h-0.1h-0.1l0,0l-0.4,0l0,0l-0.1,0h-0.1l0,0l-0.4,0l0,0
	l-0.1,0h-0.1l0,0l-0.4,0l0,0l-0.1,0l-0.1,0l0,0l-0.4,0.1l0,0l-0.1,0l-0.1,0l0,0l-0.4,0.1l0,0l-0.1,0l-0.1,0l0,0l-0.4,0.1l0,0l-0.1,0
	l-0.1,0l0,0l-0.3,0.1l0,0l-0.1,0l-0.1,0l0,0L86.3,68l0,0l-0.1,0l-0.1,0l0,0l-0.3,0.1l0,0l-0.1,0l-0.1,0l0,0l-0.3,0.2l0,0l-0.1,0
	l-0.1,0l0,0l-0.3,0.2l0,0l-0.1,0l-0.1,0l0,0L84.4,69l0,0L84.3,69l-0.1,0l0,0l-0.3,0.2l0,0l-0.1,0l-0.1,0l0,0l-0.3,0.2l0,0l-0.1,0.1
	l-0.1,0l0,0L83,69.9l0,0L83,69.9l0,0l0,0l-0.3,0.2l0,0l-0.1,0.1l0,0l0,0l-0.3,0.2l0,0l-0.1,0.1l0,0l0,0L81.9,71l0,0L81.8,71l0,0l0,0
	l-0.2,0.3l0,0l-0.1,0.1l0,0l0,0l-0.2,0.3l0,0l-0.1,0.1l0,0l0,0l-0.2,0.3l0,0l-0.1,0.1l0,0l0,0l-0.2,0.3l0,0l0,0.1l0,0.1l0,0
	l-0.2,0.3l0,0l0,0.1l0,0.1l0,0l-0.2,0.3l0,0l0,0.1l0,0.1l0,0L79.8,74l0,0l0,0.1l0,0.1l0,0l-0.1,0.3l0,0l0,0.1l0,0.1l0,0L79.4,75l0,0
	l0,0.1l0,0.1l0,0l-0.1,0.3l0,0l0,0.1l0,0.1l0,0L79.1,76l0,0l0,0.1l0,0.1l0,0L79,76.5l0,0l0,0.1l0,0.1l0,0L78.9,77l0,0l0,0.1l0,0.1
	l0,0l0,0.4l0,0l0,0.1l0,0.1l0,0l0,0.4l0,0v0.1v0.1l0,0l0,0.4l0,0v0.1v0.1l0,0v0.4l0,0v0.1v0.1l0,0l0,0.4l0,0l0,0.1v0.1l0,0l0,0.4
	l0,0l0,0.1v0.1l0,0l0,0.4l0,0l0,0.1l0,0.1l0,0l0.1,0.4l0,0l0,0.1l0,0.1l0,0l0.1,0.4l0,0l0,0.1l0,0.1l0,0l0.1,0.4l0,0l0,0.1l0,0.1
	l0,0l0.1,0.3l0,0l0,0.1l0,0.1l0,0l0.1,0.3l0,0l0,0.1l0,0.1l0,0l0.1,0.3l0,0l0,0.1l0,0.1l0,0l0.2,0.3l0,0l0,0.1l0,0.1l0,0l0.2,0.3
	l0,0l0,0.1l0,0.1l0,0l0.2,0.3l0,0l0.1,0.1l0,0.1l0,0l0.2,0.3l0,0l0.1,0.1l0,0.1l0,0l0.2,0.3l0,0l0.1,0.1l0,0.1l0,0l0.2,0.3l0,0
	l0.1,0.1l0,0l0,0l0.2,0.3l0,0l0.1,0.1l0,0l0,0l0.2,0.3l0,0l0.1,0.1l0,0l0,0l0.3,0.2l0,0l0.1,0.1l0,0l0,0l0.3,0.2l0,0L83,88l0,0l0,0
	l0.3,0.2l0,0l0.1,0.1l0,0l0,0l0.3,0.2l0,0l0.1,0.1l0,0l0,0l0.3,0.2l0,0l0.1,0l0.1,0l0,0l0.3,0.2l0,0l0.1,0l0.1,0l0,0l0.3,0.2l0,0
	l0.1,0l0.1,0l0,0l0.3,0.2l0,0l0.1,0l0.1,0l0,0l0.3,0.1l0,0l0.1,0l0.1,0l0,0l0.3,0.1l0,0l0.1,0l0.1,0l0,0l0.3,0.1l0,0l0.1,0l0.1,0
	l0,0l0.4,0.1l0,0l0.1,0l0.1,0l0,0l0.4,0.1l0,0l0.1,0l0.1,0l0,0l0.4,0.1l0,0l0.1,0l0.1,0l0,0l0.4,0l0,0l0.1,0l0.1,0l0,0l0.4,0l0,0
	h0.1h0.1l0,0l0.4,0l0,0h0.1h0.1l0,0h0.4l0,0h0.1h0.1l0,0l0.4,0l0,0l0.1,0h0.1l0,0l0.4,0l0,0l0.1,0h0.1l0,0l0.4,0l0,0l0.1,0l0.1,0
	l0,0l0.4-0.1l0,0l0.1,0l0.1,0l0,0l0.4-0.1l0,0l0.1,0l0.1,0l0,0l0.4-0.1l0,0l0.1,0l0.1,0l0,0l0.3-0.1l0,0l0.1,0l0.1,0l0,0l0.3-0.1
	l0,0l0.1,0l0.1,0l0,0l0.3-0.1l0,0l0.1,0l0.1,0l0,0l0.3-0.2l0,0l0.1,0l0.1,0l0,0l0.3-0.2l0,0l0.1,0l0.1,0l0,0l0.3-0.2l0,0l0.1-0.1
	l0.1,0l0,0l0.3-0.2l0,0l0.1-0.1l0.1,0l0,0l0.3-0.2l0,0l0.1-0.1l0,0l0,0L98,88l0,0l0.1-0.1l0,0l0,0l0.3-0.2l0,0l0.1-0.1l0,0l0,0
	l0.3-0.2l0,0l0.1-0.1l0,0l0,0l0.2-0.3l0,0l0.1-0.1l0,0l0,0l0.2-0.3l0,0l0.1-0.1l0,0l0,0l0.2-0.3l0,0l0.1-0.1l0,0l0,0l0.2-0.3l0,0
	l0.1-0.1l0,0l0,0l0.2-0.3l0,0l0-0.1l0-0.1l0,0l0.2-0.3l0,0l0-0.1l0-0.1l0,0l0.2-0.3l0,0l0-0.1l0-0.1l0,0l0.2-0.3l0,0l0-0.1l0-0.1
	l0,0l0.1-0.3l0,0l0-0.1l0-0.1l0,0l0.1-0.3l0,0l0-0.1l0-0.1l0,0l0.1-0.3l0,0l0-0.1l0-0.1l0,0l0.1-0.4l0,0l0-0.1l0-0.1l0,0l0.1-0.4
	l0,0l0-0.1l0-0.1l0,0l0.1-0.4l0,0l0-0.1l0-0.1l0,0l0-0.4l0,0l0-0.1l0-0.1l0,0l0-0.4l0,0v-0.1v-0.1l0,0l0-0.4l0,0L102.3,79.2
	L102.3,79.2L102.3,79.2L102.3,79.2z M94.8,89.3l-0.1,0.1l-0.1,0l-0.3,0.1l-0.1,0.1l-0.1,0l-0.3,0.1l-0.1,0.1l-0.1,0l-0.3,0.1
	l-0.1,0.1l-0.1-0.1l-0.3,0.1L92.8,90l-0.1-0.1l-0.3,0l-0.1,0.1L92.1,90l-0.3,0l-0.1,0.1l-0.1-0.1l-0.3,0l-0.1,0.1l-0.1-0.1l-0.3,0
	l-0.1,0.1l-0.1-0.1h-0.3l-0.1,0.1l-0.1-0.1l-0.3,0l-0.1,0.1l-0.1-0.1l-0.3,0l-0.1,0.1l-0.1-0.1l-0.3,0l-0.1,0.1L88.7,90l-0.3,0
	L88.3,90l-0.1-0.1l-0.3-0.1l-0.1,0.1l-0.1-0.1l-0.3-0.1l-0.1,0l-0.1-0.1l-0.3-0.1l-0.1,0l-0.1-0.1l-0.3-0.1l-0.1,0l-0.1-0.1L86,89.2
	l-0.1,0l-0.1-0.1L85.6,89l-0.1,0l-0.1-0.1l-0.2-0.1l-0.1,0l-0.1-0.1l-0.2-0.1l-0.1,0l-0.1-0.1l-0.2-0.2l-0.1,0l0-0.1l-0.2-0.2h-0.1
	l0-0.1l-0.2-0.2h-0.1l0-0.1l-0.2-0.2h-0.1l0-0.1l-0.2-0.2l-0.1,0l0-0.1l-0.2-0.2l-0.1,0l0-0.1L82,86.2l-0.1,0l0-0.2l-0.2-0.2l-0.1,0
	v-0.2l-0.2-0.2l-0.1,0v-0.2L81.1,85l-0.1,0l0-0.1l-0.1-0.2l-0.1,0l0-0.1l-0.1-0.2l-0.1,0l0-0.1l-0.1-0.2l-0.1-0.1l0-0.1l-0.1-0.3
	l-0.1-0.1l0-0.1L80,82.8l-0.1-0.1l0-0.1l-0.1-0.3l-0.1-0.1l0-0.1l-0.1-0.3l-0.1-0.1l0.1-0.1l-0.1-0.3l-0.1-0.1l0.1-0.1l0-0.3
	l-0.1-0.1l0.1-0.1l0-0.3l-0.1-0.1l0.1-0.1l0-0.3l-0.1-0.1l0.1-0.1l0-0.3l-0.1-0.1l0.1-0.1v-0.3l-0.1-0.1l0.1-0.1l0-0.3l-0.1-0.1
	l0.1-0.1l0-0.3l-0.1-0.1l0.1-0.1l0-0.3l-0.1-0.1l0.1-0.1l0-0.3l-0.1-0.1l0.1-0.1l0.1-0.3l-0.1-0.1l0.1-0.1l0.1-0.3l0-0.1l0.1-0.1
	l0.1-0.3l0-0.1l0.1-0.1l0.1-0.3l0-0.1l0.1-0.1l0.1-0.3l0-0.1l0.1-0.1l0.1-0.2l0-0.1l0.1-0.1l0.1-0.2l0-0.1l0.1-0.1l0.1-0.2l0-0.1
	l0.1-0.1l0.2-0.2l0-0.1l0.1,0l0.2-0.2v-0.1l0.1,0l0.2-0.2v-0.1l0.1,0l0.2-0.2v-0.1l0.1,0l0.2-0.2l0-0.1l0.1,0l0.2-0.2l0-0.1l0.1,0
	l0.2-0.2l0-0.1l0.2,0l0.2-0.2l0-0.1h0.2l0.2-0.2l0-0.1h0.2l0.2-0.2l0-0.1l0.1,0l0.2-0.1l0-0.1l0.1,0l0.2-0.1l0-0.1l0.1,0l0.2-0.1
	l0.1-0.1l0.1,0l0.3-0.1l0.1-0.1l0.1,0l0.3-0.1l0.1-0.1l0.1,0l0.3-0.1l0.1-0.1l0.1,0l0.3-0.1l0.1-0.1l0.1,0.1l0.3-0.1l0.1-0.1
	l0.1,0.1l0.3,0l0.1-0.1l0.1,0.1l0.3,0l0.1-0.1l0.1,0.1l0.3,0l0.1-0.1l0.1,0.1l0.3,0l0.1-0.1l0.1,0.1h0.3l0.1-0.1l0.1,0.1l0.3,0
	l0.1-0.1l0.1,0.1l0.3,0l0.1-0.1l0.1,0.1l0.3,0l0.1-0.1l0.1,0.1l0.3,0l0.1-0.1l0.1,0.1l0.3,0.1l0.1-0.1l0.1,0.1l0.3,0.1l0.1,0
	l0.1,0.1l0.3,0.1l0.1,0l0.1,0.1l0.3,0.1l0.1,0l0.1,0.1l0.3,0.1l0.1,0l0.1,0.1l0.2,0.1l0.1,0l0.1,0.1l0.2,0.1l0.1,0l0.1,0.1l0.2,0.1
	l0.1,0l0.1,0.1l0.2,0.2l0.1,0l0,0.1l0.2,0.2h0.1l0,0.1l0.2,0.2h0.1l0,0.1l0.2,0.2h0.1l0,0.1l0.2,0.2l0.1,0l0,0.1l0.2,0.2l0.1,0
	l0,0.1l0.2,0.2l0.1,0l0,0.2l0.2,0.2l0.1,0v0.2l0.2,0.2l0.1,0v0.2l0.2,0.2l0.1,0l0,0.1l0.1,0.2l0.1,0l0,0.1l0.1,0.2l0.1,0l0,0.1
	l0.1,0.2l0.1,0.1l0,0.1l0.1,0.3l0.1,0.1l0,0.1l0.1,0.3l0.1,0.1l0,0.1l0.1,0.3l0.1,0.1l0,0.1l0.1,0.3l0.1,0.1l-0.1,0.1l0.1,0.3
	l0.1,0.1l-0.1,0.1l0,0.3l0.1,0.1l-0.1,0.1l0,0.3l0.1,0.1l-0.1,0.1l0,0.3l0.1,0.1l-0.1,0.1l0,0.3l0.1,0.1l-0.1,0.1v0.3l0.1,0.1
	l-0.1,0.1l0,0.3l0.1,0.1l-0.1,0.1l0,0.3l0.1,0.1l-0.1,0.1l0,0.3l0.1,0.1l-0.1,0.1l0,0.3l0.1,0.1l-0.1,0.1l-0.1,0.3l0.1,0.1l-0.1,0.1
	l-0.1,0.3l0,0.1l-0.1,0.1l-0.1,0.3l0,0.1l-0.1,0.2l-0.1,0.3l0,0.1l-0.1,0.1l-0.1,0.3l0,0.1l-0.1,0.1l-0.1,0.2l0,0.1l-0.1,0.1
	l-0.1,0.2l0,0.1l-0.1,0.1l-0.1,0.2l0,0.1L99.9,85l-0.2,0.2l0,0.1l-0.1,0l-0.2,0.2v0.1l-0.1,0l-0.2,0.2v0.1l-0.1,0l-0.2,0.2v0.1
	l-0.1,0l-0.2,0.2l0,0.1l-0.1,0l-0.2,0.2l0,0.1l-0.1,0l-0.2,0.2l0,0.1l-0.2,0l-0.2,0.2l0,0.1h-0.2L97,88.1l0,0.1h-0.2l-0.2,0.2l0,0.1
	l-0.1,0l-0.2,0.1l0,0.1l-0.1,0l-0.2,0.1l0,0.1l-0.1,0l-0.2,0.1l-0.1,0.1l-0.1,0L94.8,89.3z"/>
<path fill="#CF157D" d="M95.2,79c0-0.9,0.4-1.8,1-2.3c-0.9,0-1.7-0.3-2.4-0.9c-0.6-0.6-1-1.5-0.9-2.4c-0.6,0.6-1.4,1-2.3,1
	c-0.9,0-1.8-0.4-2.3-1c0,0.9-0.3,1.7-0.9,2.4c-0.6,0.6-1.5,1-2.4,0.9c0.6,0.6,1,1.4,1,2.3c0,0.9-0.4,1.8-1,2.3
	c0.9,0,1.7,0.3,2.4,0.9c0.6,0.6,1,1.5,0.9,2.4c0.6-0.6,1.4-1,2.3-1c0.9,0,1.8,0.4,2.3,1c0-0.9,0.3-1.7,0.9-2.4
	c0.6-0.6,1.5-1,2.4-0.9C95.6,80.7,95.2,79.9,95.2,79z M90.5,82.4c-1.9,0-3.4-1.5-3.4-3.4c0-1.9,1.5-3.4,3.4-3.4
	c1.9,0,3.4,1.5,3.4,3.4C93.9,80.9,92.4,82.4,90.5,82.4z"/>
<path fill="#4FC5D5" d="M101.8,78.7l-0.1-0.1l0-0.3l0.1-0.1l-0.1-0.1l0-0.3l0.1-0.1l-0.1-0.1l0-0.3l0.1-0.1l-0.1-0.1l0-0.3l0.1-0.1
	l-0.1-0.1l-0.1-0.3l0.1-0.1l-0.1-0.1l-0.1-0.3l0-0.1l-0.1-0.1l-0.1-0.3l0-0.1l-0.1-0.1l-0.1-0.3l0-0.1l-0.1-0.1l-0.1-0.3l0-0.1
	l-0.1-0.1l-0.1-0.2l0-0.1l-0.1,0l-0.1-0.2l0-0.1l-0.1,0l-0.1-0.2l0-0.1L99.9,73l-0.2-0.2v-0.2l-0.1,0l-0.2-0.2v-0.2l-0.1,0l-0.2-0.2
	l0-0.2l-0.1,0l-0.2-0.2l0-0.1l-0.1,0l-0.2-0.2l0-0.1l-0.1,0l-0.2-0.2l0-0.1H98l-0.2-0.2l0-0.1h-0.1l-0.2-0.2l0-0.1h-0.1L97,69.9
	l0-0.1l-0.1,0l-0.2-0.2l-0.1-0.1l-0.1,0l-0.2-0.1l-0.1-0.1l-0.1,0l-0.2-0.1L95.6,69l-0.1,0l-0.2-0.1l-0.1-0.1l-0.1,0l-0.3-0.1
	l-0.1-0.1l-0.1,0l-0.3-0.1l-0.1-0.1l-0.1,0l-0.3-0.1l-0.1-0.1l-0.1,0l-0.3-0.1l-0.1-0.1l-0.1,0.1l-0.3-0.1L92.8,68L92.7,68l-0.3,0
	l-0.1-0.1l-0.1,0.1l-0.3,0l-0.1-0.1l-0.1,0.1l-0.3,0l-0.1-0.1l-0.1,0.1l-0.3,0l-0.1-0.1l-0.1,0.1h-0.3l-0.1-0.1l-0.1,0.1l-0.3,0
	l-0.1-0.1l-0.1,0.1l-0.3,0l-0.1-0.1l-0.1,0.1l-0.3,0l-0.1-0.1L88.7,68l-0.3,0L88.3,68l-0.1,0.1l-0.3,0.1l-0.1-0.1l-0.1,0.1l-0.3,0.1
	l-0.1,0l-0.1,0.1L87,68.4l-0.1,0l-0.1,0.1l-0.3,0.1l-0.1,0l-0.1,0.1L86,68.8l-0.1,0l-0.1,0.1L85.6,69l-0.1,0l0,0.1l-0.2,0.1l-0.1,0
	l0,0.1l-0.2,0.1l-0.1,0l0,0.1l-0.2,0.2h-0.2l0,0.1L83.9,70h-0.2l0,0.1l-0.2,0.2l-0.2,0l0,0.1l-0.2,0.2l-0.1,0l0,0.1L82.8,71l-0.1,0
	l0,0.1l-0.2,0.2l-0.1,0v0.1l-0.2,0.2l-0.1,0v0.1l-0.2,0.2l-0.1,0v0.1l-0.2,0.2l-0.1,0l0,0.1l-0.2,0.2L81.1,73l0,0.1l-0.1,0.2
	l-0.1,0.1l0,0.1l-0.1,0.2l-0.1,0.1l0,0.1l-0.1,0.2l-0.1,0.1l0,0.1l-0.1,0.3l-0.1,0.1l0,0.1l-0.1,0.3L80,75.3l0,0.1l-0.1,0.3
	l-0.1,0.1l0,0.1l-0.1,0.3l-0.1,0.1l0.1,0.1l-0.1,0.3l-0.1,0.1l0.1,0.1l0,0.3l-0.1,0.1l0.1,0.1l0,0.3l-0.1,0.1l0.1,0.1l0,0.3
	l-0.1,0.1l0.1,0.1l0,0.3l-0.1,0.1l0.1,0.1v0.3l-0.1,0.1l0.1,0.1l0,0.3l-0.1,0.1l0.1,0.1l0,0.3l-0.1,0.1l0.1,0.1l0,0.3l-0.1,0.1
	l0.1,0.1l0,0.3l-0.1,0.1l0.1,0.1l0.1,0.3l-0.1,0.1l0.1,0.1l0.1,0.3l0,0.1l0.1,0.1l0.1,0.3l0,0.1l0.1,0.1l0.1,0.3l0,0.1l0.1,0.1
	l0.1,0.3l0,0.1l0.1,0.1l0.1,0.2l0,0.1l0.1,0l0.1,0.2l0,0.1l0.1,0l0.1,0.2l0,0.1l0.1,0l0.2,0.2v0.2l0.1,0l0.2,0.2v0.2l0.1,0l0.2,0.2
	l0,0.2l0.1,0l0.2,0.2l0,0.1l0.1,0l0.2,0.2l0,0.1l0.1,0l0.2,0.2l0,0.1h0.1l0.2,0.2l0,0.1h0.1l0.2,0.2l0,0.1h0.1l0.2,0.2l0,0.1l0.1,0
	l0.2,0.2l0.1,0.1l0.1,0l0.2,0.1l0.1,0.1l0.1,0l0.2,0.1l0.1,0.1l0.1,0l0.2,0.1l0.1,0.1l0.1,0l0.3,0.1l0.1,0.1l0.1,0l0.3,0.1l0.1,0.1
	l0.1,0l0.3,0.1l0.1,0.1l0.1,0l0.3,0.1l0.1,0.1l0.1-0.1l0.3,0.1l0.1,0.1l0.1-0.1l0.3,0l0.1,0.1l0.1-0.1l0.3,0l0.1,0.1l0.1-0.1l0.3,0
	l0.1,0.1l0.1-0.1l0.3,0l0.1,0.1l0.1-0.1h0.3l0.1,0.1l0.1-0.1l0.3,0l0.1,0.1l0.1-0.1l0.3,0l0.1,0.1l0.1-0.1l0.3,0l0.1,0.1l0.1-0.1
	l0.3,0l0.1,0.1l0.1-0.1l0.3-0.1l0.1,0.1l0.1-0.1l0.3-0.1l0.1,0l0.1-0.1l0.3-0.1l0.1,0l0.1-0.1l0.3-0.1l0.1,0l0.1-0.1l0.3-0.1l0.1,0
	l0.1-0.1l0.2-0.1l0.1,0l0-0.1l0.2-0.1l0.1,0l0-0.1l0.2-0.1l0.1,0l0-0.1l0.2-0.2h0.2l0-0.1l0.2-0.2h0.2l0-0.1l0.2-0.2l0.2,0l0-0.1
	l0.2-0.2l0.1,0l0-0.1l0.2-0.2l0.1,0l0-0.1l0.2-0.2l0.1,0v-0.1l0.2-0.2l0.1,0V86l0.2-0.2l0.1,0v-0.1l0.2-0.2l0.1,0l0-0.1l0.2-0.2
	l0.1-0.1l0-0.1l0.1-0.2l0.1-0.1l0-0.1l0.1-0.2l0.1-0.1l0-0.1l0.1-0.2l0.1-0.1l0-0.1l0.1-0.3l0.1-0.1l0-0.1l0.1-0.3l0.1-0.1l0-0.1
	l0.1-0.3l0.1-0.1l0-0.1l0.1-0.3l0.1-0.1l-0.1-0.1l0.1-0.3l0.1-0.1l-0.1-0.1l0-0.3l0.1-0.1l-0.1-0.1l0-0.3l0.1-0.1l-0.1-0.1l0-0.3
	l0.1-0.1l-0.1-0.1l0-0.3l0.1-0.1l-0.1-0.1L101.8,78.7L101.8,78.7z M98.4,82.2C98.3,82.2,98.3,82.2,98.4,82.2
	C98.3,82.2,98.3,82.2,98.4,82.2c1.2,1.3,1.2,3.4,0,4.6s-3.3,1.3-4.5,0c0,0,0,0-0.1-0.1c0,0,0,0.1,0,0.1c0,1.8-1.4,3.2-3.2,3.2
	s-3.2-1.4-3.2-3.2c0,0,0-0.1,0-0.1c0,0,0,0.1-0.1,0.1c-1.3,1.3-3.3,1.3-4.5,0c-1.3-1.3-1.3-3.3,0-4.5c0,0,0,0,0.1-0.1
	c0,0-0.1,0-0.1,0c-1.8,0-3.2-1.4-3.2-3.2s1.4-3.2,3.2-3.2c0,0,0.1,0,0.1,0c0,0-0.1,0-0.1-0.1c-1.3-1.3-1.3-3.3,0-4.5
	c1.3-1.3,3.3-1.3,4.5,0c0,0,0,0,0.1,0.1c0,0,0-0.1,0-0.1c0-1.8,1.4-3.2,3.2-3.2s3.2,1.4,3.2,3.2c0,0,0,0.1,0,0.1c0,0,0-0.1,0.1-0.1
	c1.3-1.3,3.3-1.3,4.5,0s1.3,3.3,0,4.5c0,0,0,0-0.1,0.1c0,0,0.1,0,0.1,0c1.8,0,3.2,1.4,3.2,3.2C101.6,80.7,100.2,82.2,98.4,82.2z"/>
<path fill="#8BC641" d="M96.3,62.3c-0.7,0-1.3,0.6-1.3,1.3v0.3h2.6v-0.3C97.6,62.9,97,62.3,96.3,62.3z"/>
<path fill="#8BC641" d="M99.1,62.3c-0.7,0-1.3,0.6-1.3,1.3v0.3h2.6v-0.3C100.4,62.9,99.9,62.3,99.1,62.3z"/>
<path fill="#8BC641" d="M93.4,62.3c-0.7,0-1.3,0.6-1.3,1.3v0.3h2.6v-0.3C94.7,62.9,94.1,62.3,93.4,62.3z"/>
<path fill="#8BC641" d="M102,62.3c-0.7,0-1.3,0.6-1.3,1.3v0.3h2.6v-0.3C103.3,62.9,102.7,62.3,102,62.3z"/>
<path fill="#8BC641" d="M104.9,62.3c-0.7,0-1.3,0.6-1.3,1.3v0.3h2.6v-0.3C106.2,62.9,105.6,62.3,104.9,62.3z"/>
<path fill="#8BC641" d="M87.7,62.3c-0.7,0-1.3,0.6-1.3,1.3v0.3H89v-0.3C89,62.9,88.4,62.3,87.7,62.3z"/>
<path fill="#8BC641" d="M79.1,62.3c-0.7,0-1.3,0.6-1.3,1.3v0.3h2.6v-0.3C80.4,62.9,79.8,62.3,79.1,62.3z"/>
<path fill="#8BC641" d="M90.5,62.3c-0.7,0-1.3,0.6-1.3,1.3v0.3h2.6v-0.3C91.8,62.9,91.3,62.3,90.5,62.3z"/>
<path fill="#8BC641" d="M76.2,62.3c-0.7,0-1.3,0.6-1.3,1.3v0.3h2.6v-0.3C77.5,62.9,76.9,62.3,76.2,62.3z"/>
<path fill="#8BC641" d="M84.8,62.3c-0.7,0-1.3,0.6-1.3,1.3v0.3h2.6v-0.3C86.1,62.9,85.5,62.3,84.8,62.3z"/>
<path fill="#8BC641" d="M81.9,62.3c-0.7,0-1.3,0.6-1.3,1.3v0.3h2.6v-0.3C83.2,62.9,82.7,62.3,81.9,62.3z"/>
<path fill="#161543" d="M123.8,84.5v-0.9c0-0.7-0.6-1.3-1.3-1.3c-0.7,0-1.3,0.6-1.3,1.3v0.9h-0.2v-0.9c0-0.7-0.6-1.3-1.3-1.3
	s-1.3,0.6-1.3,1.3v0.9h-0.3v-0.9c0-0.7-0.6-1.3-1.3-1.3s-1.3,0.6-1.3,1.3v0.9h-0.2v-0.9c0-0.7-0.6-1.3-1.3-1.3s-1.3,0.6-1.3,1.3v0.9
	h-0.2v-0.9c0-0.7-0.6-1.3-1.3-1.3s-1.3,0.6-1.3,1.3v0.9h-0.3v-0.9c0-0.7-0.6-1.3-1.3-1.3s-1.3,0.6-1.3,1.3v0.9v2.2v40.7h17"/>
<polygon fill="#4959A7" points="115.2,66.3 115.2,66.3 106.2,81.8 124.3,81.8 "/>
<path fill="#D0DD29" d="M119.6,82.2c-0.7,0-1.3,0.6-1.3,1.3v0.3h2.6v-0.3C120.9,82.8,120.3,82.2,119.6,82.2z"/>
<path fill="#D0DD29" d="M111,82.2c-0.7,0-1.3,0.6-1.3,1.3v0.3h2.6v-0.3C112.3,82.8,111.7,82.2,111,82.2z"/>
<path fill="#D0DD29" d="M122.5,82.2c-0.7,0-1.3,0.6-1.3,1.3v0.3h2.6v-0.3C123.8,82.8,123.2,82.2,122.5,82.2z"/>
<path fill="#D0DD29" d="M108.1,82.2c-0.7,0-1.3,0.6-1.3,1.3v0.3h2.6v-0.3C109.5,82.8,108.9,82.2,108.1,82.2z"/>
<path fill="#D0DD29" d="M116.7,82.2c-0.7,0-1.3,0.6-1.3,1.3v0.3h2.6v-0.3C118.1,82.8,117.5,82.2,116.7,82.2z"/>
<path fill="#D0DD29" d="M113.9,82.2c-0.7,0-1.3,0.6-1.3,1.3v0.3h2.6v-0.3C115.2,82.8,114.6,82.2,113.9,82.2z"/>
<path fill="#A24B24" d="M106.2,81.8v2.8h0.7v-0.1v-0.9c0-0.7,0.6-1.3,1.3-1.3s1.3,0.6,1.3,1.3v0.9h0.2v-0.9c0-0.7,0.6-1.3,1.3-1.3
	s1.3,0.6,1.3,1.3v0.9h0.2v-0.9c0-0.7,0.6-1.3,1.3-1.3c0.7,0,1.3,0.6,1.3,1.3v0.9h0.2v-0.9c0-0.7,0.6-1.3,1.3-1.3s1.3,0.6,1.3,1.3
	v0.9h0.2v-0.9c0-0.7,0.6-1.3,1.3-1.3s1.3,0.6,1.3,1.3v0.9h0.2v-0.9c0-0.7,0.6-1.3,1.3-1.3s1.3,0.6,1.3,1.3v0.9v0.1h0.6v-2.8
	L106.2,81.8L106.2,81.8z"/>
<path fill="#D2A12A" d="M123.8,91.5h-5.1v-0.1c0-1.9-1.5-3.4-3.4-3.4s-3.4,1.5-3.4,3.4v0.1h-5v-0.2h4.9c0-1.9,1.6-3.5,3.5-3.5
	s3.5,1.6,3.5,3.5h5L123.8,91.5L123.8,91.5z"/>
<path fill="#832A8A" d="M112.1,104.2c-0.6,0-1.1,0.5-1.1,1.1v2.7h2.2v-2.7C113.2,104.7,112.8,104.2,112.1,104.2z"/>
<path fill="#832A8A" d="M115.2,104.2c-0.6,0-1.1,0.5-1.1,1.1v2.7h2.2v-2.7C116.3,104.7,115.8,104.2,115.2,104.2z"/>
<path fill="#832A8A" d="M118.3,104.2c-0.6,0-1.1,0.5-1.1,1.1v2.7h2.2v-2.7C119.4,104.7,118.9,104.2,118.3,104.2z"/>
<path fill="#832A8A" d="M116.9,91.4c-0.6,0-1.1,0.5-1.1,1.1v2.7h2.2v-2.7C118.1,91.9,117.5,91.4,116.9,91.4z"/>
<path fill="#FFCF1D" d="M115.3,92l0.1-0.4c0-0.6,0.7-1.1,1.3-1.1c0.6,0,1.4,0.5,1.4,1.1v-0.3c0-1.3-1.2-2.6-2.8-2.6
	s-2.8,1.4-2.8,2.6v0.3c0-0.6,0.8-1.1,1.4-1.1c0.6,0,1.3,0.5,1.3,1.1L115.3,92z"/>
<path fill="#832A8A" d="M113.6,91.4c-0.6,0-1.1,0.5-1.1,1.1v2.7h2.2v-2.7C114.7,91.9,114.2,91.4,113.6,91.4z"/>
<path fill="#7DC243" d="M115.8,92.6c0-0.6,0.5-1.1,1.1-1.1c0.6,0,1.1,0.5,1.1,1.1v-0.9c0-0.6-0.8-1.1-1.4-1.1
	c-0.6,0-1.3,0.5-1.3,1.1l-0.1,0.4l-0.1-0.4c0-0.6-0.7-1.1-1.3-1.1c-0.6,0-1.4,0.5-1.4,1.1v0.9c0-0.6,0.5-1.1,1.1-1.1
	c0.6,0,1.1,0.5,1.1,1.1H115.8z"/>
<rect x="112.2" y="95.3" fill="#2B3C90" width="6.2" height="1.6"/>
<rect x="112.6" y="96.9" fill="#C2B59C" width="5.4" height="1.6"/>
<rect x="106.8" y="110.4" fill="#2B3C90" width="17" height="1.6"/>
<rect x="114.7" y="92.6" fill="#5ABDEC" width="1.1" height="2.7"/>
<circle fill="#D2A12A" cx="115.3" cy="89.8" r="1"/>
<circle fill="#342F81" cx="115.3" cy="89.8" r="0.9"/>
<circle fill="#6BBE46" cx="115.3" cy="89.8" r="0.8"/>
<g>
	<path fill="#5FBDEB" d="M118.4,95.3h-0.3v-3.9c0-1.2-1.2-2.6-2.8-2.6s-2.8,1.4-2.8,2.6v3.9h-0.3v-3.9c0-1.4,1.3-2.9,3.1-2.9
		s3.1,1.6,3.1,2.9V95.3z"/>
</g>
<rect x="106.8" y="110.2" fill="#F89521" width="17" height="0.2"/>
<rect x="110.4" y="107.9" fill="#F89521" width="9.7" height="0.2"/>
<rect x="112.2" y="98.5" fill="#F89521" width="6.2" height="0.2"/>
<path fill="#832A8A" d="M95.5,109.7c-1.8,0-3.3,1.5-3.3,3.3v8.1h6.7v-8.1C98.8,111.2,97.4,109.7,95.5,109.7z"/>
<path fill="#FFCF1D" d="M90.5,111.4l0.3-1.1c0-1.8,2-3.3,3.9-3.3c1.8,0,4.2,1.5,4.2,3.3v-1c0-3.9-3.7-7.9-8.3-7.9
	c-4.6,0-8.3,4-8.3,7.9v1c0-1.8,2.3-3.3,4.2-3.3s3.9,1.5,3.9,3.3L90.5,111.4z"/>
<path fill="#832A8A" d="M85.5,109.7c-1.8,0-3.3,1.5-3.3,3.3v8.1h6.7v-8.1C88.8,111.2,87.4,109.7,85.5,109.7z"/>
<path fill="#7DC243" d="M92.2,113.1c0-1.8,1.5-3.3,3.3-3.3c1.8,0,3.3,1.5,3.3,3.3v-2.8c0-1.8-2.3-3.3-4.2-3.3s-3.9,1.5-3.9,3.3
	l-0.3,1.1l-0.3-1.1c0-1.8-2-3.3-3.9-3.3c-1.8,0-4.2,1.5-4.2,3.3v2.8c0-1.8,1.5-3.3,3.3-3.3c1.8,0,3.3,1.5,3.3,3.3H92.2z"/>
<rect x="81.3" y="121.1" fill="#603A17" width="18.5" height="2.1"/>
<rect x="79.9" y="123.2" fill="#764E2A" width="21.3" height="2.1"/>
<rect x="78" y="125.2" fill="#8B5F3D" width="25" height="2.1"/>
<rect x="88.8" y="113.1" fill="#5ABDEC" width="3.3" height="8.1"/>
<circle fill="#D2A12A" cx="90.5" cy="104.7" r="2.9"/>
<circle fill="#342F81" cx="90.5" cy="104.7" r="2.6"/>
<circle fill="#6BBE46" cx="90.5" cy="104.7" r="2.5"/>
<g>
	<path fill="#282561" d="M99.8,121.1h-0.9v-11.8c0-3.7-3.6-7.9-8.3-7.9s-8.3,4.2-8.3,7.9v11.8h-0.9v-11.8c0-4.1,4-8.8,9.3-8.8
		c5.3,0,9.3,4.6,9.3,8.8V121.1z"/>
</g>
<rect x="108" y="101.3" fill="#F89523" width="0.4" height="0.4"/>
<rect x="108.7" y="101.3" fill="#F89523" width="0.4" height="0.4"/>
<rect x="109.3" y="101.3" fill="#F89523" width="0.4" height="0.4"/>
<rect x="110" y="101.3" fill="#F89523" width="0.4" height="0.4"/>
<rect x="110.7" y="101.3" fill="#F89523" width="0.4" height="0.4"/>
<rect x="111.4" y="101.3" fill="#F89523" width="0.4" height="0.4"/>
<rect x="112.1" y="101.3" fill="#F89523" width="0.4" height="0.4"/>
<rect x="112.7" y="101.3" fill="#F89523" width="0.4" height="0.4"/>
<rect x="113.4" y="101.3" fill="#F89523" width="0.4" height="0.4"/>
<rect x="114.1" y="101.3" fill="#F89523" width="0.4" height="0.4"/>
<rect x="114.8" y="101.3" fill="#F89523" width="0.4" height="0.4"/>
<rect x="115.5" y="101.3" fill="#F89523" width="0.4" height="0.4"/>
<rect x="116.1" y="101.3" fill="#F89523" width="0.4" height="0.4"/>
<rect x="116.8" y="101.3" fill="#F89523" width="0.4" height="0.4"/>
<rect x="117.5" y="101.3" fill="#F89523" width="0.4" height="0.4"/>
<rect x="118.2" y="101.3" fill="#F89523" width="0.4" height="0.4"/>
<rect x="118.9" y="101.3" fill="#F89523" width="0.4" height="0.4"/>
<rect x="119.6" y="101.3" fill="#F89523" width="0.4" height="0.4"/>
<rect x="120.2" y="101.3" fill="#F89523" width="0.4" height="0.4"/>
<rect x="120.9" y="101.3" fill="#F89523" width="0.4" height="0.4"/>
<rect x="121.6" y="101.3" fill="#F89523" width="0.4" height="0.4"/>
<rect x="122.3" y="101.3" fill="#F89523" width="0.4" height="0.4"/>
<rect x="108.3" y="101" fill="#F89523" width="0.4" height="0.4"/>
<rect x="109" y="101" fill="#F89523" width="0.4" height="0.4"/>
<rect x="109.7" y="101" fill="#F89523" width="0.4" height="0.4"/>
<rect x="110.4" y="101" fill="#F89523" width="0.4" height="0.4"/>
<rect x="111" y="101" fill="#F89523" width="0.4" height="0.4"/>
<rect x="111.7" y="101" fill="#F89523" width="0.4" height="0.4"/>
<rect x="112.4" y="101" fill="#F89523" width="0.4" height="0.4"/>
<rect x="113.1" y="101" fill="#F89523" width="0.4" height="0.4"/>
<rect x="113.8" y="101" fill="#F89523" width="0.4" height="0.4"/>
<rect x="114.5" y="101" fill="#F89523" width="0.4" height="0.4"/>
<rect x="115.1" y="101" fill="#F89523" width="0.4" height="0.4"/>
<rect x="115.8" y="101" fill="#F89523" width="0.4" height="0.4"/>
<rect x="116.5" y="101" fill="#F89523" width="0.4" height="0.4"/>
<rect x="117.2" y="101" fill="#F89523" width="0.4" height="0.4"/>
<rect x="117.9" y="101" fill="#F89523" width="0.4" height="0.4"/>
<rect x="118.6" y="101" fill="#F89523" width="0.4" height="0.4"/>
<rect x="119.2" y="101" fill="#F89523" width="0.4" height="0.4"/>
<rect x="119.9" y="101" fill="#F89523" width="0.4" height="0.4"/>
<rect x="120.6" y="101" fill="#F89523" width="0.4" height="0.4"/>
<rect x="121.3" y="101" fill="#F89523" width="0.4" height="0.4"/>
<rect x="122" y="101" fill="#F89523" width="0.4" height="0.4"/>
<path fill="#5FBDEB" d="M112.5,127.4v-9.7c0-1.2,1.2-2.6,2.8-2.6s2.8,1.4,2.8,2.6v9.7h0.3v-9.7c0-1.4-1.3-2.9-3.1-2.9
	s-3.1,1.6-3.1,2.9v9.7H112.5z"/>
<path fill="#D8E028" d="M118.1,127.4v-9.7c0-1.2-1.2-2.6-2.8-2.6s-2.8,1.4-2.8,2.6v9.7"/>
<rect x="106.8" y="124.1" fill="#F89521" width="5.3" height="0.2"/>
<rect x="118.4" y="124.1" fill="#F89521" width="5.4" height="0.2"/>
<rect x="106.8" y="124.5" fill="#F89521" width="5.3" height="0.2"/>
<rect x="118.4" y="124.5" fill="#F89521" width="5.4" height="0.2"/>
<path fill="#161543" d="M74.3,84.5v-0.9c0-0.7-0.6-1.3-1.3-1.3s-1.3,0.6-1.3,1.3v0.9h-0.2v-0.9c0-0.7-0.6-1.3-1.3-1.3
	c-0.7,0-1.3,0.6-1.3,1.3v0.9h-0.2v-0.9c0-0.7-0.6-1.3-1.3-1.3c-0.7,0-1.3,0.6-1.3,1.3v0.9h-0.2v-0.9c0-0.7-0.6-1.3-1.3-1.3
	s-1.3,0.6-1.3,1.3v0.9h-0.2v-0.9c0-0.7-0.6-1.3-1.3-1.3c-0.7,0-1.3,0.6-1.3,1.3v0.9h-0.2v-0.9c0-0.7-0.6-1.3-1.3-1.3
	c-0.7,0-1.3,0.6-1.3,1.3v0.9v2.2v40.7h17"/>
<polygon fill="#4959A7" points="65.8,66.3 65.8,66.3 56.7,81.8 74.9,81.8 "/>
<path fill="#D0DD29" d="M70.2,82.3c-0.7,0-1.3,0.6-1.3,1.3v0.3h2.6v-0.3C71.5,82.9,70.9,82.3,70.2,82.3z"/>
<path fill="#D0DD29" d="M61.6,82.3c-0.7,0-1.3,0.6-1.3,1.3v0.3h2.6v-0.3C62.9,82.9,62.3,82.3,61.6,82.3z"/>
<path fill="#D0DD29" d="M73,82.3c-0.7,0-1.3,0.6-1.3,1.3v0.3h2.6v-0.3C74.3,82.9,73.8,82.3,73,82.3z"/>
<path fill="#D0DD29" d="M58.7,82.3c-0.7,0-1.3,0.6-1.3,1.3v0.3H60v-0.3C60,82.9,59.4,82.3,58.7,82.3z"/>
<path fill="#D0DD29" d="M67.3,82.3c-0.7,0-1.3,0.6-1.3,1.3v0.3h2.6v-0.3C68.6,82.9,68,82.3,67.3,82.3z"/>
<path fill="#D0DD29" d="M64.4,82.3c-0.7,0-1.3,0.6-1.3,1.3v0.3h2.6v-0.3C65.7,82.9,65.2,82.3,64.4,82.3z"/>
<path fill="#A24B24" d="M56.7,81.8v2.8h0.7v-0.1v-0.9c0-0.7,0.6-1.3,1.3-1.3s1.3,0.6,1.3,1.3v0.9h0.2v-0.9c0-0.7,0.6-1.3,1.3-1.3
	c0.7,0,1.3,0.6,1.3,1.3v0.9h0.2v-0.9c0-0.7,0.6-1.3,1.3-1.3s1.3,0.6,1.3,1.3v0.9H66v-0.9c0-0.7,0.6-1.3,1.3-1.3s1.3,0.6,1.3,1.3v0.9
	h0.2v-0.9c0-0.7,0.6-1.3,1.3-1.3s1.3,0.6,1.3,1.3v0.9h0.2v-0.9c0-0.7,0.6-1.3,1.3-1.3c0.7,0,1.3,0.6,1.3,1.3v0.9v0.1h0.6v-2.8H56.7z
	"/>
<path fill="#D2A12A" d="M74.3,91.5h-5.1v-0.1c0-1.9-1.5-3.4-3.4-3.4c-1.9,0-3.4,1.5-3.4,3.4v0.1h-5v-0.2h4.9c0-1.9,1.6-3.5,3.5-3.5
	c1.9,0,3.5,1.6,3.5,3.5h5L74.3,91.5L74.3,91.5z"/>
<path fill="#832A8A" d="M62.7,104.2c-0.6,0-1.1,0.5-1.1,1.1v2.7h2.2v-2.7C63.8,104.7,63.3,104.2,62.7,104.2z"/>
<path fill="#832A8A" d="M65.8,104.2c-0.6,0-1.1,0.5-1.1,1.1v2.7h2.2v-2.7C66.9,104.7,66.4,104.2,65.8,104.2z"/>
<path fill="#832A8A" d="M68.9,104.2c-0.6,0-1.1,0.5-1.1,1.1v2.7H70v-2.7C70,104.7,69.5,104.2,68.9,104.2z"/>
<path fill="#832A8A" d="M67.5,91.5c-0.6,0-1.1,0.5-1.1,1.1v2.7h2.2v-2.7C68.6,92,68.1,91.5,67.5,91.5z"/>
<path fill="#FFCF1D" d="M65.8,92.1l0.1-0.4c0-0.6,0.7-1.1,1.3-1.1c0.6,0,1.4,0.5,1.4,1.1v-0.3c0-1.3-1.2-2.6-2.8-2.6
	c-1.5,0-2.8,1.4-2.8,2.6v0.3c0-0.6,0.8-1.1,1.4-1.1c0.6,0,1.3,0.5,1.3,1.1L65.8,92.1z"/>
<path fill="#832A8A" d="M64.2,91.5c-0.6,0-1.1,0.5-1.1,1.1v2.7h2.2v-2.7C65.3,92,64.8,91.5,64.2,91.5z"/>
<path fill="#7DC243" d="M66.4,92.6c0-0.6,0.5-1.1,1.1-1.1c0.6,0,1.1,0.5,1.1,1.1v-0.9c0-0.6-0.8-1.1-1.4-1.1c-0.6,0-1.3,0.5-1.3,1.1
	l-0.1,0.4l-0.1-0.4c0-0.6-0.7-1.1-1.3-1.1c-0.6,0-1.4,0.5-1.4,1.1v0.9c0-0.6,0.5-1.1,1.1-1.1c0.6,0,1.1,0.5,1.1,1.1H66.4z"/>
<rect x="62.8" y="95.3" fill="#2B3C90" width="6.2" height="1.6"/>
<rect x="63.1" y="96.9" fill="#C2B59C" width="5.4" height="1.6"/>
<rect x="57.4" y="110.4" fill="#2B3C90" width="17" height="1.6"/>
<rect x="65.3" y="92.6" fill="#5ABDEC" width="1.1" height="2.7"/>
<circle fill="#D2A12A" cx="65.8" cy="89.8" r="1"/>
<circle fill="#342F81" cx="65.8" cy="89.8" r="0.9"/>
<circle fill="#6BBE46" cx="65.8" cy="89.8" r="0.8"/>
<g>
	<path fill="#5FBDEB" d="M68.9,95.3h-0.3v-3.9c0-1.2-1.2-2.6-2.8-2.6s-2.8,1.4-2.8,2.6v3.9h-0.3v-3.9c0-1.4,1.3-2.9,3.1-2.9
		c1.8,0,3.1,1.6,3.1,2.9V95.3z"/>
</g>
<rect x="57.4" y="110.2" fill="#F89521" width="17" height="0.2"/>
<rect x="61" y="107.9" fill="#F89521" width="9.7" height="0.2"/>
<rect x="62.8" y="98.5" fill="#F89521" width="6.2" height="0.2"/>
<rect x="58.5" y="101.4" fill="#F89523" width="0.4" height="0.4"/>
<rect x="59.2" y="101.4" fill="#F89523" width="0.4" height="0.4"/>
<rect x="59.9" y="101.4" fill="#F89523" width="0.4" height="0.4"/>
<rect x="60.6" y="101.4" fill="#F89523" width="0.4" height="0.4"/>
<rect x="61.3" y="101.4" fill="#F89523" width="0.4" height="0.4"/>
<rect x="61.9" y="101.4" fill="#F89523" width="0.4" height="0.4"/>
<rect x="62.6" y="101.4" fill="#F89523" width="0.4" height="0.4"/>
<rect x="63.3" y="101.4" fill="#F89523" width="0.4" height="0.4"/>
<rect x="64" y="101.4" fill="#F89523" width="0.4" height="0.4"/>
<rect x="64.7" y="101.4" fill="#F89523" width="0.4" height="0.4"/>
<rect x="65.4" y="101.4" fill="#F89523" width="0.4" height="0.4"/>
<rect x="66" y="101.4" fill="#F89523" width="0.4" height="0.4"/>
<rect x="66.7" y="101.4" fill="#F89523" width="0.4" height="0.4"/>
<rect x="67.4" y="101.4" fill="#F89523" width="0.4" height="0.4"/>
<rect x="68.1" y="101.4" fill="#F89523" width="0.4" height="0.4"/>
<rect x="68.8" y="101.4" fill="#F89523" width="0.4" height="0.4"/>
<rect x="69.4" y="101.4" fill="#F89523" width="0.4" height="0.4"/>
<rect x="70.1" y="101.4" fill="#F89523" width="0.4" height="0.4"/>
<rect x="70.8" y="101.4" fill="#F89523" width="0.4" height="0.4"/>
<rect x="71.5" y="101.4" fill="#F89523" width="0.4" height="0.4"/>
<rect x="72.2" y="101.4" fill="#F89523" width="0.4" height="0.4"/>
<rect x="72.9" y="101.4" fill="#F89523" width="0.4" height="0.4"/>
<rect x="58.9" y="101" fill="#F89523" width="0.4" height="0.4"/>
<rect x="59.6" y="101" fill="#F89523" width="0.4" height="0.4"/>
<rect x="60.3" y="101" fill="#F89523" width="0.4" height="0.4"/>
<rect x="60.9" y="101" fill="#F89523" width="0.4" height="0.4"/>
<rect x="61.6" y="101" fill="#F89523" width="0.4" height="0.4"/>
<rect x="62.3" y="101" fill="#F89523" width="0.4" height="0.4"/>
<rect x="63" y="101" fill="#F89523" width="0.4" height="0.4"/>
<rect x="63.7" y="101" fill="#F89523" width="0.4" height="0.4"/>
<rect x="64.3" y="101" fill="#F89523" width="0.4" height="0.4"/>
<rect x="65" y="101" fill="#F89523" width="0.4" height="0.4"/>
<rect x="65.7" y="101" fill="#F89523" width="0.4" height="0.4"/>
<rect x="66.4" y="101" fill="#F89523" width="0.4" height="0.4"/>
<rect x="67.1" y="101" fill="#F89523" width="0.4" height="0.4"/>
<rect x="67.8" y="101" fill="#F89523" width="0.4" height="0.4"/>
<rect x="68.4" y="101" fill="#F89523" width="0.4" height="0.4"/>
<rect x="69.1" y="101" fill="#F89523" width="0.4" height="0.4"/>
<rect x="69.8" y="101" fill="#F89523" width="0.4" height="0.4"/>
<rect x="70.5" y="101" fill="#F89523" width="0.4" height="0.4"/>
<rect x="71.2" y="101" fill="#F89523" width="0.4" height="0.4"/>
<rect x="71.9" y="101" fill="#F89523" width="0.4" height="0.4"/>
<rect x="72.5" y="101" fill="#F89523" width="0.4" height="0.4"/>
<path fill="#5FBDEB" d="M63.1,127.5v-9.7c0-1.2,1.2-2.6,2.8-2.6s2.8,1.4,2.8,2.6v9.7h0.3v-9.7c0-1.4-1.3-2.9-3.1-2.9
	c-1.8,0-3.1,1.6-3.1,2.9v9.7H63.1z"/>
<path fill="#D8E028" d="M68.6,127.5v-9.7c0-1.2-1.2-2.6-2.8-2.6s-2.8,1.4-2.8,2.6v9.7"/>
<rect x="57.4" y="124.2" fill="#F89521" width="5.3" height="0.2"/>
<rect x="68.9" y="124.2" fill="#F89521" width="5.4" height="0.2"/>
<rect x="57.4" y="124.6" fill="#F89521" width="5.3" height="0.2"/>
<rect x="68.9" y="124.6" fill="#F89521" width="5.4" height="0.2"/>
<path fill="#2B3C90" d="M90.5,99.1c-5.9,0-10.6,5.6-10.6,10.2v13.9h1.4v-2h0v-11.8c0-4.1,4-8.8,9.3-8.8c5.3,0,9.3,4.6,9.3,8.8v11.8
	h0v2h1.4v-13.9C101.1,104.7,96.4,99.1,90.5,99.1z"/>
<path fill="#2075BC" d="M90.5,97.2c-6.7,0-12.5,7-12.5,12.2v15.9h1.9v-2.5h0v-13.4c0-4.7,4.6-10.3,10.6-10.3c6,0,10.6,5.6,10.6,10.3
	v13.4h0v2.5h1.9v-15.9C103,104.1,97.2,97.2,90.5,97.2z"/>
<path fill="#29AAE1" d="M103,127.3h2v-18.2c0-6.1-6.7-14.1-14.5-14.1S76,103,76,109.1v18.2h2v-2.1l0,0v-15.9c0-3.6,2.7-7.9,6.5-10.3
	c0,0,0.1,0,0.1-0.1c0,0,0,0,0,0c0.7-0.4,1.4-0.8,2.2-1.1c0,0,0,0,0,0c0.1,0,0.1,0,0.2-0.1c1.1-0.4,2.2-0.6,3.4-0.6
	c1.2,0,2.3,0.2,3.4,0.6c0.1,0,0.1,0,0.2,0.1c0,0,0,0,0,0c0.8,0.3,1.5,0.6,2.2,1.1c0,0,0,0,0,0c0,0,0.1,0,0.1,0.1
	c3.8,2.4,6.5,6.8,6.5,10.3v15.9"/>
<path fill="#8EC641" d="M90.5,92.7c-8.8,0-16.2,9.2-16.2,16.1v18.7h2v-0.2H76v-18.2c0-6.1,6.7-14.1,14.5-14.1S105,103,105,109.1
	v18.2h-0.2v0.1h2.1v-18.7C106.9,101.9,99.4,92.7,90.5,92.7z"/>
<path fill="#FCEE23" d="M77,100.8C77,100.8,77,100.8,77,100.8c0.2-0.3,0.4-0.6,0.6-0.9c0,0,0,0,0,0c0.3-0.4,0.7-0.9,1-1.3
	c0,0,0,0,0,0c0.2-0.3,0.5-0.5,0.8-0.8c0,0,0,0,0,0c0.1-0.1,0.2-0.2,0.4-0.4c0,0,0,0,0,0c0.3-0.2,0.5-0.5,0.8-0.7c0,0,0,0,0.1,0
	c0.3-0.2,0.6-0.5,0.8-0.7c0,0,0,0,0.1,0c0.1-0.1,0.2-0.2,0.4-0.3c0,0,0,0,0.1,0c0.2-0.1,0.3-0.2,0.4-0.3l0,0
	c0.1-0.1,0.3-0.2,0.4-0.3c0,0,0.1,0,0.1-0.1c0.1-0.1,0.3-0.2,0.4-0.2c0,0,0,0,0,0c0.2-0.1,0.3-0.2,0.5-0.2c0,0,0.1,0,0.1,0
	c0.1-0.1,0.2-0.1,0.4-0.2c0,0,0.1,0,0.1,0c0.2-0.1,0.3-0.2,0.5-0.2c0,0,0,0,0,0c0.2-0.1,0.3-0.1,0.4-0.2c0,0,0.1,0,0.1,0
	c0.1,0,0.3-0.1,0.4-0.2c0,0,0.1,0,0.1,0c0.2-0.1,0.3-0.1,0.5-0.2c0,0,0.1,0,0.1,0c0.1,0,0.3-0.1,0.4-0.1c0,0,0.1,0,0.1,0
	c0.2,0,0.3-0.1,0.5-0.1h0c0.2,0,0.3-0.1,0.5-0.1c0,0,0.1,0,0.1,0c0.1,0,0.3,0,0.4-0.1c0,0,0.1,0,0.1,0c0.2,0,0.3,0,0.5-0.1
	c0,0,0.1,0,0.1,0c0.1,0,0.3,0,0.4,0c0,0,0.1,0,0.1,0c0.2,0,0.3,0,0.5,0c0.2,0,0.3,0,0.5,0c0,0,0.1,0,0.1,0c0.1,0,0.3,0,0.4,0
	c0,0,0.1,0,0.1,0c0.2,0,0.3,0,0.5,0.1c0,0,0.1,0,0.1,0c0.1,0,0.3,0,0.4,0.1c0,0,0.1,0,0.1,0c0.2,0,0.3,0.1,0.5,0.1h0
	c0.2,0,0.3,0.1,0.5,0.1c0,0,0.1,0,0.1,0c0.1,0,0.3,0.1,0.4,0.1c0,0,0.1,0,0.1,0c0.2,0,0.3,0.1,0.5,0.2c0,0,0.1,0,0.1,0
	c0.1,0,0.3,0.1,0.4,0.2c0,0,0.1,0,0.1,0c0.2,0.1,0.3,0.1,0.4,0.2c0,0,0,0,0,0c0.2,0.1,0.3,0.1,0.5,0.2c0,0,0.1,0,0.1,0
	c0.1,0.1,0.3,0.1,0.4,0.2c0,0,0.1,0,0.1,0c0.2,0.1,0.3,0.2,0.5,0.2c0,0,0,0,0,0c0.1,0.1,0.3,0.2,0.4,0.2c0,0,0.1,0,0.1,0.1
	c0.2,0.1,0.3,0.2,0.4,0.3l0,0c0.2,0.1,0.3,0.2,0.4,0.3c0,0,0,0,0.1,0c0.1,0.1,0.3,0.2,0.4,0.3c0,0,0,0,0.1,0
	c0.3,0.2,0.6,0.4,0.8,0.7c0,0,0,0,0.1,0c0.3,0.2,0.6,0.5,0.8,0.7c0,0,0,0,0,0c0.1,0.1,0.2,0.2,0.4,0.4c0,0,0,0,0,0
	c0.3,0.3,0.5,0.5,0.8,0.8c0,0,0,0,0,0c0.4,0.4,0.7,0.8,1.1,1.3c0,0,0,0,0,0c0.2,0.3,0.4,0.6,0.6,0.9c0,0,0,0,0,0
	c0.3,0.5,0.6,0.9,0.8,1.4l0,0l0,0c0.9,1.7,1.6,3.5,1.8,5.1l0,0l0-3.2v-8.3L90.6,79L74.3,95.9v11.6h0C74.6,105.3,75.6,102.9,77,100.8
	z"/>
<polygon fill="#3DB54A" points="106.9,98.1 90.6,81.2 74.3,98.1 74.3,95.9 90.6,79 106.8,95.9 "/>
<circle fill="#D2A12A" cx="90.5" cy="87.9" r="3.4"/>
<circle fill="#342F81" cx="90.5" cy="87.9" r="2.6"/>
<circle fill="#6BBE46" cx="90.5" cy="87.9" r="2.5"/>
<g>
	<path fill="#019547" d="M91.8,86.7c0-0.1,0-0.1-0.1-0.1h-0.2l0,0h-0.1c0-0.4-0.4-0.5-0.9-0.5c-0.5,0-0.8,0.1-0.9,0.5l-0.1-0.1
		c0,0-0.1-0.1-0.1-0.1c0,0-0.1,0.1-0.1,0.1l0,0.1h0c-0.1,0-0.1,0-0.1,0.1c0,0.1,0,0.1,0.1,0.1h0.2l0,0l0,0h0.1v1.5v1.1
		c0,0.1,0,0.1,0.1,0.1h0.4h0.8h0.4c0.1,0,0.1,0,0.1-0.1v-1.1v-0.7l0,0v-0.8l0,0.1c0,0,0,0.1,0.1,0.1c0,0,0,0,0,0
		c0,0,0.1-0.1,0.1-0.1l0-0.1h0C91.7,86.8,91.8,86.7,91.8,86.7z M91,88.3l-0.4-0.2c0,0,0,0-0.1,0v-0.6c0,0,0-0.1,0-0.1c0,0,0,0-0.1,0
		l-0.6,0.1v-0.6h0.2l0,0c0,0,0,0.1,0,0.1c0,0,0,0,0,0c0,0,0.1,0,0.1,0l0.1-0.2h0.2l0,0l0,0h0.3v0.1c0,0.1,0,0.1,0.1,0.1
		c0.1,0,0.1,0,0.1-0.1v-0.1h0.2v0.6l-0.4-0.1c-0.1,0-0.1,0-0.1,0.1s0,0.1,0.1,0.1l0.1,0c0,0.1,0.1,0.1,0.1,0.1c0,0,0.1,0,0.1,0
		l0.1,0v0.2C91.3,88,91.2,88.2,91,88.3L91,88.3C91.1,88.3,91,88.3,91,88.3z M90.1,88.3C90.1,88.3,90,88.3,90.1,88.3L90,88.4
		c-0.1-0.1-0.2-0.3-0.2-0.5v-0.3l0.1,0c0,0,0.1,0.1,0.1,0.1c0.1,0,0.1,0,0.1-0.1l0.1,0v0.6L90.1,88.3z M90.5,86.2
		c0.4,0,0.6,0,0.7,0.3h-0.5l0,0c0,0,0-0.1,0-0.1c0,0-0.1,0-0.1,0l-0.1,0.2h-0.3v-0.1c0-0.1,0-0.1-0.1-0.1s-0.1,0-0.1,0.1v0.1h-0.2
		C89.9,86.2,90.2,86.2,90.5,86.2z M89.8,88.4c0.1,0.1,0.1,0.1,0.2,0.2v0.6h-0.2V88.4z M90.2,88.4l0.3-0.2l0.3,0.2v0.8h-0.6
		L90.2,88.4L90.2,88.4z M91.1,89.3v-0.6c0.1,0,0.1-0.1,0.2-0.2v0.8L91.1,89.3L91.1,89.3z"/>
	<path fill="#019547" d="M90.7,88.5l-0.1,0l-0.1,0c-0.1,0-0.1,0-0.1,0.1s0,0.1,0.1,0.1l0.1,0.1l0.1-0.1c0.1,0,0.1,0,0.1-0.1
		S90.7,88.5,90.7,88.5z"/>
</g>
<g id="Logo">
	<polygon fill="#030303" points="411.2,59.6 400.8,59.6 400.8,70.2 411.2,70.2 404.1,64.9 	"/>
	<path fill="#030303" d="M421.7,59.8l-2.5,3.2l-2.7-3.5l-2.7,3.5l-2.6-3.5v10.5h10.6l0,0h9.8V59.6h-10.3L421.7,59.8z M421.9,69.8
		l-0.1-4.8l3.3,2.6L421.9,69.8z M421.9,64.8l-0.1-4.8l3.2,2.3L421.9,64.8z"/>
	<polygon fill="#030303" points="440.1,60.3 439.8,60.3 436.4,65.5 436.4,60.3 436.1,60.3 436.1,69.6 436.4,69.6 436.4,66.1 
		437.1,65 440,69.6 440.3,69.6 437.2,64.7 	"/>
	<path fill="#030303" d="M444.9,67.3c0,1.1-0.4,2.1-1.7,2.1c-1.2,0-1.7-1-1.7-2.1v-6.9h-0.3v6.9c0,1.3,0.5,2.3,1.9,2.3
		c1.4,0,1.9-1.1,1.9-2.3v-6.9h-0.2V67.3z"/>
	<polygon fill="#030303" points="446.4,60.3 446.2,60.3 446.2,69.6 449.6,69.6 449.6,69.3 446.4,69.3 	"/>
	<polygon fill="#030303" points="449.6,60.6 451.7,60.6 451.7,69.6 452,69.6 452,60.6 454,60.6 454,60.3 449.6,60.3 	"/>
	<path fill="#030303" d="M458.3,67.3c0,1.1-0.4,2.1-1.7,2.1c-1.3,0-1.7-1-1.7-2.1v-6.9h-0.3v6.9c0,1.3,0.5,2.3,1.9,2.3
		c1.4,0,1.9-1.1,1.9-2.3v-6.9h-0.3v6.9H458.3z"/>
	<path fill="#030303" d="M463.3,67c0-1-0.5-1.7-1.4-1.9c1-0.2,1.4-0.8,1.4-2v-0.8c0-1.3-0.5-2.1-1.9-2.1h-1.8v9.3h0.3v-4.3h1.1
		c1.2,0,2,0.4,2,1.7v1.4c0,0.4,0.1,0.8,0.2,1.1h0.3c-0.2-0.3-0.2-0.8-0.2-1.1L463.3,67L463.3,67z M460,65v-4.5h1.5
		c1.2,0,1.7,0.7,1.7,1.8v0.8c0,1.4-0.8,1.7-2,1.7L460,65L460,65z"/>
	<polygon fill="#030303" points="470,69.1 468.5,60.4 468.1,60.4 466.5,69.1 464.9,60.3 464.6,60.3 466.3,69.6 466.7,69.6 468.3,61 
		469.8,69.6 470.1,69.6 471.8,60.3 471.5,60.3 	"/>
	<polygon fill="#030303" points="472.8,69.6 476.3,69.6 476.3,69.3 473.1,69.3 473.1,65 475.8,65 475.8,64.8 473.1,64.8 473.1,60.6 
		476.3,60.6 476.3,60.3 472.8,60.3 	"/>
	<path fill="#030303" d="M481.1,67c0-1-0.5-1.7-1.4-1.9c1-0.2,1.4-0.8,1.4-2v-0.8c0-1.3-0.5-2.1-1.9-2.1h-1.8v9.3h0.3v-4.3h1.1
		c1.2,0,2,0.4,2,1.7v1.4c0,0.4,0.1,0.8,0.2,1.1h0.3c-0.2-0.3-0.2-0.8-0.2-1.1L481.1,67L481.1,67z M477.7,65v-4.5h1.5
		c1.2,0,1.7,0.7,1.7,1.8v0.8c0,1.4-0.8,1.7-2,1.7L477.7,65L477.7,65z"/>
	<polygon fill="#030303" points="486.4,60.3 486.1,60.3 482.7,65.5 482.7,60.3 482.4,60.3 482.4,69.6 482.7,69.6 482.7,66.1 
		483.4,65 486.4,69.6 486.7,69.6 483.6,64.7 	"/>
	<path fill="#030303" d="M487.9,62.5c0-1.1,0.4-2,1.7-2c1.2,0,1.6,0.9,1.6,2v0.2h0.3v-0.2c0-1.3-0.5-2.3-1.9-2.3s-1.9,0.9-1.9,2.3
		c0,2.6,3.5,2.5,3.5,4.8c0,1.1-0.5,2-1.7,2s-1.7-0.9-1.7-2v-0.5h-0.3v0.5c0,1.3,0.5,2.3,2,2.3s2-1,2-2.3
		C491.5,64.8,487.9,64.9,487.9,62.5z"/>
	<polygon fill="#030303" points="492.2,60.6 494.2,60.6 494.2,69.6 494.5,69.6 494.5,60.6 496.5,60.6 496.5,60.3 492.2,60.3 	"/>
	<path fill="#030303" d="M499,60.3l-2.3,9.3h0.3l0.5-2.2h3.3l0.5,2.2h0.3l-2.3-9.3H499z M497.7,67.1l1.6-6.5l1.6,6.5H497.7z"/>
	<polygon fill="#030303" points="502,60.6 504,60.6 504,69.6 504.3,69.6 504.3,60.6 506.3,60.6 506.3,60.3 502,60.3 	"/>
	<polygon fill="#030303" points="506.8,60.6 508.8,60.6 508.8,69.6 509.1,69.6 509.1,60.6 511.2,60.6 511.2,60.3 506.8,60.3 	"/>
	<path fill="#030303" d="M516.3,64.6c1.1-0.2,1.4-0.8,1.4-1.8v-0.6c0-1.2-0.5-1.9-1.8-1.9H514v9.3h1.9c1.4,0,2-0.8,2-2.1v-0.8
		C517.8,65.5,517.4,64.8,516.3,64.6z M514.3,60.6h1.6c1.1,0,1.5,0.6,1.5,1.7v0.6c0,1.4-0.6,1.7-1.9,1.7h-1.2V60.6z M517.5,67.4
		c0,1.1-0.5,1.9-1.7,1.9h-1.6v-4.5h1.4c1.3,0,1.9,0.5,1.9,1.8V67.4z"/>
	<polygon fill="#030303" points="518.9,69.6 522.4,69.6 522.4,69.3 519.2,69.3 519.2,65 521.9,65 521.9,64.8 519.2,64.8 519.2,60.6 
		522.4,60.6 522.4,60.3 518.9,60.3 	"/>
	<path fill="#030303" d="M527.2,67c0-1-0.5-1.7-1.4-1.9c1-0.2,1.4-0.8,1.4-2v-0.8c0-1.3-0.5-2.1-1.9-2.1h-1.8v9.3h0.3v-4.3h1.1
		c1.2,0,2,0.4,2,1.7v1.4c0,0.4,0.1,0.8,0.2,1.1h0.3c-0.2-0.3-0.2-0.8-0.2-1.1L527.2,67L527.2,67z M523.7,65v-4.5h1.5
		c1.2,0,1.7,0.7,1.7,1.8v0.8c0,1.4-0.8,1.7-2,1.7L523.7,65L523.7,65z"/>
	<polygon fill="#030303" points="528.8,60.3 528.5,60.3 528.5,69.6 531.9,69.6 531.9,69.3 528.8,69.3 	"/>
	<rect x="532.8" y="60.3" fill="#030303" width="0.3" height="9.3"/>
	<polygon fill="#030303" points="537.8,60.3 537.8,69 534.6,60.3 534.2,60.3 534.2,69.6 534.5,69.6 534.5,60.8 537.7,69.6 
		538.1,69.6 538.1,60.3 	"/>
</g>
<rect x="356.2" y="81.6" fill="none" width="181.9" height="39.2"/>
<text transform="matrix(1 0 0 1 456.2451 90.1096)"><tspan x="0" y="0" font-family="'MyriadPro-Regular'" font-size="12">Auguststraße 90</tspan><tspan x="19.8" y="14.4" font-family="'MyriadPro-Regular'" font-size="12">10117 Berlin</tspan></text>
<rect x="56.7" y="142.7" fill="none" width="227.4" height="8.8"/>
<text transform="matrix(1 0 0 1 56.6924 148.4254)" fill="#808080" font-family="'MyriadPro-Regular'" font-size="8">Evangelische Kulturwerkstatt Berlin - Auguststraße 90 - 10117 Berlin</text>
<rect x="56.7" y="171.4" fill="none" width="227.4" height="87.7"/>
<text transform="matrix(1 0 0 1 56.6924 179.8783)"><tspan x="0" y="0" font-family="'MyriadPro-Regular'" font-size="12">Empfänger Unternehmen </tspan><tspan x="0" y="14.4" font-family="'MyriadPro-Regular'" font-size="12">Abteilung</tspan><tspan x="0" y="28.8" font-family="'MyriadPro-Regular'" font-size="12">Vorname Nachname</tspan><tspan x="0" y="57.6" font-family="'MyriadPro-Regular'" font-size="12">PLZ Ort </tspan></text>
<rect x="310.7" y="285.3" fill="none" width="227.4" height="12.3"/>
<text transform="matrix(1 0 0 1 310.7165 293.8363)" font-family="'MyriadPro-Regular'" font-size="12">Ort, Datum</text>
<rect x="56.7" y="332.7" fill="none" width="481.4" height="493.3"/>
<text transform="matrix(1 0 0 1 56.6924 341.1867)"><tspan x="0" y="0" font-family="'MyriadPro-Regular'" font-size="12">Sehr geehrte Damen und Herren,</tspan><tspan x="0" y="28.8" font-family="'MyriadPro-Regular'" font-size="12">Lorem ipsum dolor sit amet, consetetur sadipscing elitr, sed diam nonumy eirmod tempor </tspan><tspan x="0" y="43.2" font-family="'MyriadPro-Regular'" font-size="12">invidunt ut labore et dolore magna aliquyam erat, sed diam voluptua. At vero eos et accusam et </tspan><tspan x="0" y="57.6" font-family="'MyriadPro-Regular'" font-size="12">justo duo dolores et ea rebum. Stet clita kasd gubergren, no sea takimata sanctus est Lorem </tspan><tspan x="0" y="72" font-family="'MyriadPro-Regular'" font-size="12">ipsum dolor sit amet. Lorem ipsum dolor sit amet, consetetur sadipscing elitr, sed diam nonumy </tspan><tspan x="0" y="86.4" font-family="'MyriadPro-Regular'" font-size="12">eirmod tempor invidunt ut labore et dolore magna aliquyam erat, sed diam voluptua. At vero </tspan><tspan x="0" y="100.8" font-family="'MyriadPro-Regular'" font-size="12">eos et accusam et justo duo dolores et ea rebum. Stet clita kasd gubergren, no sea takimata </tspan><tspan x="0" y="115.2" font-family="'MyriadPro-Regular'" font-size="12">sanctus est Lorem ipsum dolor sit amet.</tspan><tspan x="0" y="129.6" font-family="'MyriadPro-Regular'" font-size="12">Mit freundlichen Grüßen,</tspan><tspan x="0" y="172.8" font-family="'MyriadPro-Regular'" font-size="12">Unterschrift</tspan><tspan x="0" y="201.6" font-family="'MyriadPro-Regular'" font-size="12">Vorname Nachname</tspan></text>
<rect x="56.7" y="297.6" fill="none" width="481.4" height="17.3"/>
<text transform="matrix(1 0 0 1 56.6924 306.1573)" font-family="'MyriadPro-Regular'" font-size="12">Betreff</text>
<line fill="none" stroke="#808080" stroke-miterlimit="10" x1="56.7" y1="151.5" x2="297.6" y2="151.5"/>
</svg>
