<svg version="1.1" id="Layer_1" xmlns="http://www.w3.org/2000/svg" xmlns:xlink="http://www.w3.org/1999/xlink" x="0px" y="0px"
	 viewBox="0 0 155.9 240.9" enable-background="new 0 0 155.9 240.9" xml:space="preserve">

<defs>
<filter id="overlay" filterUnits="objectBoundingBox" x="0%" y="0%" width="100%" height="100%">
  <feBlend in="SourceGraphic" mode="overlay"/>
  <feBlend in="SourceGraphic" mode="overlay"/>
</filter>
<filter id="grayscale">
  <feColorMatrix type="saturate" values="0"/>
</filter>
</defs>

<image id="background_image" xlink:href="" x="0" y="0" filter=""/> 
<rect id="svg_x5F_background" fill="#FFFFFF" width="155.9" height="240.9"/>
<g>
	<polygon fill="#FFFFFF" points="18.8,82.1 77.9,15.8 136.9,82.1 136.9,86.7 18.8,86.7 	"/>
	<polygon fill="#CEE6CE" points="12.9,92.6 12.9,79.9 77.9,6.9 142.8,79.9 142.8,92.6 	"/>
	<polygon fill="#A1C5E8" points="18.8,82.1 77.9,15.8 136.9,82.1 136.9,86.7 18.8,86.7 	"/>
</g>
<path fill="#FFCF1D" d="M56.7,69.6l0.3-1.2c0-2,2.2-3.6,4.1-3.6s4.4,1.6,4.4,3.6v-1c0-4.1-4-7.4-8.9-7.4s-8.9,3.3-8.9,7.4v1
	c0-2,2.5-3.6,4.4-3.6s4.1,1.6,4.1,3.6L56.7,69.6z"/>
<path fill="#832A8A" d="M51.4,67.8c-1.9,0-3.5,1.6-3.5,3.6V80H55v-8.6C55,69.4,53.4,67.8,51.4,67.8z"/>
<path fill="#832A8A" d="M62,67.8c-1.9,0-3.5,1.6-3.5,3.6V80h7.1v-8.6C65.6,69.4,64,67.8,62,67.8z"/>
<path fill="#7DC243" d="M58.5,71.4c0-2,1.6-3.6,3.5-3.6s3.5,1.6,3.5,3.6v-3c0-2-2.5-3.6-4.4-3.6S57,66.4,57,68.4l-0.3,1.2l-0.3-1.2
	c0-2-2.2-3.6-4.1-3.6s-4.4,1.6-4.4,3.6v3c0-2,1.6-3.6,3.5-3.6s3.5,1.6,3.5,3.6H58.5z"/>
<rect x="47.9" y="80" fill="#FFD25B" width="17.7" height="3.6"/>
<rect x="55" y="71.4" fill="#5ABDEC" width="3.5" height="8.6"/>
<circle fill="#766DB1" cx="77.9" cy="48" r="8.9"/>
<circle fill="#FAA544" cx="77.9" cy="48" r="7.7"/>
<line fill="none" x1="18.8" y1="85.2" x2="26.5" y2="85.2"/>
<line fill="none" x1="129.3" y1="85.2" x2="136.9" y2="85.2"/>
<path fill="#FFFFFF" d="M133.9,23.2"/>
<path fill="#FFFFFF" d="M128,23.2"/>
<path fill="#FFFFFF" d="M130.9,28"/>
<path fill="#FFFFFF" d="M130.9,19.7"/>
<g>
	<path fill="#6B60AA" d="M77.9,16L18.8,82.3l0,3.1h7.5v-4.7c0-1.9,1.4-3.5,3-3.5c1.3,0,2.5,1,2.9,2.4h0.2v0h0.9v-7.1
		c0-1.9,1.4-3.5,3-3.5c1.4,0,2.7,1.2,3,2.7l0,0c0,0,0,0,0.1,0v-0.1h0.9v-7.1c0-1.9,1.4-3.5,3-3.5c1.4,0,2.7,1.2,3,2.8
		c0,0,0.1,0,0.1,0v-0.1h0.9v-7.1c0-1.9,1.4-3.5,3-3.5c1.4,0,2.7,1.2,3,2.8c0,0,0.1,0,0.1,0v-0.1H54v-7.1c0-1.9,1.4-3.5,3-3.5
		c1.4,0,2.6,1.2,3,2.7c0,0,0.1,0,0.1,0v0h0.9v-7.1c0-1.9,1.4-3.5,3-3.5c1.4,0,2.7,1.2,3,2.8c0,0,0.1,0,0.1,0v-0.1h0.9v-7.1
		c0-1.9,1.4-3.5,3-3.5c1.4,0,2.6,1.2,3,2.7c0,0,0,0,0.1,0c0,0,0,0,0,0V32h0.9v-7.1c0-1.9,1.4-3.5,3-3.5c1.7,0,3,1.6,3,3.5V32h0.9
		v0.1c0,0,0.1,0,0.1,0c0.3-1.6,1.5-2.8,3-2.8c1.7,0,3,1.6,3,3.5v7.1h0.9V40c0,0,0.1,0,0.1,0c0.3-1.6,1.5-2.8,3-2.8
		c1.7,0,3,1.6,3,3.5v7.1h0.9v0c0,0,0.1,0,0.1,0l0,0c0.3-1.6,1.5-2.7,3-2.7c1.7,0,3,1.6,3,3.5v7.1h0.9v0.1h0c0,0,0,0,0,0
		c0.3-1.6,1.5-2.8,3-2.8c1.7,0,3,1.6,3,3.5v7.1h0.9v0.1c0,0,0.1,0,0.1,0c0.3-1.6,1.5-2.8,3-2.8c1.7,0,3,1.6,3,3.5v7.1h0.7
		c0.1,0,0.1,0,0.2,0c0,0,0.1,0,0.1,0c0.3-1.5,1.5-2.7,2.9-2.7c1.7,0,3,1.6,3,3.5v7.1h0.9v0h0.2c0.4-1.4,1.5-2.4,2.9-2.4
		c1.7,0,3,1.6,3,3.5v4.7h7.6v-3.1L77.9,16z"/>
</g>
<rect x="12.9" y="94.1" fill="#5ABDEC" width="129.9" height="127"/>
<rect x="12.9" y="92.6" fill="#EE4B95" width="129.9" height="1.5"/>
<rect x="26.4" y="83.6" fill="#F68F53" width="103" height="1.6"/>
<path fill="#FFCF1D" d="M77.9,69.6l0.3-1.2c0-2,2.2-3.6,4.1-3.6c1.9,0,4.4,1.6,4.4,3.6v-1c0-4.1-4-7.4-8.9-7.4
	C73,60,69,63.3,69,67.4v1c0-2,2.5-3.6,4.4-3.6c1.9,0,4.1,1.6,4.1,3.6L77.9,69.6z"/>
<path fill="#832A8A" d="M72.6,67.8c-1.9,0-3.5,1.6-3.5,3.6V80h7.1v-8.6C76.1,69.4,74.5,67.8,72.6,67.8z"/>
<path fill="#832A8A" d="M83.2,67.8c-1.9,0-3.5,1.6-3.5,3.6V80h7.1v-8.6C86.7,69.4,85.1,67.8,83.2,67.8z"/>
<path fill="#7DC243" d="M79.6,71.4c0-2,1.6-3.6,3.5-3.6c1.9,0,3.5,1.6,3.5,3.6v-3c0-2-2.5-3.6-4.4-3.6c-1.9,0-4.1,1.6-4.1,3.6
	l-0.3,1.2l-0.3-1.2c0-2-2.2-3.6-4.1-3.6c-1.9,0-4.4,1.6-4.4,3.6v3c0-2,1.6-3.6,3.5-3.6c1.9,0,3.5,1.6,3.5,3.6H79.6z"/>
<rect x="69" y="80" fill="#FFD25B" width="17.7" height="3.6"/>
<rect x="76.1" y="71.4" fill="#5ABDEC" width="3.5" height="8.6"/>
<path fill="#FFCF1D" d="M99.1,69.6l0.3-1.2c0-2,2.2-3.6,4.1-3.6s4.4,1.6,4.4,3.6v-1c0-4.1-4-7.4-8.9-7.4s-8.9,3.3-8.9,7.4v1
	c0-2,2.5-3.6,4.4-3.6c1.9,0,4.1,1.6,4.1,3.6L99.1,69.6z"/>
<path fill="#832A8A" d="M93.8,67.8c-1.9,0-3.5,1.6-3.5,3.6V80h7.1v-8.6C97.4,69.4,95.8,67.8,93.8,67.8z"/>
<path fill="#832A8A" d="M104.5,67.8c-1.9,0-3.5,1.6-3.5,3.6V80h7.1v-8.6C108,69.4,106.4,67.8,104.5,67.8z"/>
<path fill="#7DC243" d="M100.9,71.4c0-2,1.6-3.6,3.5-3.6c1.9,0,3.5,1.6,3.5,3.6v-3c0-2-2.5-3.6-4.4-3.6s-4.1,1.6-4.1,3.6l-0.3,1.2
	l-0.3-1.2c0-2-2.2-3.6-4.1-3.6c-1.9,0-4.4,1.6-4.4,3.6v3c0-2,1.6-3.6,3.5-3.6c1.9,0,3.5,1.6,3.5,3.6H100.9z"/>
<rect x="90.3" y="80" fill="#FFD25B" width="17.7" height="3.6"/>
<rect x="97.4" y="71.4" fill="#5ABDEC" width="3.5" height="8.6"/>
<path fill="#CD4B9A" d="M89.7,69.3h-2.4v-1.9c0-4.4-4.3-8-9.4-8c-5.2,0-9.4,3.6-9.4,8v1.9h-2.2v-1.9c0-4.4-4.3-8-9.4-8
	s-9.4,3.6-9.4,8v1.9h-0.6v-1.9c0-4.7,4.5-8.6,10-8.6s10,3.9,10,8.6v1.3h1.1v-1.3c0-4.7,4.5-8.6,10-8.6s10,3.9,10,8.6v1.3h1.2v-1.3
	c0-4.7,4.5-8.6,10-8.6s10,3.9,10,8.6v1.9h-0.6v-1.9c0-4.4-4.3-8-9.4-8c-5.2,0-9.4,3.6-9.4,8L89.7,69.3L89.7,69.3z"/>
<path fill="#832A8A" d="M105.5,95.9c-1.4,0-2.5,1.1-2.5,2.5v1.8h-0.5v-1.8c0-1.4-1.1-2.5-2.5-2.5c-1.4,0-2.5,1.1-2.5,2.5v1.8H97
	v-1.8c0-1.4-1.1-2.5-2.5-2.5c-1.4,0-2.5,1.1-2.5,2.5v1.8h-0.5v-1.8c0-1.4-1.1-2.5-2.5-2.5s-2.5,1.1-2.5,2.5v1.8H86v-1.8
	c0-1.4-1.1-2.5-2.5-2.5c-1.4,0-2.5,1.1-2.5,2.5v1.8h-0.5v-1.8c0-1.4-1.1-2.5-2.5-2.5c-1.4,0-2.5,1.1-2.5,2.5v1.8H75v-1.8
	c0-1.4-1.1-2.5-2.5-2.5S70,97,70,98.4v1.8h-0.5v-1.8c0-1.4-1.1-2.5-2.5-2.5c-1.4,0-2.5,1.1-2.5,2.5v1.8h-0.5v-1.8
	c0-1.4-1.1-2.5-2.5-2.5c-1.4,0-2.5,1.1-2.5,2.5v1.8h-0.5v-1.8c0-1.4-1.1-2.5-2.5-2.5s-2.5,1.1-2.5,2.5v1.8h-0.5v-1.8
	c0-1.4-1.1-2.5-2.5-2.5s-2.5,1.1-2.5,2.5v1.8v4.3v55.6H108v-55.6v-4.3v-1.8C108,97,106.9,95.9,105.5,95.9z"/>
<circle fill="#FFD25B" cx="77.9" cy="128" r="24.5"/>
<circle fill="#48BAEB" cx="77.9" cy="128" r="23.8"/>
<circle fill="#E57426" cx="77.9" cy="128" r="23"/>
<circle fill="#CF157D" cx="77.9" cy="128" r="21.7"/>
<circle fill="#D2A12A" cx="77.9" cy="128" r="6.6"/>
<circle fill="#342F81" cx="77.9" cy="128" r="5.8"/>
<circle fill="#6BBE46" cx="77.9" cy="128" r="5.6"/>
<circle fill="#D2A12A" cx="77.9" cy="112.9" r="6.2"/>
<circle fill="#D2A12A" cx="67.2" cy="117.3" r="6.2"/>
<circle fill="#D2A12A" cx="62.8" cy="128" r="6.2"/>
<circle fill="#D2A12A" cx="67.3" cy="138.7" r="6.2"/>
<circle fill="#D2A12A" cx="78" cy="143.1" r="6.2"/>
<circle fill="#D2A12A" cx="88.6" cy="138.6" r="6.2"/>
<circle fill="#D2A12A" cx="93" cy="127.9" r="6.2"/>
<circle fill="#D2A12A" cx="88.6" cy="117.3" r="6.2"/>
<circle fill="#342F81" cx="77.9" cy="112.9" r="5.5"/>
<circle fill="#6BBE46" cx="77.9" cy="112.9" r="5.3"/>
<circle fill="#342F81" cx="67.2" cy="117.3" r="5.5"/>
<circle fill="#6BBE46" cx="67.2" cy="117.3" r="5.3"/>
<circle fill="#342F81" cx="62.8" cy="128" r="5.5"/>
<circle fill="#6BBE46" cx="62.8" cy="128" r="5.3"/>
<circle fill="#342F81" cx="67.3" cy="138.7" r="5.5"/>
<circle fill="#6BBE46" cx="67.3" cy="138.7" r="5.3"/>
<circle fill="#342F81" cx="78" cy="143.1" r="5.5"/>
<circle fill="#6BBE46" cx="78" cy="143.1" r="5.3"/>
<circle fill="#342F81" cx="88.6" cy="138.6" r="5.5"/>
<circle fill="#6BBE46" cx="88.6" cy="138.6" r="5.3"/>
<circle fill="#342F81" cx="93" cy="127.9" r="5.5"/>
<circle fill="#6BBE46" cx="93" cy="127.9" r="5.3"/>
<circle fill="#342F81" cx="88.6" cy="117.3" r="5.5"/>
<circle fill="#6BBE46" cx="88.6" cy="117.3" r="5.3"/>
<circle fill="#6BBE46" cx="77.9" cy="128" r="5.6"/>
<path fill="#FCF7BE" d="M100.6,128.3v-0.7l0,0v-0.2v-0.1l0,0l0-0.7l0,0l0-0.2v-0.1l0,0l-0.1-0.7l0,0l0-0.2v-0.1l0,0l-0.1-0.7l0,0
	l0-0.2l0-0.1l0,0l-0.1-0.7l0,0l0-0.2l0-0.1l0,0l-0.1-0.7l0,0l-0.1-0.2l0-0.1l0,0l-0.2-0.7l0,0l-0.1-0.2l0-0.1l0,0l-0.2-0.6l0,0
	l-0.1-0.2l0-0.1l0,0l-0.2-0.6l0,0l-0.1-0.2l-0.1-0.1l0,0l-0.3-0.7l0,0l-0.1-0.2l-0.1-0.1l0,0l-0.3-0.6l0,0l-0.1-0.2l-0.1-0.1l0,0
	l-0.3-0.6l0,0l-0.1-0.2l-0.1-0.1l0,0l-0.4-0.6l0,0l-0.1-0.1l-0.1-0.1l0,0l-0.4-0.6l0,0l-0.1-0.1l-0.1-0.1l0,0l-0.4-0.6l0,0l-0.1-0.1
	l-0.1-0.1l0,0l-0.4-0.5l0,0l-0.1-0.1l-0.1-0.1l0,0l-0.5-0.5l0,0l-0.1-0.1l-0.1-0.1l0,0l-0.5-0.5l0,0l-0.1-0.1l-0.1-0.1l0,0l-0.5-0.5
	l0,0l-0.1-0.1l-0.1-0.1l0,0l-0.5-0.5l0,0l-0.1-0.1l-0.1-0.1l0,0l-0.5-0.4l0,0l-0.1-0.1l-0.1-0.1l0,0l-0.6-0.4l0,0l-0.1-0.1l-0.1-0.1
	l0,0l-0.6-0.4l0,0l-0.2-0.1l-0.1-0.1l0,0l-0.6-0.4l0,0l-0.2-0.1l-0.1-0.1l0,0l-0.6-0.3l0,0l-0.2-0.1l-0.1-0.1l0,0l-0.6-0.3l0,0
	l-0.2-0.1l-0.1-0.1l0,0l-0.6-0.3l0,0l-0.2-0.1l-0.1-0.1l0,0l-0.6-0.2l0,0l-0.2-0.1l-0.1-0.1l0,0l-0.6-0.2l0,0l-0.2-0.1l-0.1,0l0,0
	l-0.7-0.2l0,0l-0.2,0l-0.1,0l0,0l-0.7-0.1l0,0l-0.2,0l-0.1,0l0,0l-0.7-0.1l0,0l-0.2,0l-0.1,0l0,0l-0.7-0.1l0,0l-0.2,0l-0.1,0l0,0
	l-0.7-0.1l0,0h-0.2h-0.1l0,0l-0.7,0l0,0h-0.2h-0.1l0,0h-0.7l0,0h-0.2h-0.1l0,0l-0.7,0l0,0l-0.2,0h-0.1l0,0l-0.7,0.1l0,0l-0.2,0h-0.1
	l0,0l-0.7,0.1l0,0l-0.2,0l-0.1,0l0,0l-0.7,0.1l0,0l-0.2,0l-0.1,0l0,0l-0.7,0.1l0,0l-0.2,0.1l-0.1,0l0,0l-0.7,0.2l0,0l-0.2,0.1
	l-0.1,0l0,0l-0.6,0.2l0,0l-0.2,0.1l-0.1,0l0,0l-0.6,0.2l0,0l-0.2,0.1l-0.1,0.1l0,0l-0.6,0.3l0,0l-0.2,0.1l-0.1,0.1l0,0l-0.6,0.3l0,0
	l-0.2,0.1l-0.1,0.1l0,0l-0.6,0.3l0,0l-0.2,0.1l-0.1,0.1l0,0l-0.6,0.4l0,0l-0.1,0.1l-0.1,0.1l0,0l-0.6,0.4l0,0l-0.2,0l-0.1,0.1l0,0
	l-0.6,0.4l0,0l-0.1,0.1l-0.1,0.1l0,0l-0.5,0.4l0,0l-0.1,0.1l-0.1,0.1l0,0l-0.5,0.5l0,0l-0.1,0.1l-0.1,0.1l0,0l-0.5,0.5l0,0l-0.1,0.1
	l-0.1,0.1l0,0l-0.5,0.5l0,0l-0.1,0.1l-0.1,0.1l0,0l-0.5,0.5l0,0l-0.1,0.1l-0.1,0.1l0,0l-0.4,0.5l0,0l-0.1,0.1l-0.1,0.1l0,0l-0.4,0.6
	l0,0l-0.1,0.1l-0.1,0.1l0,0l-0.4,0.6l0,0l-0.1,0.2l-0.1,0.1l0,0l-0.4,0.6l0,0l-0.1,0.2l-0.1,0.1l0,0l-0.3,0.6l0,0l-0.1,0.2l-0.1,0.1
	l0,0l-0.3,0.6l0,0l-0.1,0.2l-0.1,0.1l0,0l-0.3,0.6l0,0l-0.1,0.2l-0.1,0.1l0,0l-0.2,0.6l0,0l-0.1,0.2l-0.1,0.1l0,0l-0.2,0.6l0,0
	l-0.1,0.2l0,0.1l0,0l-0.2,0.7l0,0l0,0.2l0,0.1l0,0l-0.1,0.7l0,0l0,0.2l0,0.1l0,0l-0.1,0.7l0,0l0,0.2l0,0.1l0,0l-0.1,0.7l0,0l0,0.2
	l0,0.1l0,0l-0.1,0.7l0,0v0.2v0.1l0,0l0,0.7l0,0v0.2v0.1l0,0v0.7l0,0v0.2v0.1l0,0l0,0.7l0,0l0,0.2v0.1l0,0l0.1,0.7l0,0l0,0.2v0.1l0,0
	l0.1,0.7l0,0l0,0.2l0,0.1l0,0l0.1,0.7l0,0l0,0.2l0,0.1l0,0l0.1,0.7l0,0l0.1,0.2l0,0.1l0,0l0.2,0.7l0,0l0.1,0.2l0,0.1l0,0l0.2,0.6
	l0,0l0.1,0.2l0,0.1l0,0l0.2,0.6l0,0l0.1,0.2l0.1,0.1l0,0l0.3,0.6l0,0l0.1,0.2l0.1,0.1l0,0l0.3,0.6l0,0l0.1,0.2l0.1,0.1l0,0l0.3,0.6
	l0,0l0.1,0.2l0.1,0.1l0,0l0.4,0.6l0,0l0.1,0.1l0.1,0.1l0,0l0.4,0.6l0,0l0.1,0.1l0.1,0.1l0,0l0.4,0.6l0,0l0.1,0.1l0.1,0.1l0,0
	l0.4,0.5l0,0l0.1,0.1l0.1,0.1l0,0l0.5,0.5l0,0l0.1,0.1l0.1,0.1l0,0l0.5,0.5l0,0l0.1,0.1l0.1,0.1l0,0l0.5,0.5l0,0l0.1,0.1l0.1,0.1
	l0,0l0.5,0.5l0,0l0.1,0.1l0.1,0.1l0,0l0.5,0.4l0,0l0.1,0.1l0.1,0.1l0,0l0.6,0.4l0,0l0.1,0.1l0.1,0.1l0,0l0.6,0.4l0,0l0.2,0.1
	l0.1,0.1l0,0l0.6,0.4l0,0l0.2,0.1l0.1,0.1l0,0l0.6,0.3l0,0l0.2,0.1l0.1,0.1l0,0l0.6,0.3l0,0l0.2,0.1l0.1,0.1l0,0l0.6,0.3l0,0
	l0.2,0.1l0.1,0.1l0,0l0.6,0.2l0,0l0.2,0.1l0.1,0.1l0,0l0.6,0.2l0,0l0.2,0.1l0.1,0l0,0l0.7,0.2l0,0l0.2,0l0.1,0l0,0l0.7,0.1l0,0
	l0.2,0l0.1,0l0,0l0.7,0.1l0,0l0.2,0l0.1,0l0,0l0.7,0.1l0,0l0.2,0l0.1,0l0,0l0.7,0.1l0,0h0.2h0.1l0,0l0.7,0l0,0h0.2h0.1l0,0h0.7l0,0
	h0.2h0.1l0,0l0.7,0l0,0l0.2,0h0.1l0,0l0.7-0.1l0,0l0.2,0h0.1l0,0l0.7-0.1l0,0l0.2,0l0.1,0l0,0l0.7-0.1l0,0l0.2,0l0.1,0l0,0l0.7-0.1
	l0,0l0.2-0.1l0.1,0l0,0l0.7-0.2l0,0l0.2-0.1l0.1,0l0,0l0.6-0.2l0,0l0.2-0.1l0.1,0l0,0l0.6-0.2l0,0l0.2-0.1l0.1-0.1l0,0l0.6-0.3l0,0
	l0.2-0.1l0.1-0.1l0,0l0.6-0.3l0,0l0.2-0.1l0.1-0.1l0,0l0.6-0.3l0,0l0.2-0.1l0.1-0.1l0,0l0.6-0.4l0,0L90,147l0.1-0.1l0,0l0.6-0.4l0,0
	l0.1-0.1l0.1-0.1l0,0l0.6-0.4l0,0l0.1-0.1l0.1-0.1l0,0l0.5-0.4l0,0l0.1-0.1l0.1-0.1l0,0l0.5-0.5l0,0l0.1-0.1l0.1-0.1l0,0l0.5-0.5
	l0,0l0.1-0.1l0.1-0.1l0,0l0.5-0.5l0,0l0.1-0.1l0.1-0.1l0,0l0.5-0.5l0,0l0.1-0.1l0.1-0.1l0,0l0.4-0.5l0,0l0.1-0.1l0.1-0.1l0,0
	l0.4-0.6l0,0l0.1-0.1l0.1-0.1l0,0l0.4-0.6l0,0l0.1-0.2l0.1-0.1l0,0l0.4-0.6l0,0l0.1-0.2l0.1-0.1l0,0l0.3-0.6l0,0l0.1-0.2l0.1-0.1
	l0,0l0.3-0.6l0,0l0.1-0.2l0.1-0.1l0,0l0.3-0.6l0,0l0.1-0.2l0.1-0.1l0,0l0.2-0.6l0,0l0.1-0.2l0.1-0.1l0,0l0.2-0.6l0,0l0.1-0.2l0-0.1
	l0,0l0.2-0.7l0,0l0-0.2l0-0.1l0,0l0.1-0.7l0,0l0-0.2l0-0.1l0,0l0.1-0.7l0,0l0-0.2l0-0.1l0,0l0.1-0.7l0,0l0-0.2l0-0.1l0,0l0.1-0.7
	l0,0v-0.2v-0.1l0,0l0-0.7l0,0v-0.2l0,0L100.6,128.3L100.6,128.3z M86.1,147.8l-0.1,0.2l-0.3-0.1l-0.5,0.2l-0.1,0.2l-0.3-0.1
	l-0.5,0.2l-0.1,0.2l-0.3-0.1l-0.5,0.1l-0.1,0.2l-0.3-0.1l-0.5,0.1l-0.1,0.2L82,149l-0.5,0.1l-0.2,0.2l-0.2-0.1l-0.5,0.1l-0.2,0.2
	l-0.2-0.1l-0.5,0.1l-0.2,0.2l-0.2-0.1l-0.5,0l-0.2,0.2l-0.2-0.1h-0.5l-0.2,0.1l-0.2-0.2l-0.5,0l-0.2,0.1l-0.2-0.2l-0.5-0.1l-0.2,0.1
	l-0.2-0.2l-0.5-0.1l-0.2,0.1l-0.2-0.2l-0.5-0.1l-0.2,0.1l-0.2-0.2l-0.5-0.1l-0.2,0.1l-0.2-0.2l-0.5-0.1l-0.2,0.1l-0.2-0.2l-0.5-0.2
	l-0.2,0.1l-0.1-0.2l-0.5-0.2l-0.2,0.1l-0.1-0.2l-0.5-0.2l-0.2,0.1l-0.1-0.2l-0.5-0.2l-0.2,0.1L68,147l-0.5-0.3l-0.3,0.1l-0.1-0.3
	l-0.5-0.3l-0.3,0l-0.1-0.3l-0.4-0.3l-0.3,0l-0.1-0.3l-0.4-0.3h-0.3l-0.1-0.3l-0.4-0.3h-0.3l-0.1-0.3l-0.4-0.4h-0.3l-0.1-0.3
	l-0.4-0.4l-0.3,0l0-0.3l-0.4-0.4l-0.3,0l0-0.3l-0.4-0.4l-0.3-0.1l0-0.3l-0.3-0.4l-0.2-0.1v-0.3l-0.3-0.4l-0.2-0.1V140l-0.3-0.4
	l-0.2-0.1l0-0.3l-0.3-0.5l-0.2-0.1l0-0.3l-0.3-0.5l-0.2-0.1l0.1-0.3l-0.2-0.5l-0.2-0.1l0.1-0.3l-0.2-0.5l-0.2-0.1l0.1-0.3l-0.2-0.5
	l-0.2-0.1l0.1-0.3l-0.2-0.5l-0.2-0.1l0.1-0.3l-0.1-0.5l-0.2-0.1l0.1-0.3l-0.1-0.5l-0.2-0.1l0.1-0.3l-0.1-0.5l-0.2-0.2l0.1-0.2
	l-0.1-0.5l-0.2-0.2l0.1-0.2l-0.1-0.5l-0.2-0.2l0.1-0.2l0-0.5l-0.2-0.2l0.1-0.2v-0.6l-0.1-0.2l0.2-0.2l0-0.5l-0.1-0.2l0.2-0.2
	l0.1-0.5l-0.1-0.2l0.2-0.2l0.1-0.5l-0.1-0.2l0.2-0.2l0.1-0.5l-0.1-0.2l0.2-0.2l0.1-0.5l-0.1-0.2l0.2-0.2l0.1-0.5l-0.1-0.2l0.2-0.2
	l0.2-0.5l-0.1-0.2l0.2-0.1l0.2-0.5l-0.1-0.2l0.2-0.1l0.2-0.5l-0.1-0.2l0.2-0.1l0.2-0.5l-0.1-0.2l0.3-0.1l0.3-0.5l-0.1-0.3l0.3-0.1
	l0.3-0.5l0-0.3l0.3-0.1l0.3-0.4l0-0.3l0.3-0.1l0.3-0.4v-0.3l0.3-0.1l0.3-0.4V114l0.3-0.1l0.4-0.4v-0.3l0.3-0.1l0.4-0.4l0-0.3l0.3,0
	l0.4-0.4l0-0.3l0.3,0l0.4-0.4l0.1-0.3l0.3,0l0.4-0.3l0.1-0.2h0.3l0.4-0.3l0.1-0.2h0.3l0.4-0.3l0.1-0.2l0.3,0l0.5-0.3l0.1-0.2l0.3,0
	l0.5-0.3l0.1-0.2l0.3,0.1l0.5-0.2l0.1-0.2l0.3,0.1l0.5-0.2l0.1-0.2l0.3,0.1l0.5-0.2l0.1-0.2l0.3,0.1l0.5-0.2l0.1-0.2l0.3,0.1
	l0.5-0.1l0.1-0.2l0.3,0.1l0.5-0.1l0.1-0.2l0.3,0.1l0.5-0.1l0.2-0.2l0.2,0.1l0.5-0.1l0.2-0.2l0.2,0.1l0.5-0.1l0.2-0.2l0.2,0.1l0.5,0
	l0.2-0.2l0.2,0.1h0.5l0.2-0.1l0.2,0.2l0.5,0l0.2-0.1l0.2,0.2l0.5,0.1l0.2-0.1l0.2,0.2l0.5,0.1l0.2-0.1l0.2,0.2l0.5,0.1l0.2-0.1
	l0.2,0.2l0.5,0.1l0.2-0.1l0.2,0.2l0.5,0.1l0.2-0.1l0.2,0.2l0.5,0.2l0.2-0.1l0.1,0.2l0.5,0.2l0.2-0.1l0.1,0.2l0.5,0.2l0.2-0.1
	l0.1,0.2l0.5,0.2l0.2-0.1l0.1,0.3l0.5,0.3l0.3-0.1l0.1,0.3l0.5,0.3l0.3,0l0.1,0.3l0.4,0.3l0.3,0l0.1,0.3l0.4,0.3H91l0.1,0.3l0.4,0.3
	h0.3l0.1,0.3l0.4,0.4h0.3l0.1,0.3l0.4,0.4l0.3,0l0,0.3l0.4,0.4l0.3,0l0,0.3l0.4,0.4l0.3,0.1l0,0.3l0.3,0.4l0.2,0.1v0.3l0.3,0.4
	l0.2,0.1v0.3l0.3,0.4l0.2,0.1l0,0.3l0.3,0.5l0.2,0.1l0,0.3l0.3,0.5l0.2,0.1l-0.1,0.3l0.2,0.5l0.2,0.1l-0.1,0.3l0.2,0.5l0.2,0.1
	l-0.1,0.3l0.2,0.5l0.2,0.1l-0.1,0.3l0.2,0.5l0.2,0.1l-0.1,0.3l0.1,0.5l0.2,0.1l-0.1,0.3l0.1,0.5l0.2,0.1l-0.1,0.3l0.1,0.5l0.2,0.2
	l-0.1,0.2l0.1,0.5l0.2,0.2l-0.1,0.2l0.1,0.5l0.2,0.2l-0.1,0.2l0,0.5l0.2,0.2l-0.1,0.2v0.5l0.1,0.2l-0.2,0.2l0,0.5l0.1,0.2l-0.2,0.2
	l-0.1,0.5l0.1,0.2l-0.2,0.2l-0.1,0.5l0.1,0.2l-0.2,0.2l-0.1,0.5l0.1,0.2l-0.2,0.2l-0.1,0.5l0.1,0.2l-0.2,0.2l-0.1,0.5l0.1,0.2
	l-0.2,0.2l-0.2,0.5l0.1,0.2l-0.2,0.3l-0.2,0.5L98,136l-0.2,0.1l-0.2,0.5l0.1,0.2l-0.2,0.1l-0.2,0.5l0.1,0.2l-0.3,0.1l-0.3,0.5
	l0.1,0.3l-0.3,0.1l-0.3,0.5l0,0.3l-0.3,0.1l-0.3,0.4l0,0.3l-0.3,0.1l-0.3,0.4v0.3l-0.3,0.1l-0.3,0.4v0.3l-0.3,0.1l-0.4,0.4v0.3
	l-0.3,0.1l-0.4,0.4l0,0.3l-0.3,0l-0.4,0.4l0,0.3l-0.3,0l-0.4,0.4l-0.1,0.3l-0.3,0l-0.4,0.3l-0.1,0.2h-0.3l-0.4,0.3l-0.1,0.2h-0.3
	l-0.4,0.3l-0.1,0.2l-0.3,0l-0.5,0.3l-0.1,0.2l-0.3,0l-0.5,0.3l-0.1,0.2l-0.3-0.1l-0.5,0.2l-0.1,0.2l-0.3-0.1L86.1,147.8z"/>
<path fill="#CF157D" d="M86.9,127.9c0-1.8,0.7-3.4,1.9-4.5c-1.7,0.1-3.3-0.5-4.6-1.8c-1.2-1.2-1.9-2.9-1.8-4.5c-1.1,1.2-2.7,2-4.5,2
	c-1.8,0-3.4-0.7-4.5-1.9c0.1,1.7-0.5,3.3-1.8,4.6c-1.2,1.2-2.9,1.9-4.5,1.8c1.2,1.1,2,2.7,2,4.5c0,1.8-0.7,3.4-1.9,4.5
	c1.7-0.1,3.3,0.5,4.6,1.8c1.2,1.2,1.9,2.9,1.8,4.5c1.1-1.2,2.7-2,4.5-2c1.8,0,3.4,0.7,4.5,1.9c-0.1-1.7,0.5-3.3,1.8-4.6
	c1.2-1.2,2.9-1.9,4.5-1.8C87.6,131.3,86.9,129.7,86.9,127.9z M77.9,134.5c-3.6,0-6.6-2.9-6.6-6.6c0-3.6,2.9-6.6,6.6-6.6
	s6.6,2.9,6.6,6.6C84.5,131.6,81.5,134.5,77.9,134.5z"/>
<path fill="#4FC5D5" d="M99.6,127.5l-0.2-0.2l0-0.5l0.1-0.2l-0.2-0.2l-0.1-0.5l0.1-0.2l-0.2-0.2l-0.1-0.5l0.1-0.2l-0.2-0.2l-0.1-0.5
	l0.1-0.3l-0.2-0.1l-0.1-0.5l0.1-0.3l-0.2-0.1l-0.1-0.5l0.1-0.3l-0.2-0.1l-0.2-0.5l0.1-0.3l-0.2-0.1l-0.2-0.5L98,120l-0.2-0.1
	l-0.2-0.5l0.1-0.3l-0.2-0.1l-0.2-0.5l0.1-0.3l-0.2-0.1l-0.3-0.5l0-0.3l-0.2-0.1l-0.3-0.5l0-0.3l-0.3-0.2l-0.3-0.4v-0.3l-0.2-0.1
	l-0.3-0.4v-0.3l-0.2-0.1l-0.3-0.4l0-0.3l-0.3-0.1l-0.4-0.4l0-0.3l-0.3,0l-0.4-0.4l0-0.3l-0.3,0l-0.4-0.4l-0.1-0.3h-0.3l-0.4-0.3
	l-0.1-0.3h-0.3l-0.4-0.3l-0.1-0.3h-0.3l-0.4-0.3l-0.1-0.3l-0.3,0l-0.4-0.3l-0.1-0.3l-0.3,0l-0.5-0.3l-0.1-0.3l-0.3,0.1l-0.5-0.3
	l-0.1-0.3l-0.2,0.1l-0.5-0.2l-0.1-0.2l-0.2,0.1l-0.5-0.2l-0.1-0.2l-0.2,0.1l-0.5-0.2l-0.1-0.2l-0.2,0.1l-0.5-0.2l-0.2-0.2l-0.2,0.1
	l-0.5-0.1l-0.2-0.2l-0.2,0.1l-0.5-0.1l-0.2-0.2l-0.2,0.1l-0.5-0.1l-0.2-0.2l-0.2,0.1l-0.5-0.1l-0.2-0.2l-0.2,0.1l-0.5-0.1l-0.2-0.2
	l-0.2,0.1l-0.5,0l-0.2-0.2l-0.2,0.1h-0.5l-0.2-0.1l-0.2,0.2l-0.5,0l-0.2-0.1l-0.2,0.2l-0.5,0.1l-0.2-0.1l-0.2,0.2l-0.5,0.1l-0.2-0.1
	l-0.2,0.2l-0.5,0.1l-0.3-0.1l-0.1,0.2l-0.5,0.1l-0.3-0.1l-0.1,0.2l-0.5,0.1l-0.3-0.1l-0.1,0.2l-0.5,0.2l-0.3-0.1l-0.1,0.2l-0.5,0.2
	l-0.3-0.1l-0.1,0.2l-0.5,0.2l-0.3-0.1l-0.1,0.2l-0.5,0.2l-0.3-0.1l-0.1,0.2l-0.5,0.3l-0.3,0l-0.1,0.2l-0.5,0.3l-0.3,0l-0.1,0.2
	l-0.4,0.3h-0.3l-0.1,0.2l-0.4,0.3h-0.3l-0.1,0.2l-0.4,0.3l-0.3,0l-0.1,0.3l-0.4,0.4l-0.3,0l0,0.3l-0.4,0.4l-0.3,0l0,0.3l-0.4,0.4
	l-0.3,0.1v0.3l-0.4,0.4l-0.3,0.1v0.3l-0.3,0.4l-0.3,0.1v0.3l-0.3,0.4l-0.3,0.1l0,0.3l-0.3,0.4l-0.3,0.1l0,0.3l-0.3,0.5l-0.3,0.1
	l0.1,0.3l-0.3,0.5l-0.3,0.1l0.1,0.2l-0.2,0.5l-0.2,0.1l0.1,0.2l-0.2,0.5l-0.2,0.1l0.1,0.2l-0.2,0.5l-0.2,0.1l0.1,0.2l-0.2,0.5
	l-0.2,0.2l0.1,0.2l-0.1,0.5l-0.2,0.2l0.1,0.2l-0.1,0.5l-0.2,0.2l0.1,0.2l-0.1,0.5l-0.2,0.2l0.1,0.2l-0.1,0.5l-0.2,0.2l0.1,0.2
	l-0.1,0.5l-0.2,0.2l0.1,0.2l0,0.5l-0.2,0.2l0.1,0.2v0.5l-0.1,0.2l0.2,0.2l0,0.5l-0.1,0.2l0.2,0.2l0.1,0.5l-0.1,0.2l0.2,0.2l0.1,0.5
	l-0.1,0.2l0.2,0.2l0.1,0.5l-0.1,0.3l0.2,0.1l0.1,0.5l-0.1,0.3l0.2,0.1l0.1,0.5l-0.1,0.3l0.2,0.1l0.2,0.5l-0.1,0.3l0.2,0.1l0.2,0.5
	l-0.1,0.3l0.2,0.1l0.2,0.5l-0.1,0.3l0.2,0.1l0.2,0.5l-0.1,0.3l0.2,0.1l0.3,0.5l0,0.3l0.2,0.1l0.3,0.5l0,0.3l0.2,0.1l0.3,0.4v0.3
	l0.2,0.1l0.3,0.4v0.3l0.2,0.1l0.3,0.4l0,0.3l0.3,0.1l0.4,0.4l0,0.3l0.3,0l0.4,0.4l0,0.3l0.3,0l0.4,0.4l0.1,0.3h0.3l0.4,0.4l0.1,0.3
	h0.3l0.4,0.3l0.1,0.3h0.3l0.4,0.3l0.1,0.3l0.3,0l0.4,0.3l0.1,0.3l0.3,0l0.5,0.3l0.1,0.3l0.3-0.1l0.5,0.3l0.1,0.3l0.2-0.1l0.5,0.2
	l0.1,0.2l0.2-0.1l0.5,0.2L70,148l0.2-0.1l0.5,0.2l0.1,0.2l0.2-0.1l0.5,0.2l0.2,0.2l0.2-0.1l0.5,0.1l0.2,0.2l0.2-0.1l0.5,0.1l0.2,0.2
	l0.2-0.1l0.5,0.1l0.2,0.2l0.2-0.1l0.5,0.1l0.2,0.2l0.2-0.1l0.5,0.1l0.2,0.2l0.2-0.1l0.5,0l0.2,0.2l0.2-0.1h0.5l0.2,0.1l0.2-0.2
	l0.5,0l0.2,0.1l0.2-0.2l0.5-0.1l0.2,0.1l0.2-0.2l0.5-0.1l0.2,0.1l0.2-0.2L82,149l0.3,0.1l0.1-0.2l0.5-0.1l0.3,0.1l0.1-0.2l0.5-0.1
	l0.3,0.1l0.1-0.2l0.5-0.2l0.3,0.1l0.1-0.2l0.5-0.2L86,148l0.1-0.2l0.5-0.2l0.3,0.1l0.1-0.2l0.5-0.2l0.3,0.1l0.1-0.2l0.5-0.3l0.3,0
	l0.1-0.2l0.5-0.3l0.3,0l0.1-0.2l0.4-0.3h0.3l0.1-0.2l0.4-0.3H91l0.1-0.2l0.4-0.3l0.3,0l0.1-0.3l0.4-0.4l0.3,0l0-0.3l0.4-0.4l0.3,0
	l0-0.3l0.4-0.4l0.3-0.1v-0.3l0.4-0.4l0.3-0.1v-0.3l0.3-0.4l0.3-0.1v-0.3l0.3-0.4l0.3-0.1l0-0.3l0.3-0.4l0.3-0.1l0-0.3l0.3-0.5
	l0.3-0.1l-0.1-0.3l0.3-0.5l0.3-0.1l-0.1-0.2l0.2-0.5l0.2-0.1l-0.1-0.2l0.2-0.5L98,136l-0.1-0.2l0.2-0.5l0.2-0.1l-0.1-0.2l0.2-0.5
	l0.2-0.2l-0.1-0.2l0.1-0.5l0.2-0.2l-0.1-0.2l0.1-0.5l0.2-0.2L99,132l0.1-0.5l0.2-0.2l-0.1-0.2l0.1-0.5l0.2-0.2l-0.1-0.2l0.1-0.5
	l0.2-0.2l-0.1-0.2l0-0.5l0.2-0.2l-0.1-0.2v-0.5L99.6,127.5z M93,134.1c-0.1,0-0.1,0-0.2,0c0.1,0.1,0.1,0.1,0.1,0.1
	c2.4,2.4,2.4,6.3,0,8.7c-2.4,2.4-6.3,2.4-8.7,0c0,0-0.1-0.1-0.1-0.1c0,0.1,0,0.1,0,0.2c0,3.4-2.8,6.2-6.2,6.2
	c-3.4,0-6.2-2.8-6.2-6.2c0-0.1,0-0.1,0-0.2c-0.1,0.1-0.1,0.1-0.1,0.1c-2.4,2.4-6.3,2.4-8.7,0c-2.4-2.4-2.4-6.3,0-8.7
	c0,0,0.1-0.1,0.1-0.1c-0.1,0-0.1,0-0.2,0c-3.4,0-6.2-2.8-6.2-6.2c0-3.4,2.8-6.2,6.2-6.2c0.1,0,0.1,0,0.2,0c-0.1-0.1-0.1-0.1-0.1-0.1
	c-2.4-2.4-2.4-6.3,0-8.7s6.3-2.4,8.7,0c0,0,0.1,0.1,0.1,0.1c0-0.1,0-0.1,0-0.2c0-3.4,2.8-6.2,6.2-6.2c3.4,0,6.2,2.8,6.2,6.2
	c0,0.1,0,0.1,0,0.2c0.1-0.1,0.1-0.1,0.1-0.1c2.4-2.4,6.3-2.4,8.7,0c2.4,2.4,2.4,6.3,0,8.7c0,0-0.1,0.1-0.1,0.1c0.1,0,0.1,0,0.2,0
	c3.4,0,6.2,2.8,6.2,6.2C99.2,131.3,96.5,134.1,93,134.1z"/>
<path fill="#8BC641" d="M88.9,95.9c-1.4,0-2.5,1.1-2.5,2.5v0.5h5v-0.5C91.5,97,90.3,95.9,88.9,95.9z"/>
<path fill="#8BC641" d="M94.5,95.9c-1.4,0-2.5,1.1-2.5,2.5v0.5h5v-0.5C97,97,95.9,95.9,94.5,95.9z"/>
<path fill="#8BC641" d="M83.4,95.9c-1.4,0-2.5,1.1-2.5,2.5v0.5h5v-0.5C86,97,84.8,95.9,83.4,95.9z"/>
<path fill="#8BC641" d="M100,95.9c-1.4,0-2.5,1.1-2.5,2.5v0.5h5v-0.5C102.5,97,101.4,95.9,100,95.9z"/>
<path fill="#8BC641" d="M105.5,95.9c-1.4,0-2.5,1.1-2.5,2.5v0.5h5v-0.5C108,97,106.9,95.9,105.5,95.9z"/>
<path fill="#8BC641" d="M72.4,95.9c-1.4,0-2.5,1.1-2.5,2.5v0.5h5v-0.5C74.9,97,73.8,95.9,72.4,95.9z"/>
<path fill="#8BC641" d="M55.9,95.9c-1.4,0-2.5,1.1-2.5,2.5v0.5h5v-0.5C58.4,97,57.3,95.9,55.9,95.9z"/>
<path fill="#8BC641" d="M77.9,95.9c-1.4,0-2.5,1.1-2.5,2.5v0.5h5v-0.5C80.4,97,79.3,95.9,77.9,95.9z"/>
<path fill="#8BC641" d="M50.4,95.9c-1.4,0-2.5,1.1-2.5,2.5v0.5h5v-0.5C52.9,97,51.8,95.9,50.4,95.9z"/>
<path fill="#8BC641" d="M66.9,95.9c-1.4,0-2.5,1.1-2.5,2.5v0.5h5v-0.5C69.4,97,68.3,95.9,66.9,95.9z"/>
<path fill="#8BC641" d="M61.4,95.9c-1.4,0-2.5,1.1-2.5,2.5v0.5h5v-0.5C63.9,97,62.8,95.9,61.4,95.9z"/>
<path fill="#161543" d="M141.9,138.6v-1.8c0-1.4-1.1-2.5-2.5-2.5s-2.5,1.1-2.5,2.5v1.8h-0.5v-1.8c0-1.4-1.1-2.5-2.5-2.5
	c-1.4,0-2.5,1.1-2.5,2.5v1.8h-0.5v-1.8c0-1.4-1.1-2.5-2.5-2.5c-1.4,0-2.5,1.1-2.5,2.5v1.8h-0.5v-1.8c0-1.4-1.1-2.5-2.5-2.5
	c-1.4,0-2.5,1.1-2.5,2.5v1.8h-0.5v-1.8c0-1.4-1.1-2.5-2.5-2.5c-1.4,0-2.5,1.1-2.5,2.5v1.8h-0.5v-1.8c0-1.4-1.1-2.5-2.5-2.5
	s-2.5,1.1-2.5,2.5v1.8v4.3v78.3h32.6"/>
<polygon fill="#4959A7" points="125.4,103.6 125.4,103.6 108,133.3 142.8,133.3 "/>
<path fill="#D0DD29" d="M133.8,134.2c-1.4,0-2.5,1.1-2.5,2.5v0.5h5v-0.5C136.4,135.4,135.3,134.2,133.8,134.2z"/>
<path fill="#D0DD29" d="M117.3,134.2c-1.4,0-2.5,1.1-2.5,2.5v0.5h5v-0.5C119.8,135.4,118.7,134.2,117.3,134.2z"/>
<path fill="#D0DD29" d="M139.4,134.2c-1.4,0-2.5,1.1-2.5,2.5v0.5h5v-0.5C141.9,135.4,140.7,134.2,139.4,134.2z"/>
<path fill="#D0DD29" d="M111.8,134.2c-1.4,0-2.5,1.1-2.5,2.5v0.5h5v-0.5C114.3,135.4,113.2,134.2,111.8,134.2z"/>
<path fill="#D0DD29" d="M128.3,134.2c-1.4,0-2.5,1.1-2.5,2.5v0.5h5v-0.5C130.9,135.4,129.7,134.2,128.3,134.2z"/>
<path fill="#D0DD29" d="M122.8,134.2c-1.4,0-2.5,1.1-2.5,2.5v0.5h5v-0.5C125.3,135.4,124.2,134.2,122.8,134.2z"/>
<path fill="#A24B24" d="M108,133.3v5.4h1.3v-0.2v-1.8c0-1.4,1.1-2.5,2.5-2.5s2.5,1.1,2.5,2.5v1.8h0.5v-1.8c0-1.4,1.1-2.5,2.5-2.5
	s2.5,1.1,2.5,2.5v1.8h0.5v-1.8c0-1.4,1.1-2.5,2.5-2.5c1.4,0,2.5,1.1,2.5,2.5v1.8h0.5v-1.8c0-1.4,1.1-2.5,2.5-2.5
	c1.4,0,2.5,1.1,2.5,2.5v1.8h0.5v-1.8c0-1.4,1.1-2.5,2.5-2.5s2.5,1.1,2.5,2.5v1.8h0.5v-1.8c0-1.4,1.1-2.5,2.5-2.5s2.5,1.1,2.5,2.5
	v1.8v0.2h1.1v-5.4L108,133.3L108,133.3z"/>
<path fill="#D2A12A" d="M141.9,152H132v-0.1c0-3.6-2.9-6.5-6.5-6.5c-3.6,0-6.5,2.9-6.5,6.5v0.1h-9.7v-0.3h9.4
	c0.1-3.7,3.1-6.7,6.8-6.7s6.7,3,6.8,6.7h9.6L141.9,152L141.9,152z"/>
<path fill="#832A8A" d="M119.5,176.4c-1.2,0-2.1,1-2.1,2.2v5.2h4.3v-5.2C121.6,177.4,120.7,176.4,119.5,176.4z"/>
<path fill="#832A8A" d="M125.4,176.4c-1.2,0-2.1,1-2.1,2.2v5.2h4.3v-5.2C127.5,177.4,126.6,176.4,125.4,176.4z"/>
<path fill="#832A8A" d="M131.4,176.4c-1.2,0-2.1,1-2.1,2.2v5.2h4.3v-5.2C133.5,177.4,132.5,176.4,131.4,176.4z"/>
<path fill="#832A8A" d="M128.7,151.9c-1.2,0-2.1,1-2.1,2.2v5.2h4.3v-5.2C130.9,152.9,129.9,151.9,128.7,151.9z"/>
<path fill="#FFCF1D" d="M125.5,153l0.2-0.7c0-1.2,1.3-2.2,2.5-2.2c1.2,0,2.7,1,2.7,2.2v-0.6c0-2.5-2.4-5-5.3-5s-5.3,2.6-5.3,5v0.6
	c0-1.2,1.5-2.2,2.7-2.2s2.5,1,2.5,2.2L125.5,153z"/>
<path fill="#832A8A" d="M122.3,151.9c-1.2,0-2.1,1-2.1,2.2v5.2h4.3v-5.2C124.4,152.9,123.5,151.9,122.3,151.9z"/>
<path fill="#7DC243" d="M126.6,154.1c0-1.2,0.9-2.2,2.1-2.2c1.2,0,2.1,1,2.1,2.2v-1.8c0-1.2-1.5-2.2-2.7-2.2c-1.2,0-2.5,1-2.5,2.2
	l-0.2,0.7l-0.2-0.7c0-1.2-1.3-2.2-2.5-2.2s-2.7,1-2.7,2.2v1.8c0-1.2,0.9-2.2,2.1-2.2s2.1,1,2.1,2.2H126.6z"/>
<rect x="119.6" y="159.3" fill="#2B3C90" width="11.9" height="3"/>
<rect x="120.3" y="162.4" fill="#C2B59C" width="10.4" height="3"/>
<rect x="109.3" y="188.3" fill="#2B3C90" width="32.6" height="3"/>
<rect x="124.4" y="154.1" fill="#5ABDEC" width="2.1" height="5.2"/>
<circle fill="#D2A12A" cx="125.5" cy="148.7" r="1.9"/>
<circle fill="#342F81" cx="125.5" cy="148.7" r="1.7"/>
<circle fill="#6BBE46" cx="125.5" cy="148.7" r="1.6"/>
<g>
	<path fill="#5FBDEB" d="M131.4,159.3h-0.6v-7.6c0-2.4-2.3-5-5.3-5c-3,0-5.3,2.7-5.3,5v7.6h-0.6v-7.6c0-2.7,2.5-5.6,5.9-5.6
		s5.9,3,5.9,5.6V159.3z"/>
</g>
<rect x="109.3" y="188" fill="#F89521" width="32.6" height="0.3"/>
<rect x="116.2" y="183.6" fill="#F89521" width="18.6" height="0.3"/>
<rect x="119.6" y="165.5" fill="#F89521" width="11.9" height="0.3"/>
<path fill="#832A8A" d="M87.5,187.1c-3.5,0-6.4,2.9-6.4,6.4V209h12.8v-15.5C93.9,189.9,91,187.1,87.5,187.1z"/>
<path fill="#FFCF1D" d="M77.9,190.3l0.5-2.2c0-3.5,3.9-6.4,7.5-6.4c3.5,0,8,2.9,8,6.4v-1.9c0-7.4-7.2-15.2-16-15.2s-16,7.8-16,15.2
	v1.9c0-3.5,4.5-6.4,8-6.4c3.5,0,7.5,2.9,7.5,6.4L77.9,190.3z"/>
<path fill="#832A8A" d="M68.3,187.1c-3.5,0-6.4,2.9-6.4,6.4V209h12.8v-15.5C74.7,189.9,71.8,187.1,68.3,187.1z"/>
<path fill="#7DC243" d="M81.1,193.5c0-3.5,2.9-6.4,6.4-6.4s6.4,2.9,6.4,6.4v-5.3c0-3.5-4.5-6.4-8-6.4c-3.5,0-7.5,2.9-7.5,6.4
	l-0.5,2.2l-0.5-2.2c0-3.5-3.9-6.4-7.5-6.4s-8,2.9-8,6.4v5.3c0-3.5,2.9-6.4,6.4-6.4c3.5,0,6.4,2.9,6.4,6.4H81.1z"/>
<rect x="60.1" y="209" fill="#603A17" width="35.6" height="4"/>
<rect x="57.4" y="212.9" fill="#764E2A" width="40.9" height="4"/>
<rect x="53.9" y="216.9" fill="#8B5F3D" width="48.1" height="4"/>
<rect x="74.7" y="193.5" fill="#5ABDEC" width="6.4" height="15.5"/>
<circle fill="#D2A12A" cx="77.9" cy="177.4" r="5.6"/>
<circle fill="#342F81" cx="77.9" cy="177.4" r="5"/>
<circle fill="#6BBE46" cx="77.9" cy="177.4" r="4.8"/>
<g>
	<path fill="#282561" d="M95.7,209h-1.8v-22.7c0-7.1-6.9-15.1-16-15.1s-16,8-16,15.1V209h-1.8v-22.7c0-8,7.6-16.9,17.8-16.9
		s17.8,8.9,17.8,16.9V209z"/>
</g>
<rect x="111.5" y="171" fill="#F89523" width="0.7" height="0.7"/>
<rect x="112.8" y="171" fill="#F89523" width="0.7" height="0.7"/>
<rect x="114.1" y="171" fill="#F89523" width="0.7" height="0.7"/>
<rect x="115.4" y="171" fill="#F89523" width="0.7" height="0.7"/>
<rect x="116.7" y="171" fill="#F89523" width="0.7" height="0.7"/>
<rect x="118" y="171" fill="#F89523" width="0.7" height="0.7"/>
<rect x="119.3" y="171" fill="#F89523" width="0.7" height="0.7"/>
<rect x="120.6" y="171" fill="#F89523" width="0.7" height="0.7"/>
<rect x="122" y="171" fill="#F89523" width="0.7" height="0.7"/>
<rect x="123.3" y="171" fill="#F89523" width="0.7" height="0.7"/>
<rect x="124.6" y="171" fill="#F89523" width="0.7" height="0.7"/>
<rect x="125.9" y="171" fill="#F89523" width="0.7" height="0.7"/>
<rect x="127.2" y="171" fill="#F89523" width="0.7" height="0.7"/>
<rect x="128.5" y="171" fill="#F89523" width="0.7" height="0.7"/>
<rect x="129.8" y="171" fill="#F89523" width="0.7" height="0.7"/>
<rect x="131.1" y="171" fill="#F89523" width="0.7" height="0.7"/>
<rect x="132.4" y="171" fill="#F89523" width="0.7" height="0.7"/>
<rect x="133.8" y="171" fill="#F89523" width="0.7" height="0.7"/>
<rect x="135.1" y="171" fill="#F89523" width="0.7" height="0.7"/>
<rect x="136.4" y="171" fill="#F89523" width="0.7" height="0.7"/>
<rect x="137.7" y="171" fill="#F89523" width="0.7" height="0.7"/>
<rect x="139" y="171" fill="#F89523" width="0.7" height="0.7"/>
<rect x="112.2" y="170.3" fill="#F89523" width="0.7" height="0.7"/>
<rect x="113.5" y="170.3" fill="#F89523" width="0.7" height="0.7"/>
<rect x="114.8" y="170.3" fill="#F89523" width="0.7" height="0.7"/>
<rect x="116.1" y="170.3" fill="#F89523" width="0.7" height="0.7"/>
<rect x="117.4" y="170.3" fill="#F89523" width="0.7" height="0.7"/>
<rect x="118.7" y="170.3" fill="#F89523" width="0.7" height="0.7"/>
<rect x="120" y="170.3" fill="#F89523" width="0.7" height="0.7"/>
<rect x="121.3" y="170.3" fill="#F89523" width="0.7" height="0.7"/>
<rect x="122.6" y="170.3" fill="#F89523" width="0.7" height="0.7"/>
<rect x="124" y="170.3" fill="#F89523" width="0.7" height="0.7"/>
<rect x="125.3" y="170.3" fill="#F89523" width="0.7" height="0.7"/>
<rect x="126.6" y="170.3" fill="#F89523" width="0.7" height="0.7"/>
<rect x="127.9" y="170.3" fill="#F89523" width="0.7" height="0.7"/>
<rect x="129.2" y="170.3" fill="#F89523" width="0.7" height="0.7"/>
<rect x="130.5" y="170.3" fill="#F89523" width="0.7" height="0.7"/>
<rect x="131.8" y="170.3" fill="#F89523" width="0.7" height="0.7"/>
<rect x="133.2" y="170.3" fill="#F89523" width="0.7" height="0.7"/>
<rect x="134.5" y="170.3" fill="#F89523" width="0.7" height="0.7"/>
<rect x="135.8" y="170.3" fill="#F89523" width="0.7" height="0.7"/>
<rect x="137.1" y="170.3" fill="#F89523" width="0.7" height="0.7"/>
<rect x="138.4" y="170.3" fill="#F89523" width="0.7" height="0.7"/>
<path fill="#5FBDEB" d="M120.2,221.1v-18.7c0-2.4,2.3-5,5.3-5c3,0,5.3,2.7,5.3,5v18.7h0.6v-18.7c0-2.7-2.5-5.6-5.9-5.6
	s-5.9,3-5.9,5.6v18.7H120.2z"/>
<path fill="#D8E028" d="M130.9,221.1v-18.7c0-2.4-2.3-5-5.3-5c-3,0-5.3,2.7-5.3,5v18.7"/>
<rect x="109.3" y="214.8" fill="#F89521" width="10.3" height="0.3"/>
<rect x="131.4" y="214.8" fill="#F89521" width="10.4" height="0.3"/>
<rect x="109.3" y="215.6" fill="#F89521" width="10.3" height="0.3"/>
<rect x="131.4" y="215.6" fill="#F89521" width="10.4" height="0.3"/>
<path fill="#161543" d="M46.8,138.6v-1.8c0-1.4-1.1-2.5-2.5-2.5s-2.5,1.1-2.5,2.5v1.8h-0.5v-1.8c0-1.4-1.1-2.5-2.5-2.5
	c-1.4,0-2.5,1.1-2.5,2.5v1.8h-0.5v-1.8c0-1.4-1.1-2.5-2.5-2.5c-1.4,0-2.5,1.1-2.5,2.5v1.8h-0.5v-1.8c0-1.4-1.1-2.5-2.5-2.5
	c-1.4,0-2.5,1.1-2.5,2.5v1.8h-0.5v-1.8c0-1.4-1.1-2.5-2.5-2.5c-1.4,0-2.5,1.1-2.5,2.5v1.8h-0.5v-1.8c0-1.4-1.1-2.5-2.5-2.5
	c-1.4,0-2.5,1.1-2.5,2.5v1.8v4.3v78.3h32.6"/>
<polygon fill="#4959A7" points="30.4,103.6 30.4,103.6 12.9,133.4 47.8,133.4 "/>
<path fill="#D0DD29" d="M38.8,134.3c-1.4,0-2.5,1.1-2.5,2.5v0.5h5v-0.5C41.3,135.5,40.2,134.3,38.8,134.3z"/>
<path fill="#D0DD29" d="M22.3,134.3c-1.4,0-2.5,1.1-2.5,2.5v0.5h5v-0.5C24.8,135.5,23.7,134.3,22.3,134.3z"/>
<path fill="#D0DD29" d="M44.3,134.3c-1.4,0-2.5,1.1-2.5,2.5v0.5h5v-0.5C46.8,135.5,45.7,134.3,44.3,134.3z"/>
<path fill="#D0DD29" d="M16.8,134.3c-1.4,0-2.5,1.1-2.5,2.5v0.5h5v-0.5C19.3,135.5,18.1,134.3,16.8,134.3z"/>
<path fill="#D0DD29" d="M33.3,134.3c-1.4,0-2.5,1.1-2.5,2.5v0.5h5v-0.5C35.8,135.5,34.7,134.3,33.3,134.3z"/>
<path fill="#D0DD29" d="M27.8,134.3c-1.4,0-2.5,1.1-2.5,2.5v0.5h5v-0.5C30.3,135.5,29.2,134.3,27.8,134.3z"/>
<path fill="#A24B24" d="M12.9,133.4v5.4h1.3v-0.2v-1.8c0-1.4,1.1-2.5,2.5-2.5c1.4,0,2.5,1.1,2.5,2.5v1.8h0.5v-1.8
	c0-1.4,1.1-2.5,2.5-2.5c1.4,0,2.5,1.1,2.5,2.5v1.8h0.5v-1.8c0-1.4,1.1-2.5,2.5-2.5c1.4,0,2.5,1.1,2.5,2.5v1.8h0.5v-1.8
	c0-1.4,1.1-2.5,2.5-2.5c1.4,0,2.5,1.1,2.5,2.5v1.8h0.5v-1.8c0-1.4,1.1-2.5,2.5-2.5c1.4,0,2.5,1.1,2.5,2.5v1.8h0.5v-1.8
	c0-1.4,1.1-2.5,2.5-2.5s2.5,1.1,2.5,2.5v1.8v0.2h1.1v-5.4H12.9z"/>
<path fill="#D2A12A" d="M46.8,152h-9.9v-0.1c0-3.6-2.9-6.5-6.5-6.5s-6.5,2.9-6.5,6.5v0.1h-9.7v-0.3h9.4c0.1-3.7,3.1-6.7,6.8-6.7
	s6.7,3,6.8,6.7h9.6L46.8,152L46.8,152z"/>
<path fill="#832A8A" d="M24.4,176.5c-1.2,0-2.1,1-2.1,2.2v5.2h4.3v-5.2C26.6,177.4,25.6,176.5,24.4,176.5z"/>
<path fill="#832A8A" d="M30.4,176.5c-1.2,0-2.1,1-2.1,2.2v5.2h4.3v-5.2C32.5,177.4,31.5,176.5,30.4,176.5z"/>
<path fill="#832A8A" d="M36.3,176.5c-1.2,0-2.1,1-2.1,2.2v5.2h4.3v-5.2C38.5,177.4,37.5,176.5,36.3,176.5z"/>
<path fill="#832A8A" d="M33.6,152c-1.2,0-2.1,1-2.1,2.2v5.2h4.3v-5.2C35.8,153,34.8,152,33.6,152z"/>
<path fill="#FFCF1D" d="M30.5,153.1l0.2-0.7c0-1.2,1.3-2.2,2.5-2.2c1.2,0,2.7,1,2.7,2.2v-0.6c0-2.5-2.4-5-5.3-5s-5.3,2.6-5.3,5v0.6
	c0-1.2,1.5-2.2,2.7-2.2c1.2,0,2.5,1,2.5,2.2L30.5,153.1z"/>
<path fill="#832A8A" d="M27.2,152c-1.2,0-2.1,1-2.1,2.2v5.2h4.3v-5.2C29.4,153,28.4,152,27.2,152z"/>
<path fill="#7DC243" d="M31.5,154.1c0-1.2,0.9-2.2,2.1-2.2s2.1,1,2.1,2.2v-1.8c0-1.2-1.5-2.2-2.7-2.2c-1.2,0-2.5,1-2.5,2.2l-0.2,0.7
	l-0.2-0.7c0-1.2-1.3-2.2-2.5-2.2c-1.2,0-2.7,1-2.7,2.2v1.8c0-1.2,0.9-2.2,2.1-2.2c1.2,0,2.1,1,2.1,2.2H31.5z"/>
<rect x="24.5" y="159.4" fill="#2B3C90" width="11.9" height="3"/>
<rect x="25.3" y="162.5" fill="#C2B59C" width="10.4" height="3"/>
<rect x="14.2" y="188.4" fill="#2B3C90" width="32.6" height="3"/>
<rect x="29.4" y="154.1" fill="#5ABDEC" width="2.1" height="5.2"/>
<circle fill="#D2A12A" cx="30.5" cy="148.8" r="1.9"/>
<circle fill="#342F81" cx="30.5" cy="148.8" r="1.7"/>
<circle fill="#6BBE46" cx="30.5" cy="148.8" r="1.6"/>
<g>
	<path fill="#5FBDEB" d="M36.4,159.3h-0.6v-7.6c0-2.4-2.3-5-5.3-5s-5.3,2.7-5.3,5v7.6h-0.6v-7.6c0-2.7,2.5-5.6,5.9-5.6
		s5.9,3,5.9,5.6V159.3z"/>
</g>
<rect x="14.2" y="188.1" fill="#F89521" width="32.6" height="0.3"/>
<rect x="21.1" y="183.6" fill="#F89521" width="18.6" height="0.3"/>
<rect x="24.5" y="165.5" fill="#F89521" width="11.9" height="0.3"/>
<rect x="16.4" y="171.1" fill="#F89523" width="0.7" height="0.7"/>
<rect x="17.7" y="171.1" fill="#F89523" width="0.7" height="0.7"/>
<rect x="19" y="171.1" fill="#F89523" width="0.7" height="0.7"/>
<rect x="20.4" y="171.1" fill="#F89523" width="0.7" height="0.7"/>
<rect x="21.7" y="171.1" fill="#F89523" width="0.7" height="0.7"/>
<rect x="23" y="171.1" fill="#F89523" width="0.7" height="0.7"/>
<rect x="24.3" y="171.1" fill="#F89523" width="0.7" height="0.7"/>
<rect x="25.6" y="171.1" fill="#F89523" width="0.7" height="0.7"/>
<rect x="26.9" y="171.1" fill="#F89523" width="0.7" height="0.7"/>
<rect x="28.2" y="171.1" fill="#F89523" width="0.7" height="0.7"/>
<rect x="29.5" y="171.1" fill="#F89523" width="0.7" height="0.7"/>
<rect x="30.8" y="171.1" fill="#F89523" width="0.7" height="0.7"/>
<rect x="32.1" y="171.1" fill="#F89523" width="0.7" height="0.7"/>
<rect x="33.5" y="171.1" fill="#F89523" width="0.7" height="0.7"/>
<rect x="34.8" y="171.1" fill="#F89523" width="0.7" height="0.7"/>
<rect x="36.1" y="171.1" fill="#F89523" width="0.7" height="0.7"/>
<rect x="37.4" y="171.1" fill="#F89523" width="0.7" height="0.7"/>
<rect x="38.7" y="171.1" fill="#F89523" width="0.7" height="0.7"/>
<rect x="40" y="171.1" fill="#F89523" width="0.7" height="0.7"/>
<rect x="41.3" y="171.1" fill="#F89523" width="0.7" height="0.7"/>
<rect x="42.6" y="171.1" fill="#F89523" width="0.7" height="0.7"/>
<rect x="43.9" y="171.1" fill="#F89523" width="0.7" height="0.7"/>
<rect x="17.1" y="170.4" fill="#F89523" width="0.7" height="0.7"/>
<rect x="18.4" y="170.4" fill="#F89523" width="0.7" height="0.7"/>
<rect x="19.7" y="170.4" fill="#F89523" width="0.7" height="0.7"/>
<rect x="21" y="170.4" fill="#F89523" width="0.7" height="0.7"/>
<rect x="22.3" y="170.4" fill="#F89523" width="0.7" height="0.7"/>
<rect x="23.7" y="170.4" fill="#F89523" width="0.7" height="0.7"/>
<rect x="25" y="170.4" fill="#F89523" width="0.7" height="0.7"/>
<rect x="26.3" y="170.4" fill="#F89523" width="0.7" height="0.7"/>
<rect x="27.6" y="170.4" fill="#F89523" width="0.7" height="0.7"/>
<rect x="28.9" y="170.4" fill="#F89523" width="0.7" height="0.7"/>
<rect x="30.2" y="170.4" fill="#F89523" width="0.7" height="0.7"/>
<rect x="31.5" y="170.4" fill="#F89523" width="0.7" height="0.7"/>
<rect x="32.8" y="170.4" fill="#F89523" width="0.7" height="0.7"/>
<rect x="34.1" y="170.4" fill="#F89523" width="0.7" height="0.7"/>
<rect x="35.5" y="170.4" fill="#F89523" width="0.7" height="0.7"/>
<rect x="36.8" y="170.4" fill="#F89523" width="0.7" height="0.7"/>
<rect x="38.1" y="170.4" fill="#F89523" width="0.7" height="0.7"/>
<rect x="39.4" y="170.4" fill="#F89523" width="0.7" height="0.7"/>
<rect x="40.7" y="170.4" fill="#F89523" width="0.7" height="0.7"/>
<rect x="42" y="170.4" fill="#F89523" width="0.7" height="0.7"/>
<rect x="43.3" y="170.4" fill="#F89523" width="0.7" height="0.7"/>
<path fill="#5FBDEB" d="M25.1,221.2v-18.7c0-2.4,2.3-5,5.3-5s5.3,2.7,5.3,5v18.7h0.6v-18.7c0-2.7-2.5-5.6-5.9-5.6s-5.9,3-5.9,5.6
	v18.7H25.1z"/>
<path fill="#D8E028" d="M35.8,221.2v-18.7c0-2.4-2.3-5-5.3-5s-5.3,2.7-5.3,5v18.7"/>
<rect x="14.2" y="214.9" fill="#F89521" width="10.3" height="0.3"/>
<rect x="36.4" y="214.9" fill="#F89521" width="10.4" height="0.3"/>
<rect x="14.2" y="215.7" fill="#F89521" width="10.3" height="0.3"/>
<rect x="36.4" y="215.7" fill="#F89521" width="10.4" height="0.3"/>
<path fill="#2B3C90" d="M77.9,166.6c-11.4,0-20.5,10.8-20.5,19.7v26.6h2.7V209h0v-22.7c0-8,7.6-16.9,17.8-16.9s17.8,8.9,17.8,16.9
	V209h0v3.9h2.7v-26.6C98.3,177.4,89.2,166.6,77.9,166.6z"/>
<path fill="#2075BC" d="M77.9,163c-12.8,0-24,13.4-24,23.4V217h3.6v-4.8h0v-25.7c0-9,8.9-19.7,20.5-19.7s20.5,10.7,20.5,19.7v25.7h0
	v4.8h3.6v-30.5C101.9,176.4,90.8,163,77.9,163z"/>
<path fill="#29AAE1" d="M101.9,220.9h3.8v-35.1c0-11.7-13-27.2-27.9-27.2S50,174.2,50,185.9v35.1h3.8v-4l0,0v-30.5
	c0-6.9,5.2-15.2,12.5-19.9c0.1-0.1,0.1-0.1,0.2-0.1c0,0,0.1,0,0.1,0c1.3-0.8,2.7-1.5,4.3-2.1c0,0,0,0,0.1,0c0.1-0.1,0.3-0.1,0.4-0.1
	c2.1-0.7,4.3-1.2,6.6-1.2s4.5,0.4,6.6,1.2c0.1,0.1,0.3,0.1,0.4,0.1c0,0,0,0,0.1,0c1.5,0.5,2.9,1.2,4.3,2.1c0,0,0,0,0.1,0
	c0.1,0.1,0.1,0.1,0.2,0.1c7.4,4.7,12.5,13,12.5,19.9V217"/>
<path fill="#8EC641" d="M77.9,154.3c-17,0-31.2,17.7-31.2,31v35.9h3.8v-0.3H50v-35.1c0-11.7,13-27.2,27.9-27.2s27.9,15.5,27.9,27.2
	v35.1h-0.4v0.3h4.1v-35.9C109.4,172,94.9,154.3,77.9,154.3z"/>
<path fill="#FCEE23" d="M51.9,169.9C51.9,169.9,51.9,169.9,51.9,169.9c0.4-0.6,0.8-1.2,1.2-1.7c0,0,0,0,0,0c0.6-0.9,1.3-1.7,2-2.5
	c0,0,0,0,0.1-0.1c0.5-0.5,0.9-1,1.4-1.5c0,0,0,0,0.1-0.1c0.2-0.2,0.5-0.5,0.7-0.7c0,0,0,0,0.1-0.1c0.5-0.5,1-0.9,1.5-1.4
	c0,0,0.1-0.1,0.1-0.1c0.5-0.4,1.1-0.9,1.6-1.3c0,0,0.1-0.1,0.1-0.1c0.2-0.2,0.5-0.4,0.7-0.5c0.1,0,0.1-0.1,0.1-0.1
	c0.3-0.2,0.6-0.4,0.9-0.6l0,0c0.3-0.2,0.6-0.4,0.8-0.5c0.1,0,0.1-0.1,0.2-0.1c0.3-0.1,0.5-0.3,0.8-0.5c0,0,0.1,0,0.1-0.1
	c0.3-0.2,0.6-0.3,0.9-0.5c0.1,0,0.1-0.1,0.2-0.1c0.2-0.1,0.5-0.2,0.7-0.4c0.1,0,0.1-0.1,0.2-0.1c0.3-0.1,0.6-0.3,0.9-0.4
	c0,0,0,0,0.1,0c0.3-0.1,0.6-0.2,0.9-0.4c0.1,0,0.1-0.1,0.2-0.1c0.3-0.1,0.5-0.2,0.8-0.3c0.1,0,0.1,0,0.2-0.1
	c0.3-0.1,0.6-0.2,0.9-0.3c0.1,0,0.1,0,0.2-0.1c0.2-0.1,0.5-0.1,0.7-0.2c0.1,0,0.2-0.1,0.3-0.1c0.3-0.1,0.6-0.1,0.9-0.2h0
	c0.3-0.1,0.6-0.1,0.9-0.2c0.1,0,0.2,0,0.3-0.1c0.3-0.1,0.5-0.1,0.8-0.1c0.1,0,0.1,0,0.2,0c0.3,0,0.6-0.1,1-0.1c0.1,0,0.1,0,0.2,0
	c0.3,0,0.5,0,0.8-0.1c0.1,0,0.2,0,0.3,0c0.3,0,0.6,0,1,0c0.3,0,0.6,0,1,0c0.1,0,0.2,0,0.3,0c0.3,0,0.5,0,0.8,0.1c0.1,0,0.1,0,0.2,0
	c0.3,0,0.6,0.1,1,0.1c0.1,0,0.1,0,0.2,0c0.3,0,0.5,0.1,0.8,0.1c0.1,0,0.2,0,0.3,0.1c0.3,0.1,0.6,0.1,0.9,0.2h0
	c0.3,0.1,0.6,0.1,0.9,0.2c0.1,0,0.2,0.1,0.3,0.1c0.3,0.1,0.5,0.1,0.7,0.2c0.1,0,0.1,0,0.2,0.1c0.3,0.1,0.6,0.2,0.9,0.3
	c0.1,0,0.1,0,0.2,0.1c0.3,0.1,0.5,0.2,0.8,0.3c0.1,0,0.1,0.1,0.2,0.1c0.3,0.1,0.6,0.2,0.9,0.4c0,0,0,0,0,0c0.3,0.1,0.6,0.3,0.9,0.4
	c0.1,0,0.1,0.1,0.2,0.1c0.2,0.1,0.5,0.2,0.7,0.4c0.1,0,0.1,0.1,0.2,0.1c0.3,0.1,0.6,0.3,0.9,0.5c0,0,0.1,0,0.1,0.1
	c0.3,0.1,0.5,0.3,0.8,0.5c0.1,0,0.1,0.1,0.2,0.1c0.3,0.2,0.6,0.4,0.8,0.5l0,0c0.3,0.2,0.6,0.4,0.9,0.6c0.1,0,0.1,0.1,0.1,0.1
	c0.2,0.2,0.5,0.4,0.7,0.5c0,0,0.1,0.1,0.1,0.1c0.6,0.4,1.1,0.9,1.6,1.3c0,0,0.1,0.1,0.1,0.1c0.5,0.4,1.1,0.9,1.6,1.4
	c0,0,0,0,0.1,0.1c0.2,0.2,0.5,0.5,0.7,0.7c0,0,0,0,0.1,0.1c0.5,0.5,1,1,1.4,1.5c0,0,0,0,0.1,0.1c0.7,0.8,1.4,1.6,2,2.5c0,0,0,0,0,0
	c0.4,0.6,0.8,1.2,1.2,1.7c0,0,0,0,0,0c0.6,0.9,1.1,1.8,1.6,2.7l0,0l0,0c1.8,3.2,3,6.6,3.5,9.9l0,0l0.1-6.1v-15.9L78.1,128
	l-31.2,32.5v22.3h0C47.4,178.5,49.1,174,51.9,169.9z"/>
<polygon fill="#3DB54A" points="109.4,164.7 78.1,132.2 46.8,164.7 46.8,160.5 78.1,127.9 109.3,160.5 "/>
<circle fill="#D2A12A" cx="77.9" cy="145.1" r="6.6"/>
<circle fill="#342F81" cx="77.9" cy="145.1" r="5.1"/>
<circle fill="#6BBE46" cx="77.9" cy="145.1" r="4.9"/>
<g>
	<path fill="#019547" d="M80.3,142.8c0-0.1-0.1-0.2-0.2-0.2h-0.3l0,0h-0.1c-0.1-0.9-0.8-1-1.7-1c-0.9,0-1.6,0.1-1.7,1l-0.1-0.3
		c0-0.1-0.1-0.1-0.3-0.1c-0.1,0-0.1,0.1-0.1,0.3l0.1,0.1h0c-0.1,0-0.2,0.1-0.2,0.2c0,0.1,0.1,0.2,0.2,0.2H76l0,0l0,0h0.1v2.8v2.2
		c0,0.1,0.1,0.2,0.2,0.2h0.8h1.6h0.8c0.1,0,0.2-0.1,0.2-0.2v-2.2v-1.3l0,0V143l0.1,0.2c0,0.1,0.1,0.1,0.2,0.1c0,0,0.1,0,0.1,0
		c0.1,0,0.1-0.1,0.1-0.3l-0.1-0.1h0C80.2,143,80.3,142.9,80.3,142.8z M78.8,145.8l-0.8-0.4c0,0-0.1,0-0.1,0v-1.2
		c0-0.1,0-0.1-0.1-0.1s-0.1-0.1-0.1-0.1l-1.1,0.1v-1.2h0.5L77,143c-0.1,0.1,0,0.2,0.1,0.3c0,0,0.1,0,0.1,0c0.1,0,0.1,0,0.2-0.1
		l0.2-0.3H78l0,0l0,0h0.6v0.2c0,0.1,0.1,0.2,0.2,0.2c0.1,0,0.2-0.1,0.2-0.2v-0.2h0.4v1.2l-0.9-0.2c-0.1,0-0.2,0-0.2,0.1
		c0,0.1,0,0.2,0.1,0.2l0.2,0.1c0,0.1,0.1,0.2,0.2,0.2c0.1,0,0.1,0,0.2-0.1l0.3,0.1v0.5c0,0.4-0.1,0.7-0.4,0.9v0
		C78.9,145.9,78.9,145.9,78.8,145.8z M77.1,145.8c-0.1,0-0.1,0.1-0.1,0.2v0c-0.2-0.2-0.4-0.6-0.4-0.9v-0.5l0.3,0
		c0,0.1,0.1,0.1,0.2,0.1c0.1,0,0.2-0.1,0.2-0.2l0.2,0v1.2L77.1,145.8z M78,141.9c0.7,0,1.2,0,1.3,0.6h-1l0.1-0.1
		c0.1-0.1,0-0.2-0.1-0.3c-0.1-0.1-0.2,0-0.3,0.1l-0.2,0.3h-0.6v-0.2c0-0.1-0.1-0.2-0.2-0.2c-0.1,0-0.2,0.1-0.2,0.2v0.2h-0.3
		C76.7,141.9,77.3,141.9,78,141.9z M76.6,146.2c0.1,0.1,0.2,0.3,0.4,0.4v1.2h-0.4V146.2z M77.4,146.1l0.6-0.3l0.6,0.3v1.6h-1.2
		L77.4,146.1L77.4,146.1z M78.9,147.7v-1.2c0.1-0.1,0.3-0.2,0.4-0.4v1.6L78.9,147.7L78.9,147.7z"/>
	<path fill="#019547" d="M78.2,146.2l-0.2,0.1l-0.2-0.1c-0.1,0-0.2,0.1-0.2,0.2c0,0.1,0.1,0.2,0.2,0.2l0.2,0.2l0.2-0.2
		c0.1,0,0.2-0.1,0.2-0.2C78.4,146.3,78.3,146.2,78.2,146.2z"/>
</g>
<g class="text draggable">
	<rect x="11.9" y="54.6" fill="none" width="114.7" height="50.4" data-visibility="hidden" class="headline"/>
	<text id="text_x5F_headline" transform="matrix(1 0 0 1 11.9163 70.2049)">
		<tspan x="0" y="0" font-family="'Futura-Medium'" font-size="18.8569">RAINER</tspan>
		<tspan x="0" y="20" font-family="'Futura-Medium'" font-size="18.8569">SCHACKE</tspan>
		<tspan x="0" y="40" font-family="'Futura-Medium'" font-size="18.8569"></tspan>
		<tspan x="0" y="60" font-family="'Futura-Medium'" font-size="18.8569"></tspan>
	</text>
</g>
<g class="text draggable">
	<rect x="22.7" y="100" fill="none" width="82.8" height="29.9"  data-visibility="hidden" class="subtitle"/>
	<text transform="matrix(1 0 0 1 22.6582 109.8315)">
		<tspan x="0" y="0" font-family="'Futura-Medium'" font-size="9.0512">Pastor</tspan>
		<tspan x="0" y="11" font-family="'Futura-Medium'" font-size="9.0512"></tspan>
	</text>
</g>
<g class="text draggable">
	<rect x="12.5" y="180.2" fill="none" width="129.3" height="35.3" data-visibility="hidden" class="description"/>
	<text transform="matrix(1 0 0 1 12.5354 185.3082)">
		<tspan x="0" y="0" font-family="'Futura-Medium'" font-size="6.2213">EVANGELISCHE KULTURWERKSTATT</tspan>
		<tspan x="0" y="7.5" font-family="'Futura-Medium'" font-size="6.2213">Johannes Evangelist Kirche,</tspan>
		<tspan x="0" y="15" font-family="'Futura-Medium'" font-size="6.2213">Augustastr. 4, Berlin Mitte</tspan>
	</text>
</g>
<g id="Logo">
	<polygon fill="#030303" points="23,225.1 13.2,225.1 13.2,235.1 23,235.1 16.3,230.1 	"/>
	<path fill="#030303" d="M32.9,225.3l-2.3,3.1L28,225l-2.6,3.3l-2.4-3.3v9.9h10l0,0h9.2v-9.9h-9.7L32.9,225.3z M33.1,234.7l-0.1-4.5
		l3.1,2.4L33.1,234.7z M33,229.9l-0.1-4.5l3.1,2.2L33,229.9z"/>
	<polygon fill="#030303" points="50.2,225.8 49.9,225.8 46.7,230.7 46.7,225.8 46.4,225.8 46.4,234.5 46.7,234.5 46.7,231.2 
		47.4,230.2 50.1,234.5 50.4,234.5 47.5,229.9 	"/>
	<path fill="#030303" d="M54.7,232.4c0,1.1-0.4,2-1.6,2c-1.1,0-1.6-0.9-1.6-2v-6.5h-0.3v6.5c0,1.2,0.5,2.2,1.8,2.2
		c1.3,0,1.8-1,1.8-2.2v-6.5h-0.1V232.4z"/>
	<polygon fill="#030303" points="56.2,225.8 56,225.8 56,234.5 59.2,234.5 59.2,234.2 56.2,234.2 	"/>
	<polygon fill="#030303" points="59.2,226 61.1,226 61.1,234.5 61.4,234.5 61.4,226 63.3,226 63.3,225.8 59.2,225.8 	"/>
	<path fill="#030303" d="M67.3,232.4c0,1.1-0.4,2-1.6,2c-1.2,0-1.6-0.9-1.6-2v-6.5h-0.3v6.5c0,1.2,0.5,2.2,1.8,2.2
		c1.3,0,1.8-1,1.8-2.2v-6.5h-0.3v6.5H67.3z"/>
	<path fill="#030303" d="M72.1,232.1c0-0.9-0.4-1.6-1.3-1.8c0.9-0.1,1.3-0.8,1.3-1.8v-0.8c0-1.2-0.5-2-1.8-2h-1.7v8.7h0.3v-4H70
		c1.1,0,1.9,0.4,1.9,1.6v1.3c0,0.4,0.1,0.8,0.2,1.1h0.3c-0.2-0.3-0.2-0.7-0.2-1.1L72.1,232.1L72.1,232.1z M68.9,230.2V226h1.4
		c1.1,0,1.6,0.6,1.6,1.7v0.8c0,1.3-0.7,1.6-1.9,1.6L68.9,230.2L68.9,230.2z"/>
	<polygon fill="#030303" points="78.3,234.1 76.9,225.8 76.6,225.8 75.1,234.1 73.6,225.8 73.3,225.8 74.9,234.5 75.2,234.5 
		76.7,226.4 78.1,234.5 78.5,234.5 80,225.8 79.8,225.8 	"/>
	<polygon fill="#030303" points="81,234.5 84.3,234.5 84.3,234.2 81.3,234.2 81.3,230.2 83.8,230.2 83.8,229.9 81.3,229.9 81.3,226 
		84.3,226 84.3,225.8 81,225.8 	"/>
	<path fill="#030303" d="M88.8,232.1c0-0.9-0.4-1.6-1.3-1.8c0.9-0.1,1.3-0.8,1.3-1.8v-0.8c0-1.2-0.5-2-1.8-2h-1.7v8.7h0.3v-4h1.1
		c1.1,0,1.9,0.4,1.9,1.6v1.3c0,0.4,0.1,0.8,0.2,1.1h0.3c-0.2-0.3-0.2-0.7-0.2-1.1L88.8,232.1L88.8,232.1z M85.6,230.2V226H87
		c1.1,0,1.6,0.6,1.6,1.7v0.8c0,1.3-0.7,1.6-1.9,1.6L85.6,230.2L85.6,230.2z"/>
	<polygon fill="#030303" points="93.8,225.8 93.5,225.8 90.3,230.7 90.3,225.8 90,225.8 90,234.5 90.3,234.5 90.3,231.2 91,230.2 
		93.8,234.5 94,234.5 91.1,229.9 	"/>
	<path fill="#030303" d="M95.3,227.8c0-1.1,0.4-1.9,1.6-1.9c1.1,0,1.5,0.9,1.5,1.9v0.1h0.3v-0.1c0-1.2-0.5-2.1-1.8-2.1
		c-1.3,0-1.8,0.9-1.8,2.1c0,2.4,3.3,2.3,3.3,4.5c0,1.1-0.4,1.9-1.6,1.9c-1.1,0-1.6-0.9-1.6-1.9v-0.4H95v0.4c0,1.2,0.5,2.1,1.8,2.1
		c1.3,0,1.8-0.9,1.8-2.1C98.6,230,95.3,230.1,95.3,227.8z"/>
	<polygon fill="#030303" points="99.3,226 101.2,226 101.2,234.5 101.4,234.5 101.4,226 103.4,226 103.4,225.8 99.3,225.8 	"/>
	<path fill="#030303" d="M105.7,225.8l-2.1,8.7h0.3l0.5-2.1h3.1l0.5,2.1h0.3l-2.1-8.7H105.7z M104.4,232.1l1.5-6.1l1.5,6.1H104.4z"
		/>
	<polygon fill="#030303" points="108.5,226 110.4,226 110.4,234.5 110.7,234.5 110.7,226 112.5,226 112.5,225.8 108.5,225.8 	"/>
	<polygon fill="#030303" points="113,226 114.9,226 114.9,234.5 115.2,234.5 115.2,226 117.1,226 117.1,225.8 113,225.8 	"/>
	<path fill="#030303" d="M122,229.8c1-0.1,1.3-0.7,1.3-1.7v-0.6c0-1.1-0.4-1.8-1.7-1.8h-1.8v8.7h1.8c1.3,0,1.8-0.8,1.8-2v-0.8
		C123.4,230.7,123,229.9,122,229.8z M120,226h1.5c1.1,0,1.4,0.6,1.4,1.6v0.6c0,1.3-0.6,1.6-1.8,1.6H120V226z M123.1,232.4
		c0,1.1-0.4,1.8-1.6,1.8H120v-4.3h1.3c1.2,0,1.8,0.4,1.8,1.7V232.4z"/>
	<polygon fill="#030303" points="124.4,234.5 127.7,234.5 127.7,234.2 124.7,234.2 124.7,230.2 127.2,230.2 127.2,229.9 
		124.7,229.9 124.7,226 127.7,226 127.7,225.8 124.4,225.8 	"/>
	<path fill="#030303" d="M132.2,232.1c0-0.9-0.4-1.6-1.3-1.8c0.9-0.1,1.3-0.8,1.3-1.8v-0.8c0-1.2-0.5-2-1.8-2h-1.7v8.7h0.3v-4h1.1
		c1.1,0,1.9,0.4,1.9,1.6v1.3c0,0.4,0.1,0.8,0.2,1.1h0.3c-0.2-0.3-0.2-0.7-0.2-1.1L132.2,232.1L132.2,232.1z M128.9,230.2V226h1.4
		c1.1,0,1.6,0.6,1.6,1.7v0.8c0,1.3-0.7,1.6-1.9,1.6L128.9,230.2L128.9,230.2z"/>
	<polygon fill="#030303" points="133.7,225.8 133.4,225.8 133.4,234.5 136.6,234.5 136.6,234.2 133.7,234.2 	"/>
	<rect x="137.5" y="225.8" fill="#030303" width="0.3" height="8.7"/>
	<polygon fill="#030303" points="142.2,225.8 142.2,233.9 139.2,225.8 138.8,225.8 138.8,234.5 139.1,234.5 139.1,226.2 
		142.1,234.5 142.5,234.5 142.5,225.8 	"/>
</g>
</svg>
