<svg version="1.1" id="generatedSVG" xmlns="http://www.w3.org/2000/svg" xmlns:xlink="http://www.w3.org/1999/xlink" x="0px" y="0px" viewBox="0 0 595.3 841.9" enable-background="new 0 0 595.3 841.9" preserveAspectRatio="none" title="test2">
	 <defs>
		<filter id="overlay" filterUnits="objectBoundingBox" x="0%" y="0%" width="100%" height="100%">
		  <feBlend in="SourceGraphic" mode="overlay"></feBlend>
		  <feBlend in="SourceGraphic" mode="overlay"></feBlend>
		</filter>
		<filter id="grayscale">
          <feColorMatrix type="saturate" values="0"></feColorMatrix>
     </filter>
	</defs>

<image id="background_image" xlink:href="" x="0" y="0" filter=""></image> 
<rect id="svg_x5F_background" fill="#ffffff" width="595.3" height="841.9" filter="" fill-opacity="1"></rect>

<g>
	
	
	
</g>




<rect x="194" y="295.6" fill="#63e99d" width="60" height="12.3" fill-opacity="1"></rect>

<circle fill="#63bce9" cx="295.6" cy="187.2" r="30" fill-opacity="1"></circle>



<path fill="#63e9e9" d="M485.3,103.5" fill-opacity="1"></path>


<path fill="#63e9d5" d="M475.3,91.5" fill-opacity="1"></path>
<g>
	
</g>

<rect x="75.7" y="338.4" fill="#63d2e9" width="439.9" height="5" fill-opacity="1"></rect>




<path fill="#63dbe9" d="M301.6,266.5c0-6.7,5.4-12.1,12-12.1s12,5.4,12,12.1v-10c0-6.7-8.4-12.1-15-12.1s-14,5.4-14,12.1l-1,4.1
	l-1-4.1c0-6.7-7.4-12.1-14-12.1s-15,5.4-15,12.1v10c0-6.7,5.4-12.1,12-12.1c6.6,0,12,5.4,12,12.1H301.6z" fill-opacity="1"></path>

<rect x="289.6" y="266.5" fill="#63e9aa" width="12" height="29.1" fill-opacity="1"></rect>



















<circle fill="#63c9e9" cx="295.9" cy="509.3" r="20.9" fill-opacity="1"></circle>

<circle fill="#63e99d" cx="346.9" cy="458" r="20.9" fill-opacity="1"></circle>


<circle fill="#63e9b3" cx="295.7" cy="407" r="18" fill-opacity="1"></circle>








<circle fill="#63e9ba" cx="332" cy="494.2" r="18.7" fill-opacity="1"></circle>





<circle fill="#63e9b5" cx="295.8" cy="458.1" r="19.1" fill-opacity="1"></circle>

















<path fill="#63afe9" d="M429.2,479.4c-4.7,0-8.5,3.8-8.5,8.6v1.7h17V488C437.7,483.3,433.9,479.4,429.2,479.4z" fill-opacity="1"></path>









<path fill="#63e9af" d="M467.7,539.3c-4,0-7.2,3.3-7.2,7.3v17.6H475v-17.6C475,542.6,471.7,539.3,467.7,539.3z" fill-opacity="1"></path>






<rect x="453.3" y="546.6" fill="#63e9b5" width="7.2" height="17.6" fill-opacity="1"></rect>

<circle fill="#63e9a6" cx="456.9" cy="528.4" r="5.7" fill-opacity="1"></circle>
<circle fill="#63e99d" cx="456.9" cy="528.4" r="5.5" fill-opacity="1"></circle>
<g>
	
</g>


<rect x="436.8" y="585.1" fill="#63a6e9" width="40.2" height="1" fill-opacity="1"></rect>








<circle fill="#63c7e9" cx="295.7" cy="625.7" r="19" fill-opacity="1"></circle>


<g>
	
</g>




<rect x="427.1" y="603.8" fill="#63e99b" width="2.3" height="2.3" fill-opacity="1"></rect>
<rect x="431.5" y="603.8" fill="#63e6e9" width="2.3" height="2.3" fill-opacity="1"></rect>

<rect x="440.4" y="603.8" fill="#63bee9" width="2.3" height="2.3" fill-opacity="1"></rect>







<rect x="476" y="603.8" fill="#63cee9" width="2.3" height="2.3" fill-opacity="1"></rect>

<rect x="484.9" y="603.8" fill="#63afe9" width="2.3" height="2.3" fill-opacity="1"></rect>














<rect x="456.1" y="601.5" fill="#63dbe9" width="2.3" height="2.3" fill-opacity="1"></rect>






<rect x="487.2" y="601.5" fill="#63e9b1" width="2.3" height="2.3" fill-opacity="1"></rect>
<rect x="491.7" y="601.5" fill="#63a8e9" width="2.3" height="2.3" fill-opacity="1"></rect>





<rect x="477" y="752.1" fill="#63b8e9" width="35.3" height="1" fill-opacity="1"></rect>

<rect x="477" y="754.8" fill="#63dee9" width="35.3" height="1" fill-opacity="1"></rect>

<polygon fill="#63e9de" points="134.7,375.8 134.7,375.8 75.7,476.5 193.7,476.5 " fill-opacity="1"></polygon>






















<g>
	
</g>


<rect x="114.9" y="585.4" fill="#63e9be" width="40.2" height="1" fill-opacity="1"></rect>




<rect x="105.2" y="604.1" fill="#63e0e9" width="2.3" height="2.3" fill-opacity="1"></rect>



<rect x="123" y="604.1" fill="#63e9c1" width="2.3" height="2.3" fill-opacity="1"></rect>







<rect x="158.5" y="604.1" fill="#63d7e9" width="2.3" height="2.3" fill-opacity="1"></rect>




<rect x="180.7" y="604.1" fill="#63e99f" width="2.3" height="2.3" fill-opacity="1"></rect>
<rect x="89.8" y="601.7" fill="#63dee9" width="2.3" height="2.3" fill-opacity="1"></rect>








<rect x="129.8" y="601.7" fill="#63d2e9" width="2.3" height="2.3" fill-opacity="1"></rect>
<rect x="134.2" y="601.7" fill="#63e9a6" width="2.3" height="2.3" fill-opacity="1"></rect>



<rect x="152" y="601.7" fill="#63e99d" width="2.3" height="2.3" fill-opacity="1"></rect>





<rect x="178.6" y="601.7" fill="#63e9d9" width="2.3" height="2.3" fill-opacity="1"></rect>

<path fill="#63e9b1" d="M153.1,773.9v-63.4c0-8.1-7.8-17.1-18.1-17.1c-10.3,0-18.1,9-18.1,17.1v63.4" fill-opacity="1"></path>

<rect x="155.1" y="752.4" fill="#63e9b8" width="35.3" height="1" fill-opacity="1"></rect>



<path fill="#63e9e0" d="M295.7,576.7c-43.5,0-81.4,45.3-81.4,79.4v103.4h12.2v-16.1h-0.1v-87.1c0-30.6,30.2-66.8,69.3-66.8
	s69.3,36.2,69.3,66.8v87.1h-0.1v16.1h12.2V656.1C377.1,622,339.2,576.7,295.7,576.7z" fill-opacity="1"></path>

<path fill="#63e9d0" d="M295.7,547.2c-57.6,0-105.7,60-105.7,105.1V774h12.8v-1h-1.5V654.2c0-39.6,43.9-92.1,94.4-92.1
	s94.4,52.5,94.4,92.1V773h-1.5v0.9h13.8V652.3C402.4,607.1,353.3,547.2,295.7,547.2z" fill-opacity="1"></path>





<g>
	
	
</g>
<g class="text draggable">
	
	<text id="text_x5F_headline" transform="matrix(1 0 0 1 23 114)" class="dynamicText_0" fill="#000000" fill-opacity="1"><tspan class="0" x="0" y="0" font-family="'AbrilFatface-Regular'" font-size="70" font-style="undefined">Werkstatt</tspan><tspan class="1" x="0" y="61" font-family="'AbrilFatface-Regular'" font-size="70" font-style="undefined">Gottesdienst</tspan></text>
</g>
<g class="text draggable ">
	
	<text id="text_x5F_subtitle" transform="matrix(1 0 0 1 28 214)" class="dynamicText_1" fill="#000000" fill-opacity="1"><tspan class="0" x="0" y="0" font-family="GloberLight" font-size="28" font-style="undefined">Glauben erproben, Gott erleben.</tspan><tspan class="1" x="0" y="28.8" font-family="GloberLight" font-size="28" font-style="undefined"></tspan></text>
</g>
<g class="text draggable">
	
	<text id="text_x5F_description" transform="matrix(1 0 0 1 22 634)" class="dynamicText_2" fill="#000000" fill-opacity="1"><tspan class="0" x="0" y="0" font-family="'Futura-Medium'" font-size="14" font-style="undefined">Sonntags, 10 Uhr</tspan><tspan class="1" x="0" y="21" font-family="'Futura-Medium'" font-size="14" font-style="undefined">Johannes Evangelist Kirche,  </tspan><tspan class="2" x="0" y="42" font-family="'Futura-Medium'" font-size="14" font-style="undefined">Augustastr. 4, Berlin-Mitte</tspan><tspan class="3" x="0" y="63" font-family="'Futura-Medium'" font-size="14" font-style="undefined"></tspan></text>
</g>
<g id="Logo">
	<polygon fill="hsla(0, 100%, 0%, 1)" points="36.4,807.9 22.6,807.9 22.6,821.9 36.4,821.9 27,814.9 	" fill-opacity="1"></polygon>
	<path fill="hsla(0, 100%, 0%, 1)" d="M50.3,808.1l-3.3,4.3l-3.6-4.6l-3.6,4.7l-3.4-4.6l0,13.9h14.1l0,0l13,0v-13.9l-13.6,0L50.3,808.1z
		 M50.6,821.4l-0.1-6.4l4.4,3.4L50.6,821.4z M50.5,814.7l-0.1-6.4l4.3,3.1L50.5,814.7z" fill-opacity="1"></path>
	<polygon fill="hsla(0, 100%, 0%, 1)" points="74.7,808.8 74.3,808.8 69.8,815.7 69.8,808.8 69.4,808.8 69.4,821.1 69.8,821.1 69.8,816.4 
		70.7,815 74.6,821.1 75,821.1 70.9,814.6 	" fill-opacity="1"></polygon>
	<path fill="hsla(0, 100%, 0%, 1)" d="M81,818.1c0,1.5-0.5,2.8-2.2,2.8c-1.6,0-2.2-1.3-2.2-2.8v-9.2h-0.4v9.2c0,1.7,0.7,3.1,2.5,3.1
		c1.9,0,2.5-1.4,2.5-3.1v-9.2H81V818.1z" fill-opacity="1"></path>
	<polygon fill="hsla(0, 100%, 0%, 1)" points="83.1,808.8 82.8,808.8 82.8,821.1 87.3,821.1 87.3,820.7 83.1,820.7 	" fill-opacity="1"></polygon>
	<polygon fill="hsla(0, 100%, 0%, 1)" points="87.3,809.2 90,809.2 90,821.1 90.4,821.1 90.4,809.2 93.1,809.2 93.1,808.8 87.3,808.8 	" fill-opacity="1"></polygon>
	<path fill="hsla(0, 100%, 0%, 1)" d="M98.8,818.1c0,1.5-0.5,2.8-2.2,2.8s-2.2-1.3-2.2-2.8v-9.2h-0.4v9.2c0,1.7,0.7,3.1,2.5,3.1
		c1.9,0,2.5-1.4,2.5-3.1v-9.2h-0.4V818.1z" fill-opacity="1"></path>
	<path fill="hsla(0, 100%, 0%, 1)" d="M105.5,817.7c0-1.3-0.6-2.2-1.9-2.5c1.3-0.2,1.9-1.1,1.9-2.6v-1.1c0-1.7-0.7-2.8-2.5-2.8h-2.4v12.3h0.4
		v-5.7h1.5c1.6,0,2.7,0.5,2.7,2.3v1.9c0,0.5,0.1,1.1,0.3,1.5h0.4c-0.3-0.4-0.3-1-0.3-1.5V817.7z M101,815v-5.9h2
		c1.6,0,2.2,0.9,2.2,2.4v1.1c0,1.9-1,2.3-2.7,2.3H101z" fill-opacity="1"></path>
	<polygon fill="hsla(0, 100%, 0%, 1)" points="114.3,820.5 112.3,808.9 111.8,808.9 109.7,820.5 107.6,808.8 107.2,808.8 109.4,821.1 
		109.9,821.1 112,809.7 114,821.1 114.5,821.1 116.7,808.8 116.3,808.8 	" fill-opacity="1"></polygon>
	<polygon fill="hsla(0, 100%, 0%, 1)" points="118,821.1 122.7,821.1 122.7,820.7 118.4,820.7 118.4,815 122,815 122,814.7 118.4,814.7 
		118.4,809.2 122.7,809.2 122.7,808.8 118,808.8 	" fill-opacity="1"></polygon>
	<path fill="hsla(0, 100%, 0%, 1)" d="M129,817.7c0-1.3-0.6-2.2-1.9-2.5c1.3-0.2,1.9-1.1,1.9-2.6v-1.1c0-1.7-0.7-2.8-2.5-2.8h-2.4v12.3h0.4v-5.7
		h1.5c1.6,0,2.7,0.5,2.7,2.3v1.9c0,0.5,0.1,1.1,0.3,1.5h0.4c-0.3-0.4-0.3-1-0.3-1.5V817.7z M124.5,815v-5.9h2c1.6,0,2.2,0.9,2.2,2.4
		v1.1c0,1.9-1,2.3-2.7,2.3H124.5z" fill-opacity="1"></path>
	<polygon fill="hsla(0, 100%, 0%, 1)" points="136.1,808.8 135.7,808.8 131.1,815.7 131.1,808.8 130.7,808.8 130.7,821.1 131.1,821.1 
		131.1,816.4 132.1,815 136,821.1 136.4,821.1 132.3,814.6 	" fill-opacity="1"></polygon>
	<path fill="hsla(0, 100%, 0%, 1)" d="M138.1,811.7c0-1.5,0.5-2.7,2.2-2.7c1.6,0,2.1,1.2,2.1,2.7v0.2h0.4v-0.2c0-1.7-0.7-3-2.5-3
		c-1.8,0-2.5,1.2-2.5,3c0,3.4,4.7,3.3,4.7,6.4c0,1.5-0.6,2.7-2.2,2.7s-2.2-1.2-2.2-2.7v-0.6h-0.4v0.6c0,1.7,0.7,3,2.6,3
		c1.9,0,2.6-1.3,2.6-3C142.8,814.8,138.1,814.9,138.1,811.7z" fill-opacity="1"></path>
	<polygon fill="hsla(0, 100%, 0%, 1)" points="143.8,809.2 146.4,809.2 146.4,821.1 146.8,821.1 146.8,809.2 149.5,809.2 149.5,808.8 
		143.8,808.8 	" fill-opacity="1"></polygon>
	<path fill="hsla(0, 100%, 0%, 1)" d="M152.8,808.8l-3,12.3h0.4l0.7-2.9h4.4l0.7,2.9h0.4l-3-12.3H152.8z M151,817.8l2.1-8.6l2.1,8.6H151z" fill-opacity="1"></path>
	<polygon fill="hsla(0, 100%, 0%, 1)" points="156.7,809.2 159.4,809.2 159.4,821.1 159.8,821.1 159.8,809.2 162.4,809.2 162.4,808.8 
		156.7,808.8 	" fill-opacity="1"></polygon>
	<polygon fill="hsla(0, 100%, 0%, 1)" points="163.1,809.2 165.8,809.2 165.8,821.1 166.2,821.1 166.2,809.2 168.9,809.2 168.9,808.8 
		163.1,808.8 	" fill-opacity="1"></polygon>
	<path fill="hsla(0, 100%, 0%, 1)" d="M175.7,814.5c1.4-0.2,1.8-1,1.8-2.4v-0.8c0-1.6-0.6-2.5-2.4-2.5h-2.5v12.3h2.5c1.9,0,2.6-1.1,2.6-2.8v-1.1
		C177.7,815.7,177.2,814.7,175.7,814.5z M173,809.2h2.1c1.5,0,2,0.8,2,2.2v0.8c0,1.8-0.8,2.2-2.5,2.2H173V809.2z M177.3,818.2
		c0,1.5-0.6,2.5-2.2,2.5H173v-6h1.8c1.7,0,2.5,0.6,2.5,2.4V818.2z" fill-opacity="1"></path>
	<polygon fill="hsla(0, 100%, 0%, 1)" points="179.1,821.1 183.7,821.1 183.7,820.7 179.5,820.7 179.5,815 183.1,815 183.1,814.7 179.5,814.7 
		179.5,809.2 183.7,809.2 183.7,808.8 179.1,808.8 	" fill-opacity="1"></polygon>
	<path fill="hsla(0, 100%, 0%, 1)" d="M190.1,817.7c0-1.3-0.6-2.2-1.9-2.5c1.3-0.2,1.9-1.1,1.9-2.6v-1.1c0-1.7-0.7-2.8-2.5-2.8h-2.4v12.3h0.4
		v-5.7h1.5c1.6,0,2.7,0.5,2.7,2.3v1.9c0,0.5,0.1,1.1,0.3,1.5h0.4c-0.3-0.4-0.3-1-0.3-1.5V817.7z M185.5,815v-5.9h2
		c1.6,0,2.2,0.9,2.2,2.4v1.1c0,1.9-1,2.3-2.7,2.3H185.5z" fill-opacity="1"></path>
	<polygon fill="hsla(0, 100%, 0%, 1)" points="192.2,808.8 191.8,808.8 191.8,821.1 196.3,821.1 196.3,820.7 192.2,820.7 	" fill-opacity="1"></polygon>
	<rect x="197.6" y="808.8" fill="hsla(0, 100%, 0%, 1)" width="0.4" height="12.3" fill-opacity="1"></rect>
	<polygon fill="hsla(0, 100%, 0%, 1)" points="204.2,808.8 204.2,820.3 199.9,808.8 199.4,808.8 199.4,821.1 199.8,821.1 199.8,809.4 
		204.1,821.1 204.6,821.1 204.6,808.8 	" fill-opacity="1"></polygon>
</g>
</svg>