<svg version="1.1" id="generatedSVG" xmlns="http://www.w3.org/2000/svg" xmlns:xlink="http://www.w3.org/1999/xlink" x="0px" y="0px" viewBox="0 0 595.3 841.9" enable-background="new 0 0 595.3 841.9" preserveAspectRatio="none" title="test2">
	 <defs>
		<filter id="overlay" filterUnits="objectBoundingBox" x="0%" y="0%" width="100%" height="100%">
		  <feBlend in="SourceGraphic" mode="overlay"></feBlend>
		  <feBlend in="SourceGraphic" mode="overlay"></feBlend>
		</filter>
		<filter id="grayscale">
          <feColorMatrix type="saturate" values="0"></feColorMatrix>
     </filter>
	</defs>

<image id="background_image" xlink:href="" x="0" y="0" filter=""></image> 
<rect id="svg_x5F_background" fill="#e87d7d" width="595.3" height="841.9" filter="" fill-opacity="1"></rect>

<g>
	<polygon fill="#efd98f" points="95.6,302.9 295.6,78.4 495.6,302.9 495.6,318.4 95.6,318.4 	" fill-opacity="1"></polygon>
	<polygon fill="#c28fef" points="75.6,338.4 75.6,295.3 295.6,48.3 515.6,295.3 515.6,338.4 	" fill-opacity="1"></polygon>
	<polygon fill="#ef8fa9" points="95.6,302.9 295.6,78.4 495.6,302.9 495.6,318.4 95.6,318.4 	" fill-opacity="1"></polygon>
</g>



<path fill="#c1ef8f" d="M230,266.5c0-6.7,5.4-12.1,12-12.1c6.6,0,12,5.4,12,12.1v-10c0-6.7-8.4-12.1-15-12.1c-6.6,0-14,5.4-14,12.1
	l-1,4.1l-1-4.1c0-6.7-7.4-12.1-14-12.1c-6.6,0-15,5.4-15,12.1v10c0-6.7,5.4-12.1,12-12.1c6.6,0,12,5.4,12,12.1H230z" fill-opacity="1"></path>









<path fill="#efbf8f" d="M475.3,91.5" fill-opacity="1"></path>
<g>
	<path fill="#8fefd7" d="M295.7,79l-200,224.5l0.1,10.5h25.5v-16c0-6.6,4.6-12,10.2-12c4.5,0,8.3,3.4,9.7,8.1h0.6V294h2.9v-24
		c0-6.6,4.6-12,10.2-12c4.9,0,9,4,10,9.3l0,0c0.1,0,0.1,0,0.2,0v-0.2h2.9v-24c0-6.6,4.6-12,10.2-12c4.9,0,9,4.1,10,9.5
		c0.1,0,0.2,0,0.2,0v-0.2h2.9v-24c0-6.6,4.6-12,10.2-12c4.9,0,9,4.1,10,9.5c0.1,0,0.2,0,0.2,0v-0.2h2.9v-24c0-6.6,4.6-12,10.2-12
		c4.8,0,8.9,3.9,10,9.2c0.1,0,0.2,0,0.3,0v-0.1h2.9v-24c0-6.6,4.6-12,10.2-12c4.9,0,9,4,10,9.4c0.1,0,0.2,0,0.3,0V160h2.9v-24
		c0-6.6,4.6-12,10.2-12c4.9,0,8.9,4,10,9.3c0.1,0,0.1,0,0.2,0c0,0,0.1,0,0.1,0.1v-0.2h2.9v-24c0-6.6,4.6-12,10.2-12
		c5.7,0,10.2,5.4,10.2,12v24h2.9v0.3c0.1,0,0.2-0.1,0.3-0.1c1-5.4,5.1-9.4,10-9.4c5.7,0,10.2,5.4,10.2,12v24h2.9v0.2
		c0.1,0,0.2,0,0.3,0c1-5.4,5.1-9.4,10-9.4c5.7,0,10.2,5.4,10.2,12v24h2.9v0.1c0.1,0,0.2,0,0.3,0l0,0c1.1-5.3,5.1-9.2,10-9.2
		c5.7,0,10.2,5.4,10.2,12v24h2.9v0.2h0.1c0.1,0,0.1,0,0.1,0c1-5.4,5.1-9.5,10-9.5c5.7,0,10.2,5.4,10.2,12v24h2.9v0.2
		c0.1,0,0.2,0,0.2,0c1-5.4,5.1-9.5,10-9.5c5.7,0,10.2,5.4,10.2,12v24h2.3c0.2,0,0.4,0,0.6,0c0.1,0,0.2,0,0.4,0
		c1.1-5.2,5.1-9.1,9.9-9.1c5.7,0,10.2,5.4,10.2,12v24h2.9v0.1h0.6c1.4-4.7,5.2-8.1,9.7-8.1c5.7,0,10.2,5.4,10.2,12v16h25.6v-10.5
		L295.7,79z" fill-opacity="1"></path>
</g>














<rect x="361.6" y="266.5" fill="#abef8f" width="12" height="29.1" fill-opacity="1"></rect>


<circle fill="#be8fef" cx="295.8" cy="458.1" r="82.8" fill-opacity="1"></circle>
<circle fill="#91ef8f" cx="295.8" cy="458.1" r="80.6" fill-opacity="1"></circle>
<circle fill="#a98fef" cx="295.8" cy="458.1" r="77.8" fill-opacity="1"></circle>


<circle fill="#efa38f" cx="295.8" cy="458.1" r="19.8" fill-opacity="1"></circle>
<circle fill="#aeef8f" cx="295.8" cy="458.1" r="19.1" fill-opacity="1"></circle>


<circle fill="#efa38f" cx="244.7" cy="458.3" r="20.9" fill-opacity="1"></circle>




<circle fill="#d78fef" cx="331.8" cy="421.9" r="20.9" fill-opacity="1"></circle>









<circle fill="#8fedef" cx="295.9" cy="509.3" r="18" fill-opacity="1"></circle>

<circle fill="#8fefdf" cx="332" cy="494.2" r="18" fill-opacity="1"></circle>










<path fill="#efe28f" d="M314.4,349.4c-4.7,0-8.5,3.8-8.5,8.6v1.7h17V358C323,353.2,319.2,349.4,314.4,349.4z" fill-opacity="1"></path>

<path fill="#8fefe7" d="M389.1,349.4c-4.7,0-8.5,3.8-8.5,8.6v1.7h17V358C397.6,353.2,393.8,349.4,389.1,349.4z" fill-opacity="1"></path>







<polygon fill="#8fef97" points="456.6,375.6 456.6,375.6 397.6,476.3 515.6,476.3 " fill-opacity="1"></polygon>




<path fill="#ef8fc7" d="M466.5,479.4c-4.7,0-8.5,3.8-8.5,8.6v1.7h17V488C475,483.3,471.2,479.4,466.5,479.4z" fill-opacity="1"></path>

<path fill="#8fcaef" d="M397.6,476.3v18.3h4.4V494v-6c0-4.7,3.8-8.6,8.5-8.6c4.7,0,8.5,3.8,8.5,8.6v6.1h1.6V488
	c0-4.7,3.8-8.6,8.5-8.6s8.5,3.8,8.5,8.6v6.1h1.6V488c0-4.7,3.8-8.6,8.5-8.6c4.7,0,8.5,3.8,8.5,8.6v6.1h1.6V488
	c0-4.7,3.8-8.6,8.5-8.6s8.5,3.8,8.5,8.6v6.1h1.6V488c0-4.7,3.8-8.6,8.5-8.6s8.5,3.8,8.5,8.6v6.1h1.6V488c0-4.7,3.8-8.6,8.5-8.6
	s8.5,3.8,8.5,8.6v6.1v0.6h3.8v-18.3H397.6V476.3z" fill-opacity="1"></path>


<path fill="#efba8f" d="M456.6,622.1c-4,0-7.2,3.3-7.2,7.3V647h14.5v-17.6C463.8,625.4,460.6,622.1,456.6,622.1z" fill-opacity="1"></path>





<rect x="436.8" y="564.4" fill="#ef8fc9" width="40.2" height="10.3" fill-opacity="1"></rect>





<circle fill="#efec8f" cx="456.9" cy="528.4" r="5.5" fill-opacity="1"></circle>
<g>
	<path fill="#8fefc6" d="M477,564.2h-2v-25.7c0-8.1-7.8-17.1-18.1-17.1c-10.3,0-18.1,9-18.1,17.1v25.7h-2v-25.7
		c0-9,8.6-19.1,20.1-19.1c11.5,0,20.1,10.1,20.1,19.1V564.2z" fill-opacity="1"></path>
</g>


<rect x="436.8" y="585.1" fill="#b38fef" width="40.2" height="1" fill-opacity="1"></rect>

<path fill="#ef8f9c" d="M295.7,669.3l1.8-7.4c0-12,13.3-21.8,25.3-21.8s27.1,9.8,27.1,21.8v-6.4c0-25.1-24.3-51.4-54.2-51.4
	c-29.9,0-54.2,26.3-54.2,51.4v6.4c0-12,15.1-21.8,27.1-21.8s25.3,9.8,25.3,21.8L295.7,669.3z" fill-opacity="1"></path>



<rect x="226.4" y="745.8" fill="#8fb4ef" width="138.5" height="13.6" fill-opacity="1"></rect>



<circle fill="#8fefd9" cx="295.7" cy="625.7" r="17" fill-opacity="1"></circle>

<g>
	
</g>






<rect x="436" y="603.8" fill="#ef8fe2" width="2.3" height="2.3" fill-opacity="1"></rect>
<rect x="440.4" y="603.8" fill="#efe58f" width="2.3" height="2.3" fill-opacity="1"></rect>





<rect x="467.1" y="603.8" fill="#efa48f" width="2.3" height="2.3" fill-opacity="1"></rect>



<rect x="484.9" y="603.8" fill="#dfef8f" width="2.3" height="2.3" fill-opacity="1"></rect>
<rect x="489.3" y="603.8" fill="#94ef8f" width="2.3" height="2.3" fill-opacity="1"></rect>


<rect x="502.6" y="603.8" fill="#ef8f99" width="2.3" height="2.3" fill-opacity="1"></rect>


<rect x="420.6" y="601.5" fill="#ba8fef" width="2.3" height="2.3" fill-opacity="1"></rect>

<rect x="429.4" y="601.5" fill="#efe78f" width="2.3" height="2.3" fill-opacity="1"></rect>



<rect x="447.2" y="601.5" fill="#8f99ef" width="2.3" height="2.3" fill-opacity="1"></rect>





<rect x="473.9" y="601.5" fill="#ab8fef" width="2.3" height="2.3" fill-opacity="1"></rect>







<path fill="#8fef93" d="M475,773.6v-63.4c0-8.1-7.8-17.1-18.1-17.1c-10.3,0-18.1,9-18.1,17.1v63.4" fill-opacity="1"></path>



















<path fill="#e7ef8f" d="M124.1,539.6c-4,0-7.2,3.3-7.2,7.3v17.6h14.5v-17.6C131.4,542.8,128.1,539.6,124.1,539.6z" fill-opacity="1"></path>



<rect x="80.1" y="662.7" fill="#918fef" width="110.4" height="10.3" fill-opacity="1"></rect>
<rect x="131.4" y="546.8" fill="#d28fef" width="7.2" height="17.6" fill-opacity="1"></rect>
<circle fill="#ef9f8f" cx="135" cy="528.7" r="6.4" fill-opacity="1"></circle>


<g>
	
</g>


<rect x="114.9" y="585.4" fill="#8fc4ef" width="40.2" height="1" fill-opacity="1"></rect>


<rect x="96.3" y="604.1" fill="#ef8fc2" width="2.3" height="2.3" fill-opacity="1"></rect>


<rect x="109.6" y="604.1" fill="#948fef" width="2.3" height="2.3" fill-opacity="1"></rect>
<rect x="114.1" y="604.1" fill="#8fe2ef" width="2.3" height="2.3" fill-opacity="1"></rect>


<rect x="127.4" y="604.1" fill="#be8fef" width="2.3" height="2.3" fill-opacity="1"></rect>


<rect x="140.7" y="604.1" fill="#e2ef8f" width="2.3" height="2.3" fill-opacity="1"></rect>













<rect x="107.5" y="601.7" fill="#ac8fef" width="2.3" height="2.3" fill-opacity="1"></rect>





























<circle fill="#8fafef" cx="295.8" cy="516.2" r="17.2" fill-opacity="1"></circle>

<g>
	
	
</g>
<g class="text draggable">
	
	<text id="text_x5F_headline" transform="matrix(1 0 0 1 76 402)" class="dynamicText_0" fill="#000000" fill-opacity="1"><tspan class="0" x="0" y="0" font-family="GloberHeavy" font-size="72" font-style="undefined">WERK </tspan><tspan class="1" x="0" y="54" font-family="GloberHeavy" font-size="72" font-style="undefined">STATT </tspan><tspan class="2" x="0" y="108" font-family="GloberHeavy" font-size="72" font-style="undefined">GOTTES </tspan><tspan class="3" x="0" y="162" font-family="GloberHeavy" font-size="72" font-style="undefined">DIENST</tspan><tspan class="4" x="0" y="216" font-family="GloberHeavy" font-size="72" font-style="undefined"></tspan></text>
</g>
<g class="text draggable ">
	
	<text id="text_x5F_subtitle" transform="matrix(1 0 0 1 0 73)" class="dynamicText_1" fill="#000000" fill-opacity="1"><tspan class="0" x="0" y="0" font-family="GloberThin" font-size="93" font-style="undefined">A L L E S  N E U</tspan></text>
</g>
<g class="text draggable">
	
	<text id="text_x5F_description" transform="matrix(1 0 0 1 80 694)" class="dynamicText_2" fill="#000000" fill-opacity="1"><tspan class="0" x="0" y="0" font-family="GloberBook" font-size="14" font-style="undefined">Sonntags, 10 Uhr</tspan><tspan class="1" x="0" y="21" font-family="GloberBook" font-size="14" font-style="undefined">Johannes Evangelist Kirche,  </tspan><tspan class="2" x="0" y="42" font-family="GloberBook" font-size="14" font-style="undefined">Augustastr. 4, Berlin-Mitte</tspan><tspan class="3" x="0" y="63" font-family="GloberBook" font-size="14" font-style="undefined"></tspan></text>
</g>
<g id="Logo">
	<polygon fill="#000000" points="36.4,807.9 22.6,807.9 22.6,821.9 36.4,821.9 27,814.9 	" fill-opacity="1"></polygon>
	<path fill="#000000" d="M50.3,808.1l-3.3,4.3l-3.6-4.6l-3.6,4.7l-3.4-4.6l0,13.9h14.1l0,0l13,0v-13.9l-13.6,0L50.3,808.1z
		 M50.6,821.4l-0.1-6.4l4.4,3.4L50.6,821.4z M50.5,814.7l-0.1-6.4l4.3,3.1L50.5,814.7z" fill-opacity="1"></path>
	<polygon fill="#000000" points="74.7,808.8 74.3,808.8 69.8,815.7 69.8,808.8 69.4,808.8 69.4,821.1 69.8,821.1 69.8,816.4 
		70.7,815 74.6,821.1 75,821.1 70.9,814.6 	" fill-opacity="1"></polygon>
	<path fill="#000000" d="M81,818.1c0,1.5-0.5,2.8-2.2,2.8c-1.6,0-2.2-1.3-2.2-2.8v-9.2h-0.4v9.2c0,1.7,0.7,3.1,2.5,3.1
		c1.9,0,2.5-1.4,2.5-3.1v-9.2H81V818.1z" fill-opacity="1"></path>
	<polygon fill="#000000" points="83.1,808.8 82.8,808.8 82.8,821.1 87.3,821.1 87.3,820.7 83.1,820.7 	" fill-opacity="1"></polygon>
	<polygon fill="#000000" points="87.3,809.2 90,809.2 90,821.1 90.4,821.1 90.4,809.2 93.1,809.2 93.1,808.8 87.3,808.8 	" fill-opacity="1"></polygon>
	<path fill="#000000" d="M98.8,818.1c0,1.5-0.5,2.8-2.2,2.8s-2.2-1.3-2.2-2.8v-9.2h-0.4v9.2c0,1.7,0.7,3.1,2.5,3.1
		c1.9,0,2.5-1.4,2.5-3.1v-9.2h-0.4V818.1z" fill-opacity="1"></path>
	<path fill="#000000" d="M105.5,817.7c0-1.3-0.6-2.2-1.9-2.5c1.3-0.2,1.9-1.1,1.9-2.6v-1.1c0-1.7-0.7-2.8-2.5-2.8h-2.4v12.3h0.4
		v-5.7h1.5c1.6,0,2.7,0.5,2.7,2.3v1.9c0,0.5,0.1,1.1,0.3,1.5h0.4c-0.3-0.4-0.3-1-0.3-1.5V817.7z M101,815v-5.9h2
		c1.6,0,2.2,0.9,2.2,2.4v1.1c0,1.9-1,2.3-2.7,2.3H101z" fill-opacity="1"></path>
	<polygon fill="#000000" points="114.3,820.5 112.3,808.9 111.8,808.9 109.7,820.5 107.6,808.8 107.2,808.8 109.4,821.1 
		109.9,821.1 112,809.7 114,821.1 114.5,821.1 116.7,808.8 116.3,808.8 	" fill-opacity="1"></polygon>
	<polygon fill="#000000" points="118,821.1 122.7,821.1 122.7,820.7 118.4,820.7 118.4,815 122,815 122,814.7 118.4,814.7 
		118.4,809.2 122.7,809.2 122.7,808.8 118,808.8 	" fill-opacity="1"></polygon>
	<path fill="#000000" d="M129,817.7c0-1.3-0.6-2.2-1.9-2.5c1.3-0.2,1.9-1.1,1.9-2.6v-1.1c0-1.7-0.7-2.8-2.5-2.8h-2.4v12.3h0.4v-5.7
		h1.5c1.6,0,2.7,0.5,2.7,2.3v1.9c0,0.5,0.1,1.1,0.3,1.5h0.4c-0.3-0.4-0.3-1-0.3-1.5V817.7z M124.5,815v-5.9h2c1.6,0,2.2,0.9,2.2,2.4
		v1.1c0,1.9-1,2.3-2.7,2.3H124.5z" fill-opacity="1"></path>
	<polygon fill="#000000" points="136.1,808.8 135.7,808.8 131.1,815.7 131.1,808.8 130.7,808.8 130.7,821.1 131.1,821.1 
		131.1,816.4 132.1,815 136,821.1 136.4,821.1 132.3,814.6 	" fill-opacity="1"></polygon>
	<path fill="#000000" d="M138.1,811.7c0-1.5,0.5-2.7,2.2-2.7c1.6,0,2.1,1.2,2.1,2.7v0.2h0.4v-0.2c0-1.7-0.7-3-2.5-3
		c-1.8,0-2.5,1.2-2.5,3c0,3.4,4.7,3.3,4.7,6.4c0,1.5-0.6,2.7-2.2,2.7s-2.2-1.2-2.2-2.7v-0.6h-0.4v0.6c0,1.7,0.7,3,2.6,3
		c1.9,0,2.6-1.3,2.6-3C142.8,814.8,138.1,814.9,138.1,811.7z" fill-opacity="1"></path>
	<polygon fill="#000000" points="143.8,809.2 146.4,809.2 146.4,821.1 146.8,821.1 146.8,809.2 149.5,809.2 149.5,808.8 
		143.8,808.8 	" fill-opacity="1"></polygon>
	<path fill="#000000" d="M152.8,808.8l-3,12.3h0.4l0.7-2.9h4.4l0.7,2.9h0.4l-3-12.3H152.8z M151,817.8l2.1-8.6l2.1,8.6H151z" fill-opacity="1"></path>
	<polygon fill="#000000" points="156.7,809.2 159.4,809.2 159.4,821.1 159.8,821.1 159.8,809.2 162.4,809.2 162.4,808.8 
		156.7,808.8 	" fill-opacity="1"></polygon>
	<polygon fill="#000000" points="163.1,809.2 165.8,809.2 165.8,821.1 166.2,821.1 166.2,809.2 168.9,809.2 168.9,808.8 
		163.1,808.8 	" fill-opacity="1"></polygon>
	<path fill="#000000" d="M175.7,814.5c1.4-0.2,1.8-1,1.8-2.4v-0.8c0-1.6-0.6-2.5-2.4-2.5h-2.5v12.3h2.5c1.9,0,2.6-1.1,2.6-2.8v-1.1
		C177.7,815.7,177.2,814.7,175.7,814.5z M173,809.2h2.1c1.5,0,2,0.8,2,2.2v0.8c0,1.8-0.8,2.2-2.5,2.2H173V809.2z M177.3,818.2
		c0,1.5-0.6,2.5-2.2,2.5H173v-6h1.8c1.7,0,2.5,0.6,2.5,2.4V818.2z" fill-opacity="1"></path>
	<polygon fill="#000000" points="179.1,821.1 183.7,821.1 183.7,820.7 179.5,820.7 179.5,815 183.1,815 183.1,814.7 179.5,814.7 
		179.5,809.2 183.7,809.2 183.7,808.8 179.1,808.8 	" fill-opacity="1"></polygon>
	<path fill="#000000" d="M190.1,817.7c0-1.3-0.6-2.2-1.9-2.5c1.3-0.2,1.9-1.1,1.9-2.6v-1.1c0-1.7-0.7-2.8-2.5-2.8h-2.4v12.3h0.4
		v-5.7h1.5c1.6,0,2.7,0.5,2.7,2.3v1.9c0,0.5,0.1,1.1,0.3,1.5h0.4c-0.3-0.4-0.3-1-0.3-1.5V817.7z M185.5,815v-5.9h2
		c1.6,0,2.2,0.9,2.2,2.4v1.1c0,1.9-1,2.3-2.7,2.3H185.5z" fill-opacity="1"></path>
	<polygon fill="#000000" points="192.2,808.8 191.8,808.8 191.8,821.1 196.3,821.1 196.3,820.7 192.2,820.7 	" fill-opacity="1"></polygon>
	<rect x="197.6" y="808.8" fill="#000000" width="0.4" height="12.3" fill-opacity="1"></rect>
	<polygon fill="#000000" points="204.2,808.8 204.2,820.3 199.9,808.8 199.4,808.8 199.4,821.1 199.8,821.1 199.8,809.4 
		204.1,821.1 204.6,821.1 204.6,808.8 	" fill-opacity="1"></polygon>
</g>
</svg>