<svg version="1.1" id="generatedSVG" xmlns="http://www.w3.org/2000/svg" xmlns:xlink="http://www.w3.org/1999/xlink" x="0px" y="0px" viewBox="0 0 595.3 841.9" enable-background="new 0 0 595.3 841.9" xml:space="preserve" title="test2">
<g>
	<defs>
		<polygon id="SVGID_5_" points="13.1,9.4 16.5,9.4 13.1,12.9 		" fill="#a9ef8f" fill-opacity="1"></polygon>
	</defs>
	<defs>
		
	</defs>
	<clipPath id="SVGID_1_">
		<use xlink:href="#SVGID_5_" overflow="visible"></use>
	</clipPath>
	<clipPath id="SVGID_2_" clip-path="url(#SVGID_1_)">
		<use xlink:href="#SVGID_6_" overflow="visible"></use>
	</clipPath>
</g>
<image id="background_image" xlink:href="" x="0" y="0" filter=""></image>
<rect id="svg_x5F_background" x="-0.3" y="-0.7" fill="#ffffff" width="595.6" height="842.6" fill-opacity="1"></rect>
<text transform="matrix(0.9151 0 0 1 41.4308 67.14)" fill="#000000" class="dynamicText_0" fill-opacity="1">
	<tspan x="0" y="0" font-family="'Futura-Medium'" font-size="13.0825">Evangelische Kulturwerkstatt Berlin</tspan>
	<tspan x="0" y="18" font-family="'Futura-Medium'" font-size="13.0825">Auguststrasse 90</tspan>
	<tspan x="0" y="36" font-family="'Futura-Medium'" font-size="13.0825">10117 Berlin</tspan>
</text>
<text transform="matrix(0.9151 0 0 1 41.4308 188.3568)" fill="#000000" class="dynamicText_1" fill-opacity="1">
	<tspan x="0" y="0" font-family="'Futura-Medium'" font-size="8.7215">Evangelische Kulturwerkstatt Berlin - Auguststrasse 90 - 10117 Berlin</tspan>
</text>
<text transform="matrix(0.9151 0 0 1 41.4308 212.2435)" fill="#000000" class="dynamicText_2" fill-opacity="1"> 
	<tspan x="0" y="0" font-family="'Futura-Medium'" font-size="13.0825">Empfaenger Firma</tspan>
	<tspan x="0" y="18" font-family="'Futura-Medium'" font-size="13.0825">Vorname Nachname</tspan>
	<tspan x="0" y="36" font-family="'Futura-Medium'" font-size="13.0825">Strasse</tspan>
	<tspan x="0" y="54" font-family="'Futura-Medium'" font-size="13.0825">PLZ Ort</tspan>
</text>
<text transform="matrix(0.9151 0 0 1 494.7942 343.8822)" fill="#000000" class="dynamicText_3" fill-opacity="1">
	<tspan x="0" y="0" font-family="'Futura-Medium'" font-size="13.0825">Ort, Datum</tspan>
</text>

<text transform="matrix(0.9151 0 0 1 41.4308 375.7318)" fill="#000000" class="dynamicText_4" fill-opacity="1">
	<tspan x="0" y="0" font-family="'Futura-Medium'" font-size="13.0825">Betreff</tspan>
</text>

<text transform="matrix(0.9151 0 0 1 41.4308 413.9135)" fill="#000000" class="dynamicText_5" fill-opacity="1">
	<tspan x="0" y="0" font-family="'Futura-Medium'" font-size="13.0825">Sehr geehrte Damen und Herren,</tspan>
	<tspan x="0" y="18" font-family="'Futura-Medium'" font-size="13.0825">Lorem ipsum dolor sit amet, consetetur sadipscing elitr, sed diam nonumy eirmod tempor</tspan>
	<tspan x="0" y="36" font-family="'Futura-Medium'" font-size="13.0825">invidunt ut labore et dolore magna aliquyam erat, sed diam voluptua. At vero eos et accusam et</tspan>
	<tspan x="0" y="54" font-family="'Futura-Medium'" font-size="13.0825">justo duo dolores et ea rebum. Stet clita kasd gubergren, no sea takimata sanctus est Lorem</tspan>
	<tspan x="0" y="70" font-family="'Futura-Medium'" font-size="13.0825">ipsum dolor sit amet. Lorem ipsum dolor sit amet, consetetur sadipscing elitr, sed diam nonumy</tspan>
	<tspan x="0" y="88" font-family="'Futura-Medium'" font-size="13.0825">eirmod tempor invidunt ut labore et dolore magna aliquyam erat, sed diam voluptua. At vero</tspan>
	<tspan x="0" y="106" font-family="'Futura-Medium'" font-size="13.0825">eos et accusam et justo duo dolores et ea rebum. Stet clita kasd gubergren, no sea takimata</tspan>
	<tspan x="0" y="124" font-family="'Futura-Medium'" font-size="13.0825">sanctus est Lorem ipsum dolor sit amet.</tspan>
	<tspan x="0" y="142" font-family="'Futura-Medium'" font-size="13.0825"></tspan>
	<tspan x="0" y="160" font-family="'Futura-Medium'" font-size="13.0825">Mit freundlichen Gruessen,</tspan>
	<tspan x="0" y="178" font-family="'Futura-Medium'" font-size="13.0825"></tspan>
	<tspan x="0" y="196" font-family="'Futura-Medium'" font-size="13.0825">Unterschrift</tspan>
	<tspan x="0" y="214" font-family="'Futura-Medium'" font-size="13.0825">Vorname Nachname</tspan>
</text>
<g>
	
	
	<polygon fill="#ef8fd2" points="398.3,128.1 474.1,43.1 549.9,128.1 549.9,134 398.3,134 	" fill-opacity="1"></polygon>
</g>






<circle fill="#efd78f" cx="474.1" cy="84.3" r="11.4" fill-opacity="1"></circle>





<path fill="#ef8fce" d="M542.2,58.6" fill-opacity="1"></path>
<path fill="#efd98f" d="M542.2,48" fill-opacity="1"></path>
<g>
	<path fill="#8fa3ef" d="M474.2,43.3l-75.8,85.1l0,4h9.7v-6.1c0-2.5,1.7-4.5,3.9-4.5c1.7,0,3.1,1.3,3.7,3.1h0.2v0h1.1v-9.1
		c0-2.5,1.7-4.5,3.9-4.5c1.9,0,3.4,1.5,3.8,3.5l0,0c0,0,0,0,0.1,0v-0.1h1.1v-9.1c0-2.5,1.7-4.5,3.9-4.5c1.9,0,3.4,1.6,3.8,3.6
		c0,0,0.1,0,0.1,0v-0.1h1.1v-9.1c0-2.5,1.7-4.5,3.9-4.5c1.9,0,3.4,1.6,3.8,3.6c0,0,0.1,0,0.1,0v-0.1h1.1v-9.1c0-2.5,1.7-4.5,3.9-4.5
		c1.8,0,3.4,1.5,3.8,3.5c0,0,0.1,0,0.1,0v0h1.1v-9.1c0-2.5,1.7-4.5,3.9-4.5c1.9,0,3.4,1.5,3.8,3.6c0,0,0.1,0,0.1,0V74h1.1v-9.1
		c0-2.5,1.7-4.5,3.9-4.5c1.9,0,3.4,1.5,3.8,3.5c0,0,0,0,0.1,0c0,0,0,0,0,0v-0.1h1.1v-9.1c0-2.5,1.7-4.5,3.9-4.5c2.2,0,3.9,2,3.9,4.5
		v9.1h1.1v0.1c0,0,0.1,0,0.1,0c0.4-2,1.9-3.6,3.8-3.6c2.2,0,3.9,2,3.9,4.5V74h1.1v0.1c0,0,0.1,0,0.1,0c0.4-2,1.9-3.6,3.8-3.6
		c2.2,0,3.9,2,3.9,4.5v9.1h1.1v0c0,0,0.1,0,0.1,0l0,0c0.4-2,1.9-3.5,3.8-3.5c2.2,0,3.9,2,3.9,4.5v9.1h1.1v0.1h0c0,0,0,0,0,0
		c0.4-2,1.9-3.6,3.8-3.6c2.2,0,3.9,2,3.9,4.5v9.1h1.1v0.1c0,0,0.1,0,0.1,0c0.4-2,1.9-3.6,3.8-3.6c2.2,0,3.9,2,3.9,4.5v9.1h0.9
		c0.1,0,0.2,0,0.2,0c0,0,0.1,0,0.2,0c0.4-2,1.9-3.4,3.8-3.4c2.2,0,3.9,2,3.9,4.5v9.1h1.1v0h0.2c0.5-1.8,2-3.1,3.7-3.1
		c2.2,0,3.9,2,3.9,4.5v6.1h9.7v-4L474.2,43.3z" fill-opacity="1"></path>
</g>

<rect x="390.8" y="141.6" fill="#ef8fd4" width="166.7" height="1.9" fill-opacity="1"></rect>











<rect x="490" y="125.4" fill="#8fb3ef" width="22.7" height="4.7" fill-opacity="1"></rect>



<circle fill="#ca8fef" cx="474.2" cy="187" r="31.4" fill-opacity="1"></circle>
<circle fill="#ef8f9c" cx="474.2" cy="187" r="30.5" fill-opacity="1"></circle>
<circle fill="#8fef96" cx="474.2" cy="187" r="29.5" fill-opacity="1"></circle>



















<circle fill="#a78fef" cx="460.5" cy="200.7" r="6.8" fill-opacity="1"></circle>

<circle fill="#8f8fef" cx="474.2" cy="206.4" r="6.8" fill-opacity="1"></circle>




<circle fill="#948fef" cx="487.8" cy="173.2" r="7.1" fill-opacity="1"></circle>

<circle fill="#ef918f" cx="474.2" cy="187" r="7.2" fill-opacity="1"></circle>
<path fill="#efea8f" d="M503.3,187.5v-0.9l0,0v-0.3v-0.1l0,0l0-0.9l0,0l0-0.3v-0.2l0,0l-0.1-0.9l0,0l0-0.3v-0.2l0,0l-0.1-0.9l0,0
	l0-0.2l0-0.2l0,0l-0.2-0.9l0,0l0-0.2l0-0.2l0,0l-0.2-0.9l0,0l-0.1-0.2l0-0.2l0,0l-0.2-0.9l0,0l-0.1-0.2l0-0.2l0,0l-0.3-0.8l0,0
	l-0.1-0.2l0-0.2l0,0l-0.3-0.8l0,0l-0.1-0.2l-0.1-0.2l0,0l-0.4-0.9l0,0l-0.1-0.2l-0.1-0.2l0,0l-0.4-0.8l0,0l-0.1-0.2l-0.1-0.2l0,0
	l-0.4-0.8l0,0l-0.1-0.2l-0.1-0.2l0,0l-0.5-0.8l0,0l-0.2-0.2l-0.1-0.2l0,0l-0.5-0.8l0,0l-0.2-0.2l-0.1-0.2l0,0l-0.5-0.7l0,0l-0.2-0.2
	l-0.1-0.1l0,0l-0.6-0.7l0,0l-0.2-0.2l-0.1-0.1l0,0l-0.6-0.7l0,0l-0.2-0.2l-0.1-0.1l0,0l-0.6-0.6l0,0l-0.2-0.2l-0.1-0.1l0,0l-0.6-0.6
	l0,0l-0.2-0.2l-0.1-0.1l0,0l-0.7-0.6l0,0l-0.2-0.2l-0.1-0.1l0,0L492,164l0,0l-0.2-0.2l-0.1-0.1l0,0l-0.7-0.5l0,0l-0.2-0.2l-0.1-0.1
	l0,0l-0.8-0.5l0,0l-0.2-0.1l-0.2-0.1l0,0l-0.8-0.5l0,0l-0.2-0.1l-0.2-0.1l0,0l-0.8-0.4l0,0l-0.2-0.1l-0.2-0.1l0,0l-0.8-0.4l0,0
	l-0.2-0.1l-0.2-0.1l0,0l-0.8-0.3l0,0L485,160l-0.2-0.1l0,0l-0.8-0.3l0,0l-0.2-0.1l-0.2-0.1l0,0l-0.8-0.3l0,0l-0.2-0.1l-0.2,0l0,0
	l-0.9-0.2l0,0l-0.2,0l-0.2,0l0,0l-0.9-0.2l0,0l-0.2,0l-0.2,0l0,0l-0.9-0.2l0,0l-0.3,0l-0.2,0l0,0l-0.9-0.1l0,0l-0.3,0l-0.2,0l0,0
	l-0.9-0.1l0,0h-0.3H476l0,0l-0.9,0l0,0h-0.3h-0.2l0,0h-0.9l0,0h-0.3h-0.2l0,0l-0.9,0l0,0l-0.3,0H472l0,0l-0.9,0.1l0,0l-0.3,0h-0.2
	l0,0l-0.9,0.1l0,0l-0.2,0l-0.2,0l0,0l-0.9,0.2l0,0l-0.2,0l-0.2,0l0,0l-0.9,0.2l0,0l-0.2,0.1l-0.2,0l0,0l-0.9,0.2l0,0l-0.2,0.1
	l-0.2,0l0,0l-0.8,0.3l0,0l-0.2,0.1l-0.2,0l0,0l-0.8,0.3l0,0l-0.2,0.1l-0.2,0.1l0,0l-0.8,0.3l0,0l-0.2,0.1l-0.2,0.1l0,0l-0.8,0.4l0,0
	l-0.2,0.1l-0.2,0.1l0,0l-0.8,0.4l0,0l-0.2,0.1l-0.2,0.1l0,0l-0.8,0.5l0,0l-0.2,0.2l-0.2,0.1l0,0l-0.8,0.5l0,0l-0.3,0l-0.2,0.1l0,0
	l-0.7,0.5l0,0l-0.2,0.2l-0.2,0.1l0,0l-0.7,0.6l0,0l-0.2,0.2l-0.1,0.1l0,0l-0.7,0.6l0,0l-0.2,0.2l-0.1,0.1l0,0l-0.6,0.6l0,0l-0.2,0.2
	l-0.1,0.1l0,0l-0.6,0.6l0,0l-0.2,0.2l-0.1,0.1l0,0l-0.6,0.7l0,0l-0.2,0.2l-0.1,0.1l0,0l-0.6,0.7l0,0l-0.2,0.2l-0.1,0.1l0,0l-0.5,0.7
	l0,0l-0.2,0.2l-0.1,0.1l0,0l-0.5,0.8l0,0l-0.1,0.2l-0.1,0.2l0,0l-0.5,0.8l0,0l-0.1,0.2l-0.1,0.2l0,0l-0.4,0.8l0,0l-0.1,0.2l-0.1,0.2
	l0,0l-0.4,0.8l0,0l-0.1,0.2l-0.1,0.2l0,0l-0.3,0.8l0,0l-0.1,0.2l-0.1,0.2l0,0l-0.3,0.8l0,0l-0.1,0.2l-0.1,0.2l0,0l-0.3,0.8l0,0
	l-0.1,0.2l0,0.2l0,0l-0.2,0.9l0,0l0,0.2l0,0.2l0,0l-0.2,0.9l0,0l0,0.2l0,0.2l0,0l-0.2,0.9l0,0l0,0.3l0,0.2l0,0l-0.1,0.9l0,0l0,0.3
	l0,0.2l0,0l-0.1,0.9l0,0v0.3v0.2l0,0l0,0.9l0,0v0.3v0.2l0,0v0.9l0,0v0.3v0.2l0,0l0,0.9l0,0l0,0.3v0.2l0,0l0.1,0.9l0,0l0,0.3v0.2l0,0
	l0.1,0.9l0,0l0,0.2l0,0.2l0,0l0.2,0.9l0,0l0,0.2l0,0.2l0,0l0.2,0.9l0,0l0.1,0.2l0,0.2l0,0l0.2,0.9l0,0l0.1,0.2l0,0.2l0,0l0.3,0.8
	l0,0l0.1,0.2l0,0.2l0,0l0.3,0.8l0,0l0.1,0.2l0.1,0.2l0,0l0.3,0.8l0,0l0.1,0.2l0.1,0.2l0,0l0.4,0.8l0,0l0.1,0.2l0.1,0.2l0,0l0.4,0.8
	l0,0l0.1,0.2l0.1,0.2l0,0l0.5,0.8l0,0l0.2,0.2l0.1,0.2l0,0l0.5,0.8l0,0l0.2,0.2l0.1,0.2l0,0l0.5,0.7l0,0l0.2,0.2l0.1,0.2l0,0
	l0.6,0.7l0,0l0.2,0.2l0.1,0.1l0,0l0.6,0.7l0,0l0.2,0.2l0.1,0.1l0,0l0.6,0.6l0,0l0.2,0.2l0.1,0.1l0,0l0.6,0.6l0,0l0.2,0.2l0.1,0.1
	l0,0l0.7,0.6l0,0l0.2,0.2l0.1,0.1l0,0l0.7,0.6l0,0l0.2,0.2l0.1,0.1l0,0l0.7,0.5l0,0l0.2,0.2l0.1,0.1l0,0l0.8,0.5l0,0l0.2,0.1
	l0.2,0.1l0,0l0.8,0.5l0,0l0.2,0.1l0.2,0.1l0,0l0.8,0.4l0,0l0.2,0.1l0.2,0.1l0,0l0.8,0.4l0,0l0.2,0.1l0.2,0.1l0,0l0.8,0.3l0,0
	l0.2,0.1l0.2,0.1l0,0l0.8,0.3l0,0l0.2,0.1l0.2,0.1l0,0l0.8,0.3l0,0l0.2,0.1l0.2,0l0,0l0.9,0.2l0,0l0.2,0l0.2,0l0,0l0.9,0.2l0,0
	l0.2,0l0.2,0l0,0l0.9,0.2l0,0l0.3,0l0.2,0l0,0l0.9,0.1l0,0l0.3,0l0.2,0l0,0l0.9,0.1l0,0h0.3h0.2l0,0l0.9,0l0,0h0.3h0.2l0,0h0.9l0,0
	h0.3h0.2l0,0l0.9,0l0,0l0.3,0h0.2l0,0l0.9-0.1l0,0l0.3,0h0.2l0,0l0.9-0.1l0,0l0.2,0l0.2,0l0,0l0.9-0.2l0,0l0.2,0l0.2,0l0,0l0.9-0.2
	l0,0l0.2-0.1l0.2,0l0,0l0.9-0.2l0,0l0.2-0.1l0.2,0l0,0l0.8-0.3l0,0l0.2-0.1l0.2,0l0,0l0.8-0.3l0,0l0.2-0.1l0.2-0.1l0,0l0.8-0.3l0,0
	l0.2-0.1l0.2-0.1l0,0l0.8-0.4l0,0l0.2-0.1l0.2-0.1l0,0l0.8-0.4l0,0l0.2-0.1l0.2-0.1l0,0l0.8-0.5l0,0l0.2-0.2l0.2-0.1l0,0l0.8-0.5
	l0,0l0.2-0.2l0.2-0.1l0,0l0.7-0.5l0,0l0.2-0.2l0.1-0.1l0,0l0.7-0.6l0,0l0.2-0.2l0.1-0.1l0,0l0.7-0.6l0,0l0.2-0.2l0.1-0.1l0,0
	l0.6-0.6l0,0l0.2-0.2l0.1-0.1l0,0l0.6-0.6l0,0l0.2-0.2l0.1-0.1l0,0l0.6-0.7l0,0l0.2-0.2l0.1-0.1l0,0l0.6-0.7l0,0l0.2-0.2l0.1-0.1
	l0,0l0.5-0.7l0,0l0.2-0.2l0.1-0.1l0,0l0.5-0.8l0,0l0.1-0.2l0.1-0.2l0,0l0.5-0.8l0,0l0.1-0.2l0.1-0.2l0,0l0.4-0.8l0,0l0.1-0.2
	l0.1-0.2l0,0l0.4-0.8l0,0l0.1-0.2l0.1-0.2l0,0l0.3-0.8l0,0l0.1-0.2l0.1-0.2l0,0l0.3-0.8l0,0l0.1-0.2l0.1-0.2l0,0l0.3-0.8l0,0
	l0.1-0.2l0-0.2l0,0l0.2-0.9l0,0l0-0.2l0-0.2l0,0l0.2-0.9l0,0l0-0.2l0-0.2l0,0l0.2-0.9l0,0l0-0.3l0-0.2l0,0l0.1-0.9l0,0l0-0.3l0-0.2
	l0,0l0.1-0.9l0,0v-0.3v-0.2l0,0l0-0.9l0,0v-0.3l0,0L503.3,187.5L503.3,187.5z M484.6,212.5l-0.2,0.3l-0.3-0.1l-0.6,0.2l-0.2,0.3
	l-0.3-0.1l-0.6,0.2l-0.2,0.3l-0.3-0.1l-0.7,0.2l-0.2,0.3l-0.3-0.2l-0.7,0.2l-0.2,0.3l-0.3-0.2l-0.7,0.1l-0.2,0.3l-0.3-0.2l-0.7,0.1
	l-0.2,0.2l-0.3-0.2l-0.7,0.1l-0.2,0.2l-0.3-0.2l-0.7,0l-0.3,0.2l-0.3-0.2h-0.7l-0.3,0.2l-0.3-0.2l-0.7,0l-0.3,0.2l-0.3-0.2l-0.7-0.1
	l-0.3,0.2l-0.3-0.2l-0.7-0.1l-0.3,0.2l-0.3-0.3l-0.7-0.1l-0.3,0.2l-0.2-0.3l-0.7-0.2l-0.3,0.2l-0.2-0.3l-0.7-0.2l-0.3,0.1l-0.2-0.3
	l-0.6-0.2l-0.3,0.1l-0.2-0.3l-0.6-0.2l-0.3,0.1l-0.2-0.3l-0.6-0.3l-0.3,0.1l-0.2-0.3l-0.6-0.3l-0.3,0.1l-0.2-0.3l-0.6-0.3l-0.3,0.1
	l-0.2-0.3l-0.6-0.3l-0.3,0l-0.2-0.3l-0.6-0.4l-0.3,0l-0.1-0.3l-0.6-0.4h-0.3l-0.1-0.3l-0.5-0.4h-0.3l-0.1-0.3l-0.5-0.5h-0.3
	l-0.1-0.3l-0.5-0.5l-0.3,0l0-0.3l-0.5-0.5l-0.3,0l0-0.3l-0.5-0.5l-0.3-0.1l0-0.4l-0.4-0.5l-0.3-0.1v-0.4l-0.4-0.6l-0.3-0.1v-0.4
	l-0.4-0.6l-0.3-0.1l0-0.3l-0.3-0.6l-0.3-0.1l0-0.3l-0.3-0.6l-0.3-0.1l0.1-0.3l-0.3-0.6l-0.3-0.2l0.1-0.3l-0.3-0.6l-0.3-0.2l0.1-0.3
	l-0.2-0.6l-0.3-0.2l0.1-0.3l-0.2-0.6l-0.3-0.2l0.1-0.3l-0.2-0.7l-0.3-0.2l0.2-0.3l-0.2-0.7l-0.3-0.2l0.2-0.3l-0.1-0.7l-0.3-0.2
	l0.2-0.3l-0.1-0.7l-0.2-0.2l0.2-0.3l-0.1-0.7l-0.2-0.2l0.2-0.3l0-0.7l-0.2-0.3l0.2-0.3v-0.8l-0.2-0.3l0.2-0.3l0-0.7l-0.2-0.3
	l0.2-0.3l0.1-0.7l-0.2-0.3l0.2-0.3l0.1-0.7l-0.2-0.3l0.3-0.3l0.1-0.7l-0.2-0.3l0.3-0.2l0.2-0.7l-0.2-0.3l0.3-0.2l0.2-0.7l-0.1-0.3
	l0.3-0.2l0.2-0.6l-0.1-0.3l0.3-0.2l0.2-0.6l-0.1-0.3l0.3-0.2l0.3-0.6l-0.1-0.3l0.3-0.2l0.3-0.6l-0.1-0.3l0.3-0.2l0.3-0.6l-0.1-0.3
	l0.3-0.2l0.3-0.6l0-0.3l0.3-0.2l0.4-0.6l0-0.3l0.3-0.1l0.4-0.6v-0.3l0.3-0.1l0.4-0.5v-0.3l0.3-0.1l0.5-0.5v-0.3l0.3-0.1l0.5-0.5
	l0-0.3l0.3,0l0.5-0.5l0-0.3l0.3,0l0.5-0.5l0.1-0.3l0.4,0l0.5-0.4l0.1-0.3h0.4l0.6-0.4l0.1-0.3h0.4l0.6-0.4l0.1-0.3l0.3,0l0.6-0.3
	l0.1-0.3l0.3,0l0.6-0.3l0.1-0.3l0.3,0.1l0.6-0.3l0.2-0.3l0.3,0.1l0.6-0.3l0.2-0.3l0.3,0.1l0.6-0.2l0.2-0.3l0.3,0.1l0.6-0.2l0.2-0.3
	l0.3,0.1l0.7-0.2l0.2-0.3l0.3,0.2l0.7-0.2l0.2-0.3l0.3,0.2l0.7-0.1l0.2-0.3l0.3,0.2l0.7-0.1l0.2-0.2l0.3,0.2l0.7-0.1l0.2-0.2
	l0.3,0.2l0.7,0l0.3-0.2l0.3,0.2h0.7l0.3-0.2l0.3,0.2l0.7,0l0.3-0.2l0.3,0.2l0.7,0.1l0.3-0.2l0.3,0.2l0.7,0.1l0.3-0.2l0.3,0.3
	l0.7,0.1l0.3-0.2l0.2,0.3l0.7,0.2l0.3-0.2l0.2,0.3l0.7,0.2l0.3-0.1l0.2,0.3l0.6,0.2l0.3-0.1l0.2,0.3l0.6,0.2l0.3-0.1l0.2,0.3
	l0.6,0.3l0.3-0.1l0.2,0.3l0.6,0.3l0.3-0.1l0.2,0.3l0.6,0.3l0.3-0.1l0.2,0.3l0.6,0.3l0.3,0l0.2,0.3l0.6,0.4l0.3,0l0.1,0.3l0.6,0.4
	h0.3l0.1,0.3l0.5,0.4h0.3l0.1,0.3l0.5,0.5h0.3l0.1,0.3l0.5,0.5l0.3,0l0,0.3l0.5,0.5l0.3,0l0,0.3l0.5,0.5l0.3,0.1l0,0.4l0.4,0.5
	l0.3,0.1v0.4l0.4,0.6l0.3,0.1v0.4l0.4,0.6l0.3,0.1l0,0.3l0.3,0.6l0.3,0.1l0,0.3l0.3,0.6l0.3,0.1l-0.1,0.3l0.3,0.6l0.3,0.2l-0.1,0.3
	l0.3,0.6l0.3,0.2l-0.1,0.3l0.2,0.6l0.3,0.2l-0.1,0.3l0.2,0.6l0.3,0.2l-0.1,0.3l0.2,0.7l0.3,0.2l-0.2,0.3l0.2,0.7l0.3,0.2l-0.2,0.3
	l0.1,0.7l0.3,0.2l-0.2,0.3l0.1,0.7l0.2,0.2l-0.2,0.3l0.1,0.7l0.2,0.2l-0.2,0.3l0,0.7l0.2,0.3l-0.2,0.3v0.7l0.2,0.3l-0.2,0.3l0,0.7
	l0.2,0.3l-0.2,0.3l-0.1,0.7l0.2,0.3l-0.2,0.3l-0.1,0.7l0.2,0.3l-0.3,0.3l-0.1,0.7l0.2,0.3l-0.3,0.2l-0.2,0.7l0.2,0.3l-0.3,0.2
	l-0.2,0.7l0.1,0.3l-0.3,0.2l-0.2,0.6l0.1,0.3l-0.2,0.4l-0.2,0.6l0.1,0.3l-0.3,0.2l-0.3,0.6l0.1,0.3l-0.3,0.2l-0.3,0.6l0.1,0.3
	l-0.3,0.2l-0.3,0.6l0.1,0.3l-0.3,0.2l-0.3,0.6l0,0.3l-0.3,0.2l-0.4,0.6l0,0.3l-0.3,0.1l-0.4,0.6v0.3l-0.3,0.1l-0.4,0.5v0.3l-0.3,0.1
	l-0.5,0.5v0.3l-0.3,0.1l-0.5,0.5l0,0.3l-0.3,0l-0.5,0.5l0,0.3l-0.3,0l-0.5,0.5l-0.1,0.3l-0.4,0l-0.5,0.4l-0.1,0.3h-0.4l-0.6,0.4
	l-0.1,0.3h-0.4l-0.6,0.4l-0.1,0.3l-0.3,0l-0.6,0.3l-0.1,0.3l-0.3,0l-0.6,0.3l-0.1,0.3l-0.3-0.1l-0.6,0.3l-0.2,0.3l-0.3-0.1
	L484.6,212.5z" fill-opacity="1"></path>
<path fill="#8fefea" d="M485.7,186.9c0-2.3,0.9-4.3,2.5-5.8c-2.1,0.1-4.2-0.7-5.9-2.3c-1.6-1.6-2.4-3.8-2.3-5.8
	c-1.4,1.6-3.5,2.5-5.8,2.5c-2.3,0-4.3-0.9-5.8-2.5c0.1,2.1-0.7,4.2-2.3,5.9c-1.6,1.6-3.8,2.4-5.8,2.3c1.6,1.4,2.5,3.5,2.5,5.8
	c0,2.3-0.9,4.3-2.5,5.8c2.1-0.1,4.2,0.7,5.9,2.3c1.6,1.6,2.4,3.8,2.3,5.8c1.4-1.6,3.5-2.5,5.8-2.5c2.3,0,4.3,0.9,5.8,2.5
	c-0.1-2.1,0.7-4.2,2.3-5.9c1.6-1.6,3.8-2.4,5.8-2.3C486.6,191.3,485.7,189.2,485.7,186.9z M474.2,195.4c-4.7,0-8.4-3.8-8.4-8.4
	c0-4.7,3.8-8.4,8.4-8.4s8.4,3.8,8.4,8.4C482.6,191.6,478.8,195.4,474.2,195.4z" fill-opacity="1"></path>
<path fill="#e98fef" d="M501.9,186.4l-0.2-0.3l0-0.7l0.2-0.3l-0.2-0.2l-0.1-0.7l0.2-0.3l-0.2-0.2l-0.1-0.7l0.2-0.3l-0.3-0.2
	l-0.1-0.7l0.2-0.3l-0.3-0.2l-0.2-0.7l0.2-0.3l-0.3-0.2l-0.2-0.7l0.1-0.3l-0.3-0.2l-0.2-0.6l0.1-0.3l-0.3-0.2l-0.2-0.6l0.1-0.3
	l-0.3-0.2l-0.3-0.6l0.1-0.3l-0.3-0.2l-0.3-0.6l0.1-0.3l-0.3-0.1l-0.3-0.6l0-0.3l-0.3-0.1l-0.3-0.6l0-0.3l-0.3-0.2l-0.4-0.6v-0.4
	l-0.3-0.1l-0.4-0.6v-0.4l-0.3-0.1l-0.4-0.5l0-0.4l-0.3-0.1l-0.5-0.5l0-0.3l-0.3,0l-0.5-0.5l0-0.3l-0.3,0l-0.5-0.5l-0.1-0.3h-0.3
	l-0.5-0.4l-0.1-0.3h-0.3l-0.5-0.4L491,165h-0.3l-0.6-0.4l-0.1-0.3l-0.3,0l-0.6-0.4l-0.2-0.3l-0.3,0l-0.6-0.3l-0.2-0.3l-0.3,0.1
	l-0.6-0.3l-0.2-0.3l-0.3,0.1l-0.6-0.3l-0.2-0.3l-0.3,0.1l-0.6-0.3l-0.2-0.3l-0.3,0.1l-0.6-0.2l-0.2-0.3l-0.3,0.1l-0.6-0.2l-0.2-0.3
	l-0.3,0.1l-0.7-0.2l-0.2-0.3l-0.3,0.2l-0.7-0.2l-0.2-0.3l-0.3,0.2l-0.7-0.1l-0.3-0.3l-0.3,0.2l-0.7-0.1l-0.3-0.2l-0.3,0.2l-0.7-0.1
	l-0.3-0.2l-0.3,0.2l-0.7,0l-0.3-0.2l-0.3,0.2h-0.7l-0.3-0.2l-0.3,0.2l-0.7,0l-0.3-0.2l-0.2,0.2l-0.7,0.1l-0.3-0.2l-0.2,0.2l-0.7,0.1
	l-0.3-0.2l-0.2,0.3L469,160l-0.3-0.2l-0.2,0.3l-0.7,0.2l-0.3-0.2l-0.2,0.3l-0.7,0.2l-0.3-0.1l-0.2,0.3l-0.6,0.2l-0.3-0.1l-0.2,0.3
	l-0.6,0.2l-0.3-0.1l-0.2,0.3l-0.6,0.3l-0.3-0.1l-0.2,0.3l-0.6,0.3l-0.3-0.1l-0.1,0.3l-0.6,0.3l-0.3,0l-0.1,0.3l-0.6,0.3l-0.3,0
	l-0.1,0.3l-0.6,0.4h-0.4l-0.1,0.3l-0.6,0.4h-0.4l-0.1,0.3l-0.5,0.4l-0.4,0l-0.1,0.3l-0.5,0.5l-0.3,0l0,0.3l-0.5,0.5l-0.3,0l0,0.3
	l-0.5,0.5l-0.3,0.1v0.3l-0.5,0.5l-0.3,0.1v0.3l-0.4,0.5l-0.3,0.1v0.3l-0.4,0.6l-0.3,0.1l0,0.3l-0.4,0.6l-0.3,0.2l0,0.3l-0.3,0.6
	l-0.3,0.2l0.1,0.3l-0.3,0.6l-0.3,0.2l0.1,0.3l-0.3,0.6l-0.3,0.2l0.1,0.3l-0.3,0.6l-0.3,0.2l0.1,0.3l-0.2,0.6l-0.3,0.2l0.1,0.3
	l-0.2,0.6l-0.3,0.2l0.1,0.3l-0.2,0.7l-0.3,0.2l0.2,0.3l-0.2,0.7l-0.3,0.2l0.2,0.3l-0.1,0.7l-0.3,0.3l0.2,0.3l-0.1,0.7l-0.2,0.3
	l0.2,0.3l-0.1,0.7l-0.2,0.3l0.2,0.3l0,0.7l-0.2,0.3l0.2,0.3v0.7l-0.2,0.3l0.2,0.3l0,0.7l-0.2,0.3l0.2,0.2l0.1,0.7l-0.2,0.3l0.2,0.2
	l0.1,0.7l-0.2,0.3l0.3,0.2l0.1,0.7l-0.2,0.3l0.3,0.2l0.2,0.7l-0.2,0.3l0.3,0.2l0.2,0.7l-0.1,0.3l0.3,0.2l0.2,0.6l-0.1,0.3l0.3,0.2
	l0.2,0.6l-0.1,0.3l0.3,0.2l0.3,0.6l-0.1,0.3l0.3,0.2l0.3,0.6l-0.1,0.3l0.3,0.1l0.3,0.6l0,0.3l0.3,0.1l0.3,0.6l0,0.3l0.3,0.1l0.4,0.6
	v0.4l0.3,0.1l0.4,0.6v0.4l0.3,0.1l0.4,0.5l0,0.4l0.3,0.1l0.5,0.5l0,0.3l0.3,0l0.5,0.5l0,0.3l0.3,0l0.5,0.5l0.1,0.3h0.3l0.5,0.5
	l0.1,0.3h0.3l0.5,0.4l0.1,0.3h0.3l0.6,0.4l0.1,0.3l0.3,0l0.6,0.4l0.2,0.3l0.3,0l0.6,0.3l0.2,0.3l0.3-0.1l0.6,0.3l0.2,0.3l0.3-0.1
	l0.6,0.3l0.2,0.3l0.3-0.1l0.6,0.3l0.2,0.3l0.3-0.1l0.6,0.2l0.2,0.3l0.3-0.1l0.6,0.2l0.2,0.3l0.3-0.1l0.7,0.2l0.2,0.3l0.3-0.2
	l0.7,0.2l0.2,0.3l0.3-0.2l0.7,0.1l0.3,0.3l0.3-0.2l0.7,0.1l0.3,0.2l0.3-0.2l0.7,0.1l0.3,0.2l0.3-0.2l0.7,0l0.3,0.2l0.3-0.2h0.7
	l0.3,0.2l0.3-0.2l0.7,0l0.3,0.2l0.2-0.2l0.7-0.1l0.3,0.2l0.2-0.2l0.7-0.1l0.3,0.2l0.2-0.3l0.7-0.1l0.3,0.2l0.2-0.3l0.7-0.2l0.3,0.2
	l0.2-0.3l0.7-0.2l0.3,0.1l0.2-0.3l0.6-0.2l0.3,0.1l0.2-0.3l0.6-0.2l0.3,0.1l0.2-0.3l0.6-0.3l0.3,0.1l0.2-0.3l0.6-0.3l0.3,0.1
	l0.1-0.3l0.6-0.3l0.3,0l0.1-0.3l0.6-0.3l0.3,0l0.1-0.3l0.6-0.4h0.4l0.1-0.3l0.6-0.4h0.4l0.1-0.3l0.5-0.4l0.4,0l0.1-0.3l0.5-0.5
	l0.3,0l0-0.3l0.5-0.5l0.3,0l0-0.3l0.5-0.5l0.3-0.1v-0.3l0.5-0.5l0.3-0.1v-0.3l0.4-0.5l0.3-0.1v-0.3l0.4-0.6l0.3-0.1l0-0.3l0.4-0.6
	l0.3-0.2l0-0.3l0.3-0.6l0.3-0.2l-0.1-0.3l0.3-0.6l0.3-0.2l-0.1-0.3l0.3-0.6l0.3-0.2l-0.1-0.3l0.3-0.6l0.3-0.2l-0.1-0.3l0.2-0.6
	l0.3-0.2l-0.1-0.3l0.2-0.6l0.3-0.2l-0.1-0.3l0.2-0.7l0.3-0.2l-0.2-0.3l0.2-0.7l0.3-0.2l-0.2-0.3l0.1-0.7l0.3-0.3l-0.2-0.3l0.1-0.7
	l0.2-0.3l-0.2-0.3l0.1-0.7l0.2-0.3l-0.2-0.3l0-0.7l0.2-0.3l-0.2-0.3v-0.7L501.9,186.4z M493.6,194.8c-0.1,0-0.2,0-0.2,0
	c0.1,0.1,0.2,0.1,0.2,0.2c3.1,3.1,3.1,8.1,0,11.2c-3.1,3.1-8.1,3.1-11.2,0c0,0-0.1-0.1-0.2-0.2c0,0.1,0,0.2,0,0.3
	c0,4.4-3.6,7.9-7.9,7.9s-7.9-3.6-7.9-7.9c0-0.1,0-0.2,0-0.2c-0.1,0.1-0.1,0.2-0.2,0.2c-3.1,3.1-8.1,3.1-11.2,0s-3.1-8.1,0-11.2
	c0,0,0.1-0.1,0.2-0.2c-0.1,0-0.2,0-0.3,0c-4.4,0-7.9-3.6-7.9-7.9c0-4.4,3.6-7.9,7.9-7.9c0.1,0,0.2,0,0.2,0c-0.1-0.1-0.2-0.1-0.2-0.2
	c-3.1-3.1-3.1-8.1,0-11.2c3.1-3.1,8.1-3.1,11.2,0c0,0,0.1,0.1,0.2,0.2c0-0.1,0-0.2,0-0.3c0-4.4,3.6-7.9,7.9-7.9s7.9,3.6,7.9,7.9
	c0,0.1,0,0.2,0,0.2c0.1-0.1,0.1-0.2,0.2-0.2c3.1-3.1,8.1-3.1,11.2,0c3.1,3.1,3.1,8.1,0,11.2c0,0-0.1,0.1-0.2,0.2c0.1,0,0.2,0,0.3,0
	c4.4,0,7.9,3.6,7.9,7.9C501.5,191.3,498,194.8,493.6,194.8z" fill-opacity="1"></path>
<path fill="#8fccef" d="M488.3,145.8c-1.8,0-3.2,1.4-3.2,3.3v0.6h6.4V149C491.6,147.2,490.1,145.8,488.3,145.8z" fill-opacity="1"></path>




<path fill="#8fbeef" d="M467.1,145.8c-1.8,0-3.2,1.4-3.2,3.3v0.6h6.4V149C470.3,147.2,468.9,145.8,467.1,145.8z" fill-opacity="1"></path>





<path fill="#8fb6ef" d="M556.3,200.6v-2.3c0-1.8-1.4-3.3-3.2-3.3c-1.8,0-3.2,1.4-3.2,3.3v2.3h-0.6v-2.3c0-1.8-1.4-3.3-3.2-3.3
	s-3.2,1.4-3.2,3.3v2.3h-0.6v-2.3c0-1.8-1.4-3.3-3.2-3.3s-3.2,1.4-3.2,3.3v2.3h-0.6v-2.3c0-1.8-1.4-3.3-3.2-3.3
	c-1.8,0-3.2,1.4-3.2,3.3v2.3H528v-2.3c0-1.8-1.4-3.3-3.2-3.3s-3.2,1.4-3.2,3.3v2.3h-0.7v-2.3c0-1.8-1.4-3.3-3.2-3.3
	s-3.2,1.4-3.2,3.3v2.3v5.5v100.4h41.8" fill-opacity="1"></path>




<path fill="#c9ef8f" d="M517.7,195c-1.8,0-3.2,1.4-3.2,3.3v0.6h6.4v-0.6C520.9,196.5,519.5,195,517.7,195z" fill-opacity="1"></path>






<path fill="#c7ef8f" d="M542.8,249.1c-1.5,0-2.7,1.3-2.7,2.8v6.7h5.5v-6.7C545.5,250.4,544.3,249.1,542.8,249.1z" fill-opacity="1"></path>










<circle fill="#ef8fd4" cx="535.3" cy="213.6" r="2.1" fill-opacity="1"></circle>
<g>
	
</g>
<rect x="514.5" y="264.1" fill="#a7ef8f" width="41.8" height="0.4" fill-opacity="1"></rect>

<rect x="527.6" y="235.1" fill="#aeef8f" width="15.2" height="0.4" fill-opacity="1"></rect>
<path fill="#8fedef" d="M486.5,262.8c-4.5,0-8.2,3.7-8.2,8.3V291h16.4v-19.9C494.7,266.5,491,262.8,486.5,262.8z" fill-opacity="1"></path>



<rect x="451.3" y="290.9" fill="#d6ef8f" width="45.7" height="5.2" fill-opacity="1"></rect>






<g>
	<path fill="#8fdaef" d="M497,291h-2.3v-29.2c0-9.2-8.8-19.4-20.6-19.4c-11.8,0-20.6,10.3-20.6,19.4V291h-2.3v-29.2
		c0-10.2,9.8-21.7,22.9-21.7c13.1,0,22.9,11.4,22.9,21.7V291z" fill-opacity="1"></path>
</g>

<rect x="518.9" y="242.2" fill="#8fef9f" width="0.9" height="0.9" fill-opacity="1"></rect>





<rect x="529" y="242.2" fill="#c4ef8f" width="0.9" height="0.9" fill-opacity="1"></rect>













<rect x="552.6" y="242.2" fill="#8f96ef" width="0.9" height="0.9" fill-opacity="1"></rect>










<rect x="535" y="241.3" fill="#9fef8f" width="0.9" height="0.9" fill-opacity="1"></rect>









<rect x="551.8" y="241.3" fill="#8fa7ef" width="0.9" height="0.9" fill-opacity="1"></rect>





<rect x="542.9" y="299.4" fill="#efda8f" width="13.4" height="0.4" fill-opacity="1"></rect>
<path fill="#8fedef" d="M434.3,200.7v-2.3c0-1.8-1.4-3.3-3.2-3.3s-3.2,1.4-3.2,3.3v2.3h-0.6v-2.3c0-1.8-1.4-3.3-3.2-3.3
	s-3.2,1.4-3.2,3.3v2.3h-0.6v-2.3c0-1.8-1.4-3.3-3.2-3.3c-1.8,0-3.2,1.4-3.2,3.3v2.3h-0.6v-2.3c0-1.8-1.4-3.3-3.2-3.3
	s-3.2,1.4-3.2,3.3v2.3h-0.6v-2.3c0-1.8-1.4-3.3-3.2-3.3s-3.2,1.4-3.2,3.3v2.3H399v-2.3c0-1.8-1.4-3.3-3.2-3.3s-3.2,1.4-3.2,3.3v2.3
	v5.5v100.4h41.8" fill-opacity="1"></path>









<path fill="#efb68f" d="M405.5,249.2c-1.5,0-2.7,1.3-2.7,2.8v6.7h5.5V252C408.3,250.4,407,249.2,405.5,249.2z" fill-opacity="1"></path>


<path fill="#ef8fc1" d="M417.4,217.9c-1.5,0-2.7,1.3-2.7,2.8v6.7h5.5v-6.7C420.1,219.1,418.9,217.9,417.4,217.9z" fill-opacity="1"></path>
<path fill="#a3ef8f" d="M413.3,219.3l0.2-0.9c0-1.5,1.7-2.8,3.2-2.8s3.4,1.3,3.4,2.8v-0.8c0-3.2-3.1-6.5-6.9-6.5s-6.9,3.3-6.9,6.5
	v0.8c0-1.5,1.9-2.8,3.4-2.8s3.2,1.3,3.2,2.8L413.3,219.3z" fill-opacity="1"></path>






<circle fill="#8facef" cx="413.3" cy="213.7" r="2.4" fill-opacity="1"></circle>

<circle fill="#ef8fb2" cx="413.3" cy="213.7" r="2.1" fill-opacity="1"></circle>
<g>
	
</g>





<rect x="398.6" y="242.3" fill="#8fefa6" width="0.9" height="0.9" fill-opacity="1"></rect>

<rect x="402" y="242.3" fill="#8fefc6" width="0.9" height="0.9" fill-opacity="1"></rect>








<rect x="417.1" y="242.3" fill="#efbe8f" width="0.9" height="0.9" fill-opacity="1"></rect>
<rect x="418.8" y="242.3" fill="#8fefc2" width="0.9" height="0.9" fill-opacity="1"></rect>


<rect x="423.9" y="242.3" fill="#efca8f" width="0.9" height="0.9" fill-opacity="1"></rect>
<rect x="425.5" y="242.3" fill="#8fefa9" width="0.9" height="0.9" fill-opacity="1"></rect>



<rect x="396.1" y="241.4" fill="#9bef8f" width="0.9" height="0.9" fill-opacity="1"></rect>
<rect x="397.8" y="241.4" fill="#8fefa4" width="0.9" height="0.9" fill-opacity="1"></rect>








<rect x="413" y="241.4" fill="#8fb3ef" width="0.9" height="0.9" fill-opacity="1"></rect>





<rect x="423.1" y="241.4" fill="#8fbcef" width="0.9" height="0.9" fill-opacity="1"></rect>









<rect x="420.9" y="299.5" fill="#ef968f" width="13.4" height="0.4" fill-opacity="1"></rect>




<path fill="#beef8f" d="M440.7,240.8C440.7,240.8,440.8,240.8,440.7,240.8c0.5-0.8,1-1.5,1.6-2.2c0,0,0,0,0,0
	c0.8-1.1,1.7-2.2,2.6-3.2c0,0,0,0,0.1-0.1c0.6-0.7,1.2-1.3,1.9-2c0,0,0,0,0.1-0.1c0.3-0.3,0.6-0.6,0.9-0.9c0,0,0,0,0.1-0.1
	c0.6-0.6,1.3-1.2,2-1.8c0,0,0.1-0.1,0.2-0.1c0.7-0.6,1.4-1.1,2-1.7c0,0,0.1-0.1,0.2-0.1c0.3-0.2,0.6-0.5,0.9-0.7
	c0.1,0,0.1-0.1,0.2-0.1c0.4-0.3,0.7-0.5,1.1-0.8l0,0c0.3-0.2,0.7-0.5,1.1-0.7c0.1,0,0.2-0.1,0.2-0.2c0.3-0.2,0.6-0.4,1-0.6
	c0,0,0.1,0,0.1-0.1c0.4-0.2,0.8-0.4,1.1-0.6c0.1,0,0.2-0.1,0.2-0.1c0.3-0.2,0.6-0.3,0.9-0.5c0.1,0,0.2-0.1,0.3-0.1
	c0.4-0.2,0.8-0.4,1.2-0.5c0,0,0,0,0.1,0c0.4-0.2,0.7-0.3,1.1-0.5c0.1,0,0.2-0.1,0.3-0.1c0.3-0.1,0.6-0.3,1-0.4c0.1,0,0.2,0,0.2-0.1
	c0.4-0.2,0.8-0.3,1.2-0.4c0.1,0,0.2,0,0.3-0.1c0.3-0.1,0.6-0.2,0.9-0.3c0.1,0,0.2-0.1,0.3-0.1c0.4-0.1,0.8-0.2,1.2-0.3h0
	c0.4-0.1,0.8-0.2,1.2-0.2c0.1,0,0.2,0,0.3-0.1c0.3-0.1,0.7-0.1,1-0.2c0.1,0,0.2,0,0.3,0c0.4,0,0.8-0.1,1.3-0.2c0.1,0,0.2,0,0.3,0
	c0.3,0,0.7,0,1-0.1c0.1,0,0.2,0,0.3,0c0.4,0,0.8,0,1.3,0c0.4,0,0.8,0,1.3,0c0.1,0,0.2,0,0.3,0c0.3,0,0.7,0,1,0.1c0.1,0,0.2,0,0.3,0
	c0.4,0,0.8,0.1,1.3,0.2c0.1,0,0.2,0,0.3,0c0.3,0,0.7,0.1,1,0.2c0.1,0,0.2,0,0.3,0.1c0.4,0.1,0.8,0.2,1.2,0.2h0
	c0.4,0.1,0.8,0.2,1.2,0.3c0.1,0,0.2,0.1,0.3,0.1c0.3,0.1,0.6,0.2,0.9,0.3c0.1,0,0.2,0,0.3,0.1c0.4,0.1,0.8,0.3,1.2,0.4
	c0.1,0,0.2,0,0.2,0.1c0.3,0.1,0.6,0.2,1,0.4c0.1,0,0.2,0.1,0.3,0.1c0.4,0.2,0.8,0.3,1.1,0.5c0,0,0,0,0,0c0.4,0.2,0.8,0.3,1.2,0.5
	c0.1,0,0.2,0.1,0.3,0.1c0.3,0.2,0.6,0.3,0.9,0.5c0.1,0,0.2,0.1,0.2,0.1c0.4,0.2,0.8,0.4,1.1,0.6c0,0,0.1,0,0.1,0.1
	c0.3,0.2,0.7,0.4,1,0.6c0.1,0,0.2,0.1,0.2,0.2c0.4,0.2,0.7,0.5,1.1,0.7l0,0c0.4,0.2,0.7,0.5,1.1,0.8c0.1,0,0.1,0.1,0.2,0.1
	c0.3,0.2,0.6,0.5,0.9,0.7c0,0,0.1,0.1,0.2,0.1c0.7,0.5,1.4,1.1,2.1,1.7c0,0,0.1,0.1,0.2,0.1c0.7,0.6,1.4,1.2,2,1.8c0,0,0,0,0.1,0.1
	c0.3,0.3,0.6,0.6,0.9,0.9c0,0,0,0,0.1,0.1c0.6,0.6,1.3,1.3,1.9,2c0,0,0,0,0.1,0.1c0.9,1,1.8,2.1,2.6,3.2c0,0,0,0,0,0
	c0.5,0.7,1.1,1.5,1.6,2.2c0,0,0,0,0,0c0.8,1.1,1.4,2.3,2.1,3.4l0,0l0,0c2.3,4.2,3.8,8.5,4.4,12.7l0,0l0.1-7.8v-20.4l-40-41.8
	l-40.1,41.8v28.6h0C435,251.9,437.3,246.1,440.7,240.8z" fill-opacity="1"></path>


<circle fill="#e6ef8f" cx="474.2" cy="209" r="6.5" fill-opacity="1"></circle>

<g>
	
	
</g>
<g id="Logo">
	<polygon fill="hsla(0, 100%, 0%, 1)" points="55.9,36.1 42.1,36.1 42.1,50.1 55.9,50.1 46.5,43.1 	" fill-opacity="1"></polygon>
	<path fill="hsla(0, 100%, 0%, 1)" d="M69.8,36.3l-3.3,4.3L62.9,36l-3.6,4.7l-3.4-4.6V50H70l0,0h13V36.1H69.4L69.8,36.3z M70.1,49.6L70,43.2
		l4.4,3.4L70.1,49.6z M70,42.9l-0.1-6.4l4.3,3.1L70,42.9z" fill-opacity="1"></path>
	<polygon fill="hsla(0, 100%, 0%, 1)" points="94.2,37 93.8,37 89.3,43.9 89.3,37 88.9,37 88.9,49.3 89.3,49.3 89.3,44.6 90.2,43.2 94.1,49.3 
		94.5,49.3 90.4,42.8 	" fill-opacity="1"></polygon>
	<path fill="hsla(0, 100%, 0%, 1)" d="M100.5,46.3c0,1.5-0.5,2.8-2.2,2.8c-1.6,0-2.2-1.3-2.2-2.8v-9.2h-0.4v9.2c0,1.7,0.7,3.1,2.5,3.1
		c1.9,0,2.5-1.4,2.5-3.1v-9.2h-0.2V46.3z" fill-opacity="1"></path>
	<polygon fill="hsla(0, 100%, 0%, 1)" points="102.6,37 102.3,37 102.3,49.3 106.8,49.3 106.8,48.9 102.6,48.9 	" fill-opacity="1"></polygon>
	<polygon fill="hsla(0, 100%, 0%, 1)" points="106.8,37.4 109.5,37.4 109.5,49.3 109.9,49.3 109.9,37.4 112.6,37.4 112.6,37 106.8,37 	" fill-opacity="1"></polygon>
	<path fill="hsla(0, 100%, 0%, 1)" d="M118.3,46.3c0,1.5-0.5,2.8-2.2,2.8c-1.7,0-2.2-1.3-2.2-2.8v-9.2h-0.4v9.2c0,1.7,0.7,3.1,2.5,3.1
		c1.9,0,2.5-1.4,2.5-3.1v-9.2h-0.4v9.2H118.3z" fill-opacity="1"></path>
	<path fill="hsla(0, 100%, 0%, 1)" d="M125,45.9c0-1.3-0.6-2.2-1.9-2.5c1.3-0.2,1.9-1.1,1.9-2.6v-1.1c0-1.7-0.7-2.8-2.5-2.8h-2.4v12.3h0.4v-5.7
		h1.5c1.6,0,2.7,0.5,2.7,2.3v1.9c0,0.5,0.1,1.1,0.3,1.5h0.4c-0.3-0.4-0.3-1-0.3-1.5L125,45.9L125,45.9z M120.5,43.2v-5.9h2
		c1.6,0,2.2,0.9,2.2,2.4v1.1c0,1.9-1,2.3-2.7,2.3h-1.5V43.2z" fill-opacity="1"></path>
	<polygon fill="hsla(0, 100%, 0%, 1)" points="133.8,48.7 131.8,37.1 131.3,37.1 129.2,48.7 127.1,37 126.7,37 128.9,49.3 129.4,49.3 131.5,37.9 
		133.5,49.3 134,49.3 136.2,37 135.8,37 	" fill-opacity="1"></polygon>
	<polygon fill="hsla(0, 100%, 0%, 1)" points="137.5,49.3 142.2,49.3 142.2,48.9 137.9,48.9 137.9,43.2 141.5,43.2 141.5,42.9 137.9,42.9 
		137.9,37.4 142.2,37.4 142.2,37 137.5,37 	" fill-opacity="1"></polygon>
	<path fill="hsla(0, 100%, 0%, 1)" d="M148.5,45.9c0-1.3-0.6-2.2-1.9-2.5c1.3-0.2,1.9-1.1,1.9-2.6v-1.1c0-1.7-0.7-2.8-2.5-2.8h-2.4v12.3h0.4v-5.7
		h1.5c1.6,0,2.7,0.5,2.7,2.3v1.9c0,0.5,0.1,1.1,0.3,1.5h0.4c-0.3-0.4-0.3-1-0.3-1.5L148.5,45.9L148.5,45.9z M144,43.2v-5.9h2
		c1.6,0,2.2,0.9,2.2,2.4v1.1c0,1.9-1,2.3-2.7,2.3H144V43.2z" fill-opacity="1"></path>
	<polygon fill="hsla(0, 100%, 0%, 1)" points="155.6,37 155.2,37 150.6,43.9 150.6,37 150.2,37 150.2,49.3 150.6,49.3 150.6,44.6 151.6,43.2 
		155.5,49.3 155.9,49.3 151.8,42.8 	" fill-opacity="1"></polygon>
	<path fill="hsla(0, 100%, 0%, 1)" d="M157.6,39.9c0-1.5,0.5-2.7,2.2-2.7c1.6,0,2.1,1.2,2.1,2.7v0.2h0.4v-0.2c0-1.7-0.7-3-2.5-3s-2.5,1.2-2.5,3
		c0,3.4,4.7,3.3,4.7,6.4c0,1.5-0.6,2.7-2.2,2.7c-1.6,0-2.2-1.2-2.2-2.7v-0.6h-0.4v0.6c0,1.7,0.7,3,2.6,3c1.9,0,2.6-1.3,2.6-3
		C162.3,43,157.6,43.1,157.6,39.9z" fill-opacity="1"></path>
	<polygon fill="hsla(0, 100%, 0%, 1)" points="163.3,37.4 165.9,37.4 165.9,49.3 166.3,49.3 166.3,37.4 169,37.4 169,37 163.3,37 	" fill-opacity="1"></polygon>
	<path fill="hsla(0, 100%, 0%, 1)" d="M172.3,37l-3,12.3h0.4l0.7-2.9h4.4l0.7,2.9h0.4l-3-12.3H172.3z M170.5,46l2.1-8.6l2.1,8.6H170.5z" fill-opacity="1"></path>
	<polygon fill="hsla(0, 100%, 0%, 1)" points="176.2,37.4 178.9,37.4 178.9,49.3 179.3,49.3 179.3,37.4 181.9,37.4 181.9,37 176.2,37 	" fill-opacity="1"></polygon>
	<polygon fill="hsla(0, 100%, 0%, 1)" points="182.6,37.4 185.3,37.4 185.3,49.3 185.7,49.3 185.7,37.4 188.4,37.4 188.4,37 182.6,37 	" fill-opacity="1"></polygon>
	<path fill="hsla(0, 100%, 0%, 1)" d="M195.2,42.7c1.4-0.2,1.8-1,1.8-2.4v-0.8c0-1.6-0.6-2.5-2.4-2.5h-2.5v12.3h2.5c1.9,0,2.6-1.1,2.6-2.8v-1.1
		C197.2,43.9,196.7,42.9,195.2,42.7z M192.5,37.4h2.1c1.5,0,2,0.8,2,2.2v0.8c0,1.8-0.8,2.2-2.5,2.2h-1.6V37.4z M196.8,46.4
		c0,1.5-0.6,2.5-2.2,2.5h-2.1v-6h1.8c1.7,0,2.5,0.6,2.5,2.4V46.4z" fill-opacity="1"></path>
	<polygon fill="hsla(0, 100%, 0%, 1)" points="198.6,49.3 203.2,49.3 203.2,48.9 199,48.9 199,43.2 202.6,43.2 202.6,42.9 199,42.9 199,37.4 
		203.2,37.4 203.2,37 198.6,37 	" fill-opacity="1"></polygon>
	<path fill="hsla(0, 100%, 0%, 1)" d="M209.6,45.9c0-1.3-0.6-2.2-1.9-2.5c1.3-0.2,1.9-1.1,1.9-2.6v-1.1c0-1.7-0.7-2.8-2.5-2.8h-2.4v12.3h0.4v-5.7
		h1.5c1.6,0,2.7,0.5,2.7,2.3v1.9c0,0.5,0.1,1.1,0.3,1.5h0.4c-0.3-0.4-0.3-1-0.3-1.5L209.6,45.9L209.6,45.9z M205,43.2v-5.9h2
		c1.6,0,2.2,0.9,2.2,2.4v1.1c0,1.9-1,2.3-2.7,2.3H205V43.2z" fill-opacity="1"></path>
	<polygon fill="hsla(0, 100%, 0%, 1)" points="211.7,37 211.3,37 211.3,49.3 215.8,49.3 215.8,48.9 211.7,48.9 	" fill-opacity="1"></polygon>
	<rect x="217.1" y="37" fill="hsla(0, 100%, 0%, 1)" width="0.4" height="12.3" fill-opacity="1"></rect>
	<polygon fill="hsla(0, 100%, 0%, 1)" points="223.7,37 223.7,48.5 219.4,37 218.9,37 218.9,49.3 219.3,49.3 219.3,37.6 223.6,49.3 224.1,49.3 
		224.1,37 	" fill-opacity="1"></polygon>
</g>
</svg>
