<svg version="1.1" id="generatedSVG" xmlns="http://www.w3.org/2000/svg" xmlns:xlink="http://www.w3.org/1999/xlink" x="0px" y="0px" viewBox="0 0 595.3 841.9" enable-background="new 0 0 595.3 841.9" preserveAspectRatio="none" title="test2">
	 <defs>
		<filter id="overlay" filterUnits="objectBoundingBox" x="0%" y="0%" width="100%" height="100%">
		  <feBlend in="SourceGraphic" mode="overlay"></feBlend>
		  <feBlend in="SourceGraphic" mode="overlay"></feBlend>
		</filter>
		<filter id="grayscale">
          <feColorMatrix type="saturate" values="0"></feColorMatrix>
     </filter>
	</defs>

<image id="background_image" xlink:href="" x="0" y="0" filter=""></image> 
<rect id="svg_x5F_background" fill="#8fc9ef" width="595.3" height="841.9" filter="" fill-opacity="1"></rect>

<g>
	
	
	
</g>

<path fill="#bae5f8" d="M206,254.5c-6.6,0-12,5.4-12,12.1v29.1h24v-29.1C218,259.9,212.6,254.5,206,254.5z" fill-opacity="1"></path>










<path fill="#f8baec" d="M475.3,119.5" fill-opacity="1"></path>

<g>
	
</g>



<path fill="#f8ebba" d="M295.6,260.6l1-4.1c0-6.7,7.4-12.1,14-12.1s15,5.4,15,12.1V253c0-13.9-13.4-25.1-30-25.1
	c-16.6,0-30,11.2-30,25.1v3.5c0-6.7,8.4-12.1,15-12.1s14,5.4,14,12.1L295.6,260.6z" fill-opacity="1"></path>

<path fill="#f8dbba" d="M313.6,254.5c-6.6,0-12,5.4-12,12.1v29.1h24v-29.1C325.6,259.9,320.2,254.5,313.6,254.5z" fill-opacity="1"></path>


<rect x="289.6" y="266.5" fill="#eebaf8" width="12" height="29.1" fill-opacity="1"></rect>



<path fill="#e3baf8" d="M373.6,266.5c0-6.7,5.4-12.1,12-12.1c6.6,0,12,5.4,12,12.1v-10c0-6.7-8.4-12.1-15-12.1s-14,5.4-14,12.1
	l-1,4.1l-1-4.1c0-6.7-7.4-12.1-14-12.1s-15,5.4-15,12.1v10c0-6.7,5.4-12.1,12-12.1c6.6,0,12,5.4,12,12.1H373.6z" fill-opacity="1"></path>
<rect x="337.6" y="295.6" fill="#baf8bf" width="60" height="12.3" fill-opacity="1"></rect>
<rect x="361.6" y="266.5" fill="#f8f3ba" width="12" height="29.1" fill-opacity="1"></rect>






<circle fill="#def8ba" cx="295.8" cy="458.1" r="22.2" fill-opacity="1"></circle>

<circle fill="#f8f8ba" cx="295.8" cy="458.1" r="19.1" fill-opacity="1"></circle>












<circle fill="#f8cfba" cx="244.7" cy="458.3" r="18.7" fill-opacity="1"></circle>


<circle fill="#f8c1ba" cx="259.7" cy="494.4" r="18" fill-opacity="1"></circle>
<circle fill="#f1baf8" cx="295.9" cy="509.3" r="18.7" fill-opacity="1"></circle>








<path fill="#baf8e1" d="M372.6,459.4V457l0,0v-0.7V456l0,0l-0.1-2.4l0,0l-0.1-0.7v-0.4l0,0l-0.2-2.3l0,0l-0.1-0.7v-0.4l0,0l-0.3-2.3
	l0,0l-0.1-0.6l-0.1-0.4l0,0l-0.4-2.3l0,0l-0.1-0.6l-0.1-0.4l0,0l-0.5-2.3l0,0l-0.2-0.6l-0.1-0.4l0,0l-0.6-2.3l0,0l-0.2-0.6l-0.1-0.4
	l0,0l-0.7-2.2l0,0l-0.2-0.6l-0.1-0.4l0,0l-0.8-2.2l0,0l-0.3-0.6l-0.2-0.4l0,0l-1-2.5l0,0l-0.3-0.6l-0.2-0.4l0,0l-1-2.1l0,0l-0.3-0.6
	l-0.2-0.4l0,0l-1.1-2.1l0,0l-0.3-0.6l-0.2-0.4l0,0l-1.2-2l0,0l-0.4-0.5l-0.2-0.4l0,0l-1.3-2l0,0l-0.4-0.5l-0.2-0.4l0,0l-1.4-1.9l0,0
	l-0.4-0.5l-0.3-0.3l0,0l-1.5-1.8l0,0l-0.4-0.5l-0.3-0.3l0,0l-1.6-1.8l0,0l-0.5-0.5l-0.3-0.3l0,0l-1.6-1.7l0,0l-0.5-0.5l-0.3-0.3l0,0
	l-1.7-1.6l0,0l-0.5-0.4l-0.3-0.3l0,0l-1.8-1.6l0,0l-0.5-0.4l-0.3-0.3l0,0l-1.8-1.5l0,0l-0.5-0.4l-0.3-0.3l0,0l-1.9-1.4l0,0l-0.5-0.4
	l-0.3-0.3l0,0l-2-1.3l0,0l-0.6-0.3l-0.4-0.2l0,0l-2-1.2l0,0l-0.6-0.3l-0.4-0.2l0,0l-2.1-1.1l0,0l-0.6-0.3l-0.4-0.2l0,0l-2.1-1l0,0
	l-0.6-0.3l-0.4-0.2l0,0l-2.2-0.9l0,0l-0.6-0.2l-0.4-0.2l0,0l-2.2-0.8l0,0l-0.6-0.2l-0.4-0.2l0,0l-2.2-0.7l0,0l-0.6-0.2l-0.4-0.1l0,0
	l-2.3-0.6l0,0l-0.6-0.1l-0.4-0.1l0,0l-2.3-0.5l0,0l-0.6-0.1l-0.4-0.1l0,0l-2.3-0.4l0,0l-0.7-0.1l-0.4-0.1l0,0l-2.3-0.3l0,0l-0.7-0.1
	L304,382l0,0l-2.3-0.2l0,0H301h-0.4l0,0l-2.4-0.1l0,0h-0.7h-0.4l0,0h-2.4l0,0H294h-0.4l0,0l-2.4,0.1l0,0l-0.7,0.1h-0.4l0,0l-2.3,0.2
	l0,0l-0.7,0.1h-0.4l0,0l-2.3,0.3l0,0l-0.6,0.1l-0.4,0.1l0,0l-2.3,0.4l0,0l-0.6,0.1l-0.4,0.1l0,0l-2.3,0.5l0,0l-0.6,0.2l-0.4,0.1l0,0
	l-2.3,0.6l0,0l-0.6,0.2l-0.4,0.1l0,0l-2.2,0.7l0,0l-0.6,0.2l-0.4,0.1l0,0l-2.2,0.8l0,0l-0.6,0.3l-0.4,0.2l0,0l-2.2,0.9l0,0l-0.6,0.3
	l-0.4,0.2l0,0l-2.1,1l0,0l-0.6,0.3l-0.4,0.2l0,0l-2.1,1.1l0,0l-0.6,0.3l-0.4,0.2l0,0l-2,1.2l0,0l-0.5,0.4l-0.4,0.2l0,0l-2,1.3l0,0
	L252,395l-0.4,0.2l0,0l-1.9,1.4l0,0l-0.5,0.4l-0.4,0.3l0,0l-1.8,1.5l0,0l-0.5,0.4l-0.3,0.3l0,0l-1.8,1.6l0,0l-0.5,0.5l-0.3,0.3l0,0
	l-1.7,1.6l0,0l-0.5,0.5l-0.3,0.3l0,0l-1.6,1.7l0,0l-0.4,0.5l-0.3,0.3l0,0l-1.6,1.8l0,0l-0.4,0.5l-0.3,0.3l0,0l-1.5,1.8l0,0l-0.4,0.5
	l-0.3,0.3l0,0l-1.4,1.9l0,0l-0.4,0.5l-0.3,0.3l0,0l-1.3,2l0,0l-0.3,0.6l-0.2,0.4l0,0l-1.2,2l0,0l-0.3,0.6l-0.2,0.4l0,0l-1.1,2.1l0,0
	l-0.3,0.6l-0.2,0.4l0,0l-1,2.1l0,0l-0.3,0.6l-0.2,0.4l0,0l-0.9,2.2l0,0l-0.2,0.6l-0.2,0.4l0,0l-0.8,2.2l0,0l-0.2,0.6l-0.2,0.4l0,0
	l-0.7,2.2l0,0l-0.2,0.6l-0.1,0.4l0,0l-0.6,2.3l0,0l-0.1,0.6l-0.1,0.4l0,0l-0.5,2.3l0,0l-0.1,0.6l-0.1,0.4l0,0l-0.4,2.3l0,0l-0.1,0.7
	l-0.1,0.4l0,0l-0.3,2.3l0,0l-0.1,0.7l-0.1,0.4l0,0l-0.2,2.3l0,0v0.7v0.4l0,0l-0.1,2.4l0,0v0.7v0.4l0,0v2.4l0,0v0.7v0.4l0,0l0.1,2.4
	l0,0l0.1,0.7v0.4l0,0l0.2,2.3l0,0l0.1,0.7v0.4l0,0l0.3,2.3l0,0l0.1,0.6l0.1,0.4l0,0l0.4,2.3l0,0l0.1,0.6l0.1,0.4l0,0l0.5,2.3l0,0
	l0.2,0.6l0.1,0.4l0,0l0.6,2.3l0,0l0.2,0.6l0.1,0.4l0,0l0.7,2.2l0,0l0.2,0.6l0.1,0.4l0,0l0.8,2.2l0,0l0.3,0.6l0.2,0.4l0,0l0.9,2.2
	l0,0l0.3,0.6l0.2,0.4l0,0l1,2.1l0,0l0.3,0.6l0.2,0.4l0,0l1.1,2.1l0,0l0.3,0.6l0.2,0.4l0,0l1.2,2l0,0l0.4,0.5l0.2,0.4l0,0l1.3,2l0,0
	l0.4,0.5l0.2,0.4l0,0l1.4,1.9l0,0l0.4,0.5l0.3,0.4l0,0l1.5,1.8l0,0l0.4,0.5l0.3,0.3l0,0l1.6,1.8l0,0l0.5,0.5l0.3,0.3l0,0l1.6,1.7
	l0,0l0.5,0.5l0.3,0.3l0,0l1.7,1.6l0,0l0.5,0.4l0.3,0.3l0,0l1.8,1.6l0,0l0.5,0.4l0.3,0.3l0,0l1.8,1.5l0,0l0.5,0.4l0.3,0.3l0,0
	l1.9,1.4l0,0l0.5,0.4l0.3,0.3l0,0l2,1.3l0,0l0.6,0.3l0.4,0.2l0,0l2,1.2l0,0l0.6,0.3l0.4,0.2l0,0l2.1,1.1l0,0l0.6,0.3l0.4,0.2l0,0
	l2.1,1l0,0l0.6,0.3l0.4,0.2l0,0l2.2,0.9l0,0l0.6,0.2l0.4,0.2l0,0l2.2,0.8l0,0l0.6,0.2l0.4,0.2l0,0l2.2,0.7l0,0l0.6,0.2l0.4,0.1l0,0
	l2.3,0.6l0,0l0.6,0.1l0.4,0.1l0,0l2.3,0.5l0,0l0.6,0.1l0.4,0.1l0,0l2.3,0.4l0,0l0.7,0.1l0.4,0.1l0,0l2.3,0.3l0,0l0.7,0.1l0.4,0.1
	l0,0l2.3,0.2l0,0h0.7h0.4l0,0l2.4,0.1l0,0h0.7h0.4l0,0h2.4l0,0h0.7h0.4l0,0l2.4-0.1l0,0l0.7-0.1h0.4l0,0l2.3-0.2l0,0l0.7-0.1h0.4
	l0,0l2.3-0.3l0,0l0.6-0.1l0.4-0.1l0,0l2.3-0.4l0,0l0.6-0.1l0.4-0.1l0,0l2.3-0.5l0,0l0.6-0.2l0.4-0.1l0,0l2.3-0.6l0,0l0.6-0.2
	l0.4-0.1l0,0l2.2-0.7l0,0l0.6-0.2l0.4-0.1l0,0l2.2-0.8l0,0l0.6-0.3l0.4-0.2l0,0l2.2-0.9l0,0l0.6-0.3l0.4-0.2l0,0l2.1-1l0,0l0.6-0.3
	l0.4-0.2l0,0l2.1-1.1l0,0l0.6-0.3l0.4-0.2l0,0l2-1.2l0,0l0.5-0.4l0.4-0.2l0,0l2-1.3l0,0l0.5-0.4l0.4-0.2l0,0l1.9-1.4l0,0l0.5-0.4
	l0.3-0.3l0,0l1.8-1.5l0,0l0.5-0.4l0.3-0.3l0,0l1.8-1.6l0,0l0.5-0.5l0.3-0.3l0,0l1.7-1.6l0,0l0.5-0.5l0.3-0.3l0,0l1.6-1.7l0,0
	l0.4-0.5l0.3-0.3l0,0l1.6-1.8l0,0l0.4-0.5l0.3-0.3l0,0l1.5-1.8l0,0l0.4-0.5l0.3-0.3l0,0l1.4-1.9l0,0l0.4-0.5l0.3-0.3l0,0l1.3-2l0,0
	l0.3-0.6l0.2-0.4l0,0l1.2-2l0,0l0.3-0.6l0.2-0.4l0,0l1.1-2.1l0,0l0.3-0.6l0.2-0.4l0,0l1-2.1l0,0l0.3-0.6l0.2-0.4l0,0l0.9-2.2l0,0
	l0.2-0.6l0.2-0.4l0,0l0.8-2.2l0,0l0.2-0.6l0.2-0.4l0,0l0.7-2.2l0,0l0.2-0.6l0.1-0.4l0,0l0.6-2.3l0,0l0.1-0.6l0.1-0.4l0,0l0.5-2.3
	l0,0l0.1-0.6l0.1-0.4l0,0l0.4-2.3l0,0l0.1-0.7l0.1-0.4l0,0l0.3-2.3l0,0l0.1-0.7l0.1-0.4l0,0l0.2-2.3l0,0v-0.7v-0.4l0,0l0.1-2.4l0,0
	v-0.7v0H372.6z M323.3,525.4l-0.4,0.8L322,526l-1.7,0.6l-0.4,0.7L319,527l-1.7,0.6l-0.5,0.7l-0.9-0.3l-1.8,0.5l-0.5,0.7l-0.9-0.4
	l-1.8,0.4l-0.5,0.7l-0.9-0.4l-1.8,0.3l-0.6,0.7l-0.8-0.4l-1.8,0.2l-0.6,0.6l-0.8-0.5l-1.8,0.2l-0.6,0.6l-0.8-0.5l-1.8,0.1l-0.7,0.6
	l-0.8-0.5h-1.8l-0.7,0.5l-0.8-0.6l-1.8-0.1l-0.7,0.5l-0.7-0.6l-1.8-0.2l-0.7,0.5l-0.7-0.6l-1.8-0.2l-0.7,0.4l-0.7-0.7l-1.8-0.3
	l-0.8,0.4l-0.6-0.7l-1.8-0.4l-0.8,0.4l-0.6-0.7l-1.8-0.5l-0.8,0.3l-0.6-0.8l-1.7-0.6l-0.8,0.3l-0.5-0.8l-1.7-0.6l-0.8,0.3l-0.5-0.8
	l-1.7-0.7l-0.8,0.2l-0.5-0.8l-1.6-0.8l-0.8,0.2l-0.4-0.9l-1.6-0.9l-0.9,0.2l-0.4-0.9l-1.6-0.9l-0.9,0.1l-0.4-0.9l-1.5-1l-0.9,0.1
	l-0.3-0.9l-1.5-1.1h-0.9l-0.3-0.9l-1.4-1.1h-0.9l-0.2-0.9l-1.4-1.2h-0.9l-0.2-0.9l-1.3-1.3l-0.9-0.1l-0.1-0.9l-1.3-1.3l-0.9-0.1
	l-0.1-0.9l-1.2-1.4l-0.9-0.2l-0.1-1l-1.1-1.4l-0.8-0.2v-1l-1.1-1.5l-0.8-0.2v-1l-1-1.5l-0.8-0.3l0.1-0.9l-0.9-1.6l-0.8-0.3l0.1-0.9
	l-0.9-1.6l-0.8-0.3l0.2-0.9l-0.8-1.6l-0.8-0.4l0.2-0.9l-0.7-1.7l-0.8-0.4l0.2-0.9l-0.6-1.7l-0.7-0.4l0.3-0.9l-0.6-1.7l-0.7-0.5
	l0.3-0.9l-0.5-1.8l-0.7-0.5l0.4-0.9l-0.4-1.8l-0.7-0.5l0.4-0.9l-0.3-1.8l-0.7-0.6l0.4-0.8l-0.2-1.8l-0.6-0.6l0.5-0.8l-0.2-1.8
	l-0.6-0.6l0.5-0.8l-0.1-1.8l-0.6-0.7l0.5-0.8V457l-0.5-0.7l0.6-0.8l0.1-1.8l-0.5-0.7l0.6-0.7l0.2-1.8l-0.5-0.7l0.6-0.7l0.2-1.8
	l-0.4-0.7l0.7-0.7l0.3-1.8l-0.4-0.8l0.7-0.6l0.4-1.8l-0.4-0.8l0.7-0.6l0.5-1.8l-0.3-0.8l0.8-0.6l0.6-1.7l-0.3-0.8l0.8-0.5l0.6-1.7
	l-0.3-0.8l0.8-0.5l0.7-1.7l-0.2-0.8l0.8-0.5l0.8-1.6l-0.2-0.8l0.9-0.4l0.9-1.6l-0.2-0.9l0.9-0.4l0.9-1.6l-0.1-0.9l0.9-0.4l1-1.5
	l-0.1-0.9l0.9-0.3l1.1-1.5v-0.9l0.9-0.3l1.1-1.4V411l0.9-0.2l1.2-1.4v-0.9l0.9-0.2l1.3-1.3l0.1-0.9l0.9-0.1l1.3-1.3l0.1-0.9l0.9-0.1
	l1.4-1.2l0.2-0.9l1-0.1l1.4-1.1l0.2-0.8h1l1.5-1.1l0.2-0.8h1l1.5-1l0.3-0.8l0.9,0.1l1.6-0.9l0.3-0.8l0.9,0.1l1.6-0.9l0.3-0.8
	l0.9,0.2l1.6-0.8l0.4-0.8l0.9,0.2l1.7-0.7l0.4-0.8l0.9,0.2l1.7-0.6l0.4-0.7l0.9,0.3l1.7-0.6l0.5-0.7l0.9,0.3l1.8-0.5l0.5-0.7
	l0.9,0.4l1.8-0.4l0.5-0.7l0.9,0.4l1.8-0.3l0.6-0.7l0.8,0.4l1.8-0.2l0.6-0.6l0.8,0.5l1.8-0.2l0.6-0.6l0.8,0.5l1.8-0.1l0.7-0.6
	l0.8,0.5h1.8l0.7-0.5l0.8,0.6l1.8,0.1l0.7-0.5l0.7,0.6l1.8,0.2l0.7-0.5l0.7,0.6l1.8,0.2l0.7-0.4l0.7,0.7l1.8,0.3l0.8-0.4l0.6,0.7
	l1.8,0.4l0.8-0.4l0.6,0.7l1.8,0.5l0.8-0.3l0.6,0.8l1.7,0.6l0.8-0.3l0.5,0.8l1.7,0.6l0.8-0.3l0.5,0.8l1.7,0.7l0.8-0.2l0.5,0.8
	l1.6,0.8l0.8-0.2l0.4,0.9l1.6,0.9l0.9-0.2l0.4,0.9l1.6,0.9l0.9-0.1l0.4,0.9l1.5,1l0.9-0.1l0.3,0.9l1.5,1.1h0.9l0.3,0.9l1.4,1.1h0.9
	l0.2,0.9l1.4,1.2h0.9l0.2,0.9l1.3,1.3l0.9,0.1l0.1,0.9l1.3,1.3l0.9,0.1l0.1,0.9l1.2,1.4l0.9,0.2l0.1,1l1.1,1.4l0.8,0.2v1l1.1,1.5
	l0.8,0.2v1l1,1.5l0.8,0.3l-0.1,0.9l0.9,1.6l0.8,0.3l-0.1,0.9l0.9,1.6l0.8,0.3l-0.2,0.9l0.8,1.6l0.8,0.4l-0.2,0.9l0.7,1.7l0.8,0.4
	l-0.2,0.9l0.6,1.7l0.7,0.4l-0.3,0.9l0.6,1.7l0.7,0.5l-0.3,0.9l0.5,1.8l0.7,0.5l-0.4,0.9l0.4,1.8l0.7,0.5l-0.4,0.9l0.3,1.8l0.7,0.6
	l-0.4,0.8l0.2,1.8l0.6,0.6l-0.5,0.8l0.2,1.8l0.6,0.6l-0.5,0.8l0.1,1.8l0.6,0.7l-0.5,0.8v1.8l0.5,0.7l-0.6,0.8l-0.1,1.8l0.5,0.7
	l-0.6,0.7l-0.2,1.8l0.5,0.7l-0.6,0.7l-0.2,1.8l0.4,0.7l-0.7,0.7l-0.3,1.8l0.4,0.8l-0.7,0.6l-0.4,1.8l0.4,0.8l-0.7,0.6l-0.5,1.8
	l0.3,0.8l-0.8,0.6l-0.6,1.7l0.3,0.8l-0.6,1l-0.6,1.7l0.3,0.8l-0.8,0.5l-0.7,1.7l0.2,0.8l-0.8,0.5l-0.8,1.6l0.2,0.8l-0.9,0.4
	l-0.9,1.6l0.2,0.9l-0.9,0.4l-0.9,1.6l0.1,0.9l-0.9,0.4l-1,1.5l0.1,0.9l-0.9,0.3l-1.1,1.5v0.9L353,503l-1.1,1.4v0.9l-0.9,0.2
	l-1.2,1.4v0.9l-0.9,0.2l-1.3,1.3l-0.1,0.9l-0.9,0.1l-1.3,1.3l-0.1,0.9l-0.9,0.1l-1.4,1.2l-0.2,0.9l-1,0.1l-1.4,1.1l-0.2,0.8h-1
	l-1.5,1.1l-0.2,0.8h-1l-1.5,1l-0.3,0.8l-0.9-0.1l-1.6,0.9l-0.3,0.8l-0.9-0.1l-1.6,0.9l-0.3,0.8l-0.9-0.2l-1.6,0.8l-0.4,0.8l-0.9-0.2
	L323.3,525.4z" fill-opacity="1"></path>

<path fill="#baf8cb" d="M369,456.6l-0.6-0.7l-0.1-1.8l0.5-0.8l-0.6-0.6l-0.2-1.8l0.5-0.8l-0.6-0.6l-0.2-1.8l0.4-0.8l-0.7-0.6
	l-0.3-1.8l0.4-0.9l-0.7-0.5l-0.4-1.8l0.4-0.9l-0.7-0.5l-0.5-1.8l0.3-0.9l-0.7-0.5l-0.6-1.7l0.3-0.9l-0.7-0.4l-0.6-1.7l0.2-0.9
	l-0.8-0.4l-0.7-1.7l0.2-0.9l-0.8-0.4l-0.8-1.6l0.2-0.9l-0.8-0.3l-0.9-1.6l0.1-0.9l-0.8-0.3l-0.9-1.6l0.1-0.9L357,419l-1-1.5v-1
	l-0.8-0.2l-1.1-1.5v-1l-0.8-0.2l-1.1-1.4l-0.1-1l-0.9-0.2l-1.2-1.4l-0.1-0.9l-0.9-0.1l-1.3-1.3l-0.1-0.9l-0.9-0.1l-1.3-1.3l-0.2-0.9
	h-0.9L343,403l-0.2-0.9h-0.9l-1.4-1.1l-0.3-0.9h-0.9l-1.5-1.1l-0.3-0.9l-0.9,0.1l-1.5-1l-0.4-0.9l-0.9,0.1l-1.6-0.9l-0.4-0.9
	l-0.9,0.2l-1.6-0.9l-0.4-0.9l-0.8,0.2l-1.6-0.8l-0.5-0.8l-0.8,0.2l-1.7-0.7l-0.5-0.8l-0.8,0.3l-1.7-0.6l-0.5-0.8l-0.8,0.3l-1.7-0.6
	l-0.6-0.8l-0.8,0.3l-1.8-0.5l-0.6-0.7l-0.8,0.4l-1.8-0.4l-0.6-0.7l-0.8,0.4l-1.8-0.3l-0.7-0.7l-0.7,0.4l-1.8-0.2l-0.7-0.6l-0.7,0.5
	l-1.8-0.2l-0.7-0.6l-0.7,0.5l-1.8-0.1l-0.8-0.6l-0.7,0.5H295l-0.8-0.5l-0.7,0.6l-1.8,0.1l-0.8-0.5l-0.6,0.6l-1.8,0.2l-0.8-0.5
	l-0.6,0.6l-1.8,0.2l-0.8-0.4l-0.6,0.7l-1.8,0.3l-0.9-0.4l-0.5,0.7l-1.8,0.4l-0.9-0.4l-0.5,0.7l-1.8,0.5l-0.9-0.3l-0.5,0.7l-1.7,0.6
	l-0.9-0.3l-0.4,0.7l-1.7,0.6l-0.9-0.2l-0.4,0.8l-1.7,0.7l-0.9-0.2l-0.4,0.8l-1.6,0.8l-0.9-0.2l-0.3,0.8l-1.6,0.9l-0.9-0.1l-0.3,0.8
	l-1.6,0.9l-0.9-0.1l-0.3,0.8l-1.5,1h-1l-0.2,0.8l-1.5,1.1h-1l-0.2,0.8l-1.4,1.1l-1,0.1l-0.2,0.9l-1.4,1.2l-0.9,0.1l-0.1,0.9
	l-1.3,1.3l-0.9,0.1l-0.1,0.9l-1.3,1.3l-0.9,0.2v0.9l-1.2,1.4l-0.9,0.2v0.9l-1.1,1.4l-0.9,0.3v0.9l-1.1,1.5l-0.9,0.3l0.1,0.9l-1,1.5
	l-0.9,0.4l0.1,0.9l-0.9,1.6l-0.9,0.4l0.2,0.9l-0.9,1.6l-0.9,0.4l0.2,0.8l-0.8,1.6l-0.8,0.5l0.2,0.8l-0.7,1.7l-0.8,0.5l0.3,0.8
	l-0.6,1.7L227,434l0.3,0.8l-0.6,1.7l-0.8,0.6l0.3,0.8l-0.5,1.8l-0.7,0.6l0.4,0.8l-0.4,1.8l-0.7,0.6l0.4,0.8l-0.3,1.8l-0.7,0.7
	l0.4,0.7l-0.2,1.8l-0.6,0.7l0.5,0.7l-0.2,1.8l-0.6,0.7l0.5,0.7l-0.1,1.8l-0.6,0.8l0.5,0.7v1.8l-0.5,0.8l0.6,0.7l0.1,1.8l-0.5,0.8
	l0.6,0.6l0.2,1.8l-0.5,0.8l0.6,0.6l0.2,1.8l-0.4,0.8l0.7,0.6l0.3,1.8l-0.4,0.9l0.7,0.5l0.4,1.8L225,476l0.7,0.5l0.5,1.8l-0.3,0.9
	l0.7,0.5l0.6,1.7l-0.3,0.9l0.7,0.4l0.6,1.7l-0.2,0.9l0.8,0.4l0.7,1.7l-0.2,0.9l0.8,0.4l0.8,1.6l-0.2,0.9l0.8,0.3l0.9,1.6l-0.1,0.9
	l0.8,0.3l0.9,1.6l-0.1,0.9l0.8,0.3l1,1.5v1l0.8,0.2l1.1,1.5v1l0.8,0.2l1.1,1.4l0.1,1l0.9,0.2l1.2,1.4l0.1,0.9l0.9,0.1l1.3,1.3
	l0.1,0.9l0.9,0.1l1.3,1.3l0.2,0.9h0.9l1.4,1.2l0.2,0.9h0.9l1.4,1.1l0.3,0.9h0.9l1.5,1.1l0.3,0.9l0.9-0.1l1.5,1l0.4,0.9l0.9-0.1
	l1.6,0.9l0.4,0.9l0.9-0.2l1.6,0.9l0.4,0.9l0.8-0.2l1.6,0.8l0.5,0.8l0.8-0.2l1.7,0.7l0.5,0.8l0.8-0.3l1.7,0.6l0.5,0.8l0.8-0.3
	l1.7,0.6l0.6,0.8l0.8-0.3l1.8,0.5l0.6,0.7l0.8-0.4l1.8,0.4l0.6,0.7l0.8-0.4l1.8,0.3l0.7,0.7l0.7-0.4l1.8,0.2l0.7,0.6l0.7-0.5
	l1.8,0.2l0.7,0.6l0.7-0.5l1.8,0.1l0.8,0.6l0.7-0.5h1.8l0.8,0.5l0.7-0.6l1.8-0.1l0.8,0.5l0.6-0.6l1.8-0.2l0.8,0.5l0.6-0.6l1.8-0.2
	l0.8,0.4l0.6-0.7l1.8-0.3l0.9,0.4l0.5-0.7l1.8-0.4l0.9,0.4l0.5-0.7l1.8-0.5l0.9,0.3l0.5-0.7l1.7-0.6l0.9,0.3l0.4-0.7l1.7-0.6
	l0.9,0.2l0.4-0.8l1.7-0.7l0.9,0.2l0.4-0.8l1.6-0.8l0.9,0.2l0.3-0.8l1.6-0.9l0.9,0.1l0.3-0.8l1.6-0.9l0.9,0.1l0.3-0.8l1.5-1h1
	l0.2-0.8l1.5-1.1h1l0.2-0.8l1.4-1.1l1-0.1l0.2-0.9l1.4-1.2l0.9-0.1l0.1-0.9l1.3-1.3l0.9-0.1l0.1-0.9l1.3-1.3l0.9-0.2v-0.9l1.2-1.4
	l0.9-0.2v-0.9l1.1-1.4l0.9-0.3v-0.9l1.1-1.5l0.9-0.3l-0.1-0.9l1-1.5l0.9-0.4l-0.1-0.9l0.9-1.6l0.9-0.4l-0.2-0.9l0.9-1.6l0.9-0.4
	l-0.2-0.8l0.8-1.6l0.8-0.5l-0.2-0.8l0.7-1.7l0.8-0.5l-0.3-0.8l0.6-1.7l0.8-0.5l-0.3-0.8l0.6-1.7l0.8-0.6l-0.3-0.8l0.5-1.8l0.7-0.6
	l-0.4-0.8l0.4-1.8l0.7-0.6l-0.4-0.8l0.3-1.8l0.7-0.7l-0.4-0.7l0.2-1.8l0.6-0.7l-0.5-0.7l0.2-1.8l0.6-0.7l-0.5-0.7l0.1-1.8l0.6-0.8
	l-0.5-0.7v-1.8L369,456.6z M346.9,478.9c-0.2,0-0.4,0-0.6,0c0.2,0.2,0.4,0.3,0.5,0.5c8.2,8.2,8.2,21.4,0,29.6s-21.4,8.2-29.6,0
	c-0.1-0.1-0.3-0.3-0.4-0.5c0,0.2,0,0.5,0,0.7c0,11.6-9.4,20.9-20.9,20.9c-11.5,0-20.9-9.4-20.9-20.9c0-0.2,0-0.4,0-0.6
	c-0.2,0.2-0.3,0.4-0.5,0.5c-8.2,8.2-21.4,8.2-29.6,0c-8.2-8.2-8.2-21.4,0-29.6c0.1-0.1,0.3-0.3,0.5-0.4c-0.2,0-0.5,0-0.7,0
	c-11.6,0-20.9-9.4-20.9-20.9c0-11.5,9.4-20.9,20.9-20.9c0.2,0,0.4,0,0.6,0c-0.2-0.2-0.4-0.3-0.5-0.5c-8.2-8.2-8.2-21.4,0-29.6
	s21.4-8.2,29.6,0c0.1,0.1,0.3,0.3,0.4,0.5c0-0.2,0-0.5,0-0.7c0-11.6,9.4-20.9,20.9-20.9c11.5,0,20.9,9.4,20.9,20.9
	c0,0.2,0,0.4,0,0.6c0.2-0.2,0.3-0.4,0.5-0.5c8.2-8.2,21.4-8.2,29.6,0s8.2,21.4,0,29.6c-0.1,0.1-0.3,0.3-0.5,0.4c0.2,0,0.5,0,0.7,0
	c11.6,0,20.9,9.4,20.9,20.9C367.8,469.5,358.5,478.9,346.9,478.9z" fill-opacity="1"></path>






<path fill="#d5baf8" d="M221.1,349.4c-4.7,0-8.5,3.8-8.5,8.6v1.7h17V358C229.7,353.2,225.8,349.4,221.1,349.4z" fill-opacity="1"></path>

<path fill="#cdbaf8" d="M202.5,349.4c-4.7,0-8.5,3.8-8.5,8.6v1.7h17V358C211,353.2,207.2,349.4,202.5,349.4z" fill-opacity="1"></path>






<path fill="#baf8bb" d="M503.8,479.4c-4.7,0-8.5,3.8-8.5,8.6v1.7h17V488C512.3,483.3,508.5,479.4,503.8,479.4z" fill-opacity="1"></path>


<path fill="#f8dcba" d="M447.8,479.4c-4.7,0-8.5,3.8-8.5,8.6v1.7h17V488C456.3,483.3,452.5,479.4,447.8,479.4z" fill-opacity="1"></path>
















<g>
	
</g>
<rect x="402" y="661.5" fill="#bac7f8" width="110.4" height="1" fill-opacity="1"></rect>


<path fill="#babff8" d="M328.2,658.3c-12,0-21.7,9.8-21.7,21.8v52.6h43.4v-52.6C349.9,668,340.2,658.3,328.2,658.3z" fill-opacity="1"></path>



<rect x="235.4" y="732.4" fill="#f4f8ba" width="120.6" height="13.6" fill-opacity="1"></rect>

<rect x="214.3" y="759.4" fill="#f8baed" width="162.8" height="13.6" fill-opacity="1"></rect>
<rect x="284.8" y="680.1" fill="#ecbaf8" width="21.7" height="52.6" fill-opacity="1"></rect>



<g>
	<path fill="#baf8cc" d="M356,732.7h-6v-77c0-24.2-23.2-51.3-54.3-51.3s-54.3,27.1-54.3,51.3v77h-6v-77c0-27,25.8-57.3,60.3-57.3
		s60.3,30.2,60.3,57.3V732.7z" fill-opacity="1"></path>
</g>
<rect x="409.3" y="603.8" fill="#f8bade" width="2.3" height="2.3" fill-opacity="1"></rect>
<rect x="413.8" y="603.8" fill="#babef8" width="2.3" height="2.3" fill-opacity="1"></rect>










<rect x="462.6" y="603.8" fill="#f6f8ba" width="2.3" height="2.3" fill-opacity="1"></rect>





<rect x="489.3" y="603.8" fill="#cdbaf8" width="2.3" height="2.3" fill-opacity="1"></rect>




<rect x="416.1" y="601.5" fill="#f8baca" width="2.3" height="2.3" fill-opacity="1"></rect>
<rect x="420.6" y="601.5" fill="#f8bac6" width="2.3" height="2.3" fill-opacity="1"></rect>








<rect x="460.6" y="601.5" fill="#d4baf8" width="2.3" height="2.3" fill-opacity="1"></rect>
<rect x="465" y="601.5" fill="#f8baee" width="2.3" height="2.3" fill-opacity="1"></rect>















<polygon fill="#f8e7ba" points="134.7,375.8 134.7,375.8 75.7,476.5 193.7,476.5 " fill-opacity="1"></polygon>
<path fill="#d3baf8" d="M163.2,479.7c-4.7,0-8.5,3.8-8.5,8.6v1.7h17v-1.7C171.8,483.5,168,479.7,163.2,479.7z" fill-opacity="1"></path>

<path fill="#badef8" d="M181.9,479.7c-4.7,0-8.5,3.8-8.5,8.6v1.7h17v-1.7C190.4,483.5,186.6,479.7,181.9,479.7z" fill-opacity="1"></path>
<path fill="#f8bac7" d="M88.6,479.7c-4.7,0-8.5,3.8-8.5,8.6v1.7h17v-1.7C97.1,483.5,93.3,479.7,88.6,479.7z" fill-opacity="1"></path>




<path fill="#f8cfba" d="M114.6,622.4c-4,0-7.2,3.3-7.2,7.3v17.6h14.5v-17.6C121.8,625.6,118.6,622.4,114.6,622.4z" fill-opacity="1"></path>












<circle fill="#dcf8ba" cx="135" cy="528.7" r="5.5" fill-opacity="1"></circle>
<g>
	
</g>

<rect x="103.4" y="646.7" fill="#dbf8ba" width="63.1" height="1" fill-opacity="1"></rect>







<rect x="114.1" y="604.1" fill="#f8bae2" width="2.3" height="2.3" fill-opacity="1"></rect>





<rect x="140.7" y="604.1" fill="#f8baee" width="2.3" height="2.3" fill-opacity="1"></rect>



<rect x="158.5" y="604.1" fill="#f8ebba" width="2.3" height="2.3" fill-opacity="1"></rect>

<rect x="167.4" y="604.1" fill="#baf8d6" width="2.3" height="2.3" fill-opacity="1"></rect>



<rect x="89.8" y="601.7" fill="#baf8d8" width="2.3" height="2.3" fill-opacity="1"></rect>













<rect x="152" y="601.7" fill="#f8c0ba" width="2.3" height="2.3" fill-opacity="1"></rect>







<path fill="#f8bad0" d="M153.1,773.9v-63.4c0-8.1-7.8-17.1-18.1-17.1c-10.3,0-18.1,9-18.1,17.1v63.4" fill-opacity="1"></path>









<polygon fill="#baf8da" points="402.2,582.7 296.2,472.5 190.3,582.5 190.4,568.3 296.2,458 401.9,568.3 " fill-opacity="1"></polygon>



<g>
	
	
</g>
<g class="text draggable">
	
	<text id="text_x5F_headline" transform="matrix(1 0 0 1 76 402)" class="dynamicText_0" fill="#0f0000" fill-opacity="1"><tspan class="0" x="0" y="0" font-family="GloberHeavy" font-size="72" font-style="undefined">KUNST</tspan><tspan class="1" x="0" y="54" font-family="GloberHeavy" font-size="72" font-style="undefined">AUS</tspan><tspan class="2" x="0" y="108" font-family="GloberHeavy" font-size="72" font-style="undefined">STELLUNG</tspan><tspan class="3" x="0" y="162" font-family="GloberHeavy" font-size="72" font-style="undefined">GANZ</tspan><tspan class="4" x="0" y="216" font-family="GloberHeavy" font-size="72" font-style="undefined">KREATIV</tspan><tspan class="5" x="0" y="270" font-family="GloberHeavy" font-size="72" font-style="undefined"></tspan></text>
</g>
<g class="text draggable ">
	
	<text id="text_x5F_subtitle" transform="matrix(1 0 0 1 0 73)" class="dynamicText_1" fill="#0f0000" fill-opacity="1"><tspan class="0" x="0" y="0" font-family="GloberThin" font-size="98" font-style="undefined">Lorem ipsum </tspan><tspan class="1" x="0" y="90" font-family="GloberThin" font-size="98" font-style="undefined">dolor sit amet, </tspan><tspan class="2" x="0" y="180" font-family="GloberThin" font-size="98" font-style="undefined">consectetur </tspan><tspan class="3" x="0" y="270" font-family="GloberThin" font-size="98" font-style="undefined">adipiscing elit. </tspan><tspan class="4" x="0" y="360" font-family="GloberThin" font-size="98" font-style="undefined">Suspendisse </tspan><tspan class="5" x="0" y="450" font-family="GloberThin" font-size="98" font-style="undefined">eu magna sed </tspan><tspan class="6" x="0" y="540" font-family="GloberThin" font-size="98" font-style="undefined">felis vehicula </tspan><tspan class="7" x="0" y="630" font-family="GloberThin" font-size="98" font-style="undefined">tristique sed </tspan><tspan class="8" x="0" y="720" font-family="GloberThin" font-size="98" font-style="undefined">id turpis. Sed </tspan><tspan class="9" x="0" y="810" font-family="GloberThin" font-size="98" font-style="undefined">mattis, libero </tspan><tspan class="10" x="0" y="900" font-family="GloberThin" font-size="98" font-style="undefined">sed volutpat laoreet, nunc ipsum egestas nisl, a ornare ligula massa at sem. Cras semper arcu eu turpis porttitor suscipit. Sed semper tortor a magna ornare porta. Donec hendrerit, tellus vitae ultricies auctor, enim erat auctor arcu, ut varius elit nunc non urna. Quisque sit amet leo ipsum, euismod feugiat ante. Aenean metus est, hendrerit cursus congue nec, accumsan at lectus. Aliquam nulla dui, varius vitae mattis bibendum, dictum hendrerit dui. Nullam enim risus, viverra eget euismod at, lacinia vitae purus. Vestibulum ipsum est, ultricies vitae congue at, ullamcorper vulputate dui. Quisque eget est nec tellus vehicula a </tspan></text>
</g>
<g class="text draggable">
	
	<text id="text_x5F_description" transform="matrix(1 0 0 1 80 694)" class="dynamicText_2" fill="#0f0000" fill-opacity="1"><tspan class="0" x="0" y="0" font-family="GloberBold" font-size="14" font-style="undefined">Juni-August</tspan><tspan class="1" x="0" y="21" font-family="GloberBold" font-size="14" font-style="undefined">Johannes Evangelist Kirche,  </tspan><tspan class="2" x="0" y="42" font-family="GloberBold" font-size="14" font-style="undefined">Augustastr. 4, Berlin-Mitte</tspan><tspan class="3" x="0" y="63" font-family="GloberBold" font-size="14" font-style="undefined"></tspan></text>
</g>
<g id="Logo">
	<polygon fill="#0f0000" points="36.4,807.9 22.6,807.9 22.6,821.9 36.4,821.9 27,814.9 	" fill-opacity="1"></polygon>
	<path fill="#0f0000" d="M50.3,808.1l-3.3,4.3l-3.6-4.6l-3.6,4.7l-3.4-4.6l0,13.9h14.1l0,0l13,0v-13.9l-13.6,0L50.3,808.1z
		 M50.6,821.4l-0.1-6.4l4.4,3.4L50.6,821.4z M50.5,814.7l-0.1-6.4l4.3,3.1L50.5,814.7z" fill-opacity="1"></path>
	<polygon fill="#0f0000" points="74.7,808.8 74.3,808.8 69.8,815.7 69.8,808.8 69.4,808.8 69.4,821.1 69.8,821.1 69.8,816.4 
		70.7,815 74.6,821.1 75,821.1 70.9,814.6 	" fill-opacity="1"></polygon>
	<path fill="#0f0000" d="M81,818.1c0,1.5-0.5,2.8-2.2,2.8c-1.6,0-2.2-1.3-2.2-2.8v-9.2h-0.4v9.2c0,1.7,0.7,3.1,2.5,3.1
		c1.9,0,2.5-1.4,2.5-3.1v-9.2H81V818.1z" fill-opacity="1"></path>
	<polygon fill="#0f0000" points="83.1,808.8 82.8,808.8 82.8,821.1 87.3,821.1 87.3,820.7 83.1,820.7 	" fill-opacity="1"></polygon>
	<polygon fill="#0f0000" points="87.3,809.2 90,809.2 90,821.1 90.4,821.1 90.4,809.2 93.1,809.2 93.1,808.8 87.3,808.8 	" fill-opacity="1"></polygon>
	<path fill="#0f0000" d="M98.8,818.1c0,1.5-0.5,2.8-2.2,2.8s-2.2-1.3-2.2-2.8v-9.2h-0.4v9.2c0,1.7,0.7,3.1,2.5,3.1
		c1.9,0,2.5-1.4,2.5-3.1v-9.2h-0.4V818.1z" fill-opacity="1"></path>
	<path fill="#0f0000" d="M105.5,817.7c0-1.3-0.6-2.2-1.9-2.5c1.3-0.2,1.9-1.1,1.9-2.6v-1.1c0-1.7-0.7-2.8-2.5-2.8h-2.4v12.3h0.4
		v-5.7h1.5c1.6,0,2.7,0.5,2.7,2.3v1.9c0,0.5,0.1,1.1,0.3,1.5h0.4c-0.3-0.4-0.3-1-0.3-1.5V817.7z M101,815v-5.9h2
		c1.6,0,2.2,0.9,2.2,2.4v1.1c0,1.9-1,2.3-2.7,2.3H101z" fill-opacity="1"></path>
	<polygon fill="#0f0000" points="114.3,820.5 112.3,808.9 111.8,808.9 109.7,820.5 107.6,808.8 107.2,808.8 109.4,821.1 
		109.9,821.1 112,809.7 114,821.1 114.5,821.1 116.7,808.8 116.3,808.8 	" fill-opacity="1"></polygon>
	<polygon fill="#0f0000" points="118,821.1 122.7,821.1 122.7,820.7 118.4,820.7 118.4,815 122,815 122,814.7 118.4,814.7 
		118.4,809.2 122.7,809.2 122.7,808.8 118,808.8 	" fill-opacity="1"></polygon>
	<path fill="#0f0000" d="M129,817.7c0-1.3-0.6-2.2-1.9-2.5c1.3-0.2,1.9-1.1,1.9-2.6v-1.1c0-1.7-0.7-2.8-2.5-2.8h-2.4v12.3h0.4v-5.7
		h1.5c1.6,0,2.7,0.5,2.7,2.3v1.9c0,0.5,0.1,1.1,0.3,1.5h0.4c-0.3-0.4-0.3-1-0.3-1.5V817.7z M124.5,815v-5.9h2c1.6,0,2.2,0.9,2.2,2.4
		v1.1c0,1.9-1,2.3-2.7,2.3H124.5z" fill-opacity="1"></path>
	<polygon fill="#0f0000" points="136.1,808.8 135.7,808.8 131.1,815.7 131.1,808.8 130.7,808.8 130.7,821.1 131.1,821.1 
		131.1,816.4 132.1,815 136,821.1 136.4,821.1 132.3,814.6 	" fill-opacity="1"></polygon>
	<path fill="#0f0000" d="M138.1,811.7c0-1.5,0.5-2.7,2.2-2.7c1.6,0,2.1,1.2,2.1,2.7v0.2h0.4v-0.2c0-1.7-0.7-3-2.5-3
		c-1.8,0-2.5,1.2-2.5,3c0,3.4,4.7,3.3,4.7,6.4c0,1.5-0.6,2.7-2.2,2.7s-2.2-1.2-2.2-2.7v-0.6h-0.4v0.6c0,1.7,0.7,3,2.6,3
		c1.9,0,2.6-1.3,2.6-3C142.8,814.8,138.1,814.9,138.1,811.7z" fill-opacity="1"></path>
	<polygon fill="#0f0000" points="143.8,809.2 146.4,809.2 146.4,821.1 146.8,821.1 146.8,809.2 149.5,809.2 149.5,808.8 
		143.8,808.8 	" fill-opacity="1"></polygon>
	<path fill="#0f0000" d="M152.8,808.8l-3,12.3h0.4l0.7-2.9h4.4l0.7,2.9h0.4l-3-12.3H152.8z M151,817.8l2.1-8.6l2.1,8.6H151z" fill-opacity="1"></path>
	<polygon fill="#0f0000" points="156.7,809.2 159.4,809.2 159.4,821.1 159.8,821.1 159.8,809.2 162.4,809.2 162.4,808.8 
		156.7,808.8 	" fill-opacity="1"></polygon>
	<polygon fill="#0f0000" points="163.1,809.2 165.8,809.2 165.8,821.1 166.2,821.1 166.2,809.2 168.9,809.2 168.9,808.8 
		163.1,808.8 	" fill-opacity="1"></polygon>
	<path fill="#0f0000" d="M175.7,814.5c1.4-0.2,1.8-1,1.8-2.4v-0.8c0-1.6-0.6-2.5-2.4-2.5h-2.5v12.3h2.5c1.9,0,2.6-1.1,2.6-2.8v-1.1
		C177.7,815.7,177.2,814.7,175.7,814.5z M173,809.2h2.1c1.5,0,2,0.8,2,2.2v0.8c0,1.8-0.8,2.2-2.5,2.2H173V809.2z M177.3,818.2
		c0,1.5-0.6,2.5-2.2,2.5H173v-6h1.8c1.7,0,2.5,0.6,2.5,2.4V818.2z" fill-opacity="1"></path>
	<polygon fill="#0f0000" points="179.1,821.1 183.7,821.1 183.7,820.7 179.5,820.7 179.5,815 183.1,815 183.1,814.7 179.5,814.7 
		179.5,809.2 183.7,809.2 183.7,808.8 179.1,808.8 	" fill-opacity="1"></polygon>
	<path fill="#0f0000" d="M190.1,817.7c0-1.3-0.6-2.2-1.9-2.5c1.3-0.2,1.9-1.1,1.9-2.6v-1.1c0-1.7-0.7-2.8-2.5-2.8h-2.4v12.3h0.4
		v-5.7h1.5c1.6,0,2.7,0.5,2.7,2.3v1.9c0,0.5,0.1,1.1,0.3,1.5h0.4c-0.3-0.4-0.3-1-0.3-1.5V817.7z M185.5,815v-5.9h2
		c1.6,0,2.2,0.9,2.2,2.4v1.1c0,1.9-1,2.3-2.7,2.3H185.5z" fill-opacity="1"></path>
	<polygon fill="#0f0000" points="192.2,808.8 191.8,808.8 191.8,821.1 196.3,821.1 196.3,820.7 192.2,820.7 	" fill-opacity="1"></polygon>
	<rect x="197.6" y="808.8" fill="#0f0000" width="0.4" height="12.3" fill-opacity="1"></rect>
	<polygon fill="#0f0000" points="204.2,808.8 204.2,820.3 199.9,808.8 199.4,808.8 199.4,821.1 199.8,821.1 199.8,809.4 
		204.1,821.1 204.6,821.1 204.6,808.8 	" fill-opacity="1"></polygon>
</g>
</svg>